<svg width="197" height="133" viewBox="0 0 197 133" fill="none" xmlns="http://www.w3.org/2000/svg">
<path d="M68.7801 21.87C77.5801 22.12 84.0501 26.22 88.3201 33.87C90.2508 37.4164 91.2293 41.4027 91.1601 45.44C91.1223 48.48 90.5362 51.4882 89.4301 54.32C89.3501 54.54 89.2001 54.73 89.1001 54.95C88.8601 55.47 88.6501 55.33 88.3301 54.95C87.0717 53.4432 85.672 52.0602 84.1501 50.82C83.0122 49.9323 81.6683 49.3467 80.2434 49.1177C78.8185 48.8887 77.3589 49.0236 76.0001 49.51C72.1701 50.83 68.5401 52.63 64.8401 54.24C64.5101 54.39 64.1901 54.55 63.8401 54.69C63.5691 54.841 63.252 54.8868 62.9494 54.8185C62.6468 54.7502 62.38 54.5727 62.2001 54.32C61.2478 53.1483 60.0373 52.2127 58.6634 51.5864C57.2894 50.9602 55.7892 50.6602 54.2801 50.71C52.5278 50.8455 50.8238 51.3498 49.2801 52.19L48.8801 52.38C47.6101 52.99 47.4101 52.87 47.1001 51.49C46.6007 49.3154 46.3491 47.0912 46.3501 44.86C46.3683 41.0737 47.3014 37.3479 49.0701 34C51.4348 29.3369 55.3589 25.6499 60.1601 23.58C62.8628 22.3519 65.8133 21.7666 68.7801 21.87V21.87Z" fill="#171D1C"/>
<path d="M54.5501 54C56.8901 53.84 58.6001 55 60.0801 56.61C60.5501 57.14 61.0801 57.61 61.4801 58.23C61.5484 58.3525 61.6417 58.4592 61.7539 58.5433C61.8661 58.6274 61.9948 58.6869 62.1315 58.718C62.2683 58.7492 62.4101 58.7512 62.5476 58.7239C62.6852 58.6967 62.8155 58.6409 62.9301 58.56C67.0901 56.72 71.2567 54.8933 75.4301 53.08C78.8301 51.6 81.2301 52.08 83.8201 54.78C87.9301 59.08 91.9101 63.51 95.8701 67.94C96.0501 68.14 96.2101 68.35 96.3801 68.56C96.4989 68.6747 96.5935 68.8122 96.658 68.9643C96.7226 69.1163 96.7559 69.2798 96.7559 69.445C96.7559 69.6102 96.7226 69.7737 96.658 69.9257C96.5935 70.0778 96.4989 70.2153 96.3801 70.33C96.2582 70.4522 96.1124 70.548 95.9519 70.6116C95.7914 70.6751 95.6196 70.705 95.4471 70.6994C95.2745 70.6938 95.105 70.6527 94.949 70.5789C94.793 70.505 94.6538 70.3999 94.5401 70.27C93.3267 69.2167 92.1467 68.1267 91.0001 67L81.1701 57.4C80.7124 56.8032 80.0473 56.4 79.3065 56.2704C78.5657 56.1407 77.8032 56.2941 77.1701 56.7L63.7701 62.78C61.7001 63.72 60.7101 63.54 59.1701 61.88C58.4001 61.05 57.6501 60.2 56.9101 59.35C56.5054 58.7644 55.8976 58.3501 55.2046 58.1875C54.5117 58.0248 53.783 58.1255 53.1601 58.47C49.6601 59.95 46.1601 61.47 42.6701 62.98C35.3834 66.12 28.0501 69.16 20.6701 72.1C19.7401 72.46 19.1101 72.26 18.7801 71.55C18.6971 71.3731 18.6532 71.1804 18.6514 70.985C18.6496 70.7896 18.69 70.5961 18.7697 70.4177C18.8494 70.2393 18.9666 70.0802 19.1134 69.9511C19.2601 69.8221 19.4329 69.7262 19.6201 69.67C23.4401 67.81 27.2601 65.93 31.1101 64.13C37.6167 61.07 44.1434 58.0367 50.6901 55.03C51.8549 54.3319 53.1923 53.9751 54.5501 54V54Z" fill="#171D1C"/>
<path d="M80.77 78.55C81.672 77.5894 82.8431 76.9236 84.13 76.64C84.9481 76.4466 85.8046 76.4927 86.5972 76.7729C87.3898 77.0531 88.0851 77.5554 88.6 78.22C89.03 78.79 89.28 78.53 89.65 78.22C90.2862 77.5632 91.0785 77.0784 91.9528 76.8108C92.8272 76.5433 93.7552 76.5017 94.65 76.69C95.3572 76.8223 96.0157 77.143 96.556 77.6181C97.0963 78.0933 97.4984 78.7054 97.72 79.39C98.0182 80.2278 98.1704 81.1107 98.17 82C98.17 84.5933 98.17 87.1833 98.17 89.77C98.17 90.77 97.92 91.03 96.92 91.09C94.42 91.26 94.33 91.17 94.33 88.66C94.33 86.84 94.33 85.02 94.33 83.21C94.328 82.7333 94.2811 82.2579 94.19 81.79C93.84 79.97 92.31 79.44 90.87 80.62C90.4544 80.9046 90.1191 81.2916 89.8967 81.7435C89.6742 82.1954 89.572 82.6971 89.6 83.2C89.73 85.42 89.6 87.66 89.65 89.89C89.65 90.71 89.28 91.02 88.55 91.08H88.37C85.94 91.24 85.79 91.08 85.79 88.68C85.79 86.68 85.79 84.68 85.79 82.68C85.79 81.21 85.28 80.26 84.41 80.03C83.8051 79.9769 83.1979 80.1031 82.6644 80.393C82.1308 80.6829 81.6945 81.1236 81.41 81.66C81.2543 82.015 81.1956 82.4049 81.24 82.79C81.24 85.11 81.24 87.43 81.24 89.79C81.24 90.79 81 91.04 79.99 91.1C77.44 91.27 77.31 91.1 77.31 88.6C77.31 85.1667 77.31 81.7433 77.31 78.33C77.31 77.81 77.18 77.16 77.85 76.95C78.2633 76.7796 78.7094 76.7038 79.1558 76.728C79.6022 76.7522 80.0375 76.8759 80.43 77.09C80.84 77.38 80.57 78 80.77 78.55Z" fill="#171D1C"/>
<path d="M43.3501 82.13C43.3501 84.62 43.3501 87.13 43.3501 89.61C43.3501 90.78 43.1201 91.02 41.9701 91.09C39.4901 91.25 39.3301 91.09 39.3301 88.66C39.3301 83.58 39.3301 78.49 39.3301 73.41C39.3301 72.22 39.5301 72.01 40.6901 71.92C43.1201 71.74 43.3501 71.92 43.3501 74.36V80.07C43.6394 79.8923 43.8719 79.6355 44.0201 79.33C45.5301 77.15 47.0201 74.97 48.5401 72.8C49.1601 71.91 51.7801 71.55 52.6301 72.2C52.7107 72.2511 52.7799 72.3185 52.8332 72.3977C52.8865 72.477 52.9227 72.5665 52.9396 72.6605C52.9566 72.7545 52.9538 72.851 52.9315 72.9438C52.9092 73.0367 52.8678 73.1239 52.8101 73.2C52.5375 73.6914 52.2301 74.1626 51.8901 74.61C50.5301 76.42 49.1801 78.23 47.7701 80C47.5568 80.2217 47.4377 80.5174 47.4377 80.825C47.4377 81.1326 47.5568 81.4283 47.7701 81.65C49.3901 84.03 50.9801 86.44 52.5501 88.86C52.9001 89.39 53.4801 89.96 53.1301 90.63C52.7801 91.3 51.9801 91.07 51.3501 91.15C50.7054 91.2597 50.0426 91.1498 49.4678 90.8379C48.893 90.526 48.4396 90.0302 48.1801 89.43C46.7401 86.94 45.1101 84.56 43.5601 82.13H43.3501Z" fill="#171D1C"/>
<path d="M171.94 76.56C173.032 76.5237 174.11 76.8097 175.04 77.3823C175.97 77.955 176.711 78.7889 177.17 79.78C177.779 81.0633 178.089 82.4678 178.077 83.888C178.064 85.3083 177.731 86.7073 177.1 87.98C175.93 90.44 173.1 91.71 169.91 91.39C165.07 90.9 163.82 87.58 163.91 83.67C163.927 83.1663 163.984 82.6647 164.08 82.17C164.74 78.56 167.25 76.56 171.94 76.56ZM174 84C174.027 83.368 173.966 82.7355 173.82 82.12C173.743 81.4613 173.428 80.8534 172.934 80.4099C172.441 79.9664 171.803 79.7176 171.14 79.71C170.453 79.6469 169.767 79.8396 169.214 80.2511C168.66 80.6626 168.278 81.264 168.14 81.94C167.755 83.3237 167.755 84.7863 168.14 86.17C168.267 86.8049 168.62 87.3725 169.132 87.7677C169.645 88.1629 170.284 88.3591 170.93 88.32C171.593 88.342 172.242 88.1309 172.764 87.7233C173.287 87.3158 173.65 86.7378 173.79 86.09C173.973 85.4094 174.044 84.7035 174 84V84Z" fill="#171D1C"/>
<path d="M147.72 89.76C146.954 90.5163 145.991 91.0421 144.941 91.2772C143.891 91.5124 142.795 91.4475 141.78 91.09C140.998 90.8159 140.314 90.3164 139.815 89.6544C139.316 88.9924 139.024 88.1976 138.976 87.37C138.928 86.5423 139.126 85.719 139.545 85.0036C139.963 84.2883 140.585 83.7129 141.33 83.35C142.744 82.7874 144.259 82.5219 145.78 82.57C146.27 82.57 147.07 83.01 147.2 82.03C147.314 81.5622 147.255 81.0691 147.035 80.6411C146.815 80.213 146.447 79.8789 146 79.7C144.866 79.4161 143.671 79.5037 142.59 79.95C142.03 80.15 141.5 80.43 140.95 80.65C140.4 80.87 139.95 80.65 139.76 80.02C139.659 79.7762 139.61 79.514 139.616 79.2502C139.622 78.9864 139.683 78.7267 139.795 78.4877C139.907 78.2488 140.068 78.0358 140.267 77.8623C140.465 77.6888 140.698 77.5586 140.95 77.48C143.153 76.4408 145.66 76.2417 148 76.92C148.765 77.0989 149.454 77.5156 149.968 78.1102C150.482 78.7048 150.794 79.4469 150.86 80.23C151.092 83.558 151.149 86.896 151.03 90.23C151.051 90.3968 151.01 90.5654 150.917 90.7049C150.823 90.8444 150.682 90.9456 150.52 90.99C149.775 91.2002 148.986 91.2002 148.24 90.99C147.73 90.82 147.79 90.32 147.72 89.76ZM147.22 86.18C147.09 85.83 147.5 85.18 146.78 85.07C145.717 84.891 144.625 85.0301 143.64 85.47C143.356 85.6049 143.118 85.8217 142.958 86.0925C142.798 86.3633 142.722 86.6758 142.74 86.99C142.721 87.2761 142.787 87.5615 142.929 87.8105C143.072 88.0594 143.284 88.261 143.54 88.39C143.925 88.559 144.345 88.6333 144.765 88.6067C145.184 88.58 145.591 88.4531 145.952 88.2366C146.312 88.0202 146.615 87.7205 146.836 87.3626C147.057 87.0048 147.188 86.5992 147.22 86.18Z" fill="#171D1C"/>
<path d="M109.54 89.73C108.778 90.4804 107.825 91.0069 106.785 91.2521C105.744 91.4972 104.656 91.4515 103.64 91.12C102.858 90.9128 102.16 90.4656 101.645 89.8414C101.131 89.2172 100.824 88.4473 100.77 87.64C100.63 85.54 101.33 84.19 103.03 83.39C104.46 82.7939 106.002 82.5141 107.55 82.57C108.05 82.57 108.83 83.01 108.98 82.04C109.094 81.5722 109.035 81.0791 108.815 80.6511C108.594 80.223 108.227 79.8889 107.78 79.71C106.525 79.4138 105.208 79.5368 104.03 80.06C103.81 80.14 103.6 80.27 103.38 80.35C102.81 80.54 102.23 81.22 101.67 80.35C101.438 79.9186 101.363 79.4196 101.46 78.9393C101.557 78.459 101.819 78.0277 102.2 77.72C103.434 77.0209 104.809 76.6053 106.223 76.5033C107.638 76.4012 109.058 76.6153 110.38 77.13C111.038 77.3892 111.606 77.8367 112.011 78.4165C112.417 78.9963 112.642 79.6827 112.66 80.39C112.99 83.62 112.75 86.87 112.8 90.11C112.8 90.73 112.43 91.02 111.8 91.04C111.39 91.04 110.97 91.04 110.56 91.04C109.79 91.11 109.48 90.65 109.54 89.73ZM107.72 85C106.965 84.9712 106.212 85.1007 105.51 85.38C105.17 85.5105 104.886 85.7535 104.704 86.0683C104.522 86.3831 104.454 86.7508 104.51 87.11C104.533 87.4699 104.682 87.8101 104.931 88.0715C105.179 88.3328 105.512 88.4986 105.87 88.54C106.431 88.6266 107.005 88.5523 107.525 88.3258C108.046 88.0992 108.491 87.7296 108.81 87.26C108.964 86.9514 109.052 86.6135 109.065 86.2686C109.079 85.9238 109.019 85.5799 108.89 85.26C108.72 84.79 108.1 85.13 107.72 85Z" fill="#171D1C"/>
<path d="M119.54 78.52C120.126 78.0731 120.733 77.6559 121.36 77.27C124.88 75.27 128.54 77.27 128.7 81.27C128.82 84.18 128.7 87.1 128.7 90.02C128.721 90.1685 128.704 90.3199 128.65 90.46C127.89 91.46 126.8 90.98 125.85 91.01C125.18 91.01 124.85 90.61 124.85 89.91C124.85 87.59 124.85 85.26 124.85 82.91C124.884 82.2863 124.786 81.6625 124.56 81.08C124.418 80.7477 124.179 80.4665 123.873 80.2735C123.568 80.0806 123.211 79.9852 122.85 80C122.112 80.0597 121.42 80.3804 120.898 80.9046C120.376 81.4288 120.057 82.1222 120 82.86C120 85.21 120 87.56 120 89.86C120 90.67 119.66 90.98 118.91 91.04C116.38 91.27 116.14 91.04 116.14 88.56V78.25C116.14 77.03 116.37 76.81 117.59 76.76C119.16 76.7 119.39 76.89 119.54 78.52Z" fill="#171D1C"/>
<path d="M46.4901 103.07C47.1954 103.309 47.7955 103.786 48.1877 104.419C48.58 105.052 48.7399 105.802 48.6401 106.54C48.5645 107.327 48.2283 108.066 47.6848 108.64C47.1414 109.215 46.4218 109.591 45.6401 109.71C43.8302 110.045 41.9824 110.126 40.1501 109.95C40.0241 109.954 39.8989 109.929 39.7837 109.878C39.6685 109.827 39.5663 109.75 39.4846 109.654C39.403 109.558 39.344 109.445 39.3121 109.323C39.2801 109.201 39.2761 109.074 39.3001 108.95V98.21C39.3001 97.71 39.5201 97.28 40.0601 97.27C41.7264 97.152 43.3999 97.1855 45.0601 97.37C45.6745 97.4115 46.2613 97.641 46.7407 98.0274C47.2202 98.4138 47.5691 98.9384 47.7401 99.53C47.9655 100.174 47.9645 100.876 47.7373 101.52C47.51 102.163 47.0701 102.71 46.4901 103.07ZM42.0901 106.07C42.0901 107.8 42.0901 107.8 43.2701 107.8C45.0701 107.8 45.7701 107.34 45.7701 106.15C45.7701 104.96 45.0101 104.45 43.1901 104.46C42.0901 104.49 42.0901 104.49 42.0901 106.1V106.07ZM42.0901 100.84C42.0901 102.4 42.0901 102.4 43.0901 102.4C44.5201 102.4 45.0901 101.9 45.0901 100.75C45.0901 99.6 44.4901 99.3 43.0901 99.29C42.0901 99.32 42.0901 99.32 42.0901 100.87V100.84Z" fill="#171D1C"/>
<path d="M136.35 85.59C136.35 87.38 136.35 89.59 136.27 91.84C136.1 94.99 134.44 96.51 131.27 96.28C130.74 96.28 130.13 96.28 129.91 95.62C129.631 94.889 129.649 94.078 129.96 93.36C130.07 93.1 130.35 93.13 130.59 93.12C132.06 93.06 132.37 92.78 132.37 91.32C132.37 87.09 132.37 82.87 132.37 78.64C132.37 77 132.61 76.75 134.28 76.76C134.58 76.76 134.88 76.76 135.17 76.82C135.97 76.88 136.31 77.29 136.3 78.1C136.34 80.45 136.35 82.8 136.35 85.59Z" fill="#171D1C"/>
<path d="M66.5501 80.87C66.5501 83.82 66.5501 86.76 66.5501 89.71C66.5501 90.83 66.3201 91.05 65.2001 91.1C62.7101 91.2 62.6201 91.1 62.6201 88.67C62.6201 83.25 62.6201 77.84 62.6201 72.43C62.6201 70.89 62.8401 70.66 64.3501 70.65C64.53 70.64 64.7103 70.64 64.8901 70.65C66.3401 70.65 66.5401 70.87 66.5501 72.3V80.87Z" fill="#171D1C"/>
<path d="M141.13 110C140.28 110.19 139.76 109.72 139.56 108.78C139.49 108.43 139.32 108.11 139.23 107.78C139.219 107.684 139.189 107.591 139.141 107.506C139.094 107.422 139.03 107.348 138.954 107.288C138.878 107.229 138.79 107.185 138.697 107.16C138.603 107.134 138.506 107.127 138.41 107.14H135C134.807 107.117 134.612 107.172 134.458 107.292C134.305 107.411 134.205 107.587 134.18 107.78C134.11 108.07 133.99 108.34 133.9 108.63C133.47 110 133.32 110.1 131.9 110.02C131.03 110.02 130.84 109.72 131.11 108.9C131.47 107.79 131.85 106.7 132.23 105.61C133.1 103.11 134 100.61 134.83 98.12C134.902 97.8197 135.079 97.5547 135.327 97.3717C135.576 97.1888 135.882 97.0996 136.19 97.12C138.43 97.03 138.44 97.02 139.19 99.12C140.27 102.24 141.353 105.353 142.44 108.46C142.92 109.9 142.81 110 141.13 110ZM136.81 100.23H136.6L135.82 102.6C134.99 105.07 134.99 105.07 137.61 104.88H137.79C138.15 104.88 138.26 104.68 138.15 104.35C137.7 103 137.26 101.64 136.81 100.26V100.23Z" fill="#171D1C"/>
<path d="M76.6902 101.08C76.6902 99.75 76.6902 98.56 76.6902 97.38C76.6902 96.49 76.9702 96.27 78.0102 96.26C79.0502 96.25 79.3602 96.48 79.3702 97.34C79.3702 101.24 79.3702 105.14 79.3702 109.03C79.3702 109.51 79.2702 110.03 78.6802 110.03C78.0902 110.03 77.3502 110.35 77.0802 109.51C76.9102 108.97 76.7102 109.22 76.4602 109.38C73.5702 111.14 71.1002 110.03 70.4602 106.67C70.2389 105.435 70.3212 104.166 70.7002 102.97C70.83 102.408 71.0956 101.887 71.4739 101.452C71.8521 101.018 72.3313 100.682 72.8695 100.476C73.4076 100.269 73.9882 100.198 74.5602 100.269C75.1323 100.339 75.6782 100.549 76.1502 100.88L76.6902 101.08ZM76.6902 105.29C76.721 104.891 76.721 104.489 76.6902 104.09C76.6226 103.706 76.4371 103.352 76.1593 103.078C75.8816 102.804 75.5254 102.623 75.1402 102.56C74.8386 102.454 74.5078 102.467 74.2158 102.597C73.9238 102.727 73.6927 102.965 73.5702 103.26C73.2912 103.853 73.1466 104.5 73.1466 105.155C73.1466 105.81 73.2912 106.457 73.5702 107.05C73.6457 107.248 73.766 107.426 73.9219 107.57C74.0777 107.713 74.2648 107.819 74.4683 107.878C74.6719 107.937 74.8863 107.948 75.0949 107.91C75.3034 107.873 75.5004 107.787 75.6702 107.66C76.0816 107.437 76.4054 107.082 76.5888 106.651C76.7722 106.221 76.8045 105.741 76.6802 105.29H76.6902Z" fill="#171D1C"/>
<path d="M157.9 78.49C158.38 78.04 158.77 77.64 159.19 77.27C159.557 76.9616 159.992 76.7455 160.46 76.64C162.18 76.21 163.01 76.84 163.01 78.64C163.025 78.9065 163.025 79.1736 163.01 79.44C162.92 80.44 162.69 80.62 161.71 80.37C161.318 80.3066 160.918 80.3248 160.534 80.4234C160.149 80.522 159.79 80.6989 159.477 80.943C159.165 81.1871 158.906 81.4931 158.717 81.8419C158.528 82.1907 158.413 82.5748 158.38 82.97C158.38 85.23 158.38 87.49 158.38 89.75C158.38 90.87 158.14 91.1 157.02 91.15C154.54 91.26 154.45 91.15 154.45 88.72C154.45 85.28 154.45 81.83 154.45 78.38C154.45 77.86 154.32 77.22 154.98 77C155.392 76.8266 155.837 76.7474 156.283 76.7681C156.73 76.7889 157.166 76.9091 157.56 77.12C158 77.36 157.74 78 157.9 78.49Z" fill="#171D1C"/>
<path d="M73.8401 84C73.8401 85.93 73.8401 87.86 73.8401 89.79C73.8401 90.79 73.5902 91.04 72.5802 91.1C70.0402 91.26 69.9102 91.1 69.9102 88.61C69.9102 85.19 69.9102 81.78 69.9102 78.36C69.9102 77.13 70.1002 76.91 71.3102 76.79C71.5764 76.7699 71.8439 76.7699 72.1102 76.79C73.6202 76.79 73.8302 77.07 73.8302 78.59C73.8502 80.37 73.8401 82.18 73.8401 84Z" fill="#171D1C"/>
<path d="M62.6398 101.38C63.3416 100.783 64.1914 100.385 65.0998 100.23C65.4892 100.167 65.8872 100.182 66.2709 100.273C66.6547 100.364 67.0167 100.53 67.3362 100.762C67.6557 100.993 67.9265 101.285 68.133 101.621C68.3395 101.957 68.4778 102.33 68.5398 102.72C68.7598 104.91 68.81 107.113 68.6898 109.31C68.7022 109.43 68.6747 109.551 68.6114 109.654C68.5481 109.757 68.4527 109.837 68.3398 109.88C67.7268 110.125 67.0428 110.125 66.4298 109.88C65.8698 109.66 66.0298 109.07 66.0198 108.62C66.0198 107.14 66.0198 105.62 66.0198 104.16C66.0198 103.16 65.4998 102.54 64.7398 102.54C64.2835 102.592 63.8564 102.791 63.5228 103.106C63.1891 103.422 62.967 103.837 62.8898 104.29C62.8898 105.83 62.8898 107.38 62.8898 108.92C62.8898 109.92 62.7098 110.03 61.5198 110.02C60.3298 110.01 60.2798 109.89 60.2798 108.9C60.2798 106.493 60.2798 104.087 60.2798 101.68C60.2798 101.09 60.1698 100.46 61.0498 100.34C61.9298 100.22 62.3198 100.44 62.6398 101.38Z" fill="#171D1C"/>
<path d="M178.06 106.17C178.06 107.06 178.06 107.96 178.06 108.85C178.06 109.24 178.21 109.76 177.69 109.93C177.17 110.1 176.48 110.24 176.08 109.82C175.68 109.4 175.42 109.55 175.08 109.74C174.567 110.015 173.999 110.172 173.417 110.198C172.836 110.224 172.256 110.119 171.72 109.89C171.229 109.678 170.808 109.331 170.506 108.889C170.205 108.447 170.035 107.929 170.017 107.394C169.999 106.859 170.134 106.33 170.405 105.869C170.677 105.408 171.074 105.034 171.55 104.79C172.48 104.385 173.486 104.187 174.5 104.21C174.9 104.21 175.5 104.4 175.5 103.68C175.5 102.96 175.31 102.44 174.5 102.34C173.611 102.233 172.71 102.378 171.9 102.76C171.5 102.94 171.05 103.36 170.66 102.76C170.492 102.476 170.433 102.14 170.496 101.815C170.559 101.491 170.738 101.201 171 101C171.431 100.737 171.905 100.551 172.4 100.45C173.469 100.171 174.588 100.14 175.67 100.36C176.361 100.443 176.995 100.788 177.439 101.324C177.884 101.859 178.106 102.545 178.06 103.24C178.06 104.24 178.06 105.24 178.06 106.18V106.17ZM174.77 105.94C173.4 105.94 172.58 106.41 172.59 107.2C172.6 107.99 173.1 108.2 173.76 108.28C174.188 108.292 174.605 108.138 174.923 107.852C175.241 107.565 175.437 107.167 175.47 106.74C175.49 106.19 175.33 105.86 174.77 105.94Z" fill="#171D1C"/>
<path d="M110.51 105.25V108.91C110.51 109.4 110.51 109.91 109.87 109.99C109.23 110.07 108.55 110.31 108.24 109.51C108.04 108.98 107.83 109.15 107.54 109.36C107.022 109.77 106.41 110.044 105.76 110.16C105.343 110.251 104.911 110.252 104.493 110.163C104.075 110.074 103.681 109.896 103.338 109.643C102.994 109.389 102.708 109.065 102.5 108.692C102.292 108.319 102.166 107.906 102.13 107.48C101.967 105.344 101.933 103.2 102.03 101.06C102.017 100.941 102.043 100.821 102.104 100.718C102.166 100.615 102.259 100.535 102.37 100.49C102.674 100.363 103.001 100.298 103.33 100.298C103.66 100.298 103.986 100.363 104.29 100.49C104.83 100.71 104.63 101.26 104.63 101.68C104.63 103.05 104.63 104.41 104.63 105.78C104.63 107.15 105.09 107.78 106.01 107.78C106.526 107.728 107.004 107.484 107.35 107.098C107.696 106.711 107.885 106.209 107.88 105.69C107.88 104.24 107.88 102.78 107.88 101.32C107.88 100.4 108.41 100.32 109.09 100.32C109.77 100.32 110.53 100.26 110.53 101.32C110.53 102.63 110.53 103.94 110.53 105.25H110.51Z" fill="#171D1C"/>
<path d="M55.4002 84C55.4002 82 55.4002 80 55.4002 78C55.3665 77.8463 55.3695 77.6867 55.409 77.5344C55.4486 77.382 55.5236 77.2411 55.6278 77.1232C55.7321 77.0053 55.8627 76.9137 56.0091 76.8558C56.1555 76.7979 56.3135 76.7753 56.4702 76.79C56.6702 76.79 56.8802 76.79 57.0902 76.73C59.0102 76.66 59.2502 76.9 59.2602 78.79C59.2602 82.41 59.2602 86.04 59.2602 89.66C59.2602 90.79 59.0402 91.01 57.9202 91.07C55.5202 91.18 55.4202 91.07 55.4202 88.7L55.4002 84Z" fill="#171D1C"/>
<path d="M91.2402 104.72V108.64C91.2402 109.92 91.1201 110.03 89.8801 110.03C88.6401 110.03 88.4802 109.89 88.4802 108.59C88.4802 105.91 88.4802 103.24 88.4802 100.59C88.4802 99.71 88.1902 99.41 87.3502 99.5C86.9102 99.5 86.4601 99.5 86.0201 99.5C85.1801 99.56 84.9102 99.11 84.9102 98.37C84.9102 97.63 85.1602 97.22 86.0102 97.24C88.6002 97.24 91.1801 97.24 93.7701 97.24C94.5901 97.24 94.7701 97.64 94.7701 98.34C94.7701 99.04 94.6201 99.53 93.7701 99.5C93.2101 99.5 92.6402 99.5 92.0802 99.5C91.5202 99.5 91.1801 99.71 91.2001 100.37C91.2601 101.81 91.2402 103.26 91.2402 104.72Z" fill="#171D1C"/>
<path d="M144.51 106.28C144.51 105.36 144.51 104.43 144.51 103.51C144.51 102.99 144.4 102.66 143.79 102.64C143.18 102.62 143 102.02 143 101.48C143 100.94 143.13 100.39 143.9 100.48C144.37 100.48 144.52 100.24 144.5 99.82C144.5 99.61 144.5 99.4 144.5 99.19C144.59 96.67 146.36 95.85 148.57 96.31C148.762 96.3774 148.937 96.4867 149.081 96.6301C149.226 96.7734 149.337 96.9472 149.406 97.1388C149.475 97.3303 149.5 97.5348 149.48 97.7374C149.46 97.94 149.395 98.1356 149.29 98.31C149.05 98.69 148.71 98.51 148.41 98.49C147.41 98.43 147.17 98.67 147.1 99.6C147.04 100.28 147.25 100.6 147.98 100.54C148.71 100.48 149.06 100.81 149.06 101.54C149.06 102.27 148.82 102.77 147.99 102.71C147.16 102.65 147.07 103 147.08 103.71C147.08 105.5 147.08 107.28 147.08 109.06C147.08 110 146.89 110.13 145.76 110.13C144.63 110.13 144.49 110.01 144.48 109.05C144.47 108.09 144.51 107.17 144.51 106.28Z" fill="#171D1C"/>
<path d="M115.26 110.2C114.46 110.214 113.665 110.057 112.93 109.74C112.729 109.677 112.554 109.552 112.428 109.383C112.302 109.215 112.233 109.01 112.23 108.8C112.23 108.39 112.08 107.92 112.43 107.61C112.78 107.3 113.16 107.67 113.49 107.82C114.032 108.07 114.624 108.19 115.22 108.17C115.71 108.17 116.22 108.07 116.33 107.48C116.44 106.89 116.07 106.61 115.6 106.41C115.13 106.21 114.45 105.93 113.89 105.66C113.36 105.445 112.913 105.063 112.618 104.573C112.322 104.083 112.193 103.51 112.25 102.94C112.29 102.339 112.525 101.767 112.918 101.311C113.311 100.855 113.842 100.539 114.43 100.41C115.493 100.091 116.631 100.13 117.67 100.52C117.946 100.595 118.186 100.766 118.345 101.003C118.505 101.24 118.574 101.526 118.54 101.81C118.54 102.65 118.3 102.81 117.54 102.48C117.078 102.271 116.578 102.158 116.07 102.15C115.56 102.15 115 102.15 114.87 102.81C114.74 103.47 115.21 103.65 115.65 103.81C116.09 103.97 116.32 104.07 116.65 104.2C118.4 104.88 119.21 105.93 119.06 107.32C118.89 108.87 117.88 109.79 116.06 110.09C115.796 110.142 115.529 110.179 115.26 110.2V110.2Z" fill="#171D1C"/>
<path d="M123.81 110.19C123.434 110.227 123.054 110.18 122.697 110.053C122.341 109.926 122.017 109.722 121.749 109.456C121.48 109.189 121.274 108.867 121.145 108.512C121.015 108.156 120.966 107.777 121 107.4C121 106.12 121 104.84 121 103.56C121 103.01 120.89 102.66 120.24 102.63C119.59 102.6 119.56 102.01 119.56 101.49C119.56 100.97 119.56 100.49 120.16 100.49C121.04 100.49 121 99.99 120.99 99.39C120.99 98.22 121.15 98.06 122.31 98.04C123.47 98.02 123.64 98.27 123.58 99.27C123.52 100.27 123.8 100.61 124.77 100.46C125.51 100.35 125.88 100.69 125.88 101.46C125.88 102.23 125.64 102.69 124.74 102.64C123.84 102.59 123.52 102.92 123.58 103.82C123.64 104.72 123.58 105.82 123.58 106.82C123.58 107.64 124.04 108 124.77 107.82C125.2 107.74 125.69 107.47 125.77 108.19C125.85 108.91 125.95 109.53 125.18 109.88C124.754 110.09 124.285 110.197 123.81 110.19V110.19Z" fill="#171D1C"/>
<path d="M164.46 105.36C164.46 105.46 164.46 105.82 164.58 106.17C164.91 107.84 166.12 108.36 167.64 107.56C168.01 107.37 168.33 106.62 168.9 107.21C169.072 107.572 169.132 107.976 169.071 108.372C169.01 108.768 168.832 109.137 168.56 109.43C166.66 110.94 163.29 110.24 162.32 108.06C161.894 107.151 161.686 106.156 161.712 105.152C161.738 104.149 161.998 103.166 162.47 102.28C163.058 101.301 164.009 100.594 165.115 100.312C166.221 100.029 167.394 100.194 168.38 100.77C168.69 101.022 168.909 101.369 169.001 101.758C169.093 102.147 169.054 102.556 168.89 102.92C168.867 102.976 168.833 103.026 168.79 103.069C168.747 103.111 168.696 103.144 168.64 103.165C168.584 103.187 168.523 103.196 168.463 103.194C168.403 103.191 168.344 103.176 168.29 103.15C168.188 103.11 168.091 103.06 168 103C166.24 101.77 164.45 102.44 164.46 105.36Z" fill="#171D1C"/>
<path d="M53.0001 103.14C53.0001 105.07 53.0001 107 53.0001 108.93C53.0001 109.93 52.8401 110.03 51.7301 110.03C50.6201 110.03 50.3901 109.91 50.3901 108.91C50.3901 105.05 50.3901 101.18 50.3901 97.32C50.3901 96.39 50.6601 96.19 51.7601 96.2C52.8601 96.21 53.0001 96.39 53.0001 97.35V103.14Z" fill="#171D1C"/>
<path d="M97.3299 101.43C97.5911 101.029 97.9556 100.706 98.385 100.495C98.8144 100.283 99.2929 100.192 99.7699 100.23C100.62 100.35 100.77 100.83 100.69 102.1C100.6 102.89 100.18 102.85 99.5599 102.75C99.308 102.735 99.0556 102.772 98.8186 102.859C98.5817 102.946 98.3653 103.081 98.1831 103.256C98.0009 103.43 97.8568 103.641 97.7599 103.874C97.663 104.107 97.6153 104.358 97.6199 104.61C97.6199 106.01 97.6199 107.41 97.6199 108.81C97.6199 109.89 97.4099 110.04 96.1599 110.03C95.0699 110.03 94.9199 109.88 94.9199 108.8C94.9199 106.42 94.9199 104.04 94.9199 101.66C94.9199 101.05 94.9199 100.41 95.7299 100.35C96.5399 100.29 97.1999 100.29 97.3299 101.43Z" fill="#171D1C"/>
<path d="M153 106.83C153 107.55 153 108.26 153 108.97C153 109.89 152.74 110.03 151.56 110.04C150.82 110.04 150.28 109.92 150.29 108.98C150.29 106.45 150.29 103.98 150.29 101.4C150.29 100.98 150.29 100.53 150.84 100.4C151.39 100.27 152.17 100.09 152.52 100.76C152.87 101.43 152.96 101.12 153.27 100.85C153.508 100.626 153.786 100.449 154.09 100.33C154.367 100.18 154.684 100.119 154.997 100.155C155.31 100.191 155.604 100.322 155.84 100.53C156.024 100.827 156.132 101.166 156.153 101.515C156.174 101.864 156.108 102.213 155.96 102.53C155.86 102.9 155.54 102.85 155.22 102.81C154.945 102.754 154.66 102.761 154.388 102.83C154.116 102.9 153.863 103.031 153.649 103.214C153.435 103.396 153.266 103.624 153.153 103.882C153.041 104.139 152.988 104.419 153 104.7C153 105.42 153 106.13 153 106.84V106.83Z" fill="#171D1C"/>
<path d="M57.9999 105.16C57.9999 106.43 57.9999 107.71 57.9999 108.99C57.9999 109.9 57.7499 109.99 56.5599 110.04C55.8199 110.04 55.2899 109.92 55.2999 108.98C55.2999 106.46 55.2999 103.98 55.2999 101.42C55.2999 100.55 55.5999 100.34 56.6499 100.33C57.6999 100.32 57.9799 100.55 57.9999 101.42C57.9999 102.67 57.9999 103.91 57.9999 105.16Z" fill="#171D1C"/>
<path d="M160 105.2C160 106.44 160 107.69 160 108.94C160 109.94 159.82 110.03 158.72 110.03C157.62 110.03 157.39 109.92 157.39 109.03C157.39 106.51 157.39 104.03 157.39 101.46C157.39 100.58 157.67 100.37 158.71 100.37C159.75 100.37 160 100.59 160 101.49C160 102.7 160 104 160 105.2Z" fill="#171D1C"/>
<path d="M59.4902 73.13C59.4902 74.53 58.8602 75.13 57.3602 75.13C55.8602 75.13 55.0702 74.54 55.0902 73.13C55.1102 71.72 55.7902 71.07 57.3702 71.13C58.9502 71.19 59.4902 71.61 59.4902 73.13Z" fill="#171D1C"/>
<path d="M69.6899 73.12C69.6899 71.64 70.3099 71.05 71.8399 71.04C73.3699 71.03 74.0899 71.61 74.0799 73.1C74.0699 74.59 73.4299 75.1 71.7899 75.1C70.1499 75.1 69.6999 74.56 69.6899 73.12Z" fill="#171D1C"/>
<path d="M134.32 75.07C132.78 75.07 132.23 74.61 132.2 73.23C132.2 71.66 132.77 71.06 134.41 71.04C136.05 71.02 136.57 71.61 136.59 72.99C136.62 74.54 136.07 75 134.32 75.07Z" fill="#171D1C"/>
<path d="M56.5302 99.31C55.5302 99.31 55.0702 98.89 55.0802 97.94C55.0902 96.99 55.5802 96.55 56.6502 96.56C57.7202 96.57 58.1202 97 58.1002 98C58.0802 99 57.6402 99.32 56.5302 99.31Z" fill="#171D1C"/>
<path d="M158.63 99.31C157.63 99.31 157.2 98.93 157.2 97.95C157.2 96.97 157.66 96.56 158.74 96.56C159.82 96.56 160.18 96.98 160.17 97.95C160.16 98.92 159.72 99.33 158.63 99.31Z" fill="#171D1C"/>
</svg>
