<svg width="197" height="117" viewBox="0 0 197 117" fill="none" xmlns="http://www.w3.org/2000/svg">
<path d="M131.59 48.52C131.78 48.22 131.89 48.04 132.02 47.87C134.2 45.01 136.39 42.16 138.56 39.29C138.674 39.116 138.832 38.9754 139.018 38.8823C139.205 38.7892 139.412 38.747 139.62 38.76C146.42 38.76 153.21 38.76 160.01 38.76C161.909 38.8212 163.791 39.1305 165.61 39.68C168.546 40.4248 171.312 41.7248 173.76 43.51C175.707 44.9088 177.325 46.715 178.503 48.8029C179.681 50.8909 180.39 53.2103 180.58 55.6C180.921 58.3362 180.717 61.1129 179.98 63.77C178.893 67.3136 176.655 70.393 173.62 72.52C168.933 75.6767 163.421 77.3843 157.77 77.43C149.35 77.43 140.93 77.43 132.51 77.43H131.64C131.47 76.85 131.42 56.43 131.56 55.24C132.09 55.1 141.34 55.06 142.4 55.24V67.4C142.74 67.4 142.98 67.4 143.22 67.4C148.37 67.4 153.52 67.4 158.66 67.4C161.323 67.3751 163.903 66.4717 166 64.83C166.995 64.065 167.789 63.0685 168.312 61.927C168.835 60.7854 169.071 59.5335 169 58.28C169.016 56.8518 168.726 55.4368 168.15 54.13C167.243 52.1801 165.626 50.6495 163.63 49.85C161.85 49.0848 159.937 48.6803 158 48.66C153.15 48.66 148.31 48.59 143.46 48.56H132.46L131.59 48.52Z" fill="#171D1C"/>
<path d="M88.05 67.53V77.38H76.27V57.66H77.33L110.22 57.54C111.472 57.5539 112.701 57.2067 113.76 56.54C114.362 56.1351 114.85 55.5819 115.176 54.9336C115.502 54.2854 115.655 53.564 115.621 52.8392C115.586 52.1145 115.366 51.4108 114.981 50.796C114.595 50.1813 114.058 49.6764 113.42 49.33C112.543 48.8967 111.578 48.6709 110.6 48.67L85.5 48.5L77.19 48.43H76.34C76.53 48.15 76.64 47.97 76.77 47.8C79.06 44.97 81.36 42.14 83.64 39.29C83.7535 39.1323 83.9041 39.0051 84.0786 38.9196C84.253 38.8341 84.4459 38.793 84.64 38.8C93.15 38.8 101.64 38.8 110.19 38.8C114.314 38.7621 118.365 39.896 121.87 42.07C123.644 43.1432 125.114 44.6517 126.142 46.4525C127.169 48.2534 127.719 50.2868 127.74 52.36C127.884 54.5373 127.507 56.7175 126.64 58.72C125.265 61.5775 122.908 63.8453 120 65.11C117.624 66.2387 115.075 66.9588 112.46 67.24C110.9 67.4186 109.331 67.512 107.76 67.52C101.52 67.52 95.27 67.52 89.03 67.52L88.05 67.53Z" fill="#171D1C"/>
<path d="M70.87 77.43H55.75C55.5175 77.4379 55.2859 77.3966 55.0705 77.3087C54.855 77.2208 54.6606 77.0883 54.5 76.92L38.58 61.6C37.4733 60.5333 36.3533 59.4667 35.22 58.4C35.014 58.22 34.7969 58.053 34.57 57.9L34.68 57.7C34.93 57.7 35.19 57.7 35.45 57.7H50.13C51.2814 57.7174 52.4254 57.5137 53.5 57.1C54.4083 56.8194 55.1869 56.2244 55.6963 55.4218C56.2058 54.6192 56.4127 53.6613 56.28 52.72C56.2469 52.1015 56.057 51.5016 55.7281 50.9768C55.3992 50.452 54.9422 50.0195 54.4 49.72C53.2146 49.0575 51.8779 48.713 50.52 48.72H16C16.15 48.47 16.22 48.32 16.32 48.19C18.71 45.19 21.11 42.19 23.48 39.14C23.5936 38.9885 23.7479 38.8723 23.9249 38.805C24.1019 38.7378 24.2944 38.7221 24.48 38.76H41.12C44.49 38.76 47.86 38.71 51.23 38.76C54.5937 38.8494 57.9095 39.5791 61 40.91C62.684 41.6186 64.2204 42.6361 65.53 43.91C67.2794 45.6511 68.3923 47.9299 68.69 50.38C69.1995 53.3517 68.6152 56.4073 67.0451 58.9813C65.4749 61.5552 63.0254 63.4732 60.15 64.38L58.73 64.87L70.94 77.27L70.87 77.43Z" fill="#171D1C"/>
</svg>
