<?xml version="1.0" encoding="UTF-8"?>
<svg id="Layer_2" data-name="Layer 2" xmlns="http://www.w3.org/2000/svg" width="140" height="" viewBox="0 0 127.2 69.99">
  <defs>
    <style>
      .cls-1 {
        fill: #171d1c;
        stroke-width: 0px;
      }
    </style>
  </defs>
  <g id="Layer_1-2" data-name="Layer 1">
    <g id="Group_56" data-name="Group 56">
      <path id="Path_1" data-name="Path 1" class="cls-1" d="M13.25,21.81c0-.67-.23-1.32-.64-1.85-.59-.4-1.28-.61-1.98-.6-.23,0-.46.05-.69.05-1.01-.08-2.03-.06-3.05.05-.14,3.18.05,5.3,0,7.89,1.35.18,2.71.18,4.06,0,.64-.02,1.24-.3,1.66-.79.2-.26.37-.53.51-.83.17-.34.2-.74.09-1.11,0-.6.05-1.39.05-2.08v-.74ZM6.74,8.61c.05.17.05.34,0,.51.14,1.58.14,3.17,0,4.75,1.21.09,2.43.09,3.64,0,.73-.23,1.41-.6,1.98-1.11.1-.81.13-1.63.09-2.45,0-.32.05-.51.05-.83.01-.42,0-.83-.05-1.25-.05-.55-.28-1.06-.32-1.61-.97-1.25-3.51-.83-5.4-.69.05.89.05,1.78,0,2.68M3.93,4.55c0-.14.05-.28.05-.41,0-.11.02-.22.05-.32-.05-.23.09-.37.46-.37h1.15c1.43,0,3,0,4.48.14.99.09,1.95.34,2.86.74.06.06.15.09.23.09.63.69,1.19,1.45,1.66,2.26v-.05s.05.09.05.14c0,.08.02.16.05.23.01.07.04.13.09.18h-.05c.22.81.34,1.65.37,2.49,0,.54-.05,1.08-.14,1.62-.24,1.22-.72,2.39-1.43,3.41-.08.08-.14.17-.18.28h.05l-.19.18c-.26.33-.57.61-.92.83-.14.14-.18.18-.23.18t-.05,0c-.42.14-.85.2-1.29.18h-3.69c-1.11,0-2.17-.05-3.41-.05V6.21c0-.51,0-.88.05-1.38v-.28ZM15.88,24.16c-.01.35-.07.69-.18,1.02l-.42,1.29c0,.12-.05.24-.14.32-.05.23-.16.43-.32.6h.05c-.09.09-.14.14-.14.18l.05-.05-.18.23c-.21.26-.48.47-.79.6l-.28.18-.28.09-.18.09s-.14.05-.18.05c-.54.17-1.1.29-1.66.37-1.21.17-2.43.25-3.64.23h-2.58c-.19,0-.23-.05-.37-.05-.12.03-.26.01-.37-.05h-.37v-.78s.05-.09.05-.23v-2.08c0-1.29,0-2.58-.05-3.88-.05-.88-.05-1.75-.05-2.68s0-1.75.05-2.63h7.15c.14,0,.18-.05.32-.05.3-.05.61-.09.92-.09.14,0,.18,0,.23.05.43.12.82.36,1.11.69v-.05l.18.14.14.14c.05.09.09.14.18.14l.09.14.14.14h-.05c.23.32.46.79.69,1.11,0,.09,0,.14.05.18.05.14.14.23.14.28.15.26.26.54.32.83,0,.05.01.1.05.14,0,.14.05.09.05.23s0,.23.05.28c0,.18.05.18.05.23,0,.18,0,.32.05.37,0,.1.03.2.09.28,0,.14,0,.23.05.28v-.05c.05.51.05,1.02.05,1.52,0,.14,0,.18-.05.23M16.53,22.04s-.05-.14-.05-.28c-.05-.05-.05-.14-.05-.28-.05-.05-.05-.09-.05-.18,0-.05-.05-.09-.05-.14l-.14-.55c-.08-.48-.24-.95-.46-1.39l-.28-.37h.05c-.16-.17-.29-.38-.37-.6l-.42-.42-.18-.23-.14-.18h.05c-.31-.4-.73-.72-1.2-.92-.05,0-.14-.09-.18-.09.5-.34.92-.8,1.2-1.34h-.05l.42-.46c.27-.3.46-.67.55-1.06.57-1.32.84-2.76.79-4.2-.11-.96-.31-1.9-.6-2.81t-.05-.05c-.02-.07-.04-.15-.05-.23-.45-.79-.99-1.52-1.61-2.17l-.28-.28c-1.15-.58-2.41-.9-3.69-.92-.14,0-.32-.05-.46-.05-.84-.1-1.69-.13-2.54-.09-.32,0-.55.05-.88.05-.29.04-.58.05-.88.05h-.28c-.2.05-.4.08-.6.09h-.46c-.13.19-.18.42-.14.65v.32s-.05.09-.05.14c0,.41-.09,1.01-.09,1.43-.05.41-.09.92-.09,1.29v.88c0,.32.05.65.05.97s-.05.6-.05.92v.92c0,.32.05.51.05.83,0,.51.05,2.12.05,2.63-.1,1.26-.13,2.52-.09,3.78,0,1.11,0,2.68.05,3.78.05,1.43.05,2.82.05,4.29v2.58s-.05.09-.05.14c-.06.27-.08.55-.05.83.05.05.05.09.05.18-.05.1,0,.22.1.26.01,0,.03.01.04.01.15.13.35.2.55.18h.41c.23,0,.46,0,.69.05h1.06c.6-.05,1.2-.05,1.75-.05,1.49.04,2.97-.1,4.43-.41l.83-.23c.23-.05.32-.09.23-.09.04,0,.07-.02.09-.05t.05-.05c.11,0,.21-.06.28-.14v.05c.69-.27,1.27-.77,1.61-1.43h-.05l.14-.23.14-.18c.14-.23.14-.51.28-.74l.14-.32c.14-.42.23-.83.37-1.43.05-.05.05-.14.05-.32.15-.76.17-1.54.05-2.31v-.04ZM1.53,32.75c-.18-.05-.32-.18-.55-.23.14-2.17-.09-4.2.05-6.55,0-.55-.05-1.11-.05-1.71,0-.97-.09-1.85-.05-2.91.14-2.77.14-5.63.14-8.77,0-2.03-.05-4.11-.05-6.14.1-2,.08-4-.05-6,1.34-.14,3.79-.05,5.68-.05.88.05,1.66-.09,2.54-.09,1.86-.12,3.71.28,5.35,1.15.47.26.91.55,1.34.88.21.22.4.47.55.74.39.53.71,1.1.97,1.71l.42.97c.19.91.33,1.84.41,2.77.21,1.48.03,2.99-.51,4.38-.35,1.23-1.02,2.34-1.94,3.23l1.11.97c.39.28.74.62,1.01,1.02.14.27.26.55.37.83.22.4.4.82.55,1.25l.09.88.09.97c0,.55.14,1.06.14,1.61l-.14.79c0,.25-.05.5-.14.74-.07,1-.33,1.97-.79,2.86-.26.77-.64,1.5-1.11,2.17-.48.52-1.02.99-1.61,1.39-.18.42-.65.46-1.15.6-.37.32-.88.28-1.38.41-.6.1-1.2.14-1.8.14-1.21-.07-2.43-.07-3.64,0-.42,0-.83.05-1.34.05-.97.05-1.98,0-2.95-.05-.52.07-1.05.07-1.57,0"/>
      <path id="Path_2" data-name="Path 2" class="cls-1" d="M23.76,22.23v2.86c0,.23-.05.46-.05.69.14,1.47.18,2.95.14,4.43v.88h.05v.05c.06.06.15.09.23.09h.05c.14-.05.18-.18.14-.51v-.88c.05-1.34,0-2.68-.14-4.01,0-.18.05-.42.05-.6v-4.89c-.09-1.71-.14-3.41-.14-5.12,0-.37,0-.74-.05-1.11,0-.78.05-1.52.05-2.26,0-.6.05-1.2.05-1.75,0-1.11,0-2.17.05-3.23v-3.69c0-.32.09-.55-.05-.79h-.23c-.32.14-.18.41-.18.74-.05.05-.05.14-.05.28,0,.31,0,.62.05.92v.46c0,.55-.05,1.2-.05,1.89,0,1.25-.05,2.59-.05,3.65,0,1.15,0,2.26-.05,3.37v2.54c0,.92.05,1.8.09,2.77,0,.37.05.74.05,1.15.05.69.05,1.39.05,2.08M21.13,8.8c0-2.95.05-5.58,0-8.03.18,0,.18-.14.23-.28,1.24-.14,2.49-.2,3.74-.18.55-.06,1.1,0,1.61.18.18,2.03.09,4.11.09,6.32.05,1.62.05,3.28.05,5.08-.07.6-.07,1.2,0,1.8.05.14.14.09.14.23.02.25.02.49,0,.74v.6c0,.51.05.97.05,1.39-.05.16-.08.34-.09.51-.05.51,0,1.2,0,1.52,0,1.98-.23,4.15-.09,6.32l.18,1.94c.09,1.98.09,3.92,0,5.86-.41.32-.92.23-1.48.28-.96.15-1.94.17-2.91.05-.51-.05-1.02.05-1.34-.28-.18-2.95-.09-5.63-.05-8.21.05-2.4-.09-5.26-.14-8.03,0-2.77.05-5.58,0-7.8"/>
      <path id="Path_3" data-name="Path 3" class="cls-1" d="M44.38,29.75l-.14-.55c-.05-.19-.11-.37-.18-.55-.05-.19-.13-.38-.23-.55-.69-1.15-.05-2.45-.18-3.69v-2.72c.05-1.15.05-2.26.05-3.32v-.37l-.05-.05c-.24-.18-.53-.26-.83-.23h-.51c-.21.04-.43.05-.65.05-.26.05-.53.05-.79,0-.26-.01-.53-.04-.79-.09-.42-.05-1.15-.14-1.15.28,0,.32.69.28,1.11.28h.83c.26-.03.53-.02.79.05.35.04.71.05,1.06.05h.42c.05,1.11,0,2.45-.05,3.6v1.11c-.04.31-.05.61-.05.92,0,.32.05.46.05.79-.14,1.38.23,2.86-1.02,3.74l-.42.42-.42.37c-.31.22-.65.4-1.02.51-.95.32-1.96.41-2.95.28-.26,0-.53-.04-.79-.09-.14,0-.23,0-.28-.05l-.92-.14c-.3-.09-.59-.2-.88-.32-.25-.08-.47-.22-.65-.41-.19-.11-.38-.23-.55-.37l-.42-.46c-.51-.69-.74-1.55-.65-2.4-.04-.24-.05-.49-.05-.74v-.74c0-.32,0-.65-.05-.97-.02-.32-.02-.65,0-.97-.05-1.25-.09-2.54-.05-3.78.04-.24.05-.49.05-.74v-.74c-.05-.97-.18-1.71-.14-2.45v-1.34c.02-.45-.02-.9-.09-1.34v-.69c0-.45.04-.9.14-1.34l.14-1.25c.05-.42.14-.84.28-1.24.11-.3.17-.61.18-.92l.14-.92c.05-.18.42-.51.55-.83.37-.97,1.66-1.29,2.54-1.8-.05,0,.09-.05.32-.09.49-.17,1-.27,1.52-.28,1.15.06,2.27.37,3.28.92.3.22.56.5.74.83h.05l.28.41.41.51c.55.9.84,1.94.83,3,0,.14-.05.14-.05.28-.05.51-.09.97.14,1.01h.09c.32,0,.32-.41.32-.65v-.09c.14-1.41-.2-2.82-.97-4.01-.37-.66-.87-1.22-1.48-1.66-1.12-.65-2.39-1-3.69-1.01h-.23c-.34,0-.69.04-1.02.14l-.92.28c-.82.29-1.58.74-2.21,1.34l-.37.51c-.27.39-.49.8-.65,1.25-.25.62-.41,1.27-.46,1.94l-.09.65c-.11.41-.17.83-.18,1.25l-.14,1.25c0,.23-.05.46-.05.65-.14,1.06.23,2.12.09,3.18v3.14c0,.26,0,.53.05.79-.14,1.61.09,3.05-.05,4.66l.09.69c0,.23.05.46.05.69l.09.69c-.08,1.17.22,2.34.88,3.32.13.2.28.39.46.55.16.17.35.31.55.41l.78.46c.24.15.51.24.79.28.3.11.61.17.92.18.23,0,.42.05.74.05,1.21.24,2.46.18,3.64-.18.21-.05.41-.13.6-.23.47-.2.89-.52,1.2-.92l.51-.55.51-.6c.14.24.26.48.37.74.12.26.2.54.23.83.23.51,0,1.66.74,1.52.23-.05.05-.42,0-.65,0-.05-.05-.09-.05-.14l-.09-.55ZM40.64,11.06c.14-1.89.09-3.88-.97-4.98-.5-.37-1.09-.61-1.71-.69-.47.1-.93.24-1.39.41-.42.12-.8.34-1.11.65-.54.39-.84,1.04-.78,1.71-.05.74,0,1.57,0,2.31s-.05,1.48-.09,2.21c-.05.88.05,1.85.05,2.54-.05.92,0,1.85,0,2.72s-.09,1.66-.09,2.45c-.07,1.73.02,3.46.28,5.17.16.69.57,1.3,1.15,1.71.46.16.94.26,1.43.28.26.02.53-.02.78-.09.81-.14,1.54-.59,2.03-1.25.2-.51.37-1.03.51-1.57.05-.69-.09-1.34-.09-2.03.05-.74.04-1.48-.05-2.21-.88.05-1.89,0-2.77.05-.34-1.65-.26-3.37.23-4.98.14-.05.23-.14.23-.23.69-.05,1.34.05,2.03,0s1.34.05,2.03.05c1.34.09,2.68.09,4.01,0,.14.14-.05.18.09.18.05,2.35-.32,4.43-.18,7.2.14,2.35.05,4.61.18,7.2.05.79-.14,1.57-.09,2.26.05.23.14.32.09.46-.14.14-.23.14-.37.32-.96.16-1.94.08-2.86-.23,0-.05-.05.23-.18.09-.37-.37-.19-1.11-.51-1.61-.32.51-.88.6-1.43.83-.66.35-1.34.65-2.03.92-.82.19-1.65.29-2.49.28-.88,0-1.75-.18-2.54-.55-.14,0,.14-.09-.09-.09v.05c-.19,0-.42-.18-.74-.23-.79-.55-1.49-1.22-2.08-1.98-.66-.71-1.2-1.52-1.61-2.4-.51-1.25-.05-2.45-.42-3.32-.05-2.95,0-5.72-.05-9.05-.05-2.58-.18-4.94-.14-7.15-.02-.9.06-1.79.23-2.68l.28-.74c.14-.23.14-.51.28-.74l.6-.83c.23-.27.43-.56.6-.88.23-.14.32-.32.51-.46,1.29-.69,2.4-1.66,4.01-1.89,1.28-.2,2.58-.27,3.88-.18.32.05.51.18.83.23l.65.14c.43.16.88.27,1.34.32.14.23.37.23.69.37.83.53,1.51,1.26,1.98,2.12.49.76.86,1.58,1.11,2.45.19.44.33.91.42,1.38.14.95.14,1.91,0,2.86.03.4.02.8-.05,1.2-1.8.41-3.92,0-5.63-.05"/>
      <path id="Path_4" data-name="Path 4" class="cls-1" d="M17.54,60.38c0,.42.05.88.05,1.29s-.14.83-.14,1.25c-.03.76-.2,1.52-.51,2.21l-.79,1.43c-.51.92-1.38,1.29-2.26,1.98-.51.39-1.09.67-1.71.83-.51.14-1.25.32-1.94.46-.4-.02-.81,0-1.2.09-.74-.14-1.52-.05-2.31-.19-.4,0-.81-.05-1.2-.14-.73-.14-1.41-.46-1.98-.92-.19-.22-.43-.39-.69-.51-.38-.55-.81-1.06-1.29-1.52-.17-.44-.41-.86-.69-1.24-.12-.21-.2-.45-.23-.69-.13-.2-.22-.42-.28-.65-.1-.42-.15-.86-.14-1.29,0-.51-.09-.97-.09-1.48-.05-.51,0-.97,0-1.48s.05-1.02,0-1.52c-.04-.97,0-1.94.09-2.91-.05-1.25-.28-2.49-.23-3.6,0-.32.05-.51.05-.83v-.37c0-.14.09-.18.09-.32,0-.32-.05-.51-.05-.83-.04-1.19,0-2.37.09-3.55-.02-.66.01-1.33.09-1.98.14-.6.28-1.29.46-1.89.14-.79.47-1.54.97-2.17.14-.69.83-1.01,1.52-1.38l1.57-.88c.52-.29,1.08-.5,1.66-.65.31-.04.61-.05.92-.05,1.09-.09,2.19-.05,3.28.14.51.14,1.02.05,1.52.18.38.19.79.35,1.2.46.25.28.55.51.88.69.05.05.05.14.18.28s.18.05.32.18l.37.42.32.41c.36.43.7.87,1.02,1.34.88,1.8.97,4.38.83,6.97-.26.12-.55.17-.83.14-.69.05-1.29.18-2.17.18-.51.03-1.02,0-1.52-.09-.51-.14-.83-.14-1.06-.37.18-1.28.11-2.58-.18-3.83-.14-.18-.09-.42-.23-.55-.42-.74-2.03-1.2-3.18-.97-.39.07-.76.19-1.11.37-.32.18-.46.51-.79.69-.74,1.34-.28,3.05-.28,4.85,0,2.77-.14,5.35-.09,7.94.05,1.06.09,2.03.09,3-.07,1.02-.02,2.04.14,3.05.14.78.69,1.43,1.43,1.71.71.26,1.48.29,2.21.09.23-.12.44-.26.64-.42.46-.16.87-.43,1.2-.79.14-.18.05-.46.23-.65-.14-.88.42-2.03.09-3.18.02-.16.05-.31.09-.46,1.15-.48,2.41-.64,3.64-.46.37.05.79.18,1.15.23.32,0,.55-.05.74.14.05.55,0,1.11,0,1.8"/>
      <path id="Path_5" data-name="Path 5" class="cls-1" d="M24.93,42.16c.05,1.25.14,2.91.28,4.52.13,1.33.16,2.68.09,4.01,2.26-.14,4.2-.05,6.6-.05.19-4.24.28-8.49.14-13.1,1.81-.47,3.71-.5,5.54-.09.11.24.08.53-.09.74.14,1.8-.09,3.64.05,5.54.14,3.14.09,6.64.14,10.15v3.42c0,.55-.05,1.11-.05,1.66.05.55,0,1.11,0,1.61-.02.49.01.99.09,1.48,0,.14.09.28.09.42.05.32,0,.65.05.97,0,1.11-.05,2.35-.05,3.46s.05,1.94,0,2.82c-.42.32-.88.09-1.39.09-1.37.07-2.74.07-4.11,0-.14-.14-.09-.28-.28-.32-.09-.57-.1-1.14-.05-1.71.05-1.06-.05-2.03,0-3,.14-2.77.05-5.4,0-8.35-1.98.05-4.2,0-6.46-.05-.14.88,0,2.03-.18,2.95,0,1.29.05,2.77.05,4.61,0,1.15-.09,2.35-.09,3.32.12.48.15.98.09,1.48-.05.14-.09.18-.14.18.16.21.21.48.14.74-.14.05-.23.14-.23.18-1.77.14-3.54.14-5.31,0-.05-.14-.09-.18-.18-.18-.14-3-.32-5.68-.18-8.44,0-.55.14-1.11.14-1.66,0-.6-.05-1.2-.05-1.8.05-.41.08-.83.09-1.25-.14-2.35.05-4.75-.09-7.15-.08-1.23-.06-2.46.05-3.69.14-1.24-.05-2.35,0-3.51,0-.42.09-.79.09-1.2.06-1.19.03-2.37-.09-3.55.32,0,.51-.14.74-.14.14-.05.23.05.28,0,0-.14.6-.09.92-.14.68-.06,1.36-.03,2.03.09.55-.03,1.09.1,1.57.37-.05,1.52-.28,2.95-.23,4.57"/>
      <path id="Path_6" data-name="Path 6" class="cls-1" d="M51.85,57.57c-.37-1.8-.69-3.74-1.2-5.77-.4-1.12-.69-2.28-.88-3.46-.55,3.14-1.29,6.18-2.03,9.32,1.37.06,2.74.03,4.11-.09M60.01,68.97c.05.23.23.32.09.55-1.82.18-3.66.23-5.49.14-.06-.08-.14-.15-.23-.18-.07-.72-.23-1.44-.46-2.12-.36-1.32-.65-2.66-.88-4.01-2.26-.14-3.92.14-6.28.14-.51,2.03-.79,4.2-1.48,6.18-1.81.2-3.63.22-5.44.05-.18-.14-.09-.37-.05-.6.23-1.06.42-2.4.6-3.64.13-.48.23-.98.28-1.48.23-1.11.37-2.17.6-3.28l.46-1.71c0-.4.1-.79.28-1.15.14-.92.23-2.21.42-3.32l.37-1.43.14-.79c.14-.32.37-.6.23-.92.05-.14.14-.09.18-.23.14-1.15.51-2.77.74-4.29.06-.41.17-.81.32-1.2,0-.41.08-.82.23-1.2.13-.26.21-.54.23-.83.14-.79.23-1.66.37-2.54l.14-.64c.14-.51.18-1.29.37-1.89.07-.52.24-1.02.51-1.48,2.26-.34,4.56-.36,6.83-.05.14,0,.09.19.23.14.22,1.48.51,2.94.88,4.38l.23,1.48.37,1.34c.37,1.43.6,2.81.92,4.29.51,2.77,1.2,5.26,1.75,8.21.18.88.32,1.71.46,2.58.14.69.46,1.39.64,2.12.32,1.48.55,3,.92,4.48l.23,1.15.18,1.11.09.65Z"/>
      <path id="Path_7" data-name="Path 7" class="cls-1" d="M81.13,69.24c0,.14-.18.14-.14.32-1.32.08-2.65.1-3.97.05-.6-.05-1.2-.14-1.75-.14-.13-.44-.31-.86-.55-1.25-.55-1.61-1.29-3-1.89-4.66-.37-.72-.67-1.48-.88-2.26l-.92-2.35c-.69-1.89-1.66-3.69-2.54-5.67-.19-.35-.33-.72-.42-1.11-.14-.05-.18-.32-.23-.46-.05,3.32.05,6.32.09,9.51,0,.55,0,1.11.05,1.66,0,.6.09,1.15.09,1.71,0,.42-.09.83-.09,1.2-.12,1.17-.16,2.34-.14,3.51-.18.05-.28-.05-.32.14-1.73.44-3.53.44-5.26,0-.16-.42-.16-.88,0-1.29-.1-.36-.13-.74-.09-1.11.06-.61.08-1.23.05-1.85-.05-.6-.14-1.15-.14-1.66-.02-.66.01-1.32.09-1.98.05-1.15-.09-2.12-.05-3.37v-3.55c0-.55.09-1.11.05-1.61-.05-1.48.09-3.05.09-4.66-.05-3.51-.18-7.01,0-10.94,1.66-.29,3.35-.36,5.03-.18.05.14.09.05.23.09.47.85.84,1.74,1.11,2.68.75,1.41,1.39,2.88,1.94,4.38.55,1.25,1.11,2.45,1.61,3.69.92,2.53,2,4.99,3.23,7.38l.18-2.91c.05-1.06,0-1.98-.05-3.05,0-2.03.05-4.11,0-6.18v-1.25c0-1.8-.05-3.14,0-4.8,1.82-.37,3.69-.33,5.49.14.05,1.06.05,2.03.05,3.09s.05,2.08.05,3.14c-.05,1.06-.14,2.12-.14,3.18.14,3.51-.18,7.24-.05,10.38.05.79,0,1.61,0,2.49.05,1.61.05,3.28.18,4.89.05,1.61-.14,3.14,0,4.66"/>
      <path id="Path_8" data-name="Path 8" class="cls-1" d="M94.73,47.88c.14-1.89.09-3.88-.97-4.98-.5-.37-1.09-.61-1.71-.69-.47.1-.93.24-1.38.42-.42.12-.8.34-1.11.65-.54.39-.84,1.04-.79,1.71-.05.74,0,1.57,0,2.31s-.05,1.48-.09,2.21c-.05.88.05,1.85.05,2.54-.05.92,0,1.85,0,2.72s-.09,1.66-.09,2.45c-.07,1.73.02,3.46.28,5.17.16.69.57,1.3,1.15,1.71.46.16.94.26,1.43.28.27.02.53-.02.79-.09.81-.15,1.53-.6,2.03-1.25.2-.51.37-1.03.51-1.57.05-.69-.09-1.34-.09-2.03.05-.74.04-1.48-.05-2.21-.88.05-1.89,0-2.77.05-.34-1.65-.26-3.37.23-4.98.14-.05.23-.14.23-.23.69-.05,1.34.05,2.03,0s1.34.05,2.03.05c1.34.09,2.68.09,4.01,0,.14.14-.05.18.09.18.05,2.35-.32,4.43-.19,7.2.14,2.35.05,4.61.19,7.2.05.79-.14,1.57-.09,2.26.05.23.14.32.09.46-.14.14-.23.14-.37.32-.96.16-1.94.08-2.86-.23,0-.05-.05.23-.18.09-.37-.37-.18-1.11-.51-1.61-.32.51-.88.6-1.43.83-.66.35-1.34.65-2.03.92-.82.19-1.65.29-2.49.28-.88,0-1.75-.18-2.54-.55-.14,0,.14-.09-.09-.09v.05c-.18,0-.42-.18-.74-.23-.8-.54-1.5-1.21-2.08-1.98-.66-.71-1.2-1.52-1.61-2.4-.51-1.25-.05-2.45-.42-3.32-.05-2.95,0-5.72-.05-9.04-.05-2.58-.18-4.94-.14-7.15-.02-.9.06-1.79.23-2.68l.28-.74c.14-.23.14-.51.28-.74l.6-.83c.23-.27.43-.56.6-.88.23-.14.32-.32.51-.46,1.29-.69,2.4-1.66,4.01-1.89,1.28-.2,2.58-.27,3.88-.18.32.05.51.18.83.23l.65.14c.43.16.88.27,1.34.32.14.23.37.23.69.37.83.53,1.51,1.26,1.98,2.12.5.75.87,1.58,1.11,2.45.19.45.33.91.41,1.39.14.95.14,1.91,0,2.86.03.4.02.8-.05,1.2-1.8.42-3.92,0-5.63-.05"/>
      <path id="Path_9" data-name="Path 9" class="cls-1" d="M120.12,67.91c.03.58-.03,1.15-.18,1.71-.09.1-.24.11-.34.02-.03-.03-.06-.07-.07-.11l-5.72-.09c-1.61-.05-3.14.23-4.94.28-2.03.14-3.74.05-5.72.05-.14-.14-.23-.09-.37-.23-.14-1.85,0-3.64-.14-5.45-.05-.88.05-1.8,0-2.68-.09-1.77-.09-3.54,0-5.31.05-.18-.05-.28.09-.42-.14-.23,0-.42,0-.65,0-.55-.09-1.11-.09-1.61-.05-.51-.05-.92-.05-1.43-.08-.46-.06-.93.05-1.39-.05-1.8.09-4.06-.05-6.09t-.05-.09v-.14h.05c.05-2.26.05-4.66.05-6.69.14-.09.23-.18.23-.32,4.06-.32,8.12.05,12.23-.14,1.29-.05,2.58.09,3.88.09.35-.05.71-.04,1.06.05,0,.09.05.28.09.6.02.29.08.57.18.83.07,1.02.03,2.04-.14,3.05-.01.47-.09.94-.23,1.39-.44.07-.9.07-1.34,0-.88-.05-1.52,0-2.4,0-.79,0-1.52-.09-2.26-.09-1.8.05-3.6,0-5.49,0,0,.32,0,.46.05.51v.09c0,.55-.05,1.06-.09,1.61l-.05.05c-.05,1.89-.32,3.83.23,5.45,1.8,0,4.11-.18,5.77,0,.5-.09,1.02-.1,1.52-.05.14,0,.28.05.42.05.37-.05.74-.04,1.11.05.38,1.76.41,3.58.09,5.35-.32.04-.64.05-.97.05-1.15-.05-2.26-.09-3.41-.05,0,.05,0,.09-.05.05-1.43-.14-2.86,0-4.48,0-.22,2.58-.25,5.17-.09,7.75,3,0,6.41.28,9.37.14.21,0,.41-.04.6-.14.32.14.79-.05,1.11.09.18-.14.32-.18.46-.09.33,1.3.36,2.66.09,3.97"/>
      <path id="Path_10" data-name="Path 10" class="cls-1" d="M126.65,69.75c-1.59.12-3.19.03-4.75-.28-.05-.74-.09-1.61-.09-2.49s.05-1.75.09-2.63c1.65-.29,3.33-.31,4.98-.05.29.78.38,1.62.28,2.45-.03.88-.11,1.76-.23,2.63l-.28.37Z"/>
    </g>
  </g>
</svg>