<svg width="189" height="133" viewBox="0 0 189 133" fill="none" xmlns="http://www.w3.org/2000/svg">
<path d="M133.47 86.5H41.5798C41.1398 86.39 40.7098 86.26 40.2698 86.17C35.277 85.1813 30.832 82.3672 27.8027 78.2771C24.7734 74.187 23.3773 69.1146 23.8871 64.0505C24.3969 58.9863 26.7759 54.294 30.5597 50.8897C34.3434 47.4855 39.2602 45.6137 44.3498 45.64C73.3432 45.5933 102.343 45.5933 131.35 45.64C131.88 45.64 132.47 45.46 132.97 45.91C132.73 46.65 131.97 46.82 131.47 47.19C128.419 49.2576 125.913 52.0323 124.166 55.2774C122.419 58.5226 121.483 62.142 121.436 65.8273C121.39 69.5125 122.236 73.1543 123.901 76.4422C125.566 79.73 128.002 82.5666 131 84.71C131.85 85.3 132.66 85.9 133.47 86.5ZM115.39 66.1C115.39 63.35 115.39 60.59 115.39 57.84C115.39 56.78 115.11 55.69 113.8 55.66C112.49 55.63 112.22 56.71 112.21 57.8C112.21 59.15 112.21 60.5 112.21 61.8C112.21 62.24 112.36 62.8 111.91 63.05C111.46 63.3 111.13 62.77 110.79 62.52C109.582 61.6174 108.104 61.1482 106.597 61.1881C105.089 61.2281 103.639 61.7747 102.48 62.74C99.4798 65.21 99.0398 70.82 101.48 73.98C103.92 77.14 107.35 77.38 111.13 74.74C111.51 74.47 111.93 74.06 112.13 74.83C112.43 75.96 113.13 76.52 114.24 76.18C115.35 75.84 115.38 74.78 115.38 73.81C115.4 71.27 115.39 68.68 115.39 66.1ZM39.2198 64C39.2198 65.68 39.2198 67.37 39.2198 69C39.1955 70.9161 39.9085 72.7683 41.2114 74.1736C42.5143 75.5788 44.3073 76.4296 46.2198 76.55C51.4098 77.05 54.9698 74.9 55.7798 70.39C56.5198 66.29 56.0498 62.1 56.0198 57.95C56.0283 57.7634 55.9979 57.5772 55.9307 57.4029C55.8634 57.2287 55.7608 57.0703 55.6292 56.9378C55.4976 56.8053 55.34 56.7015 55.1662 56.6331C54.9925 56.5646 54.8064 56.5329 54.6198 56.54C54.4219 56.5236 54.2228 56.5467 54.0339 56.6079C53.845 56.6691 53.6701 56.7672 53.5194 56.8965C53.3687 57.0258 53.2452 57.1837 53.156 57.3612C53.0668 57.5386 53.0137 57.7319 52.9998 57.93C52.9148 58.4857 52.8847 59.0484 52.9098 59.61C52.9098 62.61 52.9098 65.68 52.8398 68.71C52.8627 69.4203 52.7289 70.1269 52.4479 70.7797C52.1668 71.4324 51.7455 72.0152 51.2138 72.4868C50.6821 72.9583 50.0531 73.307 49.3715 73.5081C48.6899 73.7091 47.9723 73.7576 47.2698 73.65C46.6299 73.6372 45.9989 73.497 45.4137 73.2377C44.8285 72.9784 44.3008 72.6051 43.8615 72.1397C43.4221 71.6742 43.0798 71.1259 42.8546 70.5268C42.6294 69.9276 42.5258 69.2896 42.5498 68.65C42.4398 65.56 42.5498 62.47 42.4798 59.38C42.4798 58.13 42.4798 56.64 40.7898 56.62C39.0998 56.6 39.2798 58.12 39.2498 59.27C39.1998 60.85 39.2198 62.42 39.2198 64ZM59.2198 68.85V74.25C59.2198 74.36 59.2198 74.47 59.2198 74.58C59.2798 75.58 59.6398 76.25 60.6998 76.29C61.7598 76.33 62.2098 75.63 62.3498 74.71C62.4348 74.1439 62.4782 73.5724 62.4798 73C62.4798 71.15 62.4798 69.29 62.5298 67.44C62.531 66.9023 62.6596 66.3726 62.9052 65.8943C63.1508 65.416 63.5063 65.0028 63.9425 64.6885C64.3788 64.3742 64.8834 64.1679 65.4148 64.0865C65.9463 64.005 66.4895 64.0508 66.9998 64.22C68.8198 64.76 69.3198 66.22 69.3798 67.9C69.4598 70.09 69.3798 72.28 69.4398 74.47C69.4398 75.47 69.8298 76.26 70.9898 76.29C71.2051 76.3108 71.4223 76.2832 71.6255 76.2092C71.8288 76.1352 72.0129 76.0167 72.1644 75.8624C72.3158 75.708 72.4309 75.5217 72.501 75.3171C72.5712 75.1125 72.5947 74.8948 72.5698 74.68C72.6398 71.43 72.9398 68.16 72.2898 64.94C72.1043 63.9289 71.5768 63.0124 70.7957 62.3442C70.0146 61.676 69.0274 61.2967 67.9998 61.27C67.1853 61.1635 66.3572 61.2413 65.5766 61.4974C64.7961 61.7535 64.083 62.1816 63.4898 62.75C62.9598 63.25 62.5798 63.36 62.2598 62.56C62.2156 62.3656 62.1325 62.1821 62.0155 62.0205C61.8985 61.859 61.7502 61.7228 61.5792 61.62C61.4083 61.5173 61.2184 61.4502 61.0209 61.4227C60.8234 61.3952 60.6223 61.4079 60.4298 61.46C59.4298 61.72 59.2498 62.58 59.2398 63.46C59.2498 65.26 59.2598 67.06 59.2598 68.85H59.2198ZM75.8098 66.38C75.8098 68.96 75.8098 71.54 75.8098 74.12C75.8098 75.56 76.4098 76.33 77.9298 76.31C81.1498 76.31 84.3698 76.31 87.5898 76.31C88.5898 76.31 89.5898 76.11 89.5898 74.8C89.5898 73.49 88.5898 73.44 87.6398 73.44C85.4898 73.44 83.3398 73.35 81.1998 73.44C79.5698 73.51 79.0298 72.86 79.0598 71.27C79.1398 67.12 79.0598 62.96 79.0598 58.81C79.0598 57.63 78.7298 56.59 77.3298 56.6C75.9298 56.61 75.8298 57.74 75.8198 58.79C75.8398 61.33 75.8498 63.85 75.8498 66.38H75.8098ZM95.8098 76.59C96.0358 76.6151 96.2639 76.6151 96.4898 76.59C97.4898 76.36 98.8898 76.43 98.8998 75C98.9098 73.57 97.6698 73.82 96.7198 73.73C96.4507 73.7151 96.1873 73.6459 95.9455 73.5266C95.7037 73.4073 95.4886 73.2404 95.313 73.0358C95.1374 72.8312 95.0049 72.5933 94.9236 72.3362C94.8423 72.0792 94.8138 71.8083 94.8398 71.54C94.7898 69.8 94.8398 68.06 94.7798 66.32C94.6998 64.77 95.2398 64 96.9098 64.14C97.8398 64.23 98.9098 64.05 98.9098 62.88C98.9098 61.71 97.9098 61.54 96.9098 61.57C95.3498 61.64 94.5998 61.04 94.6798 59.42C94.6798 58.42 94.5398 57.42 93.2498 57.34C91.9598 57.26 91.6698 58.34 91.6398 59.43C91.7082 59.8997 91.6236 60.3789 91.3985 60.7967C91.1734 61.2145 90.8197 61.5488 90.3898 61.75C90.1486 61.838 89.943 62.0029 89.8047 62.2194C89.6665 62.4358 89.6033 62.6917 89.6249 62.9476C89.6465 63.2035 89.7517 63.4452 89.9243 63.6354C90.0969 63.8256 90.3272 63.9537 90.5798 64C91.6598 64.48 91.7198 65.26 91.7298 66.17C91.7298 68.42 91.7298 70.67 91.7898 72.91C91.8998 75.35 93.3198 76.61 95.8398 76.59H95.8098Z" fill="#171D1C"/>
<path d="M165 62.9V69.3C164.213 73.2168 162.405 76.8562 159.76 79.85C156.462 83.3542 152.113 85.6886 147.37 86.5H141.6L139.6 86C136.526 85.2462 133.668 83.7911 131.25 81.7486C128.832 79.7062 126.919 77.1318 125.662 74.227C124.405 71.3222 123.837 68.1659 124.003 65.005C124.169 61.8442 125.064 58.7646 126.618 56.0074C128.173 53.2502 130.344 50.8902 132.963 49.1121C135.582 47.3341 138.576 46.1862 141.712 45.7584C144.849 45.3305 148.041 45.6344 151.04 46.6461C154.039 47.6578 156.764 49.3499 159 51.59C162.058 54.6956 164.143 58.6264 165 62.9V62.9ZM135.08 60.42C134.404 60.3797 133.737 60.5931 133.21 61.0185C132.683 61.4439 132.333 62.0506 132.23 62.72C132.163 63.0684 132.167 63.4268 132.243 63.7733C132.319 64.1199 132.465 64.4473 132.672 64.7355C132.879 65.0238 133.142 65.2669 133.446 65.4499C133.75 65.6329 134.088 65.752 134.44 65.8C135.82 66.1 137.22 66.29 138.62 66.47C139.84 66.63 140 67.2 139.48 68.19C138.48 70.19 137.41 72.19 136.42 74.19C135.43 76.19 135.78 77.82 137.33 78.56C138.88 79.3 140.33 78.66 141.4 76.64C142.12 75.3 142.77 73.93 143.48 72.64C143.74 72.16 143.87 71.41 144.48 71.38C145.09 71.35 145.25 72.11 145.48 72.58C146.3 74.12 147.04 75.7 147.91 77.21C148.246 77.8748 148.826 78.3842 149.528 78.632C150.23 78.8798 151.001 78.8469 151.68 78.54C152.309 78.2084 152.787 77.6484 153.016 76.975C153.245 76.3017 153.207 75.5662 152.91 74.92C152.712 74.3948 152.478 73.8836 152.21 73.39C151.31 71.6433 150.403 69.8967 149.49 68.15C149 67.23 149.17 66.67 150.29 66.52C151.63 66.33 152.97 66.14 154.29 65.88C156.11 65.53 157.02 64.31 156.75 62.68C156.681 62.3192 156.54 61.9758 156.337 61.6702C156.133 61.3645 155.87 61.1029 155.563 60.9006C155.256 60.6983 154.912 60.5595 154.551 60.4924C154.19 60.4254 153.819 60.4313 153.46 60.51C151.89 60.68 150.32 60.9 148.76 61.13C147.76 61.29 147.28 60.86 147.28 59.86C147.28 58.68 147.28 57.5 147.28 56.32C147.321 55.9395 147.282 55.5547 147.167 55.1898C147.051 54.825 146.861 54.488 146.609 54.2002C146.357 53.9123 146.048 53.6799 145.701 53.5175C145.355 53.355 144.978 53.2662 144.596 53.2565C144.213 53.2468 143.833 53.3164 143.479 53.4611C143.124 53.6057 142.804 53.8222 142.537 54.0969C142.271 54.3716 142.064 54.6985 141.931 55.057C141.797 55.4156 141.739 55.7979 141.76 56.18C141.68 57.3 141.69 58.42 141.76 59.55C141.83 60.68 141.39 61.32 140.06 61.08C138.45 60.78 136.87 60.64 135.09 60.42H135.08Z" fill="#171D1C"/>
<path d="M103.18 68.81C103.18 65.97 105.1 63.87 107.64 63.91C108.273 63.9431 108.894 64.1015 109.465 64.3758C110.037 64.6502 110.549 65.0351 110.971 65.5084C111.393 65.9817 111.717 66.5339 111.925 67.1332C112.132 67.7325 112.219 68.367 112.18 69C112.203 69.6194 112.103 70.2373 111.886 70.8181C111.67 71.3989 111.341 71.9312 110.918 72.3846C110.495 72.8379 109.987 73.2034 109.423 73.46C108.859 73.7166 108.249 73.8594 107.63 73.88C105 73.9 103.16 71.79 103.18 68.81Z" fill="#171D1C"/>
</svg>
