<svg width="195" height="133" viewBox="0 0 195 133" fill="none" xmlns="http://www.w3.org/2000/svg">
<path d="M34.2499 74.81L30.8599 45.76L42.3299 53.76C42.5299 53.1 42.6899 52.6 42.8199 52.1C43.5665 48.3883 45.7156 45.1074 48.8199 42.94C49.4612 42.5159 50.167 42.1984 50.9099 42C51.0999 41.9856 51.2905 42.0182 51.4649 42.0949C51.6393 42.1716 51.7921 42.2902 51.9099 42.44C54.3599 47.32 57.2299 48.59 62.4699 47C67.3899 45.51 71.3199 42.4 75.1099 39.08C76.1099 38.18 77.1099 37.23 78.1099 36.28C78.228 36.1165 78.3813 35.9815 78.5584 35.885C78.7356 35.7885 78.9321 35.733 79.1335 35.7224C79.335 35.7119 79.5362 35.7466 79.7225 35.8241C79.9088 35.9015 80.0753 36.0197 80.2099 36.17C79.2099 39.78 78.0799 43.35 77.2099 46.96C75.3813 54.3834 74.1738 61.9462 73.5999 69.57C73.2799 73.74 73.1199 77.95 71.5999 81.94C70.3574 85.4077 67.9877 88.3584 64.8699 90.32C60.4499 93.05 55.5399 94.64 50.5599 96.32C48.0599 91.22 43.5099 88.75 38.5599 86.73C39.0424 85.1829 40.088 83.8732 41.4899 83.06C41.8641 82.8551 42.1629 82.536 42.3428 82.1492C42.5228 81.7624 42.5743 81.3282 42.4899 80.91C41.8099 77.28 43.4899 74.7 45.9399 72.22C52.1454 65.8369 59.6473 60.8584 67.9399 57.62C68.4699 57.41 68.9999 57.16 69.5199 56.92L69.4599 56.45C67.3599 56.38 65.2499 56.19 63.1599 56.27C56.4418 56.4213 49.9062 58.4853 44.3199 62.22C42.8099 63.22 41.9399 64.33 42.3199 66.22C42.3799 66.51 42.3199 66.83 42.3199 67.13C42.5199 68.59 42.0099 69.37 40.6099 70.13C38.3889 71.548 36.2643 73.1114 34.2499 74.81V74.81Z" fill="#171D1C"/>
<path d="M88.6899 55.48H91.9199C96.6799 55.48 101.45 55.27 106.19 55.62C113.51 56.15 116.4 58.94 117.31 66.2C118.011 71.1174 117.906 76.1162 117 81C116 86.23 112.81 89.36 107.48 89.65C101.28 89.98 95.0499 89.73 88.7299 89.73L88.6899 55.48ZM94.8599 83.87C98.7699 83.87 102.61 84.09 106.41 83.79C107.611 83.703 108.731 83.1566 109.54 82.2646C110.348 81.3725 110.781 80.2033 110.75 79C110.95 74.83 110.97 70.62 110.75 66.45C110.62 63.84 109.02 61.77 106.35 61.56C102.56 61.25 98.7199 61.48 94.8499 61.48L94.8599 83.87Z" fill="#171D1C"/>
<path d="M145.12 89.78H138.86V55.56H163.33V61.15H145.17V69.72H162.4V75.44H145.12V89.78Z" fill="#171D1C"/>
<path d="M124.15 89.73V55.57H130.46V89.73H124.15Z" fill="#171D1C"/>
</svg>
