<svg width="228" height="133" viewBox="0 0 228 133" fill="none" xmlns="http://www.w3.org/2000/svg">
<path d="M195 61.81H168.59C163.82 61.81 159.05 61.81 154.29 61.81H133.8C133.49 61.81 133.38 61.73 133.39 61.41C133.39 60.6 133.39 59.79 133.39 58.97C133.39 51.4233 133.39 43.8667 133.39 36.3C133.39 36 133.33 35.9 133 35.9H119.79H32V95.74C32 96.18 32 96.18 32.44 96.18H195.14H195.51V61.81H195ZM101.28 42.13C101.78 42.1405 102.255 42.3484 102.601 42.7082C102.948 43.068 103.138 43.5504 103.13 44.05C103.125 44.5548 102.92 45.037 102.56 45.3912C102.2 45.7454 101.715 45.9427 101.21 45.94C100.961 45.9362 100.716 45.8826 100.489 45.7824C100.261 45.6822 100.056 45.5374 99.8853 45.3565C99.7146 45.1757 99.582 44.9624 99.4952 44.7294C99.4085 44.4964 99.3693 44.2484 99.38 44C99.3879 43.5013 99.5915 43.0257 99.947 42.6758C100.302 42.326 100.781 42.1299 101.28 42.13V42.13ZM99.77 48.38C99.77 48.07 99.88 47.98 100.16 47.93C100.98 47.8 101.8 47.65 102.66 47.49V60.76H99.78V60.37C99.78 56.38 99.79 52.38 99.77 48.38ZM90.9 48.13L92.8 47.64C93.56 47.44 93.57 47.44 93.8 48.2C93.91 48.58 93.96 48.98 94.04 49.39C94.32 49.09 94.58 48.78 94.86 48.5C95.2216 48.122 95.6671 47.8344 96.1605 47.6607C96.6539 47.487 97.1813 47.4319 97.7 47.5H97.82C98.3 47.6 98.32 47.64 98.16 48.1C97.92 48.82 97.68 49.55 97.45 50.22C97.0207 50.1853 96.5893 50.1853 96.16 50.22C95.7713 50.2781 95.4038 50.4343 95.0923 50.6741C94.7808 50.9138 94.5356 51.2291 94.38 51.59C94.279 51.8173 94.2214 52.0615 94.21 52.31C94.21 54.99 94.21 57.66 94.21 60.31V60.74H91.34V60.34C91.34 57.62 91.34 54.8933 91.34 52.16C91.4001 50.8396 91.2585 49.5177 90.92 48.24C90.9079 48.2045 90.9012 48.1675 90.9 48.13V48.13ZM39.15 43.08H42.15V60.78H39.15V43.08ZM49.24 86.08C49.24 86.78 49.24 87.49 49.24 88.22H39.14C39.14 88.12 39.14 88.02 39.14 87.92C39.14 82.23 39.14 76.54 39.14 70.84C39.14 70.59 39.2 70.5 39.47 70.5H48.68H49C48.88 71.28 48.76 72.02 48.65 72.76C48.65 72.98 48.44 72.93 48.31 72.93H42.18V77.69H47.52V80.19H42.18V85.63H42.56H48.84C49.15 85.68 49.25 85.76 49.24 86.08V86.08ZM60.75 88.26C59.95 88.26 59.15 88.26 58.3 88.26V87.84C58.3 85.13 58.3 82.42 58.3 79.72C58.3056 79.2737 58.2654 78.8281 58.18 78.39C58.1726 78.2549 58.1378 78.1228 58.0779 78.0015C58.0179 77.8803 57.934 77.7725 57.8312 77.6846C57.7283 77.5967 57.6087 77.5306 57.4796 77.4903C57.3505 77.45 57.2146 77.4363 57.08 77.45C56.6487 77.4393 56.2197 77.5176 55.82 77.68C55.2724 77.979 54.7446 78.313 54.24 78.68C54.1649 78.7335 54.1056 78.8064 54.0686 78.891C54.0317 78.9755 54.0183 79.0685 54.03 79.16C54.03 82.04 54.03 84.93 54.03 87.81V88.25H51.24C51.24 88.09 51.24 87.95 51.24 87.81V80.18C51.24 79.42 51.24 78.66 51.24 77.9C51.24 77.14 51.01 76.41 50.88 75.63L52 75.3C52.34 75.2 52.69 75.13 53 75C53.31 74.87 53.41 75 53.48 75.25C53.61 75.7 53.73 76.16 53.87 76.64L54.27 76.34C55.0498 75.6663 55.99 75.2048 57 75C57.6656 74.8728 58.3523 74.9106 59 75.11C59.5714 75.2875 60.0767 75.6318 60.4509 76.0987C60.8251 76.5656 61.0511 77.1337 61.1 77.73C61.1481 78.0276 61.1715 78.3286 61.17 78.63C61.17 81.7 61.17 84.77 61.17 87.84C61.15 88.18 61.06 88.27 60.75 88.26V88.26ZM61.92 60.39V60.76H59.11V52.09C59.11 51.77 59.11 51.44 59.11 51.09C59.01 50.09 58.49 49.71 57.49 49.9C56.8107 50.0868 56.1841 50.4292 55.66 50.9C55.4757 51.0168 55.3253 51.1798 55.2235 51.3728C55.1218 51.5657 55.0723 51.782 55.08 52C55.08 54.77 55.08 57.54 55.08 60.31V60.73H52.37V52C52.37 51.69 52.37 51.38 52.37 51.07C52.3738 50.8952 52.338 50.7218 52.2654 50.5628C52.1927 50.4037 52.085 50.2632 51.9504 50.1516C51.8157 50.0401 51.6576 49.9604 51.4879 49.9185C51.3181 49.8767 51.1411 49.8738 50.97 49.91C50.0314 50.0108 49.1559 50.4309 48.49 51.1C48.4185 51.2094 48.3867 51.34 48.4 51.47V60.75H45.56V60.34C45.56 57.67 45.56 54.99 45.56 52.34C45.6643 50.9441 45.5118 49.5409 45.11 48.2L46 48L47.5 47.57C47.69 47.51 47.81 47.57 47.86 47.74C48 48.17 48.13 48.61 48.26 49.07L48.48 48.89C49.3087 48.0824 50.4042 47.6057 51.56 47.55C52.0925 47.5227 52.6235 47.6282 53.1053 47.8568C53.587 48.0855 54.0044 48.4302 54.32 48.86L54.71 49.39C55.01 49.13 55.29 48.87 55.59 48.64C56.0935 48.2134 56.6821 47.899 57.3167 47.7179C57.9513 47.5369 58.6172 47.4933 59.27 47.59C59.9485 47.6482 60.5837 47.9475 61.0607 48.4336C61.5376 48.9197 61.8247 49.5605 61.87 50.24C61.9268 50.7245 61.9535 51.2121 61.95 51.7C61.92 54.56 61.92 57.48 61.92 60.39V60.39ZM67.21 84.39C67.2049 84.7653 67.235 85.1403 67.3 85.51C67.3071 85.6557 67.3443 85.7984 67.4091 85.9292C67.474 86.0599 67.5651 86.1758 67.6768 86.2697C67.7885 86.3635 67.9184 86.4333 68.0583 86.4747C68.1982 86.5161 68.3452 86.5281 68.49 86.51C68.98 86.51 69.49 86.41 70.01 86.36C70.11 86.82 70.22 87.36 70.32 87.88C70.32 87.88 70.25 88.04 70.18 88.07C68.9716 88.6365 67.5955 88.7328 66.32 88.34C65.7705 88.1591 65.292 87.8094 64.9527 87.3408C64.6133 86.8722 64.4304 86.3086 64.43 85.73C64.43 85.39 64.43 85.04 64.43 84.73V77.73C64.43 77.58 64.43 77.44 64.43 77.26H63V75.26H64.4V74.7C64.4 73.91 64.4 73.12 64.49 72.33C64.4982 72.2654 64.5203 72.2033 64.5548 72.148C64.5894 72.0928 64.6355 72.0457 64.69 72.01L67.42 71.34C67.35 72.64 67.28 73.91 67.2 75.24H70.33C70.08 75.9 69.86 76.5 69.61 77.1C69.61 77.17 69.41 77.22 69.31 77.23H67.21C67.21 77.36 67.21 77.47 67.21 77.58C67.21 79.88 67.2 82.14 67.21 84.41V84.39ZM68.21 60.22L67.9 60C67.9 60.23 67.9 60.42 67.9 60.61C67.9 62.17 67.9 63.73 67.9 65.29C67.9 65.38 67.83 65.53 67.76 65.55C66.91 65.79 66.06 66 65.14 66.23V65.8C65.14 60.68 65.14 55.56 65.14 50.44C65.14 49.61 65.03 48.78 64.96 47.88L67.56 47.42C67.63 47.93 67.7 48.42 67.77 48.9C67.77 48.9 67.83 48.9 67.85 48.84C68.3711 48.312 69.0119 47.9175 69.718 47.6901C70.4241 47.4627 71.1747 47.409 71.9059 47.5337C72.6372 47.6584 73.3276 47.9577 73.9185 48.4062C74.5094 48.8547 74.9833 49.4392 75.3 50.11C75.815 51.2395 76.0745 52.4687 76.06 53.71C76.1392 55.1788 75.8933 56.6471 75.34 58.01C75.0662 58.7891 74.5856 59.4789 73.9497 60.0056C73.3137 60.5324 72.5464 60.8761 71.73 61C70.503 61.1927 69.2482 60.9217 68.21 60.24V60.22ZM81.66 82.56C79.34 82.56 77.02 82.56 74.66 82.56H74.23C74.1893 83.2649 74.2984 83.9703 74.55 84.63C74.7842 85.2144 75.206 85.7044 75.7491 86.023C76.2921 86.3416 76.9256 86.4707 77.55 86.39C78.5793 86.343 79.5639 85.9561 80.35 85.29L80.59 85.12L81.68 86.82C81.6678 86.8627 81.6435 86.9009 81.61 86.93C80.6652 87.7521 79.5137 88.3002 78.28 88.5153C77.0462 88.7303 75.7772 88.604 74.61 88.15C73.9698 87.9179 73.3854 87.5542 72.8944 87.0822C72.4035 86.6103 72.0171 86.0406 71.76 85.41C71.246 84.2877 70.9708 83.0708 70.9519 81.8366C70.9329 80.6023 71.1707 79.3775 71.65 78.24C71.9692 77.4648 72.4657 76.7753 73.0997 76.2269C73.7337 75.6785 74.4875 75.2864 75.3005 75.0821C76.1136 74.8779 76.9632 74.8672 77.7811 75.0509C78.599 75.2347 79.3624 75.6077 80.01 76.14C80.9763 76.9893 81.578 78.1784 81.69 79.46C81.81 80.37 81.82 81.3 81.88 82.23C82 82.49 81.92 82.56 81.66 82.56ZM78.66 57.69C77.7714 55.5544 77.7392 53.1587 78.57 51C78.8518 50.1473 79.358 49.3863 80.0354 48.7968C80.7129 48.2073 81.5366 47.8112 82.42 47.65C83.5372 47.3972 84.7057 47.5021 85.76 47.95C86.5124 48.2552 87.171 48.7533 87.6696 49.3941C88.1682 50.0348 88.4891 50.7957 88.6 51.6C88.77 52.66 88.78 53.75 88.87 54.83C88.87 55.11 88.72 55.09 88.53 55.09H81.18C81.06 57.2 81.95 58.76 83.91 58.92C85.0549 59.016 86.1949 58.6847 87.11 57.99L87.55 57.65L88.66 59.39C88.1244 59.8659 87.5169 60.254 86.86 60.54C85.4509 61.1745 83.8691 61.3155 82.37 60.94C81.5258 60.7541 80.7418 60.359 80.0901 59.7912C79.4384 59.2233 78.9397 58.5008 78.64 57.69H78.66ZM90.57 77.69C90.0944 77.6444 89.6156 77.6444 89.14 77.69C88.7771 77.7556 88.436 77.9094 88.1465 78.1378C87.8571 78.3663 87.6282 78.6623 87.48 79C87.3775 79.2264 87.3231 79.4715 87.32 79.72C87.32 82.43 87.32 85.13 87.32 87.84C87.32 88.13 87.25 88.24 86.94 88.23C86.13 88.23 85.32 88.23 84.45 88.23V79.54C84.5192 78.2174 84.3671 76.8925 84 75.62L84.3 75.52C84.97 75.34 85.65 75.18 86.3 74.99C86.54 74.92 86.67 74.99 86.74 75.22C86.88 75.76 87.02 76.3 87.17 76.83C88.17 75.5 89.46 74.52 91.4 75.12C91.1 76 90.82 76.9 90.55 77.69H90.57ZM103.92 82.52C103.851 83.5534 103.607 84.5677 103.2 85.52C102.935 86.1933 102.52 86.7977 101.988 87.2878C101.455 87.7779 100.819 88.141 100.126 88.3498C99.433 88.5587 98.7018 88.6078 97.9872 88.4935C97.2726 88.3792 96.5932 88.1045 96 87.69L95.77 87.55C95.77 89.27 95.77 90.97 95.77 92.66C95.77 92.94 95.7 93.06 95.42 93.13C94.63 93.3 93.85 93.52 93.01 93.73V79.34C93.0547 78.0918 92.9743 76.8422 92.77 75.61C92.77 75.44 92.77 75.38 92.98 75.35L95.18 75C95.36 75 95.42 75 95.45 75.19L95.63 76.42C95.6564 76.4254 95.6836 76.4254 95.71 76.42C96.2517 75.8659 96.9247 75.4576 97.6664 75.233C98.4081 75.0084 99.1945 74.9749 99.9526 75.1355C100.711 75.2961 101.416 75.6456 102.003 76.1517C102.59 76.6577 103.039 77.3038 103.31 78.03C103.851 79.4609 104.053 80.9978 103.9 82.52H103.92ZM112.62 77.76C112.409 77.7042 112.196 77.6608 111.98 77.63C111.43 77.5889 110.882 77.733 110.424 78.0392C109.965 78.3455 109.623 78.7963 109.45 79.32C109.413 79.4805 109.396 79.6452 109.4 79.81C109.4 82.47 109.4 85.14 109.4 87.81V88.24H106.57C106.57 88.11 106.57 87.98 106.57 87.85V80.35C106.674 78.7627 106.522 77.169 106.12 75.63L106.45 75.52C107.1 75.35 107.76 75.2 108.45 75C108.73 74.92 108.86 75 108.92 75.26C109.06 75.79 109.2 76.32 109.33 76.85C110.39 75.52 111.63 74.53 113.57 75.13C113.18 76 112.89 76.89 112.6 77.76H112.62ZM113 59.87L112.87 59.64L112.72 59.76C112.189 60.3158 111.528 60.7304 110.796 60.9661C110.064 61.2019 109.286 61.2513 108.53 61.11C108.229 61.0785 107.931 61.0216 107.64 60.94C106.814 60.7198 106.096 60.2092 105.617 59.502C105.137 58.7948 104.929 57.9384 105.03 57.09C105.013 56.1486 105.328 55.2313 105.921 54.4996C106.514 53.7679 107.346 53.2687 108.27 53.09C109.407 52.7858 110.584 52.6543 111.76 52.7H112.26C112.354 51.9253 112.258 51.1393 111.98 50.41C111.864 50.2179 111.7 50.0601 111.503 49.9528C111.306 49.8456 111.084 49.7928 110.86 49.8C109.97 49.7413 109.081 49.9281 108.29 50.34C107.74 50.6 107.21 50.91 106.63 51.23L105.38 49.23C106.517 48.4532 107.794 47.9032 109.14 47.61C110.192 47.39 111.278 47.39 112.33 47.61C113.135 47.7174 113.869 48.128 114.382 48.7579C114.895 49.3879 115.148 50.1898 115.09 51C115.09 52.83 115.09 54.65 115.09 56.47C115.09 56.87 115.09 57.28 115.09 57.69C115.099 58.0682 115.205 58.4376 115.4 58.7619C115.595 59.0863 115.87 59.3544 116.2 59.54L115.64 60.23C115.4 60.54 115.13 60.84 114.9 61.16C114.67 61.48 114.62 61.37 114.41 61.26C113.799 60.9651 113.304 60.4763 113 59.87V59.87ZM117.8 88.25H115.13C115.07 88.25 114.98 88.14 114.95 88.07C114.935 87.9874 114.935 87.9026 114.95 87.82C114.95 83.82 114.95 79.82 114.95 75.9C114.95 75.57 115.04 75.45 115.37 75.4C116.18 75.28 116.98 75.12 117.82 74.97L117.8 88.25ZM116.38 73.39C116.135 73.3901 115.892 73.3412 115.666 73.2462C115.441 73.1513 115.236 73.0121 115.065 72.837C114.893 72.6619 114.758 72.4543 114.668 72.2264C114.578 71.9985 114.535 71.755 114.54 71.51C114.54 71.0114 114.738 70.5332 115.091 70.1806C115.443 69.8281 115.921 69.63 116.42 69.63C116.919 69.63 117.397 69.8281 117.749 70.1806C118.102 70.5332 118.3 71.0114 118.3 71.51C118.295 72.0087 118.094 72.4854 117.74 72.8371C117.386 73.1888 116.909 73.3874 116.41 73.39H116.38ZM118.38 58.74C118.31 58.203 118.28 57.6615 118.29 57.12C118.29 53.19 118.29 49.26 118.29 45.33C118.29 44.51 118.17 43.69 118.09 42.87C118.09 42.63 118.09 42.53 118.37 42.47C119.15 42.32 119.93 42.13 120.71 41.96H121.01C121.07 42.37 121.15 42.77 121.17 43.16C121.17 43.9133 121.19 44.6633 121.23 45.41C121.23 49.41 121.23 53.4367 121.23 57.49C121.215 57.7164 121.215 57.9436 121.23 58.17C121.32 58.92 121.59 59.17 122.37 59.05C122.51 59.58 122.65 60.1 122.78 60.63C122.779 60.6736 122.768 60.7164 122.747 60.7548C122.726 60.7931 122.696 60.8258 122.66 60.85C122.181 61.0414 121.668 61.1339 121.153 61.1219C120.637 61.1099 120.129 60.9936 119.66 60.78C119.293 60.5757 118.985 60.281 118.765 59.9239C118.544 59.5668 118.419 59.1593 118.4 58.74H118.38ZM130.09 85.34C129.873 86.0991 129.448 86.7824 128.863 87.3126C128.278 87.8428 127.557 88.1986 126.78 88.34C124.993 88.7688 123.114 88.5894 121.44 87.83C120.95 87.63 120.44 87.39 119.97 87.15L120.97 85.08L121.28 85.24C122.408 85.9259 123.683 86.3337 125 86.43C125.412 86.4336 125.821 86.366 126.21 86.23C126.533 86.1129 126.811 85.8954 127.001 85.6093C127.192 85.3232 127.286 84.9835 127.27 84.64C127.288 84.324 127.199 84.0111 127.018 83.7517C126.836 83.4923 126.573 83.3015 126.27 83.21C125.45 82.95 124.59 82.79 123.76 82.57C123.317 82.4641 122.885 82.3167 122.47 82.13C121.923 81.8312 121.46 81.4001 121.122 80.8761C120.785 80.3521 120.584 79.7519 120.538 79.1303C120.492 78.5087 120.603 77.8855 120.86 77.3177C121.117 76.7499 121.513 76.2556 122.01 75.88C122.806 75.2855 123.758 74.9377 124.75 74.88C126.39 74.7508 128.033 75.098 129.48 75.88L129.62 75.96V76.04L128.75 78L128.38 77.82C127.504 77.3258 126.516 77.0641 125.51 77.06C125.149 77.0803 124.794 77.1614 124.46 77.3C124.181 77.4233 123.948 77.6322 123.795 77.8964C123.642 78.1606 123.578 78.4665 123.61 78.77C123.614 79.0393 123.707 79.2996 123.876 79.5097C124.044 79.7198 124.278 79.8677 124.54 79.93C125.31 80.17 126.1 80.36 126.88 80.58C127.24 80.69 127.6 80.79 127.95 80.93C128.384 81.074 128.785 81.3031 129.129 81.6039C129.473 81.9047 129.754 82.2711 129.956 82.6817C130.157 83.0923 130.274 83.5388 130.3 83.9953C130.327 84.4517 130.262 84.9089 130.11 85.34H130.09ZM142.45 82.56C140.14 82.56 137.83 82.56 135.52 82.56H135.12C134.94 85.01 136.2 86.56 138.46 86.39C139.476 86.3308 140.446 85.9489 141.23 85.3L141.48 85.12L142.57 86.83C142.559 86.8649 142.538 86.8961 142.51 86.92C141.589 87.7297 140.466 88.2753 139.26 88.4989C138.054 88.7224 136.81 88.6157 135.66 88.19C134.804 87.8897 134.041 87.3725 133.445 86.6889C132.849 86.0053 132.441 85.1787 132.26 84.29C131.683 82.3546 131.767 80.282 132.5 78.4C132.841 77.4844 133.427 76.6802 134.194 76.0757C134.962 75.4712 135.881 75.0896 136.851 74.9729C137.82 74.8562 138.804 75.0088 139.693 75.414C140.582 75.8192 141.342 76.4613 141.89 77.27C142.346 78.0807 142.615 78.9824 142.68 79.91C142.76 80.67 142.76 81.44 142.8 82.21C142.84 82.49 142.75 82.57 142.47 82.56H142.45ZM160.45 88.11C160.45 88.17 160.26 88.24 160.16 88.25H151.67C151.41 88.25 151.33 88.18 151.33 87.92C151.33 82.2067 151.33 76.5033 151.33 70.81C151.33 70.56 151.41 70.49 151.65 70.49C152.45 70.49 153.25 70.49 154.06 70.49C154.33 70.49 154.39 70.59 154.38 70.84C154.38 71.96 154.38 73.08 154.38 74.21V85.78H160.92C160.74 86.59 160.6 87.35 160.43 88.11H160.45ZM172.01 88.68C171.96 88.7026 171.905 88.7143 171.85 88.7143C171.795 88.7143 171.74 88.7026 171.69 88.68C170.991 88.3633 170.44 87.7907 170.15 87.08C170.089 87.1253 170.032 87.1754 169.98 87.23C169.471 87.7605 168.842 88.1609 168.146 88.3976C167.45 88.6343 166.707 88.7002 165.98 88.59C165.573 88.554 165.171 88.4769 164.78 88.36C164.089 88.1789 163.474 87.781 163.026 87.2249C162.578 86.6688 162.32 85.9836 162.29 85.27C162.246 84.7222 162.273 84.171 162.37 83.63C162.477 83.0728 162.713 82.5486 163.061 82.1003C163.408 81.6519 163.857 81.292 164.37 81.05C165.387 80.54 166.503 80.2601 167.64 80.23C168.16 80.23 168.64 80.23 169.2 80.23C169.44 80.23 169.52 80.15 169.5 79.92C169.492 79.422 169.458 78.9247 169.4 78.43C169.367 78.137 169.229 77.8658 169.013 77.6658C168.796 77.4657 168.515 77.3501 168.22 77.34C167.217 77.2563 166.211 77.472 165.33 77.96C164.85 78.19 164.39 78.48 163.87 78.77C163.47 78.11 163.05 77.44 162.62 76.77C163.729 76.0129 164.971 75.4702 166.28 75.17C167.319 74.9401 168.393 74.9197 169.44 75.11C170.252 75.2075 170.997 75.6075 171.528 76.2303C172.058 76.8531 172.334 77.6528 172.3 78.47C172.3 80.33 172.3 82.19 172.25 84.06C172.25 84.47 172.25 84.89 172.25 85.3C172.263 85.6149 172.351 85.9221 172.506 86.1967C172.66 86.4712 172.878 86.7054 173.14 86.88C173.205 86.9273 173.265 86.9809 173.32 87.04C172.91 87.55 172.46 88.12 172 88.68H172.01ZM185.71 85.58C185.44 86.2279 185.032 86.809 184.514 87.2823C183.995 87.7556 183.38 88.1098 182.71 88.32C181.964 88.5917 181.153 88.6351 180.382 88.4445C179.611 88.254 178.914 87.8381 178.38 87.25L178.25 87.13C178.183 87.4245 178.1 87.715 178 88C178 88.1 177.83 88.24 177.73 88.24C176.93 88.24 176.13 88.24 175.3 88.24C175.384 87.938 175.448 87.6306 175.49 87.32C175.55 86.61 175.6 85.9 175.6 85.2C175.6 81.07 175.6 76.93 175.6 72.8C175.6 71.91 175.42 71.03 175.33 70.14C175.324 70.0902 175.324 70.0398 175.33 69.99L178.24 69.35C178.436 70.4687 178.513 71.6051 178.47 72.74V76.14C178.525 76.115 178.576 76.0812 178.62 76.04C179.111 75.6209 179.686 75.3103 180.305 75.1283C180.925 74.9464 181.576 74.8972 182.216 74.984C182.856 75.0709 183.47 75.2917 184.019 75.6322C184.567 75.9727 185.038 76.4252 185.4 76.96C186.028 77.9483 186.409 79.0734 186.51 80.24C186.755 82.0618 186.471 83.9157 185.69 85.58H185.71Z" fill="#171D1C"/>
<path d="M183.1 84C183.1 84.12 183.04 84.24 183.01 84.36C182.948 84.6818 182.816 84.9859 182.622 85.2505C182.429 85.5151 182.18 85.7336 181.892 85.8904C181.604 86.0472 181.285 86.1383 180.958 86.1572C180.631 86.1762 180.304 86.1225 180 86C179.455 85.8526 178.963 85.5545 178.58 85.14C178.493 85.0322 178.444 84.8986 178.44 84.76C178.44 83.76 178.44 82.82 178.44 81.86C178.44 80.9 178.44 79.92 178.44 78.95C178.448 78.7936 178.504 78.6434 178.6 78.52C178.92 78.1228 179.343 77.82 179.822 77.6439C180.301 77.4678 180.819 77.4249 181.32 77.52C181.633 77.5503 181.933 77.6662 182.185 77.8548C182.437 78.0435 182.632 78.2978 182.75 78.59C182.996 79.1715 183.16 79.7838 183.24 80.41C183.38 81.6067 183.333 82.8179 183.1 84V84Z" fill="#171D1C"/>
<path d="M72.8 56.61C72.7559 56.7926 72.7024 56.9728 72.64 57.15C72.5448 57.4605 72.3859 57.7477 72.1732 57.9932C71.9606 58.2386 71.699 58.4369 71.4052 58.5753C71.1114 58.7138 70.792 58.7892 70.4673 58.7969C70.1426 58.8046 69.82 58.7444 69.52 58.62C69.0376 58.406 68.5814 58.1376 68.16 57.82C68.0975 57.7649 68.0473 57.6973 68.0128 57.6214C67.9784 57.5456 67.9603 57.4633 67.96 57.38C67.96 56.38 67.96 55.38 67.96 54.38C67.96 53.38 67.96 52.38 67.96 51.38C67.9663 51.2216 68.0262 51.0699 68.13 50.95C68.468 50.5799 68.8833 50.2886 69.3465 50.0968C69.8096 49.905 70.3092 49.8173 70.81 49.84C71.1741 49.8313 71.5316 49.9392 71.8301 50.1478C72.1287 50.3565 72.3529 50.655 72.47 51C72.7056 51.5661 72.8637 52.1615 72.94 52.77C73.1151 54.0485 73.0677 55.3476 72.8 56.61V56.61Z" fill="#171D1C"/>
<path d="M100.53 84.43C100.443 84.7833 100.278 85.1124 100.046 85.3926C99.8135 85.6728 99.5211 85.8968 99.1901 86.0479C98.8591 86.1989 98.4983 86.2731 98.1345 86.2648C97.7708 86.2565 97.4137 86.166 97.09 86L96.84 85.88C96.4898 85.761 96.1912 85.525 95.9946 85.2118C95.7979 84.8985 95.715 84.5271 95.76 84.16C95.85 82.44 95.76 80.71 95.76 78.98C95.7541 78.8721 95.7736 78.7642 95.8171 78.6652C95.8605 78.5662 95.9266 78.4788 96.01 78.41C96.3569 78.0668 96.7721 77.8005 97.2286 77.6282C97.6852 77.4559 98.1728 77.3816 98.66 77.41C98.9989 77.4095 99.3314 77.5026 99.6208 77.679C99.9102 77.8555 100.145 78.1084 100.3 78.41C100.628 79.1223 100.802 79.8959 100.81 80.68C100.81 81.02 100.81 81.36 100.81 81.68C100.877 82.606 100.782 83.5365 100.53 84.43V84.43Z" fill="#171D1C"/>
<path d="M112.22 55.89C112.22 56.37 112.22 56.89 112.22 57.32C112.232 57.4753 112.208 57.6312 112.149 57.7753C112.089 57.9194 111.998 58.0477 111.88 58.15C111.628 58.4315 111.32 58.6576 110.975 58.8143C110.631 58.9709 110.258 59.0545 109.88 59.06C109.666 59.0763 109.45 59.0497 109.246 58.9819C109.042 58.914 108.854 58.8062 108.692 58.6647C108.53 58.5232 108.398 58.3509 108.303 58.1578C108.208 57.9647 108.153 57.7547 108.14 57.54C108.103 57.2077 108.103 56.8723 108.14 56.54C108.177 56.1825 108.321 55.8443 108.553 55.5697C108.785 55.295 109.094 55.0965 109.44 55C110.337 54.7141 111.283 54.612 112.22 54.7V55.89Z" fill="#171D1C"/>
<path d="M169.44 83.23C169.44 83.81 169.44 84.39 169.44 84.98C169.461 85.0688 169.461 85.1612 169.44 85.25C169.173 85.6609 168.802 85.9938 168.365 86.2151C167.927 86.4364 167.439 86.5381 166.95 86.51C166.55 86.4779 166.176 86.2985 165.901 86.0066C165.626 85.7148 165.469 85.3311 165.46 84.93C165.435 84.6506 165.435 84.3694 165.46 84.09C165.48 83.7333 165.606 83.3907 165.822 83.1058C166.037 82.8209 166.333 82.6065 166.67 82.49C167.58 82.1842 168.545 82.0751 169.5 82.17L169.44 83.23Z" fill="#171D1C"/>
<path d="M78.9998 80.41H74.3498C74.1985 79.7244 74.3151 79.0068 74.6758 78.4044C75.0365 77.8019 75.614 77.3603 76.2898 77.17C76.6898 77.0803 77.1076 77.1157 77.4868 77.2713C77.866 77.4269 78.1882 77.6952 78.4099 78.04C78.8545 78.7467 79.0613 79.5773 78.9998 80.41Z" fill="#171D1C"/>
<path d="M139.83 80.41H135.13C135.05 79.4569 135.344 78.51 135.95 77.77C136.17 77.5439 136.437 77.3693 136.733 77.2586C137.028 77.1479 137.344 77.1039 137.659 77.1297C137.973 77.1555 138.278 77.2505 138.551 77.4079C138.825 77.5652 139.06 77.7811 139.24 78.04C139.676 78.7505 139.882 79.5781 139.83 80.41V80.41Z" fill="#171D1C"/>
<path d="M85.9002 52.94H81.1802C81.137 52.4554 81.1927 51.967 81.344 51.5046C81.4952 51.0422 81.7389 50.6153 82.0602 50.25C82.2823 50.0374 82.5478 49.8754 82.8384 49.7751C83.129 49.6748 83.4379 49.6386 83.7439 49.669C84.0498 49.6994 84.3455 49.7957 84.6107 49.9512C84.8759 50.1067 85.1043 50.3178 85.2802 50.57C85.7129 51.2829 85.9283 52.1065 85.9002 52.94Z" fill="#171D1C"/>
</svg>
