<svg width="269" height="117" viewBox="0 0 269 117" fill="none" xmlns="http://www.w3.org/2000/svg">
<path d="M46.4702 26.8C46.6402 27.42 47.0902 28.85 47.5402 30.28L45.8302 28.4L46.0002 33.06H45.7302L43.4002 28.48L41.1502 33.13H41.0002L41.1702 28.48L39.1702 30.63C39.6102 29.1 40.1702 27.63 40.3302 26.87C36.1302 29.57 33.1602 37.46 33.1602 46.76C33.1602 58.24 37.7302 67.57 43.4702 67.57C49.2102 67.57 53.8202 58.24 53.8202 46.79C53.7502 37.36 50.6802 29.39 46.4702 26.8Z" fill="#171D1C"/>
<path d="M53.65 42C51.4406 44.1001 49.7318 46.6702 48.65 49.52C48.1491 50.7935 47.7609 52.1086 47.49 53.45L43.43 42L39.43 53.45C39.1559 52.1083 38.7644 50.7932 38.26 49.52C37.1146 46.6665 35.3565 44.0994 33.11 42C31.58 66.74 43.11 67.9 43.33 68C43.6 67.94 55.08 66.68 53.65 42Z" fill="#171D1C"/>
<path d="M43.43 66.58H40.29C40.6045 67.1493 41.0567 67.6306 41.6052 67.98C42.1538 68.3294 42.7812 68.5357 43.43 68.58C44.0789 68.5357 44.7063 68.3294 45.2548 67.98C45.8034 67.6306 46.2556 67.1493 46.57 66.58H43.43Z" fill="#171D1C"/>
<path d="M48.7202 64.7C48.7202 64.7 45.1402 68.28 45.5802 72.86C43.3302 66.23 44.4202 65.07 44.4202 65.07L48.7202 64.7Z" fill="#171D1C"/>
<path d="M39.1201 65.69C39.1201 65.69 42.6101 68.69 42.9801 72.76C44.0501 65.86 42.6101 64.9 42.6101 64.9L39.1201 65.69Z" fill="#171D1C"/>
<path d="M45.5801 71.6C45.5776 72.1975 45.6345 72.7938 45.7501 73.38C45.4442 72.852 45.2374 72.2724 45.1401 71.67L45.5801 71.6Z" fill="#171D1C"/>
<path d="M42.2699 70.26C42.5025 70.9658 42.683 71.6878 42.8099 72.42C42.9099 71.15 42.8099 71.08 42.8099 71.08C42.8099 71.08 42.1699 70 42.2699 70.26Z" fill="#171D1C"/>
<path d="M45.9299 69.45C45.8133 69.8599 45.7528 70.2838 45.7499 70.71C45.7325 71.7548 45.9802 72.787 46.4699 73.71C45.8499 72.38 45.3099 71.11 44.6899 69.78L45.9299 69.45Z" fill="#171D1C"/>
<path d="M39.4702 66.13C40.0027 66.6788 40.4847 67.2746 40.9102 67.91C41.4949 68.7856 41.9213 69.757 42.1702 70.78C42.2939 69.9636 42.2008 69.1291 41.9002 68.36C41.7693 67.9818 41.5841 67.6248 41.3502 67.3C40.7043 66.9418 40.0768 66.5513 39.4702 66.13Z" fill="#171D1C"/>
<path d="M76.4302 51V40.23L71.5602 46.34L66.8302 40.23V51H62.7002V33.6H66.5802L71.5802 40.23L76.4502 33.62H80.5802V51H76.4302Z" fill="#171D1C"/>
<path d="M94.8599 51L93.7999 47.83H87.5899L86.5999 51H82.1499L88.5999 33.53H92.7299L99.3399 51H94.8599ZM90.7299 38.4L88.8299 44.4H92.6399L90.7299 38.4Z" fill="#171D1C"/>
<path d="M106.19 43.94V50.94H102.06V43.94L96.0601 33.6H100.78L104.1 40.06L107.49 33.6H112.11L106.19 43.94Z" fill="#171D1C"/>
<path d="M120 51.29C118.776 51.3212 117.558 51.1022 116.422 50.6466C115.285 50.1909 114.253 49.5081 113.39 48.64C111.693 46.9202 110.741 44.6012 110.741 42.185C110.741 39.7688 111.693 37.4498 113.39 35.73C114.253 34.8619 115.285 34.1791 116.422 33.7234C117.558 33.2678 118.776 33.0488 120 33.08C121.217 33.0332 122.432 33.2372 123.567 33.6793C124.702 34.1214 125.735 34.7922 126.6 35.65C127.475 36.4766 128.165 37.4803 128.622 38.5942C129.078 39.7082 129.293 40.9067 129.25 42.11C129.276 43.3085 129.057 44.4996 128.607 45.6105C128.156 46.7214 127.484 47.7284 126.63 48.57C125.788 49.4772 124.759 50.1903 123.614 50.66C122.47 51.1297 121.236 51.3447 120 51.29V51.29ZM120 47.65C120.696 47.6742 121.389 47.5453 122.03 47.2723C122.672 46.9993 123.245 46.5888 123.71 46.07C124.205 45.554 124.591 44.9437 124.845 44.2754C125.1 43.6071 125.217 42.8945 125.19 42.18C125.219 41.4773 125.102 40.7762 124.847 40.1206C124.593 39.465 124.205 38.869 123.71 38.37C123.229 37.8711 122.653 37.474 122.016 37.2026C121.378 36.9311 120.693 36.7908 120 36.79C119.304 36.7671 118.611 36.8967 117.97 37.1696C117.329 37.4426 116.756 37.8522 116.29 38.37C115.333 39.4079 114.801 40.7681 114.801 42.18C114.801 43.5919 115.333 44.9521 116.29 45.99C116.738 46.5342 117.307 46.9672 117.95 47.2551C118.594 47.5431 119.295 47.6783 120 47.65V47.65Z" fill="#171D1C"/>
<path d="M140.68 51L136.37 44.39H135.56V51H131.43V33.6H137.36C138.999 33.5017 140.619 33.9988 141.92 35C142.46 35.4848 142.883 36.086 143.157 36.7581C143.431 37.4303 143.548 38.1558 143.5 38.88C143.542 39.8843 143.254 40.8745 142.68 41.7C142.089 42.5464 141.251 43.1891 140.28 43.54L145.28 50.98H140.7L140.68 51ZM135.63 36.85V41H137C137.658 41.0261 138.304 40.8248 138.83 40.43C139.037 40.2397 139.202 40.0096 139.318 39.7535C139.433 39.4975 139.495 39.2207 139.5 38.94C139.493 38.6713 139.429 38.407 139.314 38.1642C139.199 37.9214 139.034 37.7054 138.83 37.53C138.608 37.3284 138.347 37.174 138.064 37.076C137.78 36.978 137.479 36.9386 137.18 36.96H135.59L135.63 36.85Z" fill="#171D1C"/>
<path d="M144.74 39.46L144.49 39.14C144.809 38.86 145.068 38.5178 145.25 38.1343C145.432 37.7509 145.534 37.3343 145.55 36.91C145.532 36.5395 145.434 36.1774 145.261 35.8491C145.088 35.5209 144.845 35.2345 144.55 35.01L143.89 34.34L146.36 31.77L147.18 32.51C147.569 32.8376 147.887 33.242 148.112 33.6981C148.338 34.1541 148.466 34.6518 148.49 35.16C148.479 35.5794 148.385 35.9924 148.214 36.3752C148.042 36.758 147.796 37.103 147.49 37.39C146.762 38.3003 145.816 39.0122 144.74 39.46V39.46Z" fill="#171D1C"/>
<path d="M148.52 47.58L151.59 45.75C151.774 46.3729 152.155 46.9193 152.676 47.307C153.198 47.6947 153.83 47.9028 154.48 47.9C155.075 47.9376 155.664 47.7601 156.14 47.4C156.341 47.2625 156.506 47.0794 156.623 46.8656C156.739 46.6518 156.804 46.4134 156.81 46.17C156.802 45.7298 156.623 45.31 156.31 45C155.494 44.4009 154.607 43.9039 153.67 43.52C152.344 43.0315 151.154 42.2326 150.2 41.19C149.599 40.347 149.28 39.3353 149.29 38.3C149.295 37.6172 149.451 36.944 149.746 36.3285C150.042 35.7131 150.47 35.1706 151 34.74C152.143 33.7549 153.623 33.2497 155.13 33.33C156.188 33.2541 157.246 33.4785 158.182 33.9774C159.117 34.4763 159.893 35.2294 160.42 36.15L157.55 38C157.329 37.5585 156.984 37.1905 156.558 36.9403C156.133 36.6901 155.643 36.5685 155.15 36.59C154.678 36.5749 154.215 36.7233 153.84 37.01C153.686 37.1414 153.562 37.3047 153.477 37.4886C153.393 37.6724 153.349 37.8725 153.349 38.075C153.349 38.2775 153.393 38.4776 153.477 38.6614C153.562 38.8453 153.686 39.0086 153.84 39.14C154.562 39.6671 155.344 40.1068 156.17 40.45C157.551 41.0332 158.809 41.8711 159.88 42.92C160.601 43.7807 160.979 44.8777 160.94 46C160.948 46.7402 160.78 47.4717 160.449 48.1341C160.119 48.7966 159.636 49.371 159.04 49.81C157.714 50.8243 156.079 51.3505 154.41 51.3C153.173 51.3201 151.957 50.9789 150.91 50.3182C149.864 49.6574 149.033 48.7058 148.52 47.58V47.58Z" fill="#171D1C"/>
<path d="M173 36.91V39.91H178.47V43.48H173V50.92H168.87V33.43H179.87V36.89H173V36.91Z" fill="#171D1C"/>
<path d="M198 42.7C198.065 44.0214 197.871 45.3428 197.43 46.59C197.074 47.5051 196.517 48.3286 195.8 49C195.124 49.7271 194.274 50.2708 193.33 50.58C192.206 50.9255 191.036 51.0942 189.86 51.08C188.769 51.0983 187.683 50.9292 186.65 50.58C185.707 50.2242 184.858 49.6562 184.17 48.92C183.524 48.1797 182.991 47.3473 182.59 46.45C182.222 45.2147 182.053 43.9285 182.09 42.64V33.44H186.22V42.62C186.123 43.9093 186.476 45.1924 187.22 46.25C187.557 46.6555 187.984 46.9775 188.466 47.1909C188.948 47.4042 189.473 47.5032 190 47.48C192.58 47.48 193.81 45.82 193.81 42.61V33.43H198V42.7Z" fill="#171D1C"/>
<path d="M212 50.79L204.28 40V50.87H200.15V33.43H204.28L212.08 44.36V33.43H216.21V50.87H212V50.79Z" fill="#171D1C"/>
<path d="M218.41 50.79V33.43H224C226.575 33.2748 229.113 34.1041 231.1 35.75C231.971 36.5362 232.661 37.5023 233.122 38.5814C233.583 39.6606 233.804 40.827 233.77 42C233.834 43.2152 233.63 44.4296 233.174 45.5578C232.718 46.6859 232.02 47.7005 231.13 48.53C229.4 50.11 226.92 50.85 223.78 50.85H218.41V50.75V50.79ZM222.47 36.79V47.48H223.63C225.235 47.565 226.817 47.0639 228.08 46.07C228.619 45.5819 229.042 44.979 229.317 44.3057C229.593 43.6325 229.713 42.9061 229.67 42.18C229.72 41.4369 229.603 40.6922 229.328 40.0001C229.053 39.3081 228.626 38.6862 228.08 38.18C226.817 37.1861 225.235 36.685 223.63 36.77L222.47 36.79Z" fill="#171D1C"/>
<path d="M66.8802 60.69V63.69H72.4002V67.3H66.8802V74.82H62.7002V57.2H73.8102V60.69H66.8802Z" fill="#171D1C"/>
<path d="M86.62 75.14C85.3839 75.1694 84.1547 74.9479 83.0066 74.489C81.8585 74.0301 80.8153 73.3433 79.94 72.47C78.2349 70.7362 77.2793 68.4018 77.2793 65.97C77.2793 63.5382 78.2349 61.2038 79.94 59.47C80.8153 58.5967 81.8585 57.9099 83.0066 57.451C84.1547 56.9921 85.3839 56.7706 86.62 56.8C87.8522 56.7527 89.0809 56.959 90.23 57.4063C91.3791 57.8535 92.4241 58.5321 93.3 59.4C94.1805 60.2295 94.876 61.2354 95.3413 62.352C95.8065 63.4686 96.031 64.6708 96 65.88C95.9987 67.1041 95.755 68.3159 95.283 69.4453C94.8109 70.5748 94.1198 71.5995 93.2496 72.4604C92.3794 73.3214 91.3472 74.0014 90.2128 74.4613C89.0784 74.9212 87.8641 75.1519 86.64 75.14H86.62ZM86.62 71.38C87.3245 71.4035 88.0258 71.2735 88.675 70.9989C89.3243 70.7244 89.9061 70.3119 90.38 69.79C90.8858 69.2721 91.2807 68.6565 91.5403 67.9807C91.7999 67.305 91.9189 66.5833 91.89 65.86C91.925 65.1465 91.8086 64.4336 91.5484 63.7683C91.2881 63.103 90.8899 62.5003 90.38 62C89.8919 61.4964 89.3075 61.0961 88.6615 60.823C88.0156 60.5498 87.3213 60.4094 86.62 60.41C85.9155 60.3872 85.2145 60.5175 84.5653 60.792C83.9162 61.0665 83.3343 61.4787 82.86 62C82.3651 62.5051 81.9765 63.1042 81.7171 63.7621C81.4578 64.4199 81.3329 65.1231 81.35 65.83C81.3271 66.5376 81.4493 67.2425 81.709 67.9011C81.9687 68.5598 82.3604 69.1584 82.86 69.66C83.3226 70.2045 83.8991 70.6407 84.5488 70.9379C85.1985 71.2351 85.9056 71.386 86.62 71.38Z" fill="#171D1C"/>
<path d="M108.79 74.82L104.46 68.11H103.62V74.79H99.4399V57.18H105.44C107.093 57.082 108.726 57.5825 110.04 58.59C110.586 59.0815 111.013 59.6907 111.288 60.3716C111.564 61.0526 111.68 61.7872 111.63 62.52C111.675 63.5385 111.375 64.5424 110.78 65.37C110.186 66.2192 109.339 66.8596 108.36 67.2L113.36 74.72L108.76 74.82H108.79ZM103.62 60.44V64.62H105C105.662 64.6574 106.314 64.4471 106.83 64.03C107.038 63.837 107.205 63.6036 107.32 63.344C107.436 63.0844 107.497 62.804 107.5 62.52C107.498 62.2503 107.437 61.9844 107.321 61.7409C107.205 61.4973 107.038 61.282 106.83 61.11C106.603 60.9045 106.338 60.7464 106.05 60.645C105.761 60.5437 105.455 60.5012 105.15 60.52L103.59 60.44H103.62Z" fill="#171D1C"/>
<path d="M122.3 74.82V57.2H126.48V71.2H133.23V74.89L122.3 74.82Z" fill="#171D1C"/>
<path d="M144.37 75.14C143.133 75.1711 141.904 74.9505 140.755 74.4915C139.607 74.0325 138.564 73.3447 137.69 72.47C135.98 70.7387 135.021 68.4034 135.021 65.97C135.021 63.5366 135.98 61.2013 137.69 59.47C139.494 57.7684 141.876 56.8149 144.356 56.8019C146.836 56.7889 149.228 57.7174 151.05 59.4C151.928 60.234 152.62 61.2443 153.08 62.3645C153.54 63.4847 153.758 64.6896 153.72 65.9C153.721 67.124 153.48 68.3362 153.009 69.4661C152.539 70.5961 151.849 71.6215 150.979 72.4828C150.109 73.3442 149.077 74.0243 147.943 74.4839C146.808 74.9434 145.594 75.1732 144.37 75.16V75.14ZM144.37 71.38C145.074 71.4015 145.775 71.2706 146.424 70.9961C147.073 70.7217 147.655 70.3103 148.13 69.79C148.634 69.2708 149.027 68.6549 149.287 67.9795C149.546 67.304 149.666 66.5831 149.64 65.86C149.657 65.1561 149.534 64.4559 149.277 63.8003C149.02 63.1447 148.635 62.547 148.144 62.0422C147.653 61.5374 147.067 61.1357 146.418 60.8606C145.77 60.5854 145.074 60.4424 144.37 60.44C143.668 60.4127 142.968 60.538 142.319 60.8074C141.669 61.0767 141.086 61.4836 140.61 62C140.113 62.5037 139.723 63.1027 139.464 63.7608C139.204 64.419 139.08 65.1228 139.1 65.83C139.075 66.5379 139.196 67.2434 139.455 67.9025C139.715 68.5615 140.108 69.1598 140.61 69.66C141.06 70.2185 141.635 70.6645 142.287 70.963C142.94 71.2615 143.653 71.4043 144.37 71.38Z" fill="#171D1C"/>
<path d="M169.08 74.82L161.31 63.88V74.82H157.13V57.2H161.31L169.15 68.2V57.2H173.34V74.82H169.08Z" fill="#171D1C"/>
<path d="M176.75 74.82V57.2H182.44C185.44 57.2 187.86 57.94 189.61 59.55C190.495 60.349 191.194 61.3329 191.657 62.4319C192.121 63.5309 192.336 64.7183 192.29 65.91C192.352 67.1405 192.145 68.3698 191.682 69.5116C191.219 70.6535 190.512 71.6802 189.61 72.52C187.86 74.1 185.36 74.87 182.17 74.87H176.75V74.82ZM180.93 60.62V71.4H182.09C183.713 71.4907 185.314 70.9937 186.6 70C187.142 69.5062 187.566 68.8963 187.84 68.2158C188.113 67.5353 188.23 66.8018 188.18 66.07C188.215 65.3294 188.092 64.59 187.819 63.9004C187.547 63.2109 187.131 62.587 186.6 62.07C185.314 61.076 183.714 60.5758 182.09 60.66L180.93 60.62V60.62Z" fill="#171D1C"/>
<path d="M203.42 75.14C202.184 75.1694 200.955 74.9479 199.806 74.489C198.658 74.0301 197.615 73.3433 196.74 72.47C195.035 70.7362 194.079 68.4018 194.079 65.97C194.079 63.5382 195.035 61.2038 196.74 59.47C197.615 58.5967 198.658 57.9099 199.806 57.451C200.955 56.9921 202.184 56.7706 203.42 56.8C204.652 56.7562 205.879 56.9642 207.028 57.4113C208.176 57.8583 209.222 58.535 210.1 59.4C210.978 60.234 211.67 61.2443 212.13 62.3645C212.59 63.4847 212.808 64.6896 212.77 65.9C212.771 67.124 212.53 68.3362 212.059 69.4661C211.589 70.5961 210.899 71.6215 210.029 72.4828C209.159 73.3442 208.127 74.0243 206.993 74.4839C205.858 74.9434 204.644 75.1732 203.42 75.16V75.14ZM203.42 71.38C204.124 71.4028 204.825 71.2725 205.474 70.998C206.124 70.7235 206.705 70.3113 207.18 69.79C207.684 69.2708 208.077 68.6549 208.337 67.9795C208.596 67.304 208.716 66.5831 208.69 65.86C208.707 65.1561 208.584 64.4559 208.327 63.8003C208.07 63.1447 207.685 62.547 207.194 62.0422C206.703 61.5374 206.117 61.1357 205.469 60.8606C204.82 60.5854 204.124 60.4424 203.42 60.44C202.718 60.4127 202.018 60.538 201.369 60.8074C200.719 61.0767 200.136 61.4836 199.66 62C199.163 62.5037 198.773 63.1027 198.514 63.7608C198.254 64.419 198.13 65.1228 198.15 65.83C198.125 66.5379 198.246 67.2434 198.505 67.9025C198.765 68.5615 199.158 69.1598 199.66 69.66C200.121 70.2066 200.697 70.6443 201.347 70.9417C201.997 71.2391 202.705 71.3888 203.42 71.38V71.38Z" fill="#171D1C"/>
<path d="M227.29 74.82L219.52 63.88V74.82H215.34V57.2H219.52L227.37 68.2V57.2H231.55V74.82H227.29Z" fill="#171D1C"/>
<path d="M44.5901 65.41C44.6887 69.3673 45.8981 73.2171 48.0801 76.52C50.455 79.7576 53.6862 82.2684 57.4101 83.77C61.2363 85.3116 65.2409 86.3666 69.3301 86.91C73.4664 87.4238 77.6321 87.6643 81.8001 87.63C90.202 87.4559 98.5865 86.7881 106.91 85.63L119.45 83.92C123.66 83.38 127.89 82.86 132.09 82.59C148.94 81.7 165.89 81.25 182.84 82.32C199.79 83.39 216.53 85.53 233.3 87.32L233.13 89.1C216.36 87.22 199.61 85.17 182.76 84.1C165.911 83.2384 149.026 83.3519 132.19 84.44C128.06 84.62 123.86 85.16 119.65 85.71L107.11 87.31C98.6998 88.451 90.2342 89.1387 81.7501 89.37C77.4707 89.4707 73.1897 89.2635 68.9401 88.75C64.6411 88.3178 60.4198 87.3088 56.3901 85.75C52.1945 84.1659 48.5094 81.4695 45.7301 77.95C44.3936 76.1208 43.3104 74.1194 42.5101 72C41.8132 69.8672 41.3341 67.6693 41.0801 65.44L44.5901 65.41Z" fill="#171D1C"/>
<path d="M235.18 88.45C234.616 88.916 233.911 89.1769 233.18 89.19C232.91 89.19 232.78 89.19 232.51 89.12L232.17 87.28C232.98 87.38 233.9 87.46 234.71 87.56C235.52 87.66 235.56 88 235.18 88.45Z" fill="#171D1C"/>
</svg>
