<svg width="239" height="117" viewBox="0 0 239 117" fill="none" xmlns="http://www.w3.org/2000/svg">
<path d="M190.36 70.89C180.574 72.8197 170.634 73.8606 160.66 74C152.285 74.2905 143.903 73.6736 135.66 72.16C131.801 71.5286 128.065 70.2935 124.59 68.5C124.54 69.43 123.73 70.14 123.84 71.12C126.314 73.1416 128.996 74.8948 131.84 76.35H54.7501C41.2801 76.35 27.8201 76.35 14.3501 76.35C13.1301 76.35 12.6701 76.62 12.7001 77.95C12.7901 81.48 12.7001 85.03 12.7001 88.57C12.7001 90.75 12.7001 90.75 14.9101 90.75H75.6001C94.4334 90.75 113.263 90.75 132.09 90.75C133.48 90.75 133.95 90.4 133.9 88.95C133.79 85.52 133.9 82.08 133.83 78.65C133.83 77.29 134.12 77.18 135.35 77.59C141.11 79.4895 147.126 80.5011 153.19 80.59C160.484 80.7779 167.776 80.1507 174.93 78.72C182.881 77.3062 190.574 74.7037 197.75 71C199.575 70.1871 201.213 69.0057 202.56 67.53C198.579 68.9387 194.502 70.0616 190.36 70.89V70.89ZM27.6401 86.23C27.0701 86.43 26.8201 85.84 26.5501 85.47C25.9201 84.62 25.3401 83.71 24.7301 82.84C24.4601 82.47 24.1701 82.12 23.5701 81.36C23.5701 83.06 23.5701 84.26 23.5701 85.47C23.5701 85.83 23.5701 86.32 23.0401 86.24C22.5101 86.16 22.7501 85.73 22.7401 85.44C22.7401 83.83 22.7401 82.22 22.7401 80.62C22.7401 80.27 22.6501 79.81 23.1601 79.7C23.6701 79.59 23.8301 79.88 24.0701 80.21C24.9112 81.6152 25.8608 82.9526 26.9101 84.21C27.4201 82.61 26.8101 81.08 27.4301 79.62C28.1801 80.07 27.9301 80.71 27.9501 81.23C27.9501 82.51 27.9501 83.8 27.9501 85.09C27.9201 85.48 28.1401 86.05 27.6401 86.23ZM33.6401 83.64C33.4401 84.38 32.7601 84.01 32.2801 84.09C32.0201 84.09 31.7401 84.09 31.4801 84.09C31.2201 84.09 30.5501 83.85 30.3601 84.39C30.3107 84.5765 30.3219 84.7739 30.392 84.9536C30.4621 85.1334 30.5875 85.2862 30.7501 85.39C30.9255 85.5573 31.1478 85.6671 31.3873 85.7046C31.6267 85.7421 31.8719 85.7056 32.0901 85.6C32.5401 85.4 32.7401 84.71 33.6101 84.94C33.5314 85.2033 33.401 85.4483 33.2267 85.6607C33.0523 85.8731 32.8373 86.0486 32.5944 86.1771C32.3514 86.3056 32.0853 86.3844 31.8116 86.4089C31.5379 86.4334 31.262 86.4032 31.0001 86.32C30.5247 86.214 30.0979 85.9533 29.7866 85.5787C29.4754 85.2041 29.2972 84.7368 29.2801 84.25C29.1593 83.6938 29.2334 83.1129 29.4902 82.6049C29.7469 82.0969 30.1706 81.6926 30.6901 81.46C31.1043 81.255 31.5767 81.1998 32.0269 81.3037C32.4772 81.4076 32.8776 81.6643 33.1601 82.03C33.377 82.2308 33.5359 82.4861 33.6204 82.7693C33.7048 83.0525 33.7116 83.3532 33.6401 83.64ZM39.4001 86.15C38.8601 86.56 38.6001 86.15 38.4601 85.73C38.2101 84.93 38.0201 84.12 37.7801 83.2C37.3154 83.8506 37.0199 84.6067 36.9201 85.4C36.8101 85.8 36.8501 86.33 36.2301 86.28C35.6101 86.23 35.4201 85.97 35.3201 85.37C35.1001 84.08 34.7701 82.81 34.4101 81.2C35.4801 81.74 35.4101 82.49 35.6801 83.1C35.8101 83.43 35.8201 83.92 36.3201 83.9C36.8201 83.88 36.7201 83.46 36.8401 83.19C37.1101 82.59 36.7701 81.48 37.6201 81.46C38.4701 81.44 38.2401 82.61 38.6201 83.21C38.8023 83.6632 38.9299 84.1366 39.0001 84.62C39.6601 83.62 39.6001 82.32 40.4401 81.43C40.6801 82.16 39.9201 85.74 39.4001 86.15ZM50.0001 85.09C49.6898 85.5816 49.2346 85.9649 48.6973 86.187C48.16 86.4091 47.567 86.4591 47.0001 86.33C46.4413 86.2496 45.9218 85.996 45.5146 85.6049C45.1074 85.2139 44.8331 84.7051 44.7301 84.15C44.6507 83.7311 44.6072 83.3063 44.6001 82.88C44.4865 82.1895 44.6263 81.4812 44.9939 80.8858C45.3615 80.2903 45.9319 79.8479 46.6001 79.64C47.123 79.4349 47.6951 79.39 48.2436 79.5111C48.7921 79.6322 49.2922 79.9138 49.6801 80.32C49.9201 80.54 50.3901 80.88 50.0901 81.24C49.7901 81.6 49.4301 81.29 49.0901 80.97C48.8815 80.7465 48.6291 80.5683 48.3487 80.4465C48.0683 80.3247 47.7658 80.2618 47.4601 80.2618C47.1544 80.2618 46.8519 80.3247 46.5715 80.4465C46.2911 80.5683 46.0387 80.7465 45.8301 80.97C45.4568 81.6424 45.3106 82.4174 45.4133 83.1796C45.516 83.9418 45.8621 84.6504 46.4001 85.2C46.6206 85.4 46.8869 85.5425 47.1756 85.615C47.4643 85.6874 47.7664 85.6876 48.0552 85.6154C48.344 85.5432 48.6105 85.4009 48.8311 85.2011C49.0517 85.0013 49.2197 84.7502 49.3201 84.47C49.4901 84.16 49.6901 83.92 50.0601 84.16C50.4301 84.4 50.2201 84.78 50.0001 85.09ZM53.5001 86.37C52.8758 86.2949 52.3013 85.9918 51.8869 85.519C51.4725 85.0461 51.2474 84.4368 51.2548 83.8081C51.2622 83.1794 51.5017 82.5755 51.9272 82.1126C52.3527 81.6497 52.9342 81.3603 53.5601 81.3C54.9301 81.3 55.7901 82.3 55.7801 83.86C55.7701 85.42 55.0001 86.37 53.5301 86.37H53.5001ZM57.7601 85.65C57.7601 85.92 57.7601 86.22 57.3901 86.24C57.0201 86.26 57.0001 86 57.0001 85.71C57.0001 83.9 57.0001 82.09 57.0001 80.28C57.0001 80 57.1101 79.72 57.4501 79.76C57.7901 79.8 57.8301 80.1 57.8301 80.37C57.8301 81.28 57.8301 82.18 57.8301 83.09C57.8001 83.94 57.8001 84.8 57.7901 85.65H57.7601ZM60.0401 84.8C60.0401 84.97 60.0401 85.14 60.0401 85.31V85.57C60.0401 85.86 60.1001 86.28 59.6101 86.25C59.2901 86.25 59.2401 85.92 59.2401 85.64C59.2401 83.88 59.2401 82.12 59.2401 80.35C59.2401 80.08 59.3101 79.76 59.6201 79.74C59.9301 79.72 60.0401 80.14 60.0501 80.44C60.0601 80.74 60.0501 81.25 60.0501 81.65C60.0501 82.05 60.0501 82.65 60.0501 83.17C60.0501 83.51 60.0501 83.85 60.0501 84.17L60.0401 84.8ZM64.4701 84.09C64.1371 84.0687 63.8031 84.0687 63.4701 84.09C63.0701 84.09 62.5801 83.95 62.3001 84.37C62.0201 84.79 62.3001 84.99 62.5401 85.22C62.705 85.4328 62.9366 85.5841 63.1978 85.6494C63.4589 85.7146 63.7345 85.6902 63.9801 85.58C64.4301 85.4 64.6101 84.81 65.3401 84.84C65.1201 86.27 64.1801 86.46 63.1101 86.34C62.6475 86.3308 62.2054 86.1476 61.8718 85.827C61.5382 85.5064 61.3377 85.0719 61.3101 84.61C61.1801 83.3 61.1101 81.94 62.7001 81.41C63.2067 81.206 63.7735 81.2114 64.2761 81.4252C64.7787 81.639 65.1757 82.0435 65.3801 82.55C66.0001 83.57 65.8401 84.19 64.5001 84.09H64.4701ZM70.6901 86.74C70.5792 87.0808 70.3863 87.3892 70.1284 87.6381C69.8705 87.887 69.5554 88.0688 69.2109 88.1675C68.8663 88.2662 68.5028 88.2789 68.1522 88.2043C67.8016 88.1298 67.4747 87.9704 67.2001 87.74C66.9601 87.51 66.7201 87.22 67.0001 86.91C67.2801 86.6 67.4601 86.91 67.6601 87.09C68.9101 88.09 69.5701 87.52 70.0701 85.88C68.7101 86.4 67.7201 86.36 66.9901 85.31C66.6984 84.8641 66.543 84.3428 66.543 83.81C66.543 83.2772 66.6984 82.7559 66.9901 82.31C67.7901 80.68 69.2201 81.41 70.3601 81.5C71.5001 81.59 70.8501 82.62 70.8701 83.22C70.9962 84.3942 70.9457 85.5807 70.7201 86.74H70.6901ZM76.3501 83.61C76.2301 84.49 75.4001 83.99 74.8901 84.08C74.6801 84.08 74.4501 84.08 74.2501 84.08C73.8201 84.18 73.2501 83.85 72.9901 84.46C72.8601 84.79 73.1101 85.06 73.3401 85.3C73.52 85.5029 73.7638 85.6383 74.0311 85.6838C74.2984 85.7292 74.5733 85.6821 74.8101 85.55C75.2301 85.36 75.4501 84.83 76.1001 84.79C76.0101 86.16 75.1601 86.41 74.1001 86.35C73.6087 86.3535 73.1333 86.1761 72.7644 85.8515C72.3955 85.5269 72.159 85.0778 72.1001 84.59C71.9012 84.0507 71.8919 83.4598 72.0736 82.9145C72.2554 82.3692 72.6174 81.9021 73.1001 81.59C73.4734 81.3215 73.9278 81.1898 74.3868 81.2172C74.8457 81.2445 75.2813 81.4291 75.6201 81.74C75.9106 81.948 76.1361 82.2341 76.2707 82.565C76.4052 82.896 76.4431 83.2583 76.3801 83.61H76.3501ZM88.2301 80.73C87.8401 82.34 87.4101 83.94 86.9901 85.53C86.8901 85.89 86.7901 86.29 86.2901 86.28C85.7901 86.27 85.7601 85.79 85.6601 85.47C85.2101 84.07 84.8001 82.65 84.3801 81.24H84.0601C83.6101 82.72 83.1701 84.19 82.7101 85.66C82.6201 85.96 82.5501 86.31 82.1101 86.28C81.6701 86.25 81.5601 85.98 81.4801 85.66C81.0201 83.95 80.5701 82.25 80.1401 80.54C80.0701 80.26 79.9401 79.83 80.3501 79.72C80.7601 79.61 80.9201 80.06 81.0301 80.41C81.4201 81.68 81.3801 83.07 82.1401 84.34C82.6565 83.1382 83.0778 81.8977 83.4001 80.63C83.4801 80.16 83.6201 79.63 84.2701 79.63C84.9201 79.63 84.9801 80.16 85.1101 80.63C85.4188 81.9056 85.8508 83.1481 86.4001 84.34C86.7201 83.05 87.0401 81.76 87.4001 80.47C87.4901 80.12 87.5401 79.61 88.0501 79.73C88.5601 79.85 88.3401 80.42 88.2601 80.73H88.2301ZM93.5601 84C93.5755 84.3218 93.522 84.6431 93.4031 84.9425C93.2841 85.2419 93.1026 85.5124 92.8706 85.7359C92.6386 85.9594 92.3615 86.1307 92.0578 86.2383C91.7542 86.346 91.4311 86.3875 91.1101 86.36C89.7201 86.29 89.0001 85.36 89.0401 83.69C89.0053 83.3822 89.0374 83.0705 89.1342 82.7762C89.2311 82.482 89.3904 82.2121 89.6012 81.9852C89.812 81.7582 90.0694 81.5794 90.3557 81.4612C90.6421 81.3429 90.9506 81.288 91.2601 81.3C91.5952 81.3066 91.9252 81.3843 92.2281 81.5278C92.531 81.6713 92.8 81.8775 93.0174 82.1327C93.2348 82.3878 93.3955 82.6862 93.4891 83.0081C93.5826 83.33 93.6068 83.6681 93.5601 84V84ZM96.7301 82.12C95.2501 82.36 95.6001 83.51 95.4801 84.47C95.4201 85 96.0001 86 94.9401 86C94.2001 86 94.6601 85 94.5401 84.54C94.5299 84.4336 94.5299 84.3264 94.5401 84.22C94.536 84.1968 94.536 84.1732 94.5401 84.15V84C94.5401 84 94.5401 83.94 94.5401 83.91V83.47C94.5401 83.41 94.5401 83.34 94.5401 83.28C94.5401 83.22 94.5401 83.15 94.5401 83.08V83C94.5351 82.9568 94.5351 82.9132 94.5401 82.87C94.5401 82.87 94.5401 82.78 94.5401 82.74V82.56C94.5401 82.56 94.5401 82.51 94.5401 82.49C94.5388 82.4667 94.5388 82.4433 94.5401 82.42V82.37L94.6001 82.16C94.6001 82.16 94.6001 82.16 94.6001 82.1L94.6901 81.95H94.7601H94.8201H94.8801H95.0101H95.1001H96.0301C96.2201 81.95 96.4901 82.04 96.5601 82.17C97.2601 81.87 97.0001 82.08 96.7301 82.12ZM98.8201 82.8C98.5912 83.2003 98.4978 83.6638 98.5536 84.1214C98.6095 84.5791 98.8117 85.0065 99.1301 85.34C100.07 86.26 100.68 85.12 101.57 84.7C101.4 85.95 100.83 86.43 99.7801 86.37C99.2599 86.3702 98.7601 86.1678 98.3867 85.8056C98.0133 85.4434 97.7957 84.95 97.7801 84.43C97.6101 83.15 97.7801 81.87 99.2001 81.43C99.4539 81.3164 99.7302 81.2618 100.008 81.2704C100.286 81.2789 100.559 81.3503 100.805 81.4793C101.051 81.6083 101.265 81.7914 101.431 82.015C101.596 82.2385 101.709 82.4967 101.76 82.77C100.75 82.81 99.6101 81 98.8201 82.8V82.8ZM106.98 83.59C106.77 84.51 105.91 83.92 105.35 84.08C104.79 84.24 104.03 83.79 103.63 84.47C103.575 84.5537 103.54 84.6485 103.526 84.7475C103.512 84.8465 103.521 84.9473 103.55 85.0428C103.58 85.1383 103.63 85.2261 103.697 85.2999C103.765 85.3738 103.848 85.4318 103.94 85.47C104.67 85.8 105.36 85.92 105.94 85.17C106.14 84.92 106.48 84.7 106.74 85.04C107 85.38 106.74 85.54 106.52 85.74C106.214 86.0823 105.807 86.3196 105.359 86.4183C104.91 86.517 104.442 86.4721 104.02 86.29C103.29 85.99 102.42 85.54 102.9 84.46C103.11 83.78 102.39 83.26 102.72 82.57C102.866 82.2849 103.07 82.0337 103.319 81.8327C103.568 81.6317 103.857 81.4854 104.166 81.4033C104.475 81.3212 104.799 81.3053 105.115 81.3564C105.431 81.4075 105.732 81.5246 106 81.7C106.339 81.8761 106.616 82.1513 106.795 82.489C106.974 82.8266 107.045 83.2107 107 83.59H106.98ZM111.85 85C111.799 85.3772 111.61 85.7222 111.321 85.9693C111.031 86.2165 110.661 86.3484 110.28 86.34C109.889 86.4271 109.48 86.3946 109.107 86.2466C108.735 86.0986 108.415 85.8419 108.19 85.51C108.152 85.4719 108.122 85.4267 108.101 85.377C108.081 85.3272 108.07 85.2739 108.07 85.22C108.07 85.1661 108.081 85.1128 108.101 85.063C108.122 85.0133 108.152 84.9681 108.19 84.93C108.4 84.76 108.58 84.93 108.75 85.02C108.972 85.2477 109.233 85.434 109.52 85.57C110.03 85.75 110.64 85.84 110.88 85.2C111.12 84.56 110.57 84.42 110.09 84.29C109.89 84.23 109.69 84.13 109.49 84.07C108.77 83.84 107.98 83.67 108.05 82.66C108.053 82.3062 108.193 81.9673 108.441 81.7152C108.69 81.4632 109.026 81.3178 109.38 81.31C109.602 81.2412 109.835 81.2176 110.067 81.2404C110.298 81.2633 110.522 81.3322 110.726 81.4431C110.93 81.554 111.11 81.7047 111.255 81.8862C111.4 82.0677 111.507 82.2764 111.57 82.5C110.72 82.63 110.44 81.94 109.88 81.97C109.5 81.97 109.09 81.97 108.97 82.45C108.85 82.93 109.18 83.09 109.59 83.19C109.954 83.2756 110.311 83.3859 110.66 83.52C111.37 83.81 112 84.14 111.85 85ZM114.69 86.14C114.45 86.43 114.1 86.35 113.8 86.22C113.67 86.22 113.48 86 113.48 85.89C113.48 83.89 112.38 81.89 113.72 80.03C113.91 80.88 114.98 81.39 114.22 82.63C113.986 83.0835 113.885 83.5945 113.932 84.1029C113.978 84.6114 114.168 85.0961 114.48 85.5C114.66 85.73 114.92 85.9 114.69 86.16V86.14ZM119.17 84.92C119.206 84.8796 119.25 84.8472 119.299 84.825C119.348 84.8028 119.401 84.7913 119.455 84.7913C119.509 84.7913 119.562 84.8028 119.611 84.825C119.661 84.8472 119.704 84.8796 119.74 84.92C120.01 85.19 119.74 85.4 119.6 85.6C119.417 85.8276 119.19 86.0162 118.933 86.1549C118.676 86.2935 118.394 86.3793 118.103 86.4073C117.813 86.4352 117.519 86.4047 117.24 86.3176C116.962 86.2305 116.703 86.0885 116.48 85.9C116.204 85.6634 115.977 85.3744 115.814 85.0498C115.65 84.7251 115.552 84.3711 115.526 84.0084C115.5 83.6457 115.546 83.2815 115.662 82.9367C115.778 82.592 115.961 82.2736 116.2 82C116.463 81.6935 116.807 81.4665 117.192 81.3446C117.577 81.2227 117.989 81.2107 118.38 81.31C118.73 81.4174 119.044 81.6187 119.287 81.892C119.53 82.1653 119.694 82.5001 119.76 82.86C120.09 83.86 119.91 84.12 118.93 84.07C118.19 84.07 117.45 84.07 116.45 84.07C117.31 85.38 117.94 86.41 119.17 84.94V84.92ZM123.46 82.06C121.53 82.31 121.98 83.77 121.9 84.99C121.9 85.32 122.07 85.74 121.43 85.99C121.196 84.7066 121.156 83.3954 121.31 82.1C121.31 81.53 123.18 81.02 123.58 81.42C123.98 81.82 123.72 82.05 123.46 82.08V82.06Z" fill="#171D1C"/>
<path d="M124.62 68.5C124.57 69.43 123.76 70.14 123.87 71.11C123.58 73.05 122.39 73.48 120.6 73.27C119.208 73.1749 117.812 73.1749 116.42 73.27C115.76 73.27 115.31 73.16 115.14 72.4C114.63 70.19 114.14 67.95 113.49 65.79C111.69 60.19 110.94 54.32 109.17 48.71C109.17 48.63 109.02 48.58 108.81 48.41C107.98 52.19 107.09 55.89 106.14 59.55C105.01 63.89 104.06 68.27 102.81 72.55C102.64 73.15 102.28 73.25 101.74 73.25C99.7399 73.25 97.6599 73.25 95.6299 73.25C94.7299 73.25 94.6299 72.73 94.3899 72.09C92.6899 66.57 90.9799 61.05 89.2599 55.53L84.1699 39.2H91.6499C92.4699 39.2 92.3499 39.9 92.4699 40.36C94.4033 47.6933 96.3266 55.0467 98.2399 62.42C98.4099 63.04 98.6199 63.64 98.9199 64.63L102.55 50.36C103.39 47.04 104.28 43.73 105.02 40.36C105.26 39.36 105.74 39.11 106.68 39.14C108.12 39.14 109.57 39.09 111.01 39.06C112.78 39.06 113.61 39.92 113.57 41.69C113.616 41.997 113.703 42.2964 113.83 42.58C115.53 49.74 117.24 56.9 119.03 64.45C119.838 62.4305 120.473 60.3465 120.93 58.22C122.61 52.22 124.23 46.22 125.79 40.22C126.04 39.28 126.47 39.07 127.35 39.09C129.22 39.09 131.09 39.09 132.96 39.03C134.13 39.67 133.35 40.54 133.13 41.25C131.36 46.98 129.54 52.7 127.74 58.43L124.62 68.5Z" fill="#171D1C"/>
<path d="M113.83 42.61C113.703 42.3264 113.616 42.0271 113.57 41.72C113.57 39.95 112.78 39.08 111.01 39.09C115.642 33.9227 121.554 30.0667 128.15 27.91C137.22 24.82 146.4 24.81 155.72 26.91C166.72 29.34 175.55 35.48 184.11 42.27C192.11 48.58 199.32 55.72 207.36 61.92C212.61 65.93 217.84 70 224 72.6C224.447 72.8384 224.878 73.1057 225.29 73.4C223.37 73.74 221.87 72.99 220.38 72.52C213.77 70.44 207.95 66.85 202.32 62.91C197.02 59.2 192.05 55.07 186.96 51.07C179.84 45.46 172.59 40.07 164.12 36.57C152.38 31.76 140.44 30.51 128.22 34.71C123.03 36.5527 118.171 39.2203 113.83 42.61V42.61Z" fill="#171D1C"/>
<path d="M19.83 44.4C24.07 38.23 30.17 37.21 35.83 39.09C37.815 39.6617 39.5562 40.8719 40.7837 42.5334C42.0113 44.1948 42.6567 46.2146 42.62 48.28C42.88 56.28 42.73 64.28 42.77 72.28C42.77 73.05 42.49 73.28 41.77 73.28C40.05 73.28 38.33 73.2 36.62 73.28C35.45 73.34 35.2 72.9 35.21 71.81C35.21 65.49 35.21 59.16 35.21 52.81C35.21 51.95 35.21 51.09 35.09 50.24C34.67 45.08 31.09 43.46 26.76 44.37C22.6 45.25 20.35 48.53 20.32 53.37C20.32 59.37 20.26 65.48 20.32 71.54C20.32 73.03 19.89 73.36 18.52 73.26C16.9678 73.175 15.4122 73.175 13.86 73.26C13.03 73.26 12.75 73.02 12.75 72.17C12.75 61.5633 12.75 50.95 12.75 40.33C12.75 39.53 12.96 39.16 13.83 39.18C15.49 39.2267 17.1567 39.2267 18.83 39.18C19.74 39.18 19.9 39.56 19.83 40.34C19.8 41.55 19.83 42.77 19.83 44.4Z" fill="#171D1C"/>
<path d="M77.3099 50.57C77.0405 50.5449 76.7693 50.5449 76.4999 50.57C74.6799 50.86 73.4999 50.45 72.9099 48.38C72.0599 45.65 69.6499 44.49 66.9099 44.23C63.6299 43.91 60.6799 44.76 58.7399 47.64C56.2799 51.28 56.1599 55.38 56.7399 59.55C57.1599 62.55 58.2899 65.17 60.8699 66.89C65.6999 70.1 71.7299 67.66 73.2699 61.89C73.5699 60.76 73.9799 60.31 75.1799 60.39C76.7854 60.475 78.3943 60.475 79.9999 60.39C80.8899 60.39 81.1499 60.66 80.9999 61.52C79.0599 70.6 72.7299 75 63.2599 74C54.6799 73.08 50.1599 67.73 49.0899 60C48.0899 52.88 49.3499 45.8 55.8999 41C61.8999 36.64 73.8999 37.18 78.6399 43.64C79.8404 45.3779 80.646 47.3576 80.9999 49.44C81.1699 50.27 80.9099 50.64 79.9999 50.58C79.0899 50.52 78.2199 50.57 77.3099 50.57Z" fill="#171D1C"/>
<path d="M127.74 58.51C129.54 52.78 131.36 47.06 133.13 41.33C133.35 40.62 134.13 39.75 132.96 39.11C135.206 36.7717 138.214 35.3139 141.44 35C143.977 34.556 146.583 34.7275 149.04 35.5C148.97 35.64 148.96 35.67 148.95 35.67C142.78 36.33 138.71 39.62 137.39 45.67C136.708 48.5631 137.105 51.6058 138.506 54.2274C139.907 56.849 142.216 58.8695 145 59.91C150 61.91 156.26 61.25 161.11 54.18C159.94 60.28 156.89 64.72 151.41 67.28C148.249 68.7854 144.704 69.2885 141.249 68.7219C137.794 68.1553 134.595 66.5461 132.08 64.11C130.816 62.8738 129.759 61.4422 128.95 59.87C128.66 59.34 128.57 58.58 127.74 58.51Z" fill="#171D1C"/>
<path d="M60.0699 84.2C60.0699 83.85 60.0699 83.51 60.0699 83.2C60.0699 82.69 60.0699 82.2 60.0699 81.68C60.0699 82.19 60.0699 82.68 60.0699 83.2C60.0599 83.51 60.0699 83.85 60.0699 84.2Z" fill="#171D1C"/>
<path d="M70.1002 84C69.9602 84.8 69.6002 85.59 68.6102 85.46C67.6202 85.33 67.3802 84.4 67.4402 83.46C67.5002 82.52 67.9402 81.94 68.8002 82.01C69.8502 82.15 70.0902 83 70.1002 84Z" fill="#171D1C"/>
<path d="M118.93 82.84C118.87 83.67 118.11 83.16 117.71 83.32C117.29 83.32 116.71 83.5 116.71 82.85C116.71 82.2 117.35 82.06 117.88 82.06C118.41 82.06 119 82.29 118.93 82.84Z" fill="#171D1C"/>
<path d="M64.5801 82.83C64.5801 83.6 63.8201 83.12 63.5801 83.38C63.1201 83.23 62.4901 83.51 62.4501 82.92C62.4101 82.33 63.0201 82.05 63.5601 82.06C64.1001 82.07 64.5801 82.27 64.5801 82.83Z" fill="#171D1C"/>
<path d="M32.6002 82.8C32.6002 83.63 31.7802 83.15 31.4102 83.32C31.0402 83.49 30.4102 83.5 30.4102 82.85C30.4102 82.2 31.0002 82 31.5902 82C32.1802 82 32.6202 82.3 32.6002 82.8Z" fill="#171D1C"/>
<path d="M55.0001 83.91C54.8901 84.78 54.6801 85.7 53.5701 85.66C52.4601 85.62 52.1701 84.73 52.2101 83.82C52.2501 82.91 52.4601 81.99 53.6101 82.05C54.7601 82.11 54.9301 82.94 55.0001 83.91Z" fill="#171D1C"/>
<path d="M105.88 82.9C105.76 83.67 104.88 83.17 104.5 83.42C104.01 83.52 103.58 83.54 103.63 82.99C103.663 82.7213 103.797 82.4752 104.005 82.3023C104.213 82.1294 104.48 82.0427 104.75 82.06C105.33 82 106 82.29 105.88 82.9Z" fill="#171D1C"/>
<path d="M75.4602 82.89C75.4602 83.73 74.6802 83.3 74.2602 83.44C73.8302 83.27 73.0902 83.61 73.0802 82.93C73.0702 82.25 73.6602 81.93 74.3202 81.93C74.9802 81.93 75.4602 82.35 75.4602 82.89Z" fill="#171D1C"/>
<path d="M92.6902 83.82C92.5702 84.69 92.4202 85.64 91.3302 85.66C90.2402 85.68 89.8202 84.73 89.8102 83.79C89.8002 82.85 90.2402 82 91.2602 82C92.2802 82 92.5302 83 92.6902 83.82Z" fill="#171D1C"/>
</svg>
