<?xml version="1.0" encoding="UTF-8"?>
<svg  width="260" id="Layer_2" data-name="Layer 2" xmlns="http://www.w3.org/2000/svg" viewBox="0 0 863.62 188.09">
  <defs>
    <style>
      .cls-1 {
        fill: #1b1b1b;
      }
    </style>
  </defs>
  <g id="Layer_1-2" data-name="Layer 1">
    <g>
      <path class="cls-1" d="m531.56,89.46c-.11.96-.23,1.55-.23,2.14-.01,1.92,0,3.83.05,5.75.02.8-.27,1.1-1.1,1.08-3.04-.04-6.08-.03-9.12-.01-.89,0-1.22-.22-1.13-1.24.13-1.44-.08-2.91-.08-4.36,0-27.83,0-55.66.02-83.49,0-2.21.14-4.41.16-6.62,0-.63.2-.95.83-.95,3.21-.01,6.42-.02,9.62-.03.8,0,.79.54.78,1.12-.02,2.37-.01,4.75-.02,7.12-.01,8.42-.03,16.83-.03,25.25,0,.69.1,1.38.17,2.22.28-.15.47-.19.53-.29,3.56-6.3,9.38-9,16.18-9.87,4.71-.6,9.5-.73,14.14.54,8.15,2.23,14.1,7.24,18.07,14.67,2.96,5.54,4.31,11.47,4.72,17.7.39,5.92-.07,11.73-1.69,17.42-3.31,11.64-11.28,20.08-24.11,22.06-7.97,1.23-15.52,0-22.25-4.67-1.68-1.17-3.02-2.84-4.5-4.29-.28-.28-.51-.61-1.03-1.24Zm-.74-26.02c-.12.02-.25.04-.37.06.48,3.32.87,6.66,1.46,9.96.7,3.95,2.49,7.42,5.22,10.34,5.2,5.56,11.75,7.46,19.09,6.32,6.24-.97,10.91-4.41,13.89-10.11,2.02-3.85,2.87-7.97,3.18-12.22.38-5.16.42-10.31-1.13-15.35-1.34-4.34-3.38-8.26-6.96-11.16-4.48-3.63-9.65-4.92-15.4-4.42-7.64.67-12.81,4.75-16.07,11.41-2.33,4.76-3.09,9.89-2.9,15.17Z"/>
      <path class="cls-1" d="m703.95,89.44c.07.46.16.81.17,1.16.02,2.21-.02,4.42.03,6.62.02.93-.33,1.44-1.22,1.73-3.51,1.15-7.03,1.75-10.62.43-3.59-1.31-5.17-4.09-5.6-7.71-.02-.16.03-.35-.03-.5-.14-.37-.32-.72-.49-1.08-.34.19-.78.3-1.01.59-1.81,2.25-4.1,3.88-6.58,5.29-4.04,2.31-8.42,3.43-13.03,3.94-4.85.54-9.54-.08-14.14-1.54-6.88-2.19-11.58-8.38-11.8-15.59-.11-3.57-.25-7.17,1.15-10.59,2.49-6.07,7.28-9.39,13.36-11.22,7-2.11,14.27-2.78,21.42-4.08,2.34-.42,4.64-1.29,6.83-2.23,2.77-1.19,3.83-3.62,3.72-6.51-.21-5.36-2.73-8.77-7.91-10.24-6.01-1.7-12.02-1.44-17.86.92-4.28,1.73-6.19,5.18-6.77,9.57-.25,1.9-.29,1.85-2.24,1.81-2.66-.06-5.33-.06-8-.03-.98.01-1.3-.29-1.19-1.31.82-7.49,3.59-13.83,10.4-17.79,4.29-2.49,8.98-3.88,13.89-4.02,4.81-.14,9.69-.12,14.45.49,6.14.79,11.31,3.61,14.43,9.32,1.2,2.2,1.76,4.58,1.76,7.07.04,12.37.03,24.74.07,37.12,0,2.04.08,4.08.3,6.11.24,2.22,2.16,3.42,4.34,2.88.67-.17,1.34-.38,2.15-.61Zm-17.84-27.18c-.67.24-1.17.41-1.66.59-.97.37-1.91.89-2.91,1.08-4.61.87-9.22,1.73-13.86,2.44-3.55.54-7.1,1-10.3,2.76-5.88,3.23-7.19,7.89-5.72,13.96.84,3.46,3.65,5.36,6.99,6.33,7.34,2.14,14.23.85,20.52-3.24,4.7-3.05,7.2-7.47,6.82-13.3-.14-2.23.07-4.49.11-6.73.02-1.23,0-2.46,0-3.88Z"/>
      <path class="cls-1" d="m863.52,66.88h-2.52c-15.58,0-31.16,0-46.74,0-.04,0-.08,0-.12,0-2.47,0-2.58.15-2.2,2.57.24,1.56.3,3.16.65,4.69,1.88,8.24,7.07,13.3,15.2,15.28,5.16,1.26,10.23.87,15.09-1.47,4.33-2.08,6.75-5.68,7.98-10.16.33-1.2.82-1.63,2.04-1.6,2.79.08,5.58.06,8.37.02.97-.01,1.3.33,1.06,1.26-1.72,6.78-4.66,12.84-10.52,17.06-4.5,3.24-9.6,4.79-15.09,5.39-4.97.55-9.83.08-14.55-1.36-8.51-2.61-14.57-8.07-18.27-16.2-1.93-4.22-2.73-8.7-3.44-13.21-1.28-8.11-.27-15.97,3.13-23.41,4.79-10.51,12.8-17.18,24.43-18.61,5-.62,10.17-.62,15.05,1.29,7.8,3.05,13.06,8.74,16.45,16.23,3.07,6.78,4.32,13.95,4.07,21.39,0,.24-.04.48-.07.83Zm-31.9-9.91v-.04c6.29,0,12.58-.01,18.87.01,1.02,0,1.36-.28,1.25-1.39-.36-3.65-1.66-6.94-3.57-10.01-4.85-7.82-15.51-11.04-24.23-7.37-7.49,3.15-11.12,9.3-12.15,17.15-.2,1.56-.09,1.64,1.46,1.64,6.12,0,12.25,0,18.37,0Z"/>
      <path class="cls-1" d="m71.02,49.85c.13-4.31,1.11-8.32,3.28-12.05,2.93-5.03,7.33-8.09,12.8-9.7,6.98-2.05,14.05-1.97,21.14-.64,8.64,1.61,15,8.69,15.62,17.45.18,2.57.21,5.16.22,7.74.02,11.12,0,22.25,0,33.37,0,1.91.37,3.66,2.23,4.7,1.17.65,2.39.94,3.72.59.52-.14,1.05-.21,1.75-.35,0,2.14.03,4.2-.03,6.26,0,.31-.43.83-.71.86-3.43.37-6.9.93-10.19-.57-2.92-1.33-3.83-3.99-4.18-6.91-.16-1.3-.2-2.61-.3-3.91-.11-.02-.21-.04-.32-.06-1.08,1.39-2.15,2.78-3.24,4.17-4.72,6.06-10.97,9.14-18.6,9.51-4.85.23-9.66.11-14.26-1.73-6.63-2.66-10.51-7.62-11.72-14.55-.84-4.8-.4-9.55,2.02-13.94,1.96-3.54,5.07-5.74,8.66-7.41,4.95-2.3,10.23-3.08,15.57-3.71,4.96-.58,9.9-1.29,14.83-2.04,3.87-.59,6.01-3.02,6.37-7.74.27-3.53-.31-6.89-2.43-9.85-2.2-3.07-5.31-4.57-8.94-5.12-4.21-.64-8.44-.83-12.65.06-6.74,1.42-10.74,5.45-12.07,12.19-.18.89-.19,1.82-.38,2.71-.08.35-.45.89-.7.9-2.41.02-4.83-.06-7.24-.11-.11,0-.21-.11-.26-.13Zm44.85,10.15c-.72.48-1.18.82-1.67,1.1-.75.42-1.49,1-2.3,1.15-5.39,1.01-10.79,1.94-16.2,2.88-4.22.73-8.48,1.4-12.33,3.36-2.69,1.37-5.13,3.16-6.33,6.12-2.83,6.96.74,14.99,7.78,17.65,4.71,1.78,9.47,1.59,14.24.43,10.51-2.56,16.89-10.74,16.9-21.53,0-3.29.02-6.58.03-9.87,0-.32-.05-.64-.1-1.28Z"/>
      <path class="cls-1" d="m410.91,90.91c.05.52.12.92.12,1.32,0,1.5-.03,3-.01,4.49,0,.86-.21,1.53-1.2,1.52-2.73-.02-5.51.18-8.19-.22-2.59-.39-4.38-2.18-5.02-4.82-.42-1.73-.64-3.51-.95-5.26-.07-.39-.1-.79-.19-1.58-.99,1.28-1.7,2.32-2.52,3.25-1.71,1.92-3.31,4-5.28,5.62-4.15,3.43-9.09,4.91-14.44,5.09-4.21.14-8.39.13-12.48-1.2-8.3-2.7-13.25-9.07-13.44-17.81-.06-2.63.16-5.36.82-7.9,1.36-5.25,5.11-8.49,9.92-10.68,4.99-2.28,10.3-3.15,15.69-3.75,4.46-.5,8.94-.96,13.37-1.71,5.66-.95,7.41-2.82,7.91-8.53.4-4.67-1.34-10.33-6.76-13.05-2.05-1.03-4.22-1.53-6.46-1.73-3.65-.32-7.3-.41-10.93.35-7.33,1.54-12.09,7.14-12.31,14.61-.02.77-.18,1.2-1,1.19-2.25-.03-4.5-.06-6.75-.11-.2,0-.39-.11-.61-.17.5-5.92,2-11.42,6.19-15.85,3.89-4.12,8.9-6.05,14.35-6.91,5.6-.88,11.22-.78,16.76.42,8.04,1.73,13.18,6.64,15.15,14.64.51,2.07.6,4.29.61,6.45.05,11.71.01,23.41.03,35.12,0,1.36-.02,2.78.31,4.08.77,3,2.97,4.2,6,3.49.36-.08.72-.19,1.31-.35Zm-15.81-30.95c-.56.37-.85.6-1.17.77-1.13.58-2.21,1.43-3.41,1.66-5.71,1.09-11.47,1.94-17.18,3.02-4.08.77-8.2,1.5-11.82,3.73-2.64,1.63-4.93,3.55-5.77,6.74-1.85,7.07,1.99,14.22,8.89,16.58,4.75,1.63,9.49,1.31,14.25.06,9.9-2.61,16.1-10.47,16.32-20.71.07-3.37.1-6.74.13-10.12,0-.48-.12-.96-.23-1.73Z"/>
      <path class="cls-1" d="m234.12,100.39c-7.56.24-14.28-2.05-20.1-6.85-5.41-4.47-8.79-10.27-10.62-16.98-2.46-9.04-2.47-18.14.31-27.09,2.92-9.37,8.65-16.55,17.82-20.56,4.41-1.93,9.14-2.49,13.92-2.31,3.41.13,6.8.52,10.04,1.75,7.28,2.77,12.65,7.7,16.4,14.47,2.56,4.63,3.63,9.69,4.47,14.84.86,5.31.36,10.53-.67,15.74-.95,4.78-2.55,9.3-5.29,13.35-5.96,8.81-14.29,13.31-24.9,13.64-.46.01-.92,0-1.37,0Zm.91-6.87c2.09.17,4.88-.34,7.59-1.43,6.35-2.55,10.28-7.4,12.97-13.48,2.53-5.73,3.23-11.71,2.86-17.91-.37-6.29-2.09-12.11-5.62-17.34-2.96-4.38-6.88-7.63-12.01-9.05-4.39-1.22-8.93-1.34-13.31.03-5.9,1.84-10.36,5.63-13.23,11.1-5.79,11.05-6.2,22.45-1.22,33.8,3.96,9.03,10.79,14.41,21.97,14.28Z"/>
      <path class="cls-1" d="m287.76,40.13c.49-.75,1.03-1.46,1.46-2.24,3.27-5.95,8.48-9.28,14.93-10.71,5.68-1.25,11.39-.9,16.88.93,7.32,2.44,11.68,7.67,12.96,15.25.64,3.8,1.01,7.68,1.04,11.53.12,14.08.04,28.17.07,42.25,0,1.1-.24,1.58-1.45,1.52-1.91-.1-3.83-.08-5.75,0-1.01.04-1.28-.3-1.28-1.28.03-12.42.07-24.83.02-37.25-.02-4.07-.09-8.17-.51-12.22-.67-6.48-4.86-12.28-11.26-13.61-6.91-1.44-13.51-.79-19.17,4.04-4.29,3.66-6.54,8.45-7.56,13.85-.41,2.15-.56,4.38-.57,6.57-.05,12.87-.02,25.75,0,38.62,0,.88-.4,1.21-1.19,1.22-2.12.01-4.25,0-6.37.03-.88.02-.88-.49-.88-1.14.02-22.25.03-44.5.05-66.75,0-.46-.13-.96,0-1.36.13-.36.55-.86.85-.87,2.16-.08,4.33-.04,6.5-.06.74,0,1.04.31,1.03,1.06-.05,2.79-.08,5.58-.11,8.37,0,.72,0,1.44,0,2.16.11.02.22.04.33.06Z"/>
      <path class="cls-1" d="m0,98.63V28.46c2.54,0,5.03-.02,7.51.01.95.01.79.8.8,1.4.02,3.12.02,6.24.03,9.36,0,.27.08.54.16,1.09.31-.48.5-.72.63-.99,3.25-6.84,8.85-10.74,16.06-12.24,5.88-1.22,11.78-.75,17.45,1.34,7.03,2.59,10.68,8.01,12.19,15.09,1.05,4.92,1.01,9.92,1,14.92-.03,12.79,0,25.58-.01,38.36q0,1.86-1.88,1.85c-1.79,0-3.58-.05-5.37,0-.91.02-1.24-.28-1.24-1.23.03-14.7.11-29.41,0-44.11-.03-4.8-.71-9.58-3.71-13.62-2.74-3.71-6.48-5.66-11.09-5.8-2.23-.06-4.51-.16-6.7.16-7.43,1.11-12.17,5.72-15.23,12.28-1.65,3.52-2.26,7.31-2.28,11.17-.06,11.29-.04,22.58-.05,33.86,0,1.96-.02,3.91.02,5.87.02.97-.23,1.45-1.34,1.41-2.28-.07-4.57-.02-6.96-.02Z"/>
      <path class="cls-1" d="m774.67,50.05c0-15.67,0-31.33-.02-47,0-1.02.24-1.38,1.31-1.36,2.91.07,5.83.05,8.75,0,.94-.02,1.3.2,1.3,1.24-.02,29.54,0,59.08,0,88.62,0,1.92-.07,3.83-.05,5.75,0,.78-.21,1.14-1.05,1.13-3.12-.03-6.25-.04-9.37,0-.77,0-.89-.36-.88-1,.03-1.87.02-3.75.02-5.62,0-13.92,0-27.83,0-41.75h0Z"/>
      <path class="cls-1" d="m609.3,42.72c.55-.85,1.14-1.67,1.64-2.55,1.91-3.36,4.25-6.36,7.33-8.75,3.71-2.89,7.95-4.28,12.6-4.43,3.72-.12,3.71-.09,3.66,3.67-.03,2.33-.03,4.67.02,7,.02,1.08-.37,1.47-1.46,1.46-3.48-.06-6.89.34-10.13,1.74-5.54,2.4-9.31,6.43-11.28,12.14-1.46,4.22-1.93,8.56-1.89,13.02.09,10.16.03,20.33.03,30.5,0,1.9-.03,1.92-1.97,1.91-2.5-.01-5,0-7.5,0q-1.92,0-1.92-1.88c0-21.58,0-43.16,0-64.74,0-3.36,0-3.35,3.31-3.32,1.96.02,3.92.06,5.87-.02,1.09-.04,1.31.39,1.29,1.38-.07,4.04-.06,8.08-.07,12.12,0,.19.05.39.07.58.14.06.27.12.41.18Z"/>
      <path class="cls-1" d="m745.17,49.92c0-15.66,0-31.32-.02-46.98,0-.98.34-1.23,1.22-1.22,3,.02,6,.02,9-.01.92-.01,1.09.42,1.09,1.23-.03,28.99-.04,57.97-.05,86.96,0,2.37-.03,4.75.05,7.12.03,1.1-.34,1.44-1.43,1.41-2.91-.07-5.83-.04-8.74-.03-.72,0-1.15-.09-1.14-1.01.03-15.82.02-31.65.02-47.47.01,0,.02,0,.04,0Z"/>
      <path class="cls-1" d="m145.98,7.47c2.5,0,4.87.02,7.24,0,.92-.01.98.55.97,1.23-.02,4.29-.04,8.58-.04,12.87,0,1.83.05,3.66.03,5.5-.01,1.06.41,1.46,1.5,1.45,3.75-.05,7.5.02,11.24-.05,1.06-.02,1.41.35,1.39,1.35-.04,1.5-.02,3,0,4.5.01.94-.24,1.39-1.37,1.37-3.75-.09-7.5.01-11.24-.07-1.26-.03-1.59.47-1.57,1.58.04,1.96.03,3.91.03,5.87,0,13.08,0,26.16.03,39.23,0,1.41.09,2.83.21,4.24.29,3.44,2.48,5.53,6.12,5.67,2.07.08,4.16-.04,6.23-.23,1.17-.11,1.61.25,1.58,1.39-.04,1.41-.01,2.83-.02,4.25,0,.87-.33,1.31-1.32,1.4-4.2.35-8.38.48-12.54-.38-4.41-.91-7.1-3.56-7.96-8.19-.32-1.75-.51-3.54-.51-5.32-.04-15.87-.02-31.74-.02-47.61,0-1.82,0-1.85-1.88-1.86-3.04-.02-6.08-.04-9.12.01-1.01.02-1.31-.37-1.28-1.32.05-1.58.05-3.17,0-4.75-.03-.89.32-1.15,1.18-1.14,3.16.04,6.33.03,9.5.02,1.53,0,1.61-.08,1.61-1.64-.02-6.16-.04-12.33-.06-18.49,0-.24.05-.48.1-.88Z"/>
      <path class="cls-1" d="m527.72,161.2c-.1.8-.28,1.61-.28,2.41.02,7.62.09,15.24.12,22.86,0,1.66-.13,1.72-1.84,1.56-.91-.09-1.84-.14-2.74-.07-1.06.09-1.34-.31-1.34-1.33.04-7.66.02-15.33.02-22.99,0-13.58-.02-27.16-.03-40.74,0-.58,0-1.15,0-1.94,1.7,0,3.27-.06,4.83.05.27.02.69.73.7,1.13.07,2.24.04,4.49.05,6.74,0,.11.06.23.16.63.36-.48.64-.78.83-1.13,3.29-5.91,8.57-8.46,15.08-8.9,3.63-.24,7.18.24,10.45,1.86,4.13,2.05,7.13,5.3,9.12,9.44,3.48,7.22,3.95,14.77,2.25,22.52-.91,4.12-2.46,7.95-5.27,11.16-3.08,3.51-6.92,5.59-11.59,6.27-4.86.72-9.45.12-13.75-2.29-2.81-1.58-4.86-3.87-6.16-6.83-.06-.15-.17-.27-.26-.41-.12,0-.24,0-.37,0Zm32.51-17.04c-.18-1.31-.37-3.72-.85-6.07-1.53-7.56-7.34-14.55-16.97-13.76-6.16.51-11.67,4.52-13.53,10.69-1.74,5.77-1.85,11.65-.56,17.53,1.25,5.71,4.29,10.13,9.74,12.48,6.92,2.98,14.07.93,18.34-5.38,2.94-4.35,3.66-9.3,3.83-15.49Z"/>
      <path class="cls-1" d="m643.32,153.54c-1.61,6.46-4.19,11.79-9.82,15.04-2.21,1.28-4.67,1.92-7.23,2.21-4.06.46-8.04.35-11.94-1.04-5.89-2.09-9.61-6.34-11.62-12.07-2.74-7.82-2.89-15.79-.25-23.65,2.74-8.16,8.23-13.48,17.04-14.47,9.63-1.08,17.32,3.01,21.43,12.2,1.96,4.38,2.42,9.05,2.57,13.77.04,1.41-.21,1.54-1.59,1.5-2.25-.06-4.5-.03-6.75-.03-8.67-.02-17.33-.04-26-.06-2.93,0-2.98.1-2.55,2.93.59,3.87,1.6,7.56,4.12,10.69,3.04,3.77,6.99,5.75,11.8,5.82,6.86.1,12.6-4.37,14.36-11.13.34-1.31.98-1.77,2.24-1.72,1.32.05,2.64.01,4.18.01Zm-5.51-11.51c-.69-4.29-1.32-8.37-4.01-11.8-4.75-6.06-12.41-7.68-18.68-3.9-5.58,3.37-7.45,8.88-8.54,14.83-.16.85.4.91,1.07.9,8.74-.02,17.48-.02,26.21-.03,1.24,0,2.47,0,3.94,0Z"/>
      <path class="cls-1" d="m428.82,98.4c-2.7,0-5.2.03-7.69-.04-.27,0-.69-.52-.75-.84-.11-.65,0-1.33,0-1.99,0-30.44,0-60.89,0-91.33,0-2.47,0-2.47,2.48-2.46,1.62,0,3.25.02,4.87,0,.77-.02,1.21.19,1.09,1.06-.03.24,0,.5,0,.75,0,31.11,0,62.22,0,93.33,0,.45,0,.9,0,1.54Z"/>
      <path class="cls-1" d="m726.75,28.48c.04.47.09.8.09,1.12,0,22.52,0,45.05,0,67.57,0,.88-.19,1.29-1.15,1.28-3.08-.04-6.16-.04-9.24-.01-.72,0-.97-.31-.96-.96,0-1.29-.01-2.58-.01-3.87,0-21.19,0-42.38-.03-63.58,0-1.13.25-1.62,1.54-1.58,3.2.1,6.41.03,9.76.03Z"/>
      <path class="cls-1" d="m648.66,153.9c1.89,0,3.55-.05,5.2.04.32.02.87.58.87.88-.05,6.2,5.93,11.02,12.55,11.39,4.46.25,8.54-.62,12.09-3.61,3.63-3.06,3.45-9.68-1.19-12.06-3.22-1.65-6.64-2.59-10.12-3.44-3.3-.8-6.72-1.16-9.83-2.71-2.56-1.28-4.99-2.67-6.48-5.27-3.08-5.37-1.12-13.03,4.2-16.42,3.4-2.16,7.17-3.04,11.13-3.24,4.06-.21,8.02.28,11.58,2.36,4.54,2.66,6.8,6.81,7.4,11.95.11.96-.23,1.4-1.24,1.36-1.21-.05-2.42-.03-3.62-.03-.69,0-.99-.3-1.15-1.01-1.43-6.61-5.37-9.73-12.22-9.77-2.92-.02-5.66.51-8.23,2.05-4.02,2.41-5.33,9.09.1,12.11,3.47,1.93,7.27,2.8,11.06,3.75,3.25.82,6.66,1.03,9.71,2.67,5.38,2.9,7.78,7.35,7.09,13.39-.61,5.4-3.91,8.87-8.73,10.78-6.35,2.51-12.89,2.77-19.4.47-5.87-2.07-9.21-6.32-10.24-12.42-.16-.97-.32-1.95-.54-3.23Z"/>
      <path class="cls-1" d="m714.31,119.43c3.31.02,7.36.75,10.82,3.43,3.59,2.78,5.4,6.55,5.87,11.03.09.84-.21,1.27-1.1,1.23-1.29-.05-2.58-.02-3.86-.16-.32-.03-.79-.54-.83-.88-.57-4.4-2.93-7.43-7.08-8.82-4.5-1.51-9.04-1.52-13.26.97-5.18,3.06-5.19,9.56.14,12.35,2.9,1.52,6.18,2.37,9.36,3.31,2.38.7,4.89.97,7.3,1.59,4.16,1.06,7.77,3.14,9.58,7.16,3.02,6.71,1.36,13.92-5.67,17.54-7.68,3.96-15.77,4.05-23.67.24-4.52-2.18-6.65-6.2-7.73-10.91-.81-3.51-.83-3.51,2.76-3.59,2.47-.06,2.5-.06,2.85,2.12.82,5.07,4.04,7.93,8.7,9.44,3.86,1.25,7.73,1.02,11.52-.31,2.28-.8,4.21-2.2,5.63-4.18,2.28-3.19,1.5-7.45-1.85-9.94-2.56-1.91-5.62-2.62-8.63-3.43-3.96-1.06-7.96-2.02-11.87-3.26-2.27-.72-4.25-2.11-5.75-4.04-3.73-4.77-3.25-13.8,3.76-17.91,3.73-2.19,7.82-2.96,13.03-3Z"/>
      <path class="cls-1" d="m189.03,63.43c0,11.12,0,22.23,0,33.35,0,1.64-.01,1.64-1.66,1.64-1.92,0-3.83-.04-5.75.02-.83.02-1.13-.31-1.13-1.08.02-2.12.04-4.25.03-6.37-.01-20.32-.03-40.64-.07-60.96,0-1.14.25-1.66,1.54-1.58,1.87.12,3.75.09,5.62,0,1.19-.06,1.47.37,1.47,1.5-.04,11.16-.02,22.32-.02,33.48h-.03Z"/>
      <path class="cls-1" d="m575.43,169.88c0-.62,0-1.03,0-1.44,0-15.33.02-30.65-.02-45.98,0-1.18.27-1.64,1.51-1.52,1.23.11,2.49.02,3.82.02v10.39c.08.05.16.1.24.15.46-.68.99-1.33,1.37-2.05,1.97-3.77,4.89-6.44,8.84-8.06,2.31-.94,4.68-1.1,7.1-.96.25.01.65.64.66.99.06,1.2-.1,2.41-.03,3.61.05.97-.33,1.25-1.21,1.22-3.35-.1-6.43.82-9.18,2.71-4.95,3.4-7.25,8.33-7.38,14.15-.18,8.07-.03,16.16-.02,24.24,0,.37-.03.75,0,1.12.11,1.08-.31,1.49-1.43,1.41-1.36-.1-2.73-.02-4.28-.02Z"/>
      <path class="cls-1" d="m465.63,87.54c.05,5.23-3.38,9.35-8.51,9.79-4.13.35-8.05-2.13-9.37-6.83-.69-2.45-.6-4.94.5-7.31,2.11-4.55,6.81-6.54,11.54-4.88,3.33,1.17,5.8,5.07,5.84,9.23Z"/>
      <path class="cls-1" d="m498.02,20.67c.01,6.76-5.66,11.39-11.64,9.75-3.45-.94-6.57-4.88-6.76-8.46-.22-4.09,1.25-7.36,4.76-9.51,5.4-3.29,12.68.32,13.48,6.6.08.62.12,1.24.16,1.61Z"/>
      <path class="cls-1" d="m465.69,21c-.05,5.49-4.43,9.93-9.7,9.82-4.44-.09-8.78-4.96-8.74-9.81.04-5.56,4.2-9.86,9.5-9.82,4.92.03,8.99,4.49,8.95,9.81Z"/>
      <path class="cls-1" d="m497.8,54.17c.29,5.06-4.13,10.27-9.84,9.69-2.79-.28-4.85-1.73-6.35-3.93-2.85-4.2-2.42-8.96,1-12.71,3.78-4.16,11.27-3.21,13.87,1.76.88,1.68,1.49,3.43,1.32,5.19Z"/>
      <path class="cls-1" d="m465.48,54.17c.29,5.06-4.13,10.27-9.84,9.69-2.79-.28-4.85-1.73-6.35-3.93-2.85-4.2-2.42-8.96,1-12.71,3.78-4.16,11.27-3.21,13.87,1.76.88,1.68,1.49,3.43,1.32,5.19Z"/>
      <path class="cls-1" d="m497.82,87.28c0,5.93-4.08,9.98-9.64,9.83-3.62-.1-6.92-2.96-8.01-6.93-1.28-4.66.97-9.6,5.22-11.47,3.97-1.75,8.51-.4,10.82,3.28,1.05,1.67,1.81,3.47,1.61,5.29Z"/>
      <path class="cls-1" d="m720.07,0c3.65-.05,6.74,3.26,6.75,7.2,0,3.88-3.09,7.17-6.79,7.22-3.69.04-6.81-3.2-6.85-7.13-.04-4.1,2.92-7.23,6.89-7.28Z"/>
      <path class="cls-1" d="m185.01,3.3c3.1.02,5.37,2.39,5.36,5.61-.02,2.93-2.56,5.55-5.34,5.51-2.98-.04-5.38-2.7-5.34-5.91.04-2.95,2.37-5.22,5.33-5.21Z"/>
    </g>
  </g>
</svg>