<?xml version="1.0" encoding="UTF-8"?>
<svg id="Layer_2" data-name="Layer 2" width="240" xmlns="http://www.w3.org/2000/svg" viewBox="0 0 269 200">
  <defs>
    <style>
      .cls-1 {
        fill: #1b1b1b;
      }
    </style>
  </defs>
  <g id="Layer_1-2" data-name="Layer 1-2">
    <g>
      <path class="cls-1" d="m165.57,98.57c-.03.3-.07.48-.07.67,0,.6,0,1.19.02,1.79,0,.25-.08.34-.34.34-.95-.01-1.89,0-2.84,0-.28,0-.38-.07-.35-.39.04-.45-.02-.91-.02-1.36,0-8.67,0-17.34,0-26.01,0-.69.04-1.37.05-2.06,0-.2.06-.3.26-.3,1,0,2,0,3,0,.25,0,.25.17.24.35,0,.74,0,1.48,0,2.22,0,2.62,0,5.24,0,7.86,0,.21.03.43.05.69.09-.05.15-.06.17-.09,1.11-1.96,2.92-2.8,5.04-3.07,1.47-.19,2.96-.23,4.4.17,2.54.69,4.39,2.26,5.63,4.57.92,1.73,1.34,3.57,1.47,5.51.12,1.84-.02,3.65-.53,5.43-1.03,3.63-3.51,6.25-7.51,6.87-2.48.38-4.83,0-6.93-1.45-.52-.36-.94-.88-1.4-1.34-.09-.09-.16-.19-.32-.39h0Zm-.23-8.1s-.08.01-.12.02c.15,1.03.27,2.07.45,3.1.22,1.23.78,2.31,1.63,3.22,1.62,1.73,3.66,2.32,5.95,1.97,1.94-.3,3.4-1.37,4.33-3.15.63-1.2.89-2.48.99-3.81.12-1.61.13-3.21-.35-4.78-.42-1.35-1.05-2.57-2.17-3.48-1.4-1.13-3.01-1.53-4.8-1.38-2.38.21-3.99,1.48-5.01,3.55-.73,1.48-.96,3.08-.9,4.73h0Z"/>
      <path class="cls-1" d="m219.27,98.57c.02.14.05.25.05.36,0,.69,0,1.38,0,2.06,0,.29-.1.45-.38.54-1.09.36-2.19.55-3.31.13-1.12-.41-1.61-1.27-1.74-2.4,0-.05,0-.11,0-.16-.04-.12-.1-.22-.15-.34-.11.06-.24.09-.31.18-.56.7-1.28,1.21-2.05,1.65-1.26.72-2.62,1.07-4.06,1.23-1.51.17-2.97-.02-4.4-.48-2.14-.68-3.61-2.61-3.68-4.86-.03-1.11-.08-2.23.36-3.3.78-1.89,2.27-2.92,4.16-3.49,2.18-.66,4.44-.87,6.67-1.27.73-.13,1.45-.4,2.13-.69.86-.37,1.19-1.13,1.16-2.03-.07-1.67-.85-2.73-2.46-3.19-1.87-.53-3.74-.45-5.56.29-1.33.54-1.93,1.61-2.11,2.98-.08.59-.09.58-.7.56-.83-.02-1.66-.02-2.49,0-.31,0-.4-.09-.37-.41.26-2.33,1.12-4.31,3.24-5.54,1.34-.78,2.8-1.21,4.33-1.25,1.5-.04,3.02-.04,4.5.15,1.91.25,3.52,1.12,4.49,2.9.37.69.55,1.43.55,2.2.01,3.85,0,7.71.02,11.56,0,.64.02,1.27.09,1.9.07.69.67,1.07,1.35.9.21-.05.42-.12.67-.19h0Zm-5.56-8.47c-.21.07-.36.13-.52.18-.3.12-.59.28-.91.34-1.44.27-2.87.54-4.32.76-1.11.17-2.21.31-3.21.86-1.83,1.01-2.24,2.46-1.78,4.35.26,1.08,1.14,1.67,2.18,1.97,2.29.67,4.43.26,6.39-1.01,1.46-.95,2.24-2.33,2.12-4.14-.04-.69.02-1.4.03-2.1,0-.38,0-.77,0-1.21h0Z"/>
      <path class="cls-1" d="m268.97,91.54h-15.38c-.77,0-.8.05-.69.8.07.49.09.98.2,1.46.59,2.57,2.2,4.14,4.73,4.76,1.61.39,3.19.27,4.7-.46,1.35-.65,2.1-1.77,2.49-3.16.1-.37.26-.51.64-.5.87.02,1.74.02,2.61,0,.3,0,.4.1.33.39-.54,2.11-1.45,4-3.28,5.31-1.4,1.01-2.99,1.49-4.7,1.68-1.55.17-3.06.02-4.53-.42-2.65-.81-4.54-2.51-5.69-5.05-.6-1.31-.85-2.71-1.07-4.11-.4-2.53-.08-4.97.97-7.29,1.49-3.27,3.99-5.35,7.61-5.8,1.56-.19,3.17-.19,4.69.4,2.43.95,4.07,2.72,5.12,5.06.96,2.11,1.35,4.35,1.27,6.66,0,.07-.01.15-.02.26h0Zm-9.94-3.09h0c1.96-.01,3.92-.02,5.88,0,.32,0,.42-.09.39-.43-.11-1.14-.52-2.16-1.11-3.12-1.51-2.44-4.83-3.44-7.55-2.3-2.33.98-3.46,2.9-3.78,5.34-.06.49-.03.51.45.51h5.72Z"/>
      <path class="cls-1" d="m22.12,86.23c.04-1.34.35-2.59,1.02-3.75.91-1.57,2.28-2.52,3.99-3.02,2.17-.64,4.38-.61,6.58-.2,2.69.5,4.67,2.71,4.87,5.44.06.8.07,1.61.07,2.41,0,3.46,0,6.93,0,10.39,0,.59.12,1.14.69,1.46.36.2.74.29,1.16.18.16-.04.33-.07.55-.11,0,.67,0,1.31,0,1.95,0,.1-.13.26-.22.27-1.07.12-2.15.29-3.17-.18-.91-.41-1.19-1.24-1.3-2.15-.05-.4-.06-.81-.09-1.22-.03,0-.07-.01-.1-.02-.34.43-.67.87-1.01,1.3-1.47,1.89-3.42,2.85-5.79,2.96-1.51.07-3.01.03-4.44-.54-2.07-.83-3.27-2.37-3.65-4.53-.26-1.5-.12-2.97.63-4.34.61-1.1,1.58-1.79,2.7-2.31,1.54-.72,3.19-.96,4.85-1.16,1.54-.18,3.08-.4,4.62-.64,1.21-.18,1.87-.94,1.98-2.41.08-1.1-.1-2.15-.76-3.07-.69-.96-1.65-1.42-2.78-1.59-1.31-.2-2.63-.26-3.94.02-2.1.44-3.35,1.7-3.76,3.8-.06.28-.06.57-.12.84-.02.11-.14.28-.22.28-.75,0-1.5-.02-2.26-.03-.03,0-.07-.03-.08-.04h0Zm13.97,3.16c-.22.15-.37.26-.52.34-.23.13-.46.31-.72.36-1.68.31-3.36.6-5.05.9-1.31.23-2.64.44-3.84,1.05-.84.43-1.6.98-1.97,1.91-.88,2.17.23,4.67,2.42,5.5,1.47.55,2.95.5,4.44.13,3.27-.8,5.26-3.35,5.26-6.71,0-1.02,0-2.05,0-3.07,0-.1-.02-.2-.03-.4h0Z"/>
      <path class="cls-1" d="m127.99,99.02c.02.16.04.29.04.41,0,.47,0,.93,0,1.4,0,.27-.07.48-.37.47-.85,0-1.72.06-2.55-.07-.81-.12-1.36-.68-1.56-1.5-.13-.54-.2-1.09-.3-1.64-.02-.12-.03-.25-.06-.49-.31.4-.53.72-.78,1.01-.53.6-1.03,1.25-1.64,1.75-1.29,1.07-2.83,1.53-4.5,1.59-1.31.04-2.61.04-3.89-.37-2.59-.84-4.13-2.83-4.19-5.55-.02-.82.05-1.67.26-2.46.42-1.64,1.59-2.64,3.09-3.33,1.55-.71,3.21-.98,4.89-1.17,1.39-.16,2.78-.3,4.16-.53,1.76-.3,2.31-.88,2.46-2.66.12-1.45-.42-3.22-2.11-4.06-.64-.32-1.31-.48-2.01-.54-1.14-.1-2.27-.13-3.4.11-2.28.48-3.77,2.22-3.83,4.55,0,.24-.06.37-.31.37-.7,0-1.4-.02-2.1-.03-.06,0-.12-.03-.19-.05.16-1.84.62-3.56,1.93-4.94,1.21-1.28,2.77-1.88,4.47-2.15,1.74-.27,3.49-.24,5.22.13,2.5.54,4.11,2.07,4.72,4.56.16.64.19,1.34.19,2.01.02,3.65,0,7.29,0,10.94,0,.42,0,.87.1,1.27.24.93.93,1.31,1.87,1.09.11-.02.22-.06.41-.11h0Zm-4.92-9.64c-.17.12-.26.19-.36.24-.35.18-.69.45-1.06.52-1.78.34-3.57.6-5.35.94-1.27.24-2.55.47-3.68,1.16-.82.51-1.54,1.11-1.8,2.1-.58,2.2.62,4.43,2.77,5.16,1.48.51,2.96.41,4.44.02,3.08-.81,5.01-3.26,5.08-6.45.02-1.05.03-2.1.04-3.15,0-.15-.04-.3-.07-.54h0Z"/>
      <path class="cls-1" d="m72.92,101.98c-2.35.07-4.45-.64-6.26-2.13-1.69-1.39-2.74-3.2-3.31-5.29-.77-2.82-.77-5.65.1-8.44.91-2.92,2.69-5.15,5.55-6.4,1.37-.6,2.85-.78,4.34-.72,1.06.04,2.12.16,3.13.55,2.27.86,3.94,2.4,5.11,4.51.8,1.44,1.13,3.02,1.39,4.62.27,1.65.11,3.28-.21,4.9-.3,1.49-.79,2.9-1.65,4.16-1.86,2.74-4.45,4.15-7.76,4.25-.14,0-.29,0-.43,0h0Zm.28-2.14c.65.05,1.52-.11,2.36-.45,1.98-.79,3.2-2.3,4.04-4.2.79-1.78,1.01-3.65.89-5.58-.12-1.96-.65-3.77-1.75-5.4-.92-1.36-2.14-2.38-3.74-2.82-1.37-.38-2.78-.42-4.15,0-1.84.57-3.23,1.75-4.12,3.46-1.8,3.44-1.93,6.99-.38,10.53,1.23,2.81,3.36,4.49,6.84,4.45Z"/>
      <path class="cls-1" d="m89.63,83.21c.15-.23.32-.45.45-.7,1.02-1.85,2.64-2.89,4.65-3.34,1.77-.39,3.55-.28,5.26.29,2.28.76,3.64,2.39,4.04,4.75.2,1.18.31,2.39.32,3.59.04,4.39.01,8.77.02,13.16,0,.34-.07.49-.45.47-.59-.03-1.19-.02-1.79,0-.31.01-.4-.09-.4-.4,0-3.87.02-7.73,0-11.6,0-1.27-.03-2.54-.16-3.81-.21-2.02-1.51-3.82-3.51-4.24-2.15-.45-4.21-.25-5.97,1.26-1.34,1.14-2.04,2.63-2.35,4.31-.13.67-.17,1.36-.18,2.05-.02,4.01,0,8.02,0,12.03,0,.27-.12.38-.37.38-.66,0-1.32,0-1.98,0-.27,0-.27-.15-.27-.36,0-6.93,0-13.86.02-20.79,0-.14-.04-.3,0-.42.04-.11.17-.27.26-.27.67-.02,1.35-.01,2.02-.02.23,0,.32.1.32.33-.02.87-.02,1.74-.03,2.61v.67s.07.01.1.02h0Z"/>
      <path class="cls-1" d="m0,101.43v-21.86c.79,0,1.57,0,2.34,0,.3,0,.25.25.25.44,0,.97,0,1.94,0,2.92,0,.08.02.17.05.34.1-.15.16-.22.2-.31,1.01-2.13,2.76-3.35,5-3.81,1.83-.38,3.67-.23,5.44.42,2.19.81,3.33,2.49,3.8,4.7.33,1.53.31,3.09.31,4.65,0,3.98,0,7.97,0,11.95,0,.39-.2.58-.59.58-.56,0-1.12-.02-1.67,0-.28,0-.39-.09-.39-.38,0-4.58.03-9.16,0-13.74,0-1.5-.22-2.98-1.16-4.24-.85-1.16-2.02-1.76-3.45-1.81-.69-.02-1.4-.05-2.09.05-2.31.35-3.79,1.78-4.74,3.82-.51,1.1-.7,2.28-.71,3.48-.02,3.52-.01,7.03-.02,10.55,0,.61,0,1.22,0,1.83,0,.3-.07.45-.42.44-.71-.02-1.42,0-2.17,0h0Z"/>
      <path class="cls-1" d="m241.29,86.3c0-4.88,0-9.76,0-14.64,0-.32.07-.43.41-.42.91.02,1.82.02,2.73,0,.29,0,.4.06.4.39,0,9.2,0,18.4,0,27.6,0,.6-.02,1.19-.02,1.79,0,.24-.07.36-.33.35-.97,0-1.95-.01-2.92,0-.24,0-.28-.11-.27-.31,0-.58,0-1.17,0-1.75v-13h0Z"/>
      <path class="cls-1" d="m189.78,84.01c.17-.26.36-.52.51-.79.59-1.05,1.32-1.98,2.28-2.73,1.16-.9,2.48-1.33,3.92-1.38,1.16-.04,1.16-.03,1.14,1.14,0,.73,0,1.45,0,2.18,0,.34-.12.46-.45.45-1.08-.02-2.15.11-3.16.54-1.73.75-2.9,2-3.51,3.78-.45,1.31-.6,2.67-.59,4.06.03,3.16,0,6.33,0,9.5,0,.59,0,.6-.61.59-.78,0-1.56,0-2.34,0-.4,0-.6-.2-.6-.59v-20.17c0-1.05,0-1.04,1.03-1.03.61,0,1.22.02,1.83,0,.34-.01.41.12.4.43-.02,1.26-.02,2.52-.02,3.78,0,.06.02.12.02.18.04.02.08.04.13.06h0Z"/>
      <path class="cls-1" d="m232.11,86.26c0-4.88,0-9.76,0-14.63,0-.31.11-.38.38-.38.93,0,1.87,0,2.8,0,.29,0,.34.13.34.38,0,9.03-.01,18.06-.02,27.09,0,.74,0,1.48.02,2.22,0,.34-.11.45-.45.44-.91-.02-1.82-.01-2.72,0-.22,0-.36-.03-.36-.31,0-4.93,0-9.86,0-14.79h.01-.01Z"/>
      <path class="cls-1" d="m45.47,73.03c.78,0,1.52,0,2.26,0,.29,0,.31.17.3.38,0,1.34-.01,2.67-.01,4.01,0,.57.02,1.14,0,1.71,0,.33.13.45.47.45,1.17-.02,2.34,0,3.5-.02.33,0,.44.11.43.42-.01.47,0,.93,0,1.4,0,.29-.07.43-.43.43-1.17-.03-2.34,0-3.5-.02-.39,0-.5.15-.49.49.01.61,0,1.22,0,1.83,0,4.07,0,8.15,0,12.22,0,.44.03.88.07,1.32.09,1.07.77,1.72,1.91,1.77.64.02,1.3-.01,1.94-.07.36-.03.5.08.49.43-.01.44,0,.88,0,1.32,0,.27-.1.41-.41.44-1.31.11-2.61.15-3.91-.12-1.37-.28-2.21-1.11-2.48-2.55-.1-.55-.16-1.1-.16-1.66-.01-4.94,0-9.89,0-14.83,0-.57,0-.58-.59-.58-.95,0-1.89-.01-2.84,0-.31,0-.41-.12-.4-.41.02-.49.02-.99,0-1.48,0-.28.1-.36.37-.36.98.01,1.97,0,2.96,0,.48,0,.5-.02.5-.51,0-1.92-.01-3.84-.02-5.76,0-.07.02-.15.03-.27h0Z"/>
      <path class="cls-1" d="m164.37,120.92c-.03.25-.09.5-.09.75,0,2.37.03,4.75.04,7.12,0,.52-.04.54-.57.49-.28-.03-.57-.04-.85-.02-.33.03-.42-.1-.42-.41.01-2.39,0-4.77,0-7.16,0-4.23,0-8.46,0-12.69v-.6c.53,0,1.02-.02,1.5.02.08,0,.21.23.22.35.02.7.01,1.4.02,2.1,0,.03.02.07.05.2.11-.15.2-.24.26-.35,1.02-1.84,2.67-2.64,4.7-2.77,1.13-.07,2.24.07,3.25.58,1.29.64,2.22,1.65,2.84,2.94,1.08,2.25,1.23,4.6.7,7.01-.28,1.28-.77,2.48-1.64,3.48-.96,1.09-2.16,1.74-3.61,1.95-1.51.22-2.94.04-4.28-.71-.88-.49-1.51-1.21-1.92-2.13-.02-.05-.05-.08-.08-.13h-.12,0Zm10.13-5.31c-.06-.41-.12-1.16-.26-1.89-.48-2.35-2.29-4.53-5.29-4.29-1.92.16-3.63,1.41-4.21,3.33-.54,1.8-.58,3.63-.17,5.46.39,1.78,1.34,3.16,3.03,3.89,2.16.93,4.38.29,5.71-1.68.92-1.35,1.14-2.9,1.19-4.82h0Z"/>
      <path class="cls-1" d="m200.38,118.53c-.5,2.01-1.31,3.67-3.06,4.68-.69.4-1.45.6-2.25.69-1.26.14-2.5.11-3.72-.32-1.83-.65-2.99-1.97-3.62-3.76-.85-2.44-.9-4.92-.08-7.37.85-2.54,2.56-4.2,5.31-4.51,3-.34,5.39.94,6.68,3.8.61,1.36.75,2.82.8,4.29.01.44-.07.48-.5.47-.7-.02-1.4,0-2.1,0-2.7,0-5.4-.01-8.1-.02-.91,0-.93.03-.79.91.18,1.21.5,2.35,1.28,3.33.95,1.17,2.18,1.79,3.68,1.81,2.14.03,3.92-1.36,4.47-3.47.11-.41.31-.55.7-.54.41.02.82,0,1.3,0h0Zm-1.72-3.59c-.21-1.34-.41-2.61-1.25-3.68-1.48-1.89-3.87-2.39-5.82-1.21-1.74,1.05-2.32,2.77-2.66,4.62-.05.26.12.28.33.28,2.72,0,5.44,0,8.16,0h1.23Z"/>
      <path class="cls-1" d="m133.57,101.36c-.84,0-1.62,0-2.4-.01-.08,0-.21-.16-.23-.26-.03-.2,0-.41,0-.62v-28.45q0-.77.77-.77c.5,0,1.01,0,1.52,0,.24,0,.38.06.34.33,0,.07,0,.16,0,.23v29.55h0Z"/>
      <path class="cls-1" d="m226.37,79.58c.01.15.03.25.03.35v21.05c0,.27-.06.4-.36.4-.96-.01-1.92-.01-2.88,0-.22,0-.3-.1-.3-.3,0-.4,0-.8,0-1.21,0-6.6,0-13.2,0-19.8,0-.35.08-.5.48-.49,1,.03,2,0,3.04,0h0Z"/>
      <path class="cls-1" d="m202.04,118.64c.59,0,1.11-.02,1.62.01.1,0,.27.18.27.27-.02,1.93,1.85,3.43,3.91,3.55,1.39.08,2.66-.19,3.77-1.12,1.13-.95,1.07-3.02-.37-3.76-1-.51-2.07-.81-3.15-1.07-1.03-.25-2.09-.36-3.06-.84-.8-.4-1.55-.83-2.02-1.64-.96-1.67-.35-4.06,1.31-5.11,1.06-.67,2.23-.95,3.47-1.01,1.26-.07,2.5.09,3.61.74,1.41.83,2.12,2.12,2.3,3.72.03.3-.07.44-.39.42-.38-.02-.75,0-1.13,0-.21,0-.31-.09-.36-.31-.45-2.06-1.67-3.03-3.81-3.04-.91,0-1.76.16-2.56.64-1.25.75-1.66,2.83.03,3.77,1.08.6,2.26.87,3.44,1.17,1.01.26,2.07.32,3.02.83,1.68.9,2.42,2.29,2.21,4.17-.19,1.68-1.22,2.76-2.72,3.36-1.98.78-4.01.86-6.04.15-1.83-.64-2.87-1.97-3.19-3.87-.05-.3-.1-.61-.17-1.01h0Z"/>
      <path class="cls-1" d="m222.49,107.91c1.03,0,2.29.23,3.37,1.07,1.12.87,1.68,2.04,1.83,3.44.03.26-.07.4-.34.38-.4-.02-.8,0-1.2-.05-.1,0-.25-.17-.26-.27-.18-1.37-.91-2.31-2.21-2.75-1.4-.47-2.82-.47-4.13.3-1.61.95-1.62,2.98.04,3.85.9.47,1.92.74,2.92,1.03.74.22,1.52.3,2.27.5,1.3.33,2.42.98,2.98,2.23.94,2.09.42,4.34-1.77,5.46-2.39,1.23-4.91,1.26-7.37.07-1.41-.68-2.07-1.93-2.41-3.4-.25-1.09-.26-1.09.86-1.12.77-.02.78-.02.89.66.26,1.58,1.26,2.47,2.71,2.94,1.2.39,2.41.32,3.59-.1.71-.25,1.31-.69,1.75-1.3.71-.99.47-2.32-.58-3.1-.8-.59-1.75-.82-2.69-1.07-1.23-.33-2.48-.63-3.7-1.02-.71-.22-1.32-.66-1.79-1.26-1.16-1.49-1.01-4.3,1.17-5.58,1.16-.68,2.44-.92,4.06-.93h0Z"/>
      <path class="cls-1" d="m58.88,90.46v10.39c0,.51,0,.51-.52.51-.6,0-1.19-.01-1.79,0-.26,0-.35-.1-.35-.34,0-.66.01-1.32,0-1.98,0-6.33,0-12.66-.02-18.99,0-.36.08-.52.48-.49.58.04,1.17.03,1.75,0,.37-.02.46.12.46.47-.01,3.48,0,6.95,0,10.43,0,0,0,0,0,0Z"/>
      <path class="cls-1" d="m179.23,123.62v-.45c0-4.77,0-9.55,0-14.32,0-.37.08-.51.47-.47.38.03.78,0,1.19,0v3.24s.05.03.07.05c.14-.21.31-.41.43-.64.61-1.17,1.52-2.01,2.75-2.51.72-.29,1.46-.34,2.21-.3.08,0,.2.2.21.31.02.37-.03.75,0,1.12.02.3-.1.39-.38.38-1.04-.03-2,.26-2.86.84-1.54,1.06-2.26,2.59-2.3,4.41-.06,2.51,0,5.03,0,7.55,0,.12,0,.23,0,.35.03.34-.1.46-.45.44-.42-.03-.85,0-1.33,0h0Z"/>
      <path class="cls-1" d="m145.03,97.97c.02,1.63-1.05,2.91-2.65,3.05-1.29.11-2.51-.66-2.92-2.13-.21-.76-.19-1.54.16-2.28.66-1.42,2.12-2.04,3.59-1.52,1.04.36,1.81,1.58,1.82,2.87Z"/>
      <path class="cls-1" d="m155.12,77.15c0,2.11-1.76,3.55-3.63,3.04-1.07-.29-2.05-1.52-2.11-2.64-.07-1.27.39-2.29,1.48-2.96,1.68-1.02,3.95.1,4.2,2.06.02.19.04.39.05.5h0Z"/>
      <path class="cls-1" d="m145.05,77.25c-.02,1.71-1.38,3.09-3.02,3.06-1.38-.03-2.73-1.54-2.72-3.06.01-1.73,1.31-3.07,2.96-3.06,1.53,0,2.8,1.4,2.79,3.06h0Z"/>
      <path class="cls-1" d="m155.05,87.58c.09,1.58-1.29,3.2-3.06,3.02-.87-.09-1.51-.54-1.98-1.22-.89-1.31-.75-2.79.31-3.96,1.18-1.3,3.51-1,4.32.55.27.52.46,1.07.41,1.62Z"/>
      <path class="cls-1" d="m144.99,87.58c.09,1.58-1.29,3.2-3.06,3.02-.87-.09-1.51-.54-1.98-1.22-.89-1.31-.75-2.79.31-3.96,1.18-1.3,3.51-1,4.32.55.27.52.46,1.07.41,1.62Z"/>
      <path class="cls-1" d="m155.06,97.89c0,1.85-1.27,3.11-3,3.06-1.13-.03-2.16-.92-2.49-2.16-.4-1.45.3-2.99,1.63-3.57,1.24-.55,2.65-.12,3.37,1.02.33.52.56,1.08.5,1.65Z"/>
      <path class="cls-1" d="m224.29,70.71c1.14-.02,2.1,1.02,2.1,2.24,0,1.21-.96,2.23-2.11,2.25-1.15.01-2.12-1-2.13-2.22-.01-1.28.91-2.25,2.15-2.27h0Z"/>
      <path class="cls-1" d="m57.63,71.73c.97,0,1.67.74,1.67,1.75,0,.91-.8,1.73-1.66,1.72-.93-.01-1.68-.84-1.66-1.84.01-.92.74-1.63,1.66-1.62h0Z"/>
    </g>
  </g>
</svg>