<svg xmlns="http://www.w3.org/2000/svg" width="220" height="110" viewBox="0 0 238.913 77.9">
  <g id="logo_innovate" transform="translate(-16.83 -4.68)">
    <path id="Path_12" data-name="Path 12" d="M85.18,13.73V5.96c0-.65.2-.78.81-.78h32c.63,0,.8.17.8.79V29.6c0,.62.21.75.79.75h33.93c0,.32.07.63.07,1V81.08c0,.75-.15,1-.95,1H129.05V71.75c0-1,0-1-1.06-1H85.22V14.85C85.2,14.47,85.19,14.1,85.18,13.73Z" fill="none" stroke="#1d1d1b" stroke-width="1"/>
    <path id="Path_13" data-name="Path 13" d="M85.18,13.73V81.9H17.83c-.75,0-1-.15-1-.94V14.61c0-.85.26-1,1-1Q51.55,13.74,85.18,13.73ZM34.94,47.81H25.22c-.54,0-.78.06-.77.71V73.77c0,.59.19.69.72.68h6.5c.63,0,.81-.14.8-.78V65.25c0-.48.11-.66.62-.63a14.44,14.44,0,0,0,2.08,0,1.26,1.26,0,0,1,1.2.59C38.5,68.13,40.69,71,42.85,74a1,1,0,0,0,.83.49H77.15c.54,0,.61-.2.6-.65V69.75c0-.56-.16-.72-.72-.71h-8c-.51,0-.67-.12-.67-.66V53.96c0-.58.17-.71.72-.7h7.94c.55,0,.68-.17.67-.68V47.05a2,2,0,0,0-.65-1.54c-3.4-3.51-6.85-7.07-10.32-10.59-.34-.33-.29-.5,0-.81,3.44-3.48,6.84-7,10.31-10.44a2.26,2.26,0,0,0,.71-1.83c0-.5-.16-.63-.65-.63h-6.9a1,1,0,0,0-.82.37c-2.43,2.6-4.87,5.18-7.3,7.77l-3,3.21V21.95c0-.6-.14-.77-.75-.76H44.43c-.71,0-.88.16-.87.87v14a5.12,5.12,0,0,1-1.34,3.74A6.45,6.45,0,0,1,35.49,41c-2.05-.82-3-2.43-3-5V22c0-.65-.18-.8-.81-.79q-3.21.06-6.42,0c-.63,0-.8.16-.79.79V36.83a9.93,9.93,0,0,0,3.41,7.58,15.07,15.07,0,0,0,7.06,3.4Z" fill="#1d1d1b"/>
    <path id="Path_14" data-name="Path 14" d="M153.47,30.33H119.54c-.58,0-.79-.13-.79-.75V13.72H152.7c.46,0,.81,0,.8.64V29.99A1.7,1.7,0,0,1,153.47,30.33Z" fill="none" stroke="#1d1d1b" stroke-width="1"/>
    <path id="Path_15" data-name="Path 15" d="M85.2,81.94V70.58H128c1.06,0,1.06,0,1.06,1V81.91H85.76Z" fill="none" stroke="#1d1d1b" stroke-width="1"/>
    <path id="Path_16" data-name="Path 16" d="M168.35,56.65V52.08c0-.5.1-.73.66-.69a11.3,11.3,0,0,0,1.84,0c.52,0,.61.18.61.65v7.68a9.26,9.26,0,0,0,.16,1.75,2.91,2.91,0,0,0,3,2.6,2.83,2.83,0,0,0,3-2.5,6.44,6.44,0,0,0,.14-1.51V52.21c0-.69.21-.88.86-.81s1.71-.31,2.17.14.16,1.46.15,2.22a71.159,71.159,0,0,1-.12,8c-.4,3.43-2.78,5.36-6.43,5.29a5.73,5.73,0,0,1-5.92-5.52c-.12-1.62,0-3.26,0-4.88Z"/>
    <path id="Path_17" data-name="Path 17" d="M195.13,51.4c-1.55,2.43-3,4.7-4.47,7a.88.88,0,0,0,0,1.19c1.69,2.4,3.34,4.82,5.1,7.37h-3.34c-.31,0-.39-.35-.54-.56-1.25-1.79-2.49-3.59-3.74-5.39-.2-.29-.36-.53-.79-.56-.65,0-.87.12-.85.81.06,1.68,0,3.37,0,5.05,0,.5-.08.73-.64.68-.77-.08-1.77.31-2.25-.15s-.14-1.46-.14-2.23V52.27c0-.58.07-.91.76-.83s1.73-.3,2.15.17.12,1.37.13,2.08v3c0,.26-.27.72.23.78s.92.14,1.26-.41c1-1.64,2.09-3.22,3.09-4.86a1.38,1.38,0,0,1,1.46-.81C193.37,51.46,194.17,51.4,195.13,51.4Z"/>
    <path id="Path_18" data-name="Path 18" d="M255.38,40.92a5.25,5.25,0,0,1-5.32,3.47,5.52,5.52,0,0,1-5.09-4,5.56,5.56,0,1,1,10.72-1.17c-.09.46-.4.34-.66.34h-6.74c-.76,0-.7.27-.44.78a2.84,2.84,0,0,0,3.88,1.12,4.63,4.63,0,0,1,2.71-.58Zm-5.19-3.62h1.85c.62,0,.59-.23.35-.65a2.16,2.16,0,0,0-2.14-1.13,2.62,2.62,0,0,0-2.3,1.39c-.21.38.05.39.32.39Z"/>
    <path id="Path_19" data-name="Path 19" d="M232,43a5,5,0,0,1-5.53,1,2.88,2.88,0,0,1-2.07-2.76,3,3,0,0,1,1.55-2.88,9.43,9.43,0,0,1,4.61-1.14c.71,0,.76-.26.53-.81a2,2,0,0,0-3-.49,1.4,1.4,0,0,1-1.31.48h-1.21c-.67.07-.67-.23-.51-.74a3.48,3.48,0,0,1,2-2.18,6,6,0,0,1,3.54-.37,3.8,3.8,0,0,1,3.38,4v3.53c0,.66.13,1.31,1,1.39a.3.3,0,0,1,.28.32,1,1,0,0,1,0,.17c-.06.56.28,1.4-.16,1.65a2.47,2.47,0,0,1-2-.21A2.94,2.94,0,0,1,232,43Zm-1.11-3.56a11.88,11.88,0,0,0-2.73.55c-.51.2-1,.51-.89,1.15s.65.86,1.25.91a2.54,2.54,0,0,0,2.66-2.13c.02-.43-.13-.53-.34-.48Z"/>
    <path id="Path_20" data-name="Path 20" d="M187.4,38.74v-5c0-.45.12-.65.58-.59a3.47,3.47,0,0,0,.72,0c.75-.12,1.21.11,1.3.92,0,.47.28.51.63.19a4.45,4.45,0,0,1,5-.86c1.79.77,2.32,2.44,2.39,4.22.08,2.05,0,4.11,0,6.16,0,.42-.16.49-.51.48a19.248,19.248,0,0,0-2,0c-.44,0-.53-.15-.53-.56v-5a7.711,7.711,0,0,0,0-1,2.1,2.1,0,0,0-1.35-2,2.48,2.48,0,0,0-2.59.83,3.61,3.61,0,0,0-.72,2.33c0,1.57,0,3.15,0,4.72,0,.44,0,.7-.58.65-.77-.06-1.78.25-2.25-.14s-.14-1.45-.16-2.21C187.37,40.88,187.4,39.81,187.4,38.74Z"/>
    <path id="Path_21" data-name="Path 21" d="M174.35,38.71V33.83c0-.47.09-.72.61-.64a2.74,2.74,0,0,0,.64,0c.72-.08,1.29,0,1.37.93,0,.56.38.44.7.13a4,4,0,0,1,2.73-1.18c2.83-.14,4.56,1.56,4.66,4.68.07,2,0,4,0,6,0,.42-.11.57-.54.55-.79,0-1.81.24-2.32-.15s-.13-1.45-.15-2.21V38.17c0-1.49-.64-2.36-1.74-2.5a2.64,2.64,0,0,0-2.77,2,5.06,5.06,0,0,0-.19,1.5v4.49c0,.48-.08.73-.65.68a11.49,11.49,0,0,0-1.76,0c-.49,0-.64-.12-.63-.62C174.37,42,174.35,40.37,174.35,38.71Z"/>
    <path id="Path_22" data-name="Path 22" d="M211.3,38.69a5.69,5.69,0,0,1-11.38,0,5.59,5.59,0,0,1,5.8-5.66,5.4,5.4,0,0,1,5.58,5.66Zm-5.6,3.05a2.72,2.72,0,0,0,2.67-3.05,2.79,2.79,0,0,0-2.72-3,2.88,2.88,0,0,0-2.74,3.13,2.77,2.77,0,0,0,2.79,2.92Z"/>
    <path id="Path_23" data-name="Path 23" d="M217.64,44.23c-.72,0-1.6.25-2.1-.08s-.51-1.23-.72-1.89c-.91-2.81-1.81-5.62-2.75-8.43-.18-.54-.08-.69.48-.65.77.07,1.74-.3,2.26.14s.56,1.39.79,2.12c.56,1.75,1.1,3.5,1.67,5.25.07.22,0,.61.41.58s.28-.34.35-.56c.73-2.28,1.48-4.56,2.17-6.85.16-.54.39-.75.94-.67.72.09,1.74-.34,2.11.18s-.31,1.31-.53,2c-.86,2.69-1.77,5.37-2.59,8.07-.21.68-.49,1-1.21.87a9.1,9.1,0,0,0-1.28,0Z"/>
    <path id="Path_24" data-name="Path 24" d="M237.46,38.39V36.15c0-.4-.09-.61-.53-.54h-.08c-1.7,0-1.68,0-1.62-1.72,0-.46.19-.5.57-.51,1.58,0,1.81-.28,1.81-1.83s0-1.69,1.7-1.69c1,0,1,0,1.05,1.05,0,.74-.33,1.69.15,2.15s1.38.13,2.09.12c.45,0,.59.12.6.58,0,1.85,0,1.85-1.81,1.85-1,0-1,0-1,1.07v3.45c0,1.35.83,2,2.1,1.54.54-.18.78-.1,1,.4a4,4,0,0,0,.27.49c.53,1,.51,1.1-.55,1.52-2.35.94-5.77-.2-5.68-3.77C237.47,39.67,237.46,39,237.46,38.39Z"/>
    <path id="Path_25" data-name="Path 25" d="M168.54,36.43v-7c0-.52.13-.71.66-.65.81.08,1.91-.35,2.37.18s.13,1.52.13,2.32V43.61c0,.61-.17.79-.76.74-.77-.06-1.81.26-2.24-.13s-.15-1.5-.16-2.29C168.53,40.06,168.54,38.25,168.54,36.43Z"/>
    <path id="Path_26" data-name="Path 26" d="M50.88,72.46,44.6,64.24c.76-.21,1.45-.37,2.13-.59a7.51,7.51,0,0,0,5.33-8.81c-.08-.51-.5-1.19-.19-1.49s1-.1,1.54-.1h6.35c.49,0,.63.13.62.62V68.38c0,.55-.18.65-.68.65h-8c-.57,0-.74.16-.71.72v2.7Z" fill="#1d1d1b"/>
    <path id="Path_27" data-name="Path 27" d="M37,53.24a27.86,27.86,0,0,1,4.38.17A2.81,2.81,0,0,1,41.53,59a8.63,8.63,0,0,1-1.75.21H33.04c-.43,0-.6-.09-.59-.57v-4.8c0-.53.18-.62.65-.61C34.32,53.26,35.55,53.24,37,53.24Z" fill="#1d1d1b"/>
    <path id="Path_28" data-name="Path 28" d="M69.68,47.82h-10c-.48,0-.64-.11-.64-.62V36.48Z" fill="#1d1d1b"/>
    <path id="Path_29" data-name="Path 29" d="M40.9,47.76c4.46-.94,8.1-2.94,10.11-7.28V51.74C48.36,48.42,44.62,48.12,40.9,47.76Z" fill="#1d1d1b"/>
  </g>
</svg>
