<svg width="260.9" height="126.7" id="Capa_1" data-name="Capa 1" xmlns="http://www.w3.org/2000/svg" viewBox="0 0 272.65 87.16"><defs><style>.cls-1{fill:#020303;}</style></defs><polygon class="cls-1" points="44.07 9.6 43.35 10.46 45.75 11.52 44.07 9.6"/><polygon class="cls-1" points="44.07 12.26 44.21 12.32 44.13 12.23 44.07 12.26"/><polygon class="cls-1" points="24.62 75.17 25.68 77.45 32.31 77.45 33.38 75.17 26.45 72.15 24.62 75.17"/><polygon class="cls-1" points="22.22 70.14 23.46 72.77 26.3 68.27 37.08 73.13 35.13 77.45 37.82 77.45 40.31 71.91 25.36 65.13 22.22 70.14"/><polygon class="cls-1" points="20.09 65.64 21.21 67.97 26.19 60.81 43.35 68.98 39.69 77.45 42.14 77.45 46.29 67.89 25.42 57.97 20.09 65.64"/><polygon class="cls-1" points="18.05 61.31 19.05 63.41 26.1 53.97 49.63 64.87 43.86 77.45 46.14 77.45 52.33 63.86 25.45 51.43 18.05 61.31"/><polygon class="cls-1" points="15.97 56.93 16.86 58.8 26.01 47.16 55.88 60.72 48 77.45 50.05 77.45 58.36 59.83 25.45 44.88 15.97 56.93"/><polygon class="cls-1" points="13.87 52.46 14.67 54.12 25.95 40.35 62.15 56.61 52.12 77.45 53.95 77.45 64.37 55.78 25.48 38.34 13.87 52.46"/><polygon class="cls-1" points="11.74 47.99 11.71 47.9 11.74 47.99 12.45 49.44 25.86 33.58 68.43 52.46 56.2 77.45 57.8 77.45 70.41 51.75 25.48 31.8 11.74 47.99"/><polygon class="cls-1" points="33.11 22.59 68.78 38.7 67.19 36.8 33.82 21.76 33.11 22.59"/><polygon class="cls-1" points="36.81 18.24 60.38 28.84 58.78 26.95 37.52 17.41 36.81 18.24"/><polygon class="cls-1" points="40.48 13.86 52.18 19.1 50.55 17.2 41.19 13 40.48 13.86"/><polygon class="cls-1" points="28.91 27.6 74.88 48.52 60.52 77.45 61.98 77.45 71.51 58.2 76.6 47.9 76.57 47.9 29.77 26.56 28.91 27.6"/><path class="cls-1" d="M95.31,48.47l-3.2-4.59a4.09,4.09,0,0,1-.59,0H88v4.56H85.1V32.84h6.42c4.11,0,6.66,2.1,6.66,5.56a5,5,0,0,1-3.32,4.94l3.62,5.16H95.31ZM91.37,35.29H88v6.25h3.4c2.55,0,3.88-1.16,3.88-3.14S93.92,35.29,91.37,35.29Z"/><path class="cls-1" d="M100.16,42.52a6.35,6.35,0,1,1,6.34,6.12A6,6,0,0,1,100.16,42.52Zm9.89,0a3.54,3.54,0,1,0-7.07,0,3.54,3.54,0,1,0,7.07,0Z"/><path class="cls-1" d="M126.39,36.54,120.8,49.41c-1.1,2.7-2.61,3.53-4.59,3.53a5,5,0,0,1-3.2-1.1l1.13-2a3.08,3.08,0,0,0,2,.83c1,0,1.57-.48,2.1-1.66l.21-.47-5.21-12h2.9l3.76,8.82,3.76-8.82Z"/><path class="cls-1" d="M138.11,41.48v7h-2.63V47c-.68,1-1.95,1.59-3.76,1.59-2.72,0-4.44-1.51-4.44-3.58s1.33-3.55,5-3.55h3.08V41.3c0-1.63-1-2.6-3-2.6a5.87,5.87,0,0,0-3.61,1.18l-1.1-2a8.47,8.47,0,0,1,5.07-1.48C136.13,36.42,138.11,38.05,138.11,41.48Zm-2.78,3.26v-1.4h-2.87c-1.9,0-2.43.71-2.43,1.6s.86,1.66,2.28,1.66A3,3,0,0,0,135.33,44.74Z"/><path class="cls-1" d="M141.31,31.89h2.78V48.47h-2.78Z"/><path class="cls-1" d="M164.34,44.85h-7.81L155,48.47h-3l7-15.63h2.87L169,48.47h-3.05Zm-1-2.28-3-6.83-2.93,6.83Z"/><path class="cls-1" d="M169.7,42.52c0-3.59,2.69-6.1,6.45-6.1a5.33,5.33,0,0,1,5.09,2.78l-2.13,1.24a3.38,3.38,0,0,0-3-1.65,3.5,3.5,0,0,0-3.61,3.73,3.5,3.5,0,0,0,3.61,3.73,3.33,3.33,0,0,0,3-1.66l2.13,1.24a5.43,5.43,0,0,1-5.09,2.78C172.36,48.64,169.7,46.07,169.7,42.52Z"/><path class="cls-1" d="M193.65,41.48v7H191V47c-.68,1-1.95,1.59-3.76,1.59-2.72,0-4.44-1.51-4.44-3.58s1.34-3.55,5-3.55h3.08V41.3c0-1.63-1-2.6-3-2.6a5.88,5.88,0,0,0-3.62,1.18l-1.09-2a8.44,8.44,0,0,1,5.06-1.48C191.66,36.42,193.65,38.05,193.65,41.48Zm-2.81,3.26v-1.4H188c-1.89,0-2.42.71-2.42,1.6s.86,1.66,2.28,1.66A3,3,0,0,0,190.84,44.74Z"/><path class="cls-1" d="M208.89,31.89V48.47H206.2V46.93a5,5,0,0,1-4,1.68,5.8,5.8,0,0,1-6-6.12,5.78,5.78,0,0,1,6-6.1,4.9,4.9,0,0,1,3.85,1.6v-6.1Zm-2.75,10.63a3.55,3.55,0,1,0-7.1,0,3.55,3.55,0,1,0,7.1,0Z"/><path class="cls-1" d="M223.72,43.4h-9.35a3.62,3.62,0,0,0,3.88,2.88A4.15,4.15,0,0,0,221.47,45L223,46.69a6,6,0,0,1-4.79,2c-4,0-6.6-2.57-6.6-6.12a5.92,5.92,0,0,1,6.15-6.1,5.8,5.8,0,0,1,6,6.15A8.11,8.11,0,0,1,223.72,43.4Zm-9.38-1.86h6.78a3.26,3.26,0,0,0-3.38-2.9A3.3,3.3,0,0,0,214.34,41.54Z"/><path class="cls-1" d="M246.4,41.63v6.84h-2.78V42c0-2.13-1-3.14-2.7-3.14s-3.1,1.22-3.1,3.59V48.5H235V42c0-2.13-1-3.14-2.69-3.14-1.87,0-3.11,1.22-3.11,3.59v6.06h-2.78v-12h2.66v1.51A5,5,0,0,1,233,36.39a4.5,4.5,0,0,1,4,2,5.5,5.5,0,0,1,4.47-2C244.39,36.42,246.4,38.05,246.4,41.63Z"/><path class="cls-1" d="M260.94,36.54l-5.6,12.9c-1.09,2.7-2.6,3.53-4.59,3.53a5.06,5.06,0,0,1-3.2-1.1l1.13-2a3.08,3.08,0,0,0,2,.83c1,0,1.57-.48,2.1-1.66l.21-.48-5.21-12h2.9l3.76,8.82,3.76-8.82Z"/><path class="cls-1" d="M83.82,67.12a6.35,6.35,0,1,1,6.34,6.12A6,6,0,0,1,83.82,67.12Zm9.89,0a3.54,3.54,0,1,0-3.55,3.73A3.47,3.47,0,0,0,93.71,67.12Z"/><path class="cls-1" d="M102.29,60.51v.71h3.29v2.22h-3.2v9.63H99.6v-9.6H97.65V61.25H99.6v-.77c0-2.51,1.51-4.14,4.26-4.14a4.52,4.52,0,0,1,2.52.65l-.77,2.1a2.7,2.7,0,0,0-1.54-.5C102.92,58.59,102.29,59.24,102.29,60.51Z"/><path class="cls-1" d="M125.62,70.64v2.43H113.9V57.44h11.43v2.42H116.8v4.06h7.55v2.4H116.8v4.32Z"/><path class="cls-1" d="M140.36,66.23v6.84h-2.78V66.58c0-2.13-1-3.14-2.84-3.14-2,0-3.32,1.22-3.32,3.62v6h-2.78V61.17h2.67V62.7A5.18,5.18,0,0,1,135.42,61C138.23,61,140.36,62.65,140.36,66.23Z"/><path class="cls-1" d="M155.76,61.14V71.26c0,4.32-2.25,6.31-6.43,6.31a9.66,9.66,0,0,1-5.8-1.69l1.24-2.1a7.36,7.36,0,0,0,4.42,1.42c2.63,0,3.78-1.22,3.78-3.61V71a5.24,5.24,0,0,1-4,1.6,5.7,5.7,0,0,1-6-5.77c0-3.46,2.6-5.74,6-5.74a5.19,5.19,0,0,1,4.14,1.71V61.17h2.64ZM153,66.76a3.63,3.63,0,1,0-3.61,3.4A3.38,3.38,0,0,0,153,66.76Z"/><path class="cls-1" d="M159,57.49a1.71,1.71,0,0,1,1.78-1.68,1.66,1.66,0,0,1,1.78,1.6,1.72,1.72,0,0,1-1.78,1.74A1.65,1.65,0,0,1,159,57.49Zm.36,3.65h2.78V73.07H159.4Z"/><path class="cls-1" d="M177.6,66.23v6.84h-2.78V66.58c0-2.13-1-3.14-2.84-3.14-2,0-3.32,1.22-3.32,3.62v6h-2.78V61.17h2.67V62.7A5.18,5.18,0,0,1,172.66,61C175.5,61,177.6,62.65,177.6,66.23Z"/><path class="cls-1" d="M192.35,68H183a3.61,3.61,0,0,0,3.88,2.87,4.18,4.18,0,0,0,3.23-1.3l1.51,1.72a6.07,6.07,0,0,1-4.8,1.95c-4,0-6.6-2.57-6.6-6.12a5.92,5.92,0,0,1,6.16-6.1,5.81,5.81,0,0,1,6,6.15C192.38,67.41,192.38,67.74,192.35,68ZM183,66.14h6.78a3.43,3.43,0,0,0-6.78,0Z"/><path class="cls-1" d="M206.23,68h-9.35a3.59,3.59,0,0,0,3.87,2.87,4.16,4.16,0,0,0,3.23-1.3l1.51,1.72a6.06,6.06,0,0,1-4.8,1.95c-4,0-6.6-2.57-6.6-6.12a5.93,5.93,0,0,1,6.16-6.1,5.81,5.81,0,0,1,6,6.15A8.11,8.11,0,0,1,206.23,68Zm-9.38-1.86h6.77a3.24,3.24,0,0,0-3.37-2.9A3.29,3.29,0,0,0,196.85,66.14Z"/><path class="cls-1" d="M215.88,61v2.66a2.5,2.5,0,0,0-.65-.06c-2.13,0-3.46,1.25-3.46,3.7V73.1H209V61.17h2.67v1.74C212.42,61.64,213.87,61,215.88,61Z"/><path class="cls-1" d="M218,57.49a1.71,1.71,0,0,1,1.78-1.68,1.65,1.65,0,0,1,1.77,1.6,1.72,1.72,0,0,1-1.77,1.74A1.67,1.67,0,0,1,218,57.49Zm.39,3.65h2.78V73.07h-2.78Z"/><path class="cls-1" d="M236.54,66.23v6.84h-2.78V66.58c0-2.13-1-3.14-2.84-3.14-2,0-3.32,1.22-3.32,3.62v6h-2.78V61.17h2.66V62.7A5.22,5.22,0,0,1,231.6,61C234.44,61,236.54,62.65,236.54,66.23Z"/><path class="cls-1" d="M252.17,61.14V71.26c0,4.32-2.25,6.31-6.42,6.31a9.66,9.66,0,0,1-5.8-1.69l1.24-2.1a7.33,7.33,0,0,0,4.41,1.42c2.64,0,3.79-1.22,3.79-3.61V71a5.28,5.28,0,0,1-4,1.6,5.7,5.7,0,0,1-6-5.77c0-3.46,2.61-5.74,6-5.74a5.22,5.22,0,0,1,4.15,1.71V61.17h2.63Zm-2.75,5.62a3.63,3.63,0,1,0-3.61,3.4A3.34,3.34,0,0,0,249.42,66.76Z"/></svg>