<?xml version="1.0" encoding="UTF-8"?>
<svg id="Layer_2" data-name="Layer 2" xmlns="http://www.w3.org/2000/svg" viewBox="0 0 401 209.73">
  <defs>
    <style>
      .cls-1 {
        fill: #2a7de1;
        stroke: #2a7de1;
        stroke-miterlimit: 10;
      }
    </style>
  </defs>
  <g id="Capa_1" data-name="Capa 1">
    <g>
      <path class="cls-1" d="m12,5.36s-.04.09-.09.09H1.78s-.09-.04-.09-.09.04-.09.09-.09h10.13s.09.04.09.09Z"/>
      <path class="cls-1" d="m12,205.57s-.04.09-.09.09H1.78s-.09-.04-.09-.09.04-.09.09-.09h10.13s.09.04.09.09Z"/>
      <path class="cls-1" d="m399.31,205.57s-.04.09-.09.09h-10.13c-.05,0-.09-.04-.09-.09s.04-.09.09-.09h10.13s.09.04.09.09Z"/>
      <path class="cls-1" d="m399.31,5.36s-.04.09-.09.09h-10.13c-.05,0-.09-.04-.09-.09s.04-.09.09-.09h10.13s.09.04.09.09Z"/>
      <path class="cls-1" d="m.68,6.55v10.72c0,.05-.04.09-.09.09s-.09-.04-.09-.09V6.55c0-.05.04-.09.09-.09s.09.04.09.09Z"/>
      <path class="cls-1" d="m400.5,6.55v10.72c0,.05-.04.09-.09.09s-.09-.04-.09-.09V6.55c0-.05.04-.09.09-.09s.09.04.09.09Z"/>
      <path class="cls-1" d="m20.94,20.85c0,.05-.04.09-.09.09H4.17c-.05,0-.09-.04-.09-.09s.04-.09.09-.09h16.68c.05,0,.09.04.09.09Z"/>
      <path class="cls-1" d="m396.93,20.85c0,.05-.04.09-.09.09h-16.68c-.05,0-.09-.04-.09-.09s.04-.09.09-.09h16.68c.05,0,.09.04.09.09Z"/>
      <path class="cls-1" d="m20.94,51.24s-.04.09-.09.09H4.17c-.05,0-.09-.04-.09-.09s.04-.09.09-.09h16.68c.05,0,.09.04.09.09Z"/>
      <path class="cls-1" d="m396.93,51.24s-.04.09-.09.09h-16.68c-.05,0-.09-.04-.09-.09s.04-.09.09-.09h16.68c.05,0,.09.04.09.09Z"/>
      <path class="cls-1" d="m26.9,26.81v18.47c0,.05-.04.09-.09.09s-.09-.04-.09-.09v-18.47s.04-.09.09-.09.09.04.09.09Z"/>
      <path class="cls-1" d="m.68,54.81v149.56c0,.05-.04.09-.09.09s-.09-.04-.09-.09V54.81s.04-.09.09-.09.09.04.09.09Z"/>
      <path class="cls-1" d="m400.5,54.81v149.56c0,.05-.04.09-.09.09s-.09-.04-.09-.09V54.81s.04-.09.09-.09.09.04.09.09Z"/>
      <path class="cls-1" d="m4.26,20.85c0,.05-.04.09-.09.09-2.02,0-3.67-1.64-3.67-3.67,0-.05.04-.09.09-.09s.09.04.09.09c0,1.92,1.56,3.49,3.48,3.49.05,0,.09.04.09.09Z"/>
      <path class="cls-1" d="m4.26,51.24s-.04.09-.09.09c-1.92,0-3.48,1.56-3.48,3.48,0,.05-.04.09-.09.09s-.09-.04-.09-.09c0-2.02,1.64-3.67,3.67-3.67.05,0,.09.04.09.09Z"/>
      <path class="cls-1" d="m400.5,17.28c0,2.02-1.64,3.67-3.67,3.67-.05,0-.09-.04-.09-.09s.04-.09.09-.09c1.92,0,3.48-1.56,3.48-3.49,0-.05.04-.09.09-.09s.09.04.09.09Z"/>
      <path class="cls-1" d="m400.5,54.81c0,.05-.04.09-.09.09s-.09-.04-.09-.09c0-1.92-1.56-3.48-3.48-3.48-.05,0-.09-.04-.09-.09s.04-.09.09-.09c2.02,0,3.67,1.64,3.67,3.67Z"/>
      <path class="cls-1" d="m26.9,26.81c0,.05-.04.09-.09.09s-.09-.04-.09-.09c0-3.23-2.63-5.87-5.87-5.87-.05,0-.09-.04-.09-.09s.04-.09.09-.09c3.34,0,6.05,2.71,6.05,6.05Z"/>
      <path class="cls-1" d="m26.9,45.28c0,3.34-2.71,6.05-6.05,6.05-.05,0-.09-.04-.09-.09s.04-.09.09-.09c3.24,0,5.87-2.63,5.87-5.87,0-.05.04-.09.09-.09s.09.04.09.09Z"/>
      <path class="cls-1" d="m374.28,26.81v18.47c0,.05-.04.09-.09.09s-.09-.04-.09-.09v-18.47s.04-.09.09-.09.09.04.09.09Z"/>
      <path class="cls-1" d="m380.24,20.85c0,.05-.04.09-.09.09-3.24,0-5.87,2.63-5.87,5.87,0,.05-.04.09-.09.09s-.09-.04-.09-.09c0-3.33,2.71-6.05,6.05-6.05.05,0,.09.04.09.09Z"/>
      <path class="cls-1" d="m380.24,51.24s-.04.09-.09.09c-3.34,0-6.05-2.71-6.05-6.05,0-.05.04-.09.09-.09s.09.04.09.09c0,3.24,2.63,5.87,5.87,5.87.05,0,.09.04.09.09Z"/>
      <path class="cls-1" d="m12,1.78v3.58s-.04.09-.09.09-.09-.04-.09-.09V1.78c0-.05.04-.09.09-.09s.09.04.09.09Z"/>
      <path class="cls-1" d="m389.18,1.78v3.58s-.04.09-.09.09-.09-.04-.09-.09V1.78c0-.05.04-.09.09-.09s.09.04.09.09Z"/>
      <path class="cls-1" d="m389.18,205.57v2.38c0,.05-.04.09-.09.09s-.09-.04-.09-.09v-2.38c0-.05.04-.09.09-.09s.09.04.09.09Z"/>
      <path class="cls-1" d="m12,205.57v2.38c0,.05-.04.09-.09.09s-.09-.04-.09-.09v-2.38c0-.05.04-.09.09-.09s.09.04.09.09Z"/>
      <path class="cls-1" d="m387.99,209.14s-.04.09-.09.09H13.1c-.05,0-.09-.04-.09-.09s.04-.09.09-.09h374.79c.05,0,.09.04.09.09Z"/>
      <path class="cls-1" d="m387.99.59s-.04.09-.09.09H13.1c-.05,0-.09-.04-.09-.09s.04-.09.09-.09h374.79c.05,0,.09.04.09.09Z"/>
      <path class="cls-1" d="m1.87,5.36s-.04.09-.09.09c-.61,0-1.1.49-1.1,1.1,0,.05-.04.09-.09.09s-.09-.04-.09-.09c0-.71.57-1.28,1.28-1.28.05,0,.09.04.09.09Z"/>
      <path class="cls-1" d="m13.19.59s-.04.09-.09.09c-.61,0-1.1.49-1.1,1.1,0,.05-.04.09-.09.09s-.09-.04-.09-.09c0-.71.58-1.28,1.28-1.28.05,0,.09.04.09.09Z"/>
      <path class="cls-1" d="m389.18,1.78s-.04.09-.09.09-.09-.04-.09-.09c0-.61-.49-1.1-1.1-1.1-.05,0-.09-.04-.09-.09s.04-.09.09-.09c.71,0,1.28.58,1.28,1.28Z"/>
      <path class="cls-1" d="m400.5,6.55s-.04.09-.09.09-.09-.04-.09-.09c0-.61-.49-1.1-1.1-1.1-.05,0-.09-.04-.09-.09s.04-.09.09-.09c.71,0,1.28.58,1.28,1.28Z"/>
      <path class="cls-1" d="m400.5,204.37c0,.71-.57,1.28-1.28,1.28-.05,0-.09-.04-.09-.09s.04-.09.09-.09c.61,0,1.1-.49,1.1-1.1,0-.05.04-.09.09-.09s.09.04.09.09Z"/>
      <path class="cls-1" d="m389.18,207.95c0,.71-.58,1.28-1.28,1.28-.05,0-.09-.04-.09-.09s.04-.09.09-.09c.61,0,1.1-.49,1.1-1.1,0-.05.04-.09.09-.09s.09.04.09.09Z"/>
      <path class="cls-1" d="m13.19,209.14s-.04.09-.09.09c-.71,0-1.28-.58-1.28-1.28,0-.05.04-.09.09-.09s.09.04.09.09c0,.61.49,1.1,1.1,1.1.05,0,.09.04.09.09Z"/>
      <path class="cls-1" d="m374.1,26.81v18.47c0,3.34,2.71,6.05,6.05,6.05h16.68c1.92,0,3.48,1.56,3.48,3.48v149.56c0,.61-.49,1.1-1.1,1.1h-10.13c-.05,0-.09.04-.09.09v2.38c0,.61-.49,1.1-1.1,1.1H13.1c-.61,0-1.1-.49-1.1-1.1v-2.38c0-.05-.04-.09-.09-.09H1.78c-.61,0-1.1-.49-1.1-1.1V54.81c0-1.92,1.56-3.48,3.48-3.48h16.68c3.34,0,6.05-2.71,6.05-6.05v-18.47c0-3.33-2.71-6.05-6.05-6.05H4.17c-1.92,0-3.48-1.56-3.48-3.49V6.55c0-.61.49-1.1,1.1-1.1h10.13s.09-.04.09-.09V1.78c0-.61.49-1.1,1.1-1.1h374.79c.61,0,1.1.49,1.1,1.1v3.58s.04.09.09.09h10.13c.61,0,1.1.49,1.1,1.1v10.72c0,1.92-1.56,3.49-3.48,3.49h-16.68c-3.34,0-6.05,2.71-6.05,6.05Z"/>
      <path class="cls-1" d="m1.87,205.57s-.04.09-.09.09c-.71,0-1.28-.57-1.28-1.28,0-.05.04-.09.09-.09s.09.04.09.09c0,.61.49,1.1,1.1,1.1.05,0,.09.04.09.09Z"/>
    </g>
  </g>
</svg>