<?xml version="1.0" encoding="UTF-8"?>
<svg id="Layer_2" data-name="Layer 2" xmlns="http://www.w3.org/2000/svg" viewBox="0 0 500 671.88">
  <defs>
    <style>
      .cls-1 {
        fill-rule: evenodd;
      }

      .cls-1, .cls-2 {
        fill: #fff;
        stroke-width: 0px;
      }
    </style>
  </defs>
  <g id="Layer_1-2" data-name="Layer 1">
    <g>
      <path class="cls-2" d="m177.85,561.46c-27.08,0-49.03-21.95-49.03-49.05s21.95-49.03,49.03-49.03,49.03,21.95,49.03,49.03-21.93,49.05-49.03,49.05"/>
      <path class="cls-2" d="m321.61,561.46c-27.08,0-49.03-21.95-49.03-49.05s21.95-49.03,49.03-49.03,49.03,21.95,49.03,49.03-21.93,49.05-49.03,49.05"/>
      <path class="cls-2" d="m67.27,322.99c0-36.72,29.85-66.44,66.44-66.44h232.03c36.59,0,66.42,29.72,66.42,66.44v231.93c0,36.7-29.83,66.42-66.42,66.42h-232.03c-36.59,0-66.44-29.72-66.44-66.42v-231.93Zm298.48-116.98h-232.03c-64.53,0-116.98,52.47-116.98,116.98v231.93c0,64.51,52.45,116.96,116.98,116.96h232.03c64.4,0,116.98-52.45,116.98-116.96v-231.93c0-64.51-52.58-116.98-116.98-116.98"/>
    </g>
    <path class="cls-1" d="m71.18,122.95l178.82,81.28,178.82-81.28L250,41.67,71.18,122.95Zm-71.18,0c0-7.63,4.07-15.27,12.21-18.97L232.76,3.73c10.95-4.98,23.53-4.98,34.48,0l220.55,100.25c16.28,7.4,16.28,30.53,0,37.93l-71.12,32.33v88.79c0,7.82-2.2,15.49-6.36,22.12-32.34,51.61-86.7,77.38-160.31,77.38s-127.97-25.76-160.31-77.38c-4.15-6.63-6.36-14.29-6.36-22.12v-88.79l-41.67-18.94v61.4c0,11.51-9.33,20.83-20.83,20.83S0,228.2,0,216.7v-93.75Z"/>
  </g>
</svg>