<?xml version="1.0" encoding="UTF-8"?>
<svg id="Layer_2" data-name="Layer 2" xmlns="http://www.w3.org/2000/svg" viewBox="0 0 511.73 442.85">
  <defs>
    <style>
      .cls-1 {
        stroke-width: 0px;
      }
    </style>
  </defs>
  <g id="Layer_1-2" data-name="Layer 1">
    <path class="cls-1" d="m354.99,322.68c-16.74,16.5-35.85,22.4-57.81,21.84-25.91-.66-51.88.44-77.78-.43-11.14-.37-18.95,2.85-26.66,10.81-25.76,26.62-52.01,52.77-78.63,78.52-4.72,4.57-12.13,6.35-18.31,9.42-2.39-6.4-6.64-12.74-6.84-19.2-.79-25.81-.33-51.67-.33-79.36-8.4,0-15.66.25-22.89-.04C29.54,342.75.86,314.2.42,277.94c-.57-47.23-.56-94.47-.01-141.69.43-37.4,29.74-65.91,67.83-66.68,23.05-.47,46.11-.09,69.9-.09,1.29-19.74,7.18-36.32,20.75-49.55C172.53,6.62,189.02.24,207.81.2c78.26-.15,156.52-.41,234.77.08,40.2.25,68.75,29.64,68.99,69.86.26,43.99.14,87.98.04,131.97-.1,44.75-27.99,72.56-72.85,72.87-4.55.03-9.1,0-15.52,0,0,24.53,0,47.99,0,71.45,0,4.63.95,9.54-.28,13.82-1.38,4.82-3.74,10.95-7.54,12.96-2.86,1.51-9.78-1.4-12.99-4.38-13.56-12.6-26.38-25.99-39.52-39.05-2.27-2.25-4.76-4.28-7.91-7.09Zm46.01,13.73c0-25.53.18-46.34-.07-67.15-.14-11.64,4.83-17.18,16.73-16.58,7.85.39,15.74.15,23.61.05,29.02-.38,47.91-18.91,48.06-47.78.23-44.45.19-88.9.01-133.35-.12-29.83-18.73-49.02-48.34-49.13-77.32-.27-154.65-.28-231.97,0-29.19.11-47.74,18.9-47.89,47.9-.23,44.91-.24,89.82,0,134.73.16,29.15,18.68,47.4,48,47.59,30.56.2,61.13.62,91.67-.23,12.28-.34,20.77,3.67,29.07,12.35,22.26,23.28,45.35,45.76,71.13,71.59ZM138.82,91.86c-26.15,0-50.22-.9-74.19.26-23.09,1.12-41.48,19.66-41.83,42.43-.74,48.15-.73,96.33-.02,144.48.34,23.47,19.31,41.46,42.91,42.93,6.92.43,13.89.16,20.84.16,23.6.02,24.34.74,24.35,24.02,0,18.6,0,37.21,0,59.55,26.65-26.73,49.76-50.71,73.95-73.55,5.66-5.35,14.93-9.32,22.68-9.58,31.92-1.06,63.9-.46,95.85-.44,14.02,0,26-4.47,37.16-17.38-7.24-6.34-15.06-11.7-20.94-18.69-7.63-9.07-16.37-11.66-27.87-11.31-25.45.77-50.94.26-76.41.24-50.03-.05-76.42-26.26-76.48-76-.04-35.11,0-70.22,0-107.12Z"/>
  </g>
</svg>