<?xml version="1.0" encoding="UTF-8"?>
<svg id="Layer_2" data-name="Layer 2" xmlns="http://www.w3.org/2000/svg" viewBox="0 0 362.25 148.5">
  <defs>
    <style>
      .cls-1 {
        stroke-width: 0px;
      }
    </style>
  </defs>
  <g id="Layer_1-2" data-name="Layer 1">
    <path class="cls-1" d="m.75,48.51c1.36.08,2.73.24,4.09.24,23.45.01,46.9.04,70.34-.05,1.73,0,3.44-1.07,5.19-1.21,2.8-.22,5.64-.26,8.43-.05,2.15.17,4.26,1.25,6.4,1.25,35.8.08,71.59.06,107.39.06h3.92c0-7.64-.07-14.91.02-22.18.09-7.2,1.53-14.08,5.69-20.15,1.53-2.23,2.98-4.86,6.4-4.17,3.23.65,3.08,3.63,3.63,5.91,2.89,11.94,1.18,23.7-1.68,35.39-.32,1.33-.7,2.64-1.02,3.97-.06.23.02.49.06.99,20.87,0,41.77,0,62.66,0,.17-.17.42-.32.48-.52,2.2-7.4,4.04-8.17,9.48-2.7,3.03,3.05,6.12,3.8,9.96,3.49,3.61-.29,7.39.92,10.59-2.21,1.55-1.52,3.96-2.59,5.26.89.23.63,1.44,1.16,2.25,1.24,1.85.18,3.74.07,5.61.06,4.49,0,6.07-1.4,7.12-5.8.48-2,1.18-4.05,2.26-5.76.5-.79,2.22-1.2,3.31-1.07.53.06,1.25,1.79,1.2,2.73-.17,3.08-.65,6.14-1.1,9.91h23.22c-.01.41-.02.81-.03,1.22-6.63,0-13.27.18-19.88-.08-3.07-.12-4.42.75-4.95,3.82-.76,4.38-2.01,8.68-3.16,13.46h28.01c.03.32.06.65.08.97-1.11.09-2.22.25-3.33.25-7.36.02-14.72.08-22.08-.03-2.22-.03-3.33.53-3.84,2.88-1,4.58-2.39,9.07-3.78,14.21h32.63c.02.34.03.67.05,1.01-1.1.06-2.19.16-3.29.16-8.98.01-17.96.07-26.94-.04-2.08-.02-3.1.53-3.65,2.65-1.26,4.78-2.82,9.48-4.44,14.82h38.56c.02.3.03.61.05.91-1.12.07-2.25.21-3.37.21-10.85.02-21.7.08-32.55-.05-2.39-.03-3.62.61-4.18,3-1.08,4.53-2.4,8.99-3.83,14.22h43.7c0,.33,0,.67,0,1-1.33,0-2.65,0-3.98,0-11.72,0-23.45.07-35.17-.05-2.73-.03-4.3.29-4.68,3.57-.83,7.16-6.6,10.44-12.02,13.76-2.23,1.37-3.18-.74-3.14-2.22.09-3.8.63-7.59,1.1-11.37.13-1.05.64-2.05,1.11-3.5-1.68-.08-3-.19-4.31-.19-66.98,0-133.95.01-200.93-.07-2.91,0-4.69,1.16-6.78,2.98-7.57,6.6-15.36,12.96-23.21,19.23-1.48,1.18-3.56,1.84-5.47,2.2-3.72.69-6.55-1.76-6.76-5.56-.31-5.37,1.1-10.33,3.74-14.98.59-1.04,1.14-2.11,2.06-3.81h-4.5c-17.84,0-35.67,0-53.51,0-1.49,0-2.98-.14-4.47-.21,0-.25,0-.5,0-.75,17.59-.02,35.18-.33,52.76.07,6.99.16,12.55-.78,17.17-6.77,3.07-3.98,7.75-6.72,12.25-10.47H.75c0-.5,0-.99,0-1.49.49.07.98.2,1.47.2,26.93.02,53.85.04,80.78,0,1.19,0,2.51-.29,3.54-.86,6.2-3.43,12.37-6.93,18.48-10.52,2.6-1.53,5.03-3.34,7.54-5.03-.12-.3-.24-.6-.36-.9-6.18,0-12.42.58-18.51-.14-7.99-.95-13.3,1.26-15.65,9.33-.44,1.52-1.99,2.72-3.03,4.07-.33-.19-.66-.39-.99-.58.71-4.09,1.43-8.17,2.22-12.74H.75v-.75c14.31-.07,28.63-.17,42.94-.22,9.96-.03,19.93.06,29.89-.1,1.12-.02,3.02-1.08,3.2-1.94,1-4.83,1.58-9.74,2.38-15.16-1.77,0-3.09,0-4.42,0-9.96,0-19.94.28-29.89-.07-11.02-.39-19.41,4.35-26.43,12.22-3.46,3.88-7.04,3.88-10.24-.21-2.89-3.69-2.62-7.55-.14-11.68H.75v-1.49c3.57-.2,7.63.62,10.64-.78,14.88-6.92,30.65-9.32,46.76-10.5,7.04-.51,14.08-1.14,21.33-1.73-.12-1.6-.21-2.77-.32-4.16H.75v-1.49Zm311.99,56.69c-1.9,0-3.22,0-4.54,0-44.25.08-88.51.19-132.76.21-20.69.01-41.38-.15-62.08-.18-1.3,0-3.19-.04-3.82.73-4.18,5.15-8.09,10.52-12.5,16.36,1.98,0,3.31,0,4.64,0,66.57,0,133.15,0,199.72,0,.87,0,1.81.19,2.6-.06.83-.26,1.93-.77,2.23-1.46,2.19-4.97,4.2-10.02,6.5-15.6Zm7.35-18.56h-5.18c-31.55,0-63.1,0-94.65,0-10.35,0-20.7-.07-31.05.08-1.35.02-3.43.84-3.89,1.86-2.21,4.89-3.98,9.98-6.05,15.4h3.49c42.27,0,84.55,0,126.82,0,.75,0,1.56.16,2.23-.08.72-.26,1.64-.75,1.91-1.38,2.1-5.02,4.07-10.09,6.37-15.88Zm6.81-18.23c-2.2,0-3.66,0-5.12,0-18.44,0-36.89-.01-55.33,0-6.15,0-12.38-.76-18.11,2.61-.97.57-3.7.22-3.89-.31-1.02-2.84-3.19-2.29-5.22-2.3-4.11-.02-8.23.15-12.33-.06-2.58-.13-4.29.6-5.2,3.07-1.28,3.48-3.67,4.36-7.04,2.87-2.97-1.31-5.07-.4-7.03,2.2-2.01,2.65-4.5,4.95-6.89,7.29-1.55,1.53-3.01,1.91-5.09.19-2.48-2.05-5.18-1.36-8.24,1.63h5.19c34.89,0,69.78,0,104.67,0,6.73,0,13.46.06,20.19-.06,1.18-.02,3.07-.52,3.41-1.31,2.13-4.98,3.92-10.11,6.06-15.82Zm-235.95-13.78c.5.26.6.34.71.36,12.12,2.07,24.42,3.66,34.39,11.93.4.33,1.19.25,1.81.25,25.2.01,50.39.02,75.59-.03.83,0,2.21-.48,2.39-1.04,1.65-5.18,3-10.44,1.67-15.85h-116.56v4.38Zm52.27,30.64c5.54.89,9.59.5,12.82-4.37,2.93-4.42,7.31-3.53,9.64,1.28.9,1.85,2.06,2.49,3.78,1.28,2.13-1.49,4.4-2.9,6.17-4.76,2.96-3.1,5.57-6.53,8.54-10.07h-56.61c-.97,5.36-1.88,10.38-2.74,15.13,4.51-.61,9.25-1.36,14.01-1.84,2.36-.24,4.62.22,4.39,3.35Zm27.2,18.5c2.7-5.96,5.21-11.48,7.66-16.89-3.94-1.44-6.5,1.2-9.37,3.11-3.1,2.07-6.21,3.83-9.43-.06-1.4-1.69-2.81-.66-4.51.32-3.8,2.19-7.79,4.18-11.94,5.57-3.31,1.1-6.35-.14-8.19-3.48-1.78-3.25-4.62-3.78-8-3-7.78,1.8-10.65,8.57-15.42,14.44h59.2Zm-86.54-18.2c9.92,0,19.5.01,29.08-.03.68,0,1.49-.29,2.03-.71,2.31-1.85,4.2-8.34,2.88-11.06-1.61-3.32-4.5-5.27-8.31-5.34-5.86-.1-11.71-.1-17.57.04-.98.02-2.54.72-2.82,1.48-1.85,4.96-3.43,10.03-5.29,15.63Zm204.11-33.9c-3.88,3.56-6.86,6.79-10.35,9.34-2.71,1.98-5.93,3.49-9.15,4.49-2.53.79-4.62-.08-4.13-3.69.4-2.9-1.74-3.82-3.71-2.29-2.36,1.83-4.04,4.52-6.58,7.49h73c.73-3.33,1.43-6.54,2.13-9.75-.43-.2-.85-.39-1.28-.59-1.27,1.08-2.53,2.16-3.81,3.23-1.62,1.34-3.09,2.94-4.9,3.94-4.6,2.54-7,1.28-8.04-3.9-.73-3.64-2.37-4.3-5.49-2.06-2.02,1.45-3.8,3.24-5.87,4.6-5.21,3.42-9.17,1.58-10.19-4.49-.35-2.1-1.05-4.14-1.62-6.32Zm-24.23-1.71c-15.09,0-29.15-.02-43.21.06-.72,0-1.84.78-2.08,1.45-1.3,3.62-2.45,7.3-3.5,11-.19.68.06,1.89.55,2.25.53.39,2.02.4,2.34,0,1.57-1.97,3.43-3.97,4.15-6.28.88-2.82,1.89-3.65,4.33-1.93,6.34,4.45,12.16,3.88,17.95-1.22,1.68-1.48,4.22-1.98,7.14-3.27-.31,3.93-.53,6.68-.78,9.88,1.54-.22,2.86,0,3.35-.55,3.13-3.44,6.07-7.05,9.76-11.41Zm-159.44,55.58c-7.15-.73-7.25-.87-12.8,3.1-5.58,3.99-10.94,8.29-16.4,12.46.21.4.42.8.63,1.2,3.55,0,7.11.07,10.66-.04,1.04-.03,2.4-.26,3.06-.93,4.83-4.96,9.51-10.07,14.85-15.78Zm-16.84,18.53c-9.83-2.19-16.79-.78-20.25,8.13-.09.23-.32.42-.36.65-.18,1.28-.33,2.56-.49,3.84,1.41.02,3.21.61,4.15-.05,5.53-3.86,10.87-8.01,16.95-12.57Zm126.08-77c.53.1,1.06.2,1.58.31,1.36-8.89,2.81-17.77,4.01-26.68.3-2.22.19-4.75-3.18-6.13-4.03,10.81-2.65,21.7-2.41,32.5Zm-167.28,19.15c.02.22.04.44.06.66h32.99c-.71-3.52-3.5-2.96-5.34-2.85-9.25.55-18.47,1.43-27.71,2.19Zm178.38.65h18.48c-3.57-5.41-14.41-5.41-18.48,0Zm-36.45,1.68c3.14,3.87,3.1,3.8,6.72,1.76.79-.45,1.95-.25,2.94-.35-.07,1.16-.1,2.33-.24,3.49-.12.99-.36,1.97-.54,2.96,1.03-.02,2.56.39,3.02-.13,1.92-2.19,3.53-4.66,5.75-7.73h-17.65Zm93.78-18.36h-13.03c1.92,2.84,3.15,6.54,4.86,6.79,4.01.57,5.79-3.34,8.16-6.79Zm15.26-.08c0,1.34-.13,2.55.04,3.72.17,1.13.33,2.76,1.06,3.17.83.46,2.59.2,3.41-.43,2.33-1.8,4.39-3.95,7.08-6.46h-11.6Zm19.94.01c1.78,2.33,3.55,5.42,4.08,5.22,2.57-.96,4.82-2.81,7.18-4.34-.22-.29-.44-.59-.67-.88h-10.59Zm-209.63,16.85c-8.28-2.81-16.51-2.73-17.71,0h17.71Zm67.07,18.16c5.62.69,8.97-1.97,9.07-7.02-3.06,2.37-5.7,4.41-9.07,7.02Zm-23.71,2.83c-.17-.45-.35-.9-.52-1.34-1.85,0-3.73-.16-5.55.07-.83.11-1.56,1-2.33,1.53.77.67,1.69,2.03,2.29,1.9,2.1-.44,4.08-1.4,6.11-2.16Zm-51.63,15.57c5.98.77,7.11-.03,8.9-5.73-2.86,1.84-5.51,3.55-8.9,5.73Z"/>
  </g>
</svg>