<?xml version="1.0" encoding="UTF-8"?>
<svg id="Layer_2" data-name="Layer 2" xmlns="http://www.w3.org/2000/svg" viewBox="0 0 466 465.87">
  <defs>
    <style>
      .cls-1 {
        fill: #fff;
        stroke-width: 0px;
      }
    </style>
  </defs>
  <g id="Layer_1-2" data-name="Layer 1">
    <g>
      <path class="cls-1" d="m161.11,355.46c-27.08,0-49.03-21.95-49.03-49.05s21.95-49.03,49.03-49.03,49.03,21.95,49.03,49.03-21.93,49.05-49.03,49.05"/>
      <path class="cls-1" d="m304.88,355.46c-27.08,0-49.03-21.95-49.03-49.05s21.95-49.03,49.03-49.03,49.03,21.95,49.03,49.03-21.93,49.05-49.03,49.05"/>
      <path class="cls-1" d="m50.54,116.98c0-36.72,29.85-66.44,66.44-66.44h232.03c36.59,0,66.42,29.72,66.42,66.44v231.93c0,36.7-29.83,66.42-66.42,66.42H116.98c-36.59,0-66.44-29.72-66.44-66.42V116.98ZM349.02,0H116.98C52.45,0,0,52.47,0,116.98v231.93c0,64.51,52.45,116.96,116.98,116.96h232.03c64.4,0,116.98-52.45,116.98-116.96V116.98C466,52.47,413.42,0,349.02,0"/>
    </g>
    <path class="cls-1" d="m396.37,297.29h-3.49c-4.32-36.14-35.04-64.16-72.34-64.16-34.66,0-63.61,24.2-71.02,56.61l-16.7-8.72c-1.69-.88-3.71-.88-5.39,0l-16.7,8.72c-7.41-32.41-36.36-56.61-71.02-56.61-37.31,0-68.02,28.03-72.35,64.16h-3.49c-4.84,0-8.75,3.92-8.75,8.75s3.92,8.74,8.75,8.74h3.49c4.33,36.14,35.04,64.16,72.35,64.16,40.27,0,72.92-32.64,72.92-72.92,0-1.36-.13-2.68-.21-4.03l17.7-9.25,17.7,9.25c-.08,1.33-.21,2.67-.21,4.03,0,40.27,32.65,72.92,72.92,72.92,37.3,0,68-28.02,72.34-64.16h3.49c4.84,0,8.75-3.92,8.75-8.75s-3.92-8.75-8.75-8.75h.01Zm-256.67,70c-33.78,0-61.25-27.48-61.25-61.25s27.48-61.25,61.25-61.25,61.25,27.48,61.25,61.25-27.48,61.25-61.25,61.25Zm180.83,0c-33.78,0-61.25-27.48-61.25-61.25s27.48-61.24,61.25-61.24,61.25,27.48,61.25,61.24-27.48,61.25-61.25,61.25Z"/>
  </g>
</svg>