<?xml version="1.0" encoding="UTF-8"?>
<svg id="Layer_2" data-name="Layer 2" xmlns="http://www.w3.org/2000/svg" viewBox="0 0 2074.67 1419.13">
  <defs>
    <style>
      .cls-1 {
        fill: none;
      }

      .cls-2 {
        fill: #f9b099;
      }

      .cls-3 {
        fill: #003e67;
      }

      .cls-4 {
        fill: #002a4e;
      }

      .cls-5 {
        fill: #001f5c;
      }

      .cls-6 {
        fill: #f6917a;
      }

      .cls-7 {
        fill: #fbd385;
      }

      .cls-8 {
        fill: #fff;
      }

      .cls-9 {
        fill: #b56a5a;
      }

      .cls-10 {
        fill: #432316;
      }

      .cls-11 {
        fill: #072552;
      }

      .cls-12 {
        fill: #182040;
      }

      .cls-13 {
        fill: #1c3e75;
      }

      .cls-14 {
        fill: #a45746;
      }

      .cls-15 {
        fill: #974841;
      }

      .cls-16 {
        fill: #892e59;
      }

      .cls-17 {
        fill: #3e0800;
      }
    </style>
  </defs>
  <g id="Capa_1" data-name="Capa 1">
    <g>
      <g>
        <path class="cls-2" d="m971.27,809.13s-51.2-2.05-38.38-86.43c184.88-39.72,300.64-87.41,300.64-87.41l17.88,20.07s-147.98,113.64-280.14,153.77Z"/>
        <g>
          <path class="cls-2" d="m1317.42,550.79c14.38,10.29-28.49,36.7-33.54,44.68,9.36-6.71,42.94-34.83,52.2-27.65,5.05,4.76-28.29,25.61-33.71,30.76,6.32-2.88,29.3-18.25,34.47-11.83,2.54,5.37-20.75,18.95-27.12,24.25,2.1-.31,23.71-12.99,24.41-7.73,1.05,5.07-12.57,16.12-19.74,21.11-32.39,22.47-67.56,48.29-76.54,22.77-6.73-19.06-9.93-29.75,15.98-81.92,4.47-8.99,14.02,6.63,8.89,26.42,5.06.47,52.98-42.1,54.69-40.87Z"/>
          <path class="cls-12" d="m1262.09,603.86c.14-.47.27-.94.41-1.43.41-1.42-3.29-1.59-3.61-.47-.16.56-.28,1.12-.37,1.71-.1.68,1.15.94,1.57,1.02-.78-.12-.69,3.47-.58,3.85.99,3.38,1.66,5.13.02,8.71-2.21,4.82-6.93,7.64-10.87,10.81-2.06,1.67,3.42,2.31,4.53,1.71,5.2-2.76,11.82-8.58,12.95-14.66.7-3.79-1.32-6.27-1.55-9.91-.15-2.34-1.93-2.52-3.93-2.58.71.35,1.42.71,2.13,1.05-.06-.49-.11-.97-.23-1.47-.3-1.34-3.98-1.11-3.74,0,.11.5.22.99.34,1.47.2.9,2.67,1.11,2.93.19h0Z"/>
        </g>
        <path class="cls-2" d="m807.6,598.98c-42.18-80.99-.62-99.58-.62-99.58,44.32-28.29,91.04,37.94,91.04,37.94,0,0,80.88,127.84,124.98,219.38,0,0-36.99,79.92-76.17,42.39l-139.24-200.13Z"/>
        <path class="cls-7" d="m777.77,453.45s40.82-.56,79.92,34.03l136.42,146.61s8.58,75.05-86.62,140.34l-178.98-203s-23.53-90.52,49.25-117.97Z"/>
      </g>
      <g>
        <g>
          <path class="cls-9" d="m1238.9,379.62c21.95-26.17,44.85-19.18,65.72-19.06,126.63.74,247.38,55.32,277.93,83.06,8.05,3.13,42.58,64.64-31.46,75.4-37.49,3.88-270.13-74.43-298-76.1,0,0-36.98-17.74-14.19-63.3Z"/>
          <path class="cls-9" d="m1303.47,461.9c-137.3-29.7-164.69-57.34-293.4,41.49l-23.99-22.56c40.28-54.84,101.99-132.97,282.04-121.2,0,0,63.98,54.57,35.34,102.27Z"/>
          <path class="cls-16" d="m1249.78,468.15l230.48,74.76c118.89,26.94,149.2-54.64,149.2-54.64,15.42-71.13-36.71-113.28-36.71-113.28,0,0-83.79-26.02-253.4-50.79,0,0-71.48,92.33-89.57,143.97Z"/>
        </g>
        <g>
          <path class="cls-10" d="m1286.87,39.3c-24.1-13.76-61.75-7.73-82.78,7.46-44.7,32.26-7.18,69.02,32.93,78.12,19.04,4.31,40.78,4.26,55.76-10.17,21.95-21.14,21.55-59.73-5.92-75.4Z"/>
          <path class="cls-2" d="m920.77,819.38s50.55-8.38,27.4-90.52c-188.37-16.57-309.14-49.57-309.14-49.57l-15.27,22.12s160.89,94.47,297.01,117.97Z"/>
          <g>
            <path class="cls-2" d="m545.32,605.8c-12.98,11.99,32.81,32.9,38.82,40.21-10.12-5.51-46.94-29.27-55.22-21-4.43,5.35,31.24,21.91,37.25,26.35-6.61-2.06-31.33-14.48-35.66-7.46-1.86,5.62,22.94,16.22,29.9,20.7-2.13-.03-25.13-9.95-25.16-4.65-.42,5.16,14.45,14.44,22.19,18.52,34.92,18.28,72.99,39.56,78.77,13.12,4.33-19.74,6.16-30.76-25.98-79.33-5.55-8.36-13.08,8.32-5.55,27.32-4.98,1.11-57.79-35.22-59.35-33.8Z"/>
            <path class="cls-12" d="m609.69,651.28c.05-.5.11-.97.16-1.47.13-1.21-3.59-1.33-3.74,0-.06.5-.06.97-.05,1.47.52-.34,1.05-.68,1.57-1.02-1.92.24-3.15.61-3.15,2.7,0,1.93.49,3.1-.67,4.85-.62.93-.27,2.99,0,3.97,1.82,6.53,8.76,11.88,14.91,14.21,1.38.53,7.04-.16,4.07-1.99-4.56-2.83-9.02-5.07-12.11-9.67-1.41-2.11-2.13-4.88-.82-7.17.42-.71-.57-4.98-.57-4.98.59-.15,1.16-.52.97-1.18-.13-.49-.27-.97-.46-1.43-.46-1.12-4.15-.84-3.61.49.19.47.39.94.58,1.42.33.81,2.82.78,2.93-.19h0Z"/>
          </g>
          <path class="cls-10" d="m1117.64,336.45c44.67,32.44,91.22,52.83,130.98,24.76,64.61-45.59,104.96-148.02,74.04-216.04-17.32-38.07-46.54-51.34-86.43-63.9-30.24-9.52-84.76-5.94-113.27,10.81-68.56,40.25-73.86,148.18-36.07,210.3,8.01,13.15,18.24,24.99,30.74,34.08Z"/>
          <path class="cls-2" d="m1395.46,1419.13c-1.32-130.22,1.59-193.8-1.7-248.67l-204.84.52s16.29,91.1,47.95,248.15h158.59Z"/>
          <path class="cls-2" d="m940.22,804.47c-34.98,41.48-78.63-37.66-78.63-37.66,38.42-94.09,131.54-253.72,131.54-253.72,0,0,12.31-42.89,89.2-68.25,0,0,21.76,67.93-15.39,151.34,0,0-17.58,78.82-126.72,208.3Z"/>
          <path class="cls-2" d="m1224.33,1419.13c26.16-89.02,51.86-178.84,65.32-244.55h-225.79c-3.15,32.51-5.75,117.57-11.61,244.55h172.09Z"/>
          <polygon class="cls-2" points="1262.01 413.68 1414.63 471.26 1320.73 891.76 1095.95 891.76 1058.72 457.89 1154.47 413.49 1262.01 413.68"/>
          <path class="cls-5" d="m1058.72,502.37c-9.26,24.03-32.97,80.93-28.35,105.1,5.36,27.99,17.14,44.35,28.35,70.67l27.2,192.48h258.55l35.2-150.25c10.83-25.08,11.25-59.02,17.08-85.34,3.38-15.32,6.19-26.54,8.09-38.14,5.05-20.17,10.4-41.26,9.99-59.77,3.88-8.33,8.23-16.6,10.18-24.3,4.13-16.4,1.82-36.14-14.36-43.54-14.38-6.58-28.54-11.62-43.41-17.12-24.23-8.95-70.82-26.1-95.03-35.02-86.59,74.52-135.51,4.28-135.51,4.28l-54.36,23.43-23.61,57.53Z"/>
          <path class="cls-2" d="m1602.05,620.18c7.45-23.9-9.28-41.43-38.58-59.07-49.15-29.56-82.62-66.35-183.51-103.73-8.22-1.55-84.25,70.98-28.88,117.6,28.83,22.32,134.11,64.08,179.67,72.51,0,0,59.29,20.55,71.3-27.32Z"/>
          <g>
            <path class="cls-2" d="m1291.38,235.57c1.3,17.87-7.48,38.69-23.13,47.04-21.23,11.31-30.78-8.21-31.91-27.78-.91-15.79,4.46-43.38,22.01-50,16.57-6.27,31.98,16.09,33.03,30.74Z"/>
            <polygon class="cls-2" points="1155.25 415.61 1262.45 415.6 1262.45 282.29 1155.25 282.29 1155.25 415.61"/>
            <path class="cls-6" d="m1229.72,356.1c10.77-22.57,17.19-45.4,15.4-73.81h-89.87v115.88c28.22-4.32,63-18.03,74.47-42.07Z"/>
            <path class="cls-2" d="m1249.42,286.72c-8.75,26.35-21.52,48.3-44.92,64.6-22.88,15.95-46.96,24.82-70.97,7.22-19.09-13.98-32.16-35.25-40.08-56.99-18.2-50.01-10.63-121.16,19.37-164.05,32.93-47.09,102.17-41.03,131.61,7.68,23.98,39.69,19.13,99.01,4.99,141.53Z"/>
            <g>
              <path class="cls-6" d="m1266.67,266.85c-1.28,0-2.48-.8-2.92-2.08-6.62-19.29-3.48-38.07,7.48-44.69,1.45-.88,3.35-.41,4.24,1.05.88,1.46.41,3.36-1.05,4.25-8.2,4.95-10.33,21.38-4.83,37.39.55,1.61-.31,3.36-1.92,3.92-.33.12-.67.16-1,.16Z"/>
              <path class="cls-6" d="m1264.62,241.02c-.97,0-1.92-.46-2.51-1.31-.99-1.39-.66-3.32.73-4.3,6.55-4.66,16.77-1.5,19.75-.43,1.6.58,2.43,2.34,1.85,3.95-.58,1.61-2.35,2.43-3.95,1.86-4.79-1.74-11.01-2.51-14.08-.34-.54.38-1.17.58-1.78.58Z"/>
            </g>
            <g>
              <path class="cls-12" d="m1123.39,233.77c0,5.69-2.76,10.29-6.17,10.29s-6.17-4.6-6.17-10.29,2.75-10.28,6.17-10.28,6.17,4.6,6.17,10.28Z"/>
              <path class="cls-12" d="m1197.26,233.77c0,5.69-2.76,10.29-6.17,10.29s-6.17-4.6-6.17-10.29,2.75-10.28,6.17-10.28,6.17,4.6,6.17,10.28Z"/>
              <path class="cls-6" d="m1148.16,281.22h-.24c-8.67-.68-15.71-3.91-19.3-8.88-1.93-2.67-2.63-5.6-1.98-8.29.72-2.83,4.29-4.69,10.54-7.74,1.81-.87,4.55-2.2,5.13-2.73,2.68-3.11,3.86-7.14,5.85-26.05.18-1.7,1.68-2.92,3.39-2.74,1.7.18,2.93,1.7,2.74,3.39-2.06,19.61-3.38,24.86-7.39,29.52-1.07,1.24-3.14,2.29-7.03,4.17-2.34,1.13-6.7,3.26-7.49,4.23.03.29.39,1.46,1.22,2.62.94,1.28,4.75,5.56,14.78,6.33,1.7.13,2.97,1.62,2.84,3.32-.13,1.62-1.48,2.85-3.07,2.85Z"/>
              <path class="cls-6" d="m1209.2,257.99c.01,4.04-7.4,7.31-16.54,7.31s-16.54-3.27-16.54-7.31,7.42-7.31,16.54-7.31c9.14.01,16.54,3.27,16.54,7.31Z"/>
              <path class="cls-6" d="m1127.64,257.99c0,4.04-7.39,7.31-16.53,7.31s-16.54-3.27-16.55-7.31c0-4.04,7.42-7.31,16.55-7.31s16.54,3.27,16.53,7.31Z"/>
              <path class="cls-10" d="m1205.95,219.69c-1.36,0-2.71-.59-3.61-1.74-3.8-4.76-16.65-6.1-23.14-1.02-2.01,1.56-4.9,1.22-6.48-.78-1.57-2.01-1.23-4.91.78-6.49,10.17-7.99,28.71-6.68,36.06,2.54,1.59,1.99,1.26,4.9-.73,6.49-.85.68-1.87,1-2.88,1Z"/>
              <path class="cls-10" d="m1131.3,219.69c-1.35,0-2.7-.59-3.61-1.74-3.8-4.76-16.64-6.1-23.13-1.02-2.01,1.56-4.91,1.22-6.49-.78-1.57-2.01-1.22-4.91.78-6.49,10.17-7.99,28.71-6.68,36.06,2.54,1.59,1.99,1.26,4.9-.73,6.49-.85.68-1.87,1-2.88,1Z"/>
            </g>
            <path class="cls-10" d="m1230.75,209.91c14.68,6.44,21.28,16.13,23.72,17.4.72.38,0,0,0,0,.39-9.2,6.03-17.41,16.84-18.46,7.75-.75,15.89,10.57,18.58,18.27.02-8.27-.87-20.1-1.28-28.9-.41-8.33-1.42-17.27-2.96-25.76-3.58-19.77-5.82-30.61-16.44-48.73-11.42-19.51-28.31-34.15-51.29-38.48-27.73-5.23-72.69-8.15-94.9,10-11.4,9.32,28.21-5.59,32.22,31.79,0,0,0,54.97,75.5,82.88Z"/>
          </g>
          <path class="cls-12" d="m1203.27,894.53c-40.1,0-87.01-1.55-118.07-23.16-1.4-.97-1.74-2.89-.77-4.28.97-1.4,2.89-1.75,4.29-.78,32.11,22.35,83.4,22.19,124.62,22.04h9.05c45.31-.01,73.63-7.77,116.08-20.41,1.64-.47,3.35.46,3.83,2.08.49,1.62-.44,3.33-2.07,3.82-42.98,12.8-71.67,20.64-117.84,20.64l-9.03.02c-3.3.01-6.67.03-10.09.03Z"/>
          <path class="cls-8" d="m1131.05,294.59l44.63-9.23s0,26.16-20,30.77c0,0-18.47,6.16-24.62-21.54Z"/>
          <path class="cls-5" d="m1480.29,1419.13l-55.2-256.62c1.71-162.57-21.9-219.72-21.9-219.72l-47.43-112.94c-232.35,50.28-278.55-10.76-278.55-10.76l-21.55,138.5-106.09,461.55h530.72Z"/>
          <path class="cls-2" d="m1526.26,629.45c-21.88-64.42,43.13-74.21,43.13-74.21,181-20.04,260.47-96.84,288.27-107.8l14.88,24.42c-80.82,90.37-196.6,170.82-309.74,176.57,0,0-29.22,1.53-36.54-18.98Z"/>
          <g>
            <path class="cls-2" d="m1947.39,381.4c12.19,12.8-34.86,30.68-41.34,37.58,10.46-4.82,48.73-26.14,56.47-17.37,4.08,5.65-32.59,19.86-38.87,23.89,6.73-1.62,32.2-12.41,36.06-5.15,1.5,5.75-23.94,14.71-31.18,18.74,2.12.09,25.71-8.32,25.42-3.01.08,5.18-15.36,13.48-23.36,17.03-36.02,16-75.4,34.77-79.44,8.01-3.05-19.98-4.15-31.1,31.07-77.45,6.08-8.01,12.52,9.13,3.78,27.62,4.88,1.42,59.94-31.42,61.39-29.89Z"/>
            <path class="cls-12" d="m1883.14,422.9c.23-.47.45-.94.68-1.4.6-1.25-3.07-1.61-3.61-.49-.22.46-.41.93-.57,1.42-.24.68.43,1,.98,1.18-.26-.09-1.03,4.47-1.03,4.69,0,.81.69,1.39.69,2.32,0,1.78-.86,3.41-1.75,4.88-2.85,4.67-8.37,6.63-12.93,9.07-2.86,1.53,2.18,2.62,3.49,2.23,6.26-1.9,13.23-6.49,16.01-12.55,1.47-3.18-.46-5.63.07-8.68.48-2.74-.34-3.41-2.92-3.86.52.34,1.05.68,1.57,1.02.04-.49.07-.97.05-1.46-.06-1.31-3.8-1.25-3.74,0,.02.49.04.97.07,1.46.04,1,2.56.96,2.93.19h0Z"/>
          </g>
          <path class="cls-10" d="m1145.67,161.21c-11.94,10.91-21.31,15.16-36.17,21.37-5.66,2.36-10.83,4.42-15.19,8.86-3.7,3.79-7.32,12.31-10.64,20.63-4.85,12.15-6.47-31.01-6.48-37.55-.03-26.97,15.49-54.48,34.59-71.95,7.29-6.66,19.48-10.5,29.29-10.59,6-.06,17.65-.55,22.28,4.04,4.71,4.67,1.77,12.27,1.2,18.5-1.5,16.43-6.17,35.11-18.87,46.7Z"/>
        </g>
        <g>
          <g>
            <polygon class="cls-4" points="1674.32 1419.13 1674.44 1416.14 1749.24 1136.4 1496.04 1136.4 1504.98 1419.13 1674.32 1419.13"/>
            <path class="cls-4" d="m1884.87,941.2h-370.89l-18.3,183.79,5.24,100.19,371.02-1.5c9.75-30.3,7.17-151.01,5.34-160.16l7.59-122.32Z"/>
            <path class="cls-4" d="m1677.45,1419.13h190.64l10.49-262.91c-24.62-166.2-236.88-89.04-236.88-89.04l1.11,76.38,34.65,275.58Z"/>
            <path class="cls-3" d="m1615.52,1127.33c11.27,5.63,19.42,9.72,24.72,17.88,5.81,8.99,4.64,21.08,3.5,32.78-.71,7.36-1.45,14.97-.45,21.82,8.24,56.56,15.26,113.19,22.69,173.15,1.89,15.26,3.8,30.66,5.75,46.17h6.2c-1.97-15.76-3.92-31.42-5.84-46.92-7.43-60-14.46-116.64-22.71-173.28-.89-6.13-.22-13.03.49-20.33,1.23-12.75,2.51-25.94-4.46-36.73-6.21-9.58-15.44-14.2-27.13-20.04-11.3-5.66-25.37-12.69-41.57-26.86-1.28-1.12-3.22-1-4.34.28-1.12,1.28-.99,3.23.29,4.35,16.79,14.7,31.25,21.93,42.86,27.73Z"/>
            <path class="cls-3" d="m1626.15,1018.58c-22.23,0-51.09-.85-99.94-3.73-1.7-.1-2.99-1.56-2.89-3.26.1-1.7,1.53-3.01,3.25-2.89,81.76,4.81,107.33,3.97,139.69,2.89,9.1-.3,18.78-.62,30.39-.84,6.14-.12,14.2.02,23.85.15,34.95.5,93.47,1.34,156.3-8.32,1.68-.25,3.25.88,3.51,2.56.26,1.68-.89,3.26-2.57,3.51-63.35,9.75-122.19,8.89-157.33,8.39-9.58-.13-17.56-.26-23.64-.13-11.59.22-21.23.53-30.31.84-13.16.43-25.21.83-40.31.83Z"/>
            <path class="cls-3" d="m1854.85,1227.86c-65.69,0-123.45-43.36-141.54-106.97-.47-1.64.48-3.35,2.12-3.8,1.63-.49,3.34.47,3.8,2.11,17.79,62.55,75.53,104.73,140.58,102.42,1.76.13,3.12,1.28,3.18,2.98.06,1.7-1.27,3.13-2.97,3.19-1.73.06-3.45.09-5.16.09Z"/>
          </g>
          <path class="cls-17" d="m1760.44,257.8c1.93-3.94,3.59-7.34,4.94-9.88,22.46-42.69,49.12-149.89-6.89-171.1-67.15-25.43-69.62,75.46-74.78,103.27-5.98,32.14-10.45,66.85,2.86,97.82,5.02,11.68,17.97,29.64,32.78,29.11,16.39-.59,31.86-30.57,41.09-49.22Z"/>
          <path class="cls-17" d="m1609.1,98.75c-30.76,11.1-27.53,40.22-33.76,67.97-2.56,11.4-7.53,22.25-10.63,33.26-5.67-12.49-6.6-26.55-8.35-39.99-3.62-27.81-6.12-52.18,4.14-79.06,6.52-17.1,60.76-35.48,78.78-38.38,25.67-4.17,15.77,17.04,6.34,42.63l-36.52,13.57Z"/>
          <path class="cls-9" d="m1772.63,200.15c.12,17.9-9.98,38.13-26.13,45.43-21.93,9.92-30.19-10.19-30.06-29.78.11-15.81,7.25-42.98,25.21-48.48,16.93-5.16,30.88,18.14,30.98,32.84Z"/>
          <polygon class="cls-9" points="1736.99 241.67 1629.78 240.92 1628.87 374.24 1736.07 374.98 1736.99 241.67"/>
          <path class="cls-15" d="m1703.75,315.25c10.93-22.5,17.49-45.28,15.91-73.71l-89.88-.62-.79,115.88c28.25-4.13,63.12-17.6,74.76-41.55Z"/>
          <path class="cls-9" d="m1727.44,248.47c-10.44,25.73-24.6,46.8-49,61.54-23.88,14.45-48.49,21.75-71.3,2.64-18.15-15.2-29.81-37.27-36.29-59.48-14.94-51.09-2.79-121.58,29.93-162.44,35.92-44.87,104.62-34.35,130.85,16.18,21.36,41.15,12.68,100.04-4.19,141.56Z"/>
          <g>
            <path class="cls-15" d="m1746.13,229.77c-1.36,0-2.6-.9-2.98-2.27-5.34-19.67-.99-38.23,10.36-44.13,1.52-.78,3.37-.19,4.16,1.33.78,1.5.2,3.38-1.32,4.16-8.5,4.42-11.69,20.69-7.25,37.02.45,1.64-.52,3.33-2.17,3.77-.27.09-.54.12-.81.12Z"/>
            <path class="cls-15" d="m1762.65,204.9c-.41,0-.83-.09-1.23-.26-4.68-2.03-10.84-3.21-14.04-1.24-1.46.89-3.36.43-4.25-1.02-.89-1.45-.44-3.35,1.01-4.25,6.84-4.2,16.84-.41,19.74.84,1.56.69,2.28,2.51,1.6,4.07-.51,1.16-1.64,1.86-2.83,1.86Z"/>
          </g>
          <g>
            <path class="cls-12" d="m1605.11,187.47c-.37,5.68-3.42,10.1-6.82,9.86-3.41-.22-5.86-4.98-5.5-10.65.37-5.68,3.41-10.09,6.83-9.88,3.41.24,5.86,5,5.49,10.66Z"/>
            <path class="cls-12" d="m1678.82,192.26c-.37,5.68-3.42,10.08-6.83,9.86-3.41-.22-5.86-4.98-5.49-10.66.36-5.68,3.41-10.1,6.82-9.86,3.41.22,5.86,5,5.5,10.66Z"/>
            <path class="cls-14" d="m1689.2,212.55c-.26,4.04-7.86,6.83-16.98,6.22-9.12-.59-16.3-4.33-16.03-8.37.26-4.01,7.86-6.8,16.99-6.21,9.11.59,16.29,4.33,16.03,8.36Z"/>
            <path class="cls-14" d="m1607.77,211.92c-.26,4.03-7.86,6.83-16.98,6.24-9.12-.59-16.3-4.35-16.04-8.36.27-4.04,7.87-6.83,16.99-6.24,9.12.59,16.29,4.33,16.03,8.36Z"/>
            <path class="cls-15" d="m1628.13,228c-5.71,0-11.84-1.4-15.14-5.31-1.48-1.76-3.57-5.54-.9-11.31,3.99-8.6,6.99-14.64,9.24-19.18,5.18-10.42,6.12-12.31,6.17-19.43.01-1.7,1.39-3.05,3.09-3.05h.02c1.7,0,3.07,1.4,3.06,3.1-.06,8.55-1.49,11.43-6.81,22.13-2.24,4.51-5.21,10.5-9.17,19.04-1.41,3.04-.37,4.28.02,4.73,2.45,2.9,10.74,4.01,17.06,2.32,1.64-.46,3.34.52,3.79,2.17.45,1.64-.52,3.33-2.17,3.79-2.31.62-5.23,1.02-8.26,1.02Z"/>
            <path class="cls-17" d="m1620.58,165.29c-1.08,0-2.17-.44-2.96-1.31-6.74-7.39-23.21-3.3-27.69-.53-1.88,1.15-4.35.58-5.51-1.31-1.16-1.89-.57-4.35,1.3-5.51,6.57-4.04,27.45-9.41,37.81,1.98,1.49,1.64,1.37,4.16-.26,5.65-.77.69-1.73,1.05-2.69,1.05Z"/>
            <path class="cls-17" d="m1689.1,170.09c-.99,0-1.98-.37-2.75-1.11-6.43-6.09-19.56-8.57-27.51-2.79-1.78,1.3-4.28.91-5.59-.87-1.31-1.78-.91-4.29.88-5.6,11.53-8.4,28.81-5,37.72,3.45,1.6,1.52,1.67,4.05.15,5.66-.79.83-1.84,1.25-2.9,1.25Z"/>
          </g>
          <polygon class="cls-9" points="1582.83 391.34 1631.02 355.37 1738.17 355.37 1796.03 391.34 1582.83 391.34"/>
          <path class="cls-16" d="m1486.73,752.51c-1.24,66.19-2.48,132.41-3.71,198.61-.72,39-2.17,78.06-2.19,117.07,0,49.36,30.94,48.2,72.99,37.8,9.75-2.42,19.28-5.75,29.06-7.98,37.31-8.55,52.37-9.11,86.89,1.02,33.74,9.92,79.62,2.12,113.89,7.7,36.4,5.91,97.66,7.55,120.04-21.54,30.78-40.02,23.78-37.67,17.22-69.92-3.09-15.2-3.3-31.63-4.91-47.05-4.73-45.46-.91-10.06-5.65-55.53-6.27-60.13-4-129.65-19.61-188.2l23.45-246.23c8.21-49.25-34.97-65.23-34.97-65.23l-139.32-58.43c-60.65,45.69-108.99-.63-108.99-.63l-77.33,31.45s-36.94,20.01-44.63,83.1l-22.23,284"/>
          <path class="cls-17" d="m1769.4,186.64c-1.81-6.71-.03-16.37-.28-23.31-.61-17.74-2.03-35.49-4.62-53.05-2.68-18.3-6.55-36.74-10.06-54.79-1.29-6.58-2.78-12.37-8.73-16.56-6.67-4.69-16.76.18-21.9-5.65-1.82-2.06-.29-8.04-2.47-11.03-3.11-4.29-6.32-4.48-11.07-5.19-7.64-1.14-12.81,2.52-20.23,4.98-9.76-7.12-2.48-19.91-19.78-16.29-9.14,1.92-18.35,13.39-25.91,8.26-8.67-5.88-5.79-16.66-21.28-13.42-11.29,2.37-16.3,11.77-22.52,19.71-10.92-9.08-18.24-15.9-29.58-1.18-6.29,8.14-6.83,19.52-10.52,26.41-5.36,10.03-11,16.34-3.3,27.99,5.72,8.66,13.54,9.07,21.64,12.55-13.61,37.86,99.9,40.92,119.92,30.95,21.6-10.78,2.76,31.3,6.35,36.45,12.12,20.76,15.63,35.64,16.03,59.27,7.31.06,8.93,3.16,12.36-4.78,2.57-5.97,5.71-29.83,10.77-34.3,12.13-10.69,23.05,5.04,25.19,12.98Z"/>
          <path class="cls-12" d="m1482.34,1023.04h-.03c-1.7-.01-3.07-1.4-3.04-3.1.56-56.58.33-74.62.12-90.55l-.12-10.48c-.72-72.87-.78-144,6.12-213.21,2.52-25.27,4.28-49.79,6.13-75.76,3.23-45.18,6.58-91.89,14.39-149.54.23-1.68,1.77-2.9,3.47-2.64,1.68.24,2.87,1.78,2.64,3.47-7.79,57.46-11.13,104.08-14.35,149.16-1.87,26.01-3.62,50.57-6.15,75.93-6.87,68.9-6.8,139.84-6.09,212.51l.12,10.47c.21,15.95.44,34.05-.12,90.69-.02,1.68-1.39,3.04-3.08,3.04Z"/>
          <path class="cls-12" d="m1840.91,1013.3c-.46,0-.92-.1-1.36-.32-67.04-33.21-113.3-87.54-123.74-145.32-.3-1.67.81-3.27,2.48-3.57,1.7-.27,3.27.81,3.58,2.48,11.88,65.79,69.99,115.92,120.41,140.9,1.52.77,2.15,2.61,1.39,4.13-.54,1.09-1.63,1.71-2.76,1.71Z"/>
          <path class="cls-12" d="m1766.89,1046.89c-1,0-1.97-.49-2.56-1.37-24.62-36.94-32.32-85.46-29.13-96.93.46-1.64,2.16-2.61,3.79-2.14,1.64.46,2.6,2.15,2.14,3.79-2.41,8.67,3.79,55.06,28.32,91.86.94,1.42.56,3.33-.85,4.28-.53.34-1.12.52-1.71.52Z"/>
          <path class="cls-12" d="m1898.35,1078.19c-1.52,0-2.84-1.14-3.05-2.67-3.67-27.93-4.15-43.72-4.57-57.64-.46-15.3-.86-28.52-5.4-53.68-10.24-56.68-21.34-169.42-29.45-251.72-2.36-23.99-4.47-45.38-6.22-62.05-.18-1.69,1.04-3.2,2.74-3.38,1.66-.21,3.21,1.05,3.38,2.73,1.75,16.68,3.87,38.09,6.23,62.07,8.1,82.22,19.19,194.82,29.39,251.25,4.62,25.61,5.02,39.04,5.49,54.58.42,13.79.89,29.4,4.52,57.02.22,1.68-.96,3.23-2.65,3.45-.14.03-.27.03-.41.03Z"/>
          <path class="cls-9" d="m2055.41,791.85c23.6-10.14,20.44-39.28,16.59-59.8-23.37-124.46-98.67-233.51-131.44-258.59-4.5-7.37-71.2-30.34-68.55,44.44,2.85,37.04,86.17,223.26,116.85,274.1,0,0,17.72,24.98,66.54-.15Z"/>
          <path class="cls-16" d="m2044.7,602.32c-45.84-88.1-101.99-150.63-101.99-150.63-27.8-34.27-113.39-52.37-113.39-52.37,0,0-42.8,88.39,9.84,189.75l72.38,120.85c46.12-33.34,92.44-67.77,133.15-107.59Z"/>
          <path class="cls-12" d="m1788.54,636.77c-1.63,0-2.99-1.28-3.07-2.92-2.33-46.58-2.71-68.47-.52-114.68.09-1.64,2.51-39.63,34.95-66.85,1.31-1.11,3.25-.91,4.33.38,1.1,1.3.93,3.24-.38,4.33-30.43,25.52-32.74,62.07-32.76,62.44-2.18,45.93-1.81,67.72.52,114.06.09,1.7-1.22,3.14-2.92,3.23h-.15Z"/>
          <g>
            <path class="cls-9" d="m2057.39,733.82c-61.02-30.02-94.12,9.81-94.12,9.81-8.72,141.84-154.46,368.53-168.94,394.67l22.3,17.93c100.09-68.43,235.22-264.69,255.58-376.14,0,0,4.57-36.33-14.82-46.27Z"/>
            <g>
              <path class="cls-9" d="m1817.5,1160.55s-10.66-22.53-33.71-23.09l-25.43,4.88c-29.89,5.46-34.02,7.56-34.02,7.56-10.48,4.19-14.31,20.52-14.31,20.52l-3.45,16.74c-2.51,13.45.12,12.81.12,12.81,5.79,6.74,8.92,2.88,8.92,2.88-1.8,5.06,2.18,6.63,2.18,6.63,5.19,4.32,9.65,1.68,9.65,1.68-.71,3.24,3.51,5.76,3.51,5.76,10.02,5.18,12.78-2.18,12.78-2.18-3.74,7.61,5.8,8.79,5.8,8.79,7.95,1.08,9.58-4.26,9.58-4.26l13.29-18.92c7.75-1.99,22.36-7.95,22.36-7.95,20.26-8.17,22.74-31.86,22.74-31.86"/>
              <line class="cls-9" x1="1742.29" y1="1217.17" x2="1748.92" y2="1198.54"/>
              <line class="cls-9" x1="1727.93" y1="1211.04" x2="1734.56" y2="1192.42"/>
              <line class="cls-9" x1="1715.02" y1="1204.55" x2="1721.65" y2="1185.93"/>
            </g>
          </g>
          <path class="cls-15" d="m1633.27,254.03c-8.49,0-17.46-2.2-22.3-3.57-1.64-.47-2.58-2.18-2.12-3.82.47-1.65,2.17-2.58,3.82-2.12,11.66,3.35,26.23,5.25,32.11.56,1.33-1.08,3.28-.84,4.34.49,1.06,1.33.84,3.27-.49,4.33-3.86,3.08-9.49,4.13-15.36,4.13Z"/>
          <path class="cls-4" d="m1750.2,1175.58c7.14,8.02,15.22,15.23,23.85,22.34,8.29,6.81,21.36,9.55,28.17,14.94,16.45,12.98,1.57,51.87-2.81,69.33-2.6,10.35-1.07,25.89-11.46,32.01-9.14,5.38-24.26-1.53-33.52-3.97-42.42-11.18-87.56-45.37-93.84-91.18-3.51-25.6.48-42.2,10.74-64.52,5.21-11.34,26.25-49.92,43.76-37.3,3.55,2.57,7.84,23.86,11.37,29.33,6.76,10.5,15.46,19.73,23.74,29.03Z"/>
          <path class="cls-1" d="m1719.03,1122.13c7.76,9.05,7.14,23.61,13.47,33.85,6.31,10.19,18.71,16.31,27.7,25.01,18.28,17.68,38.31,24.09,60.22,33.82-9.35,21.47-11.47,43.3-15.11,67.46-3.32,21.98-3.85,58.61-32.41,61.47-50.7,5.1-93.16-69.61-103.06-109.27-6.96-27.79-5.65-40.8,8.07-65.75,12.02-21.84,18.14-36.27,39.59-49.68l1.54,3.08Z"/>
        </g>
        <path class="cls-9" d="m1013.46,506.93s1.41-30.45-23.75-30.45l-41.4,58.12-16.62,83.38s-1.14,17.47,10.28,14.43c0,0,37.49-40.15,55.96-80.09l11.29,16.47s13.87,12.22,7.84-26.91l-3.61-34.96Z"/>
        <g>
          <g>
            <path class="cls-2" d="m457.26,762.51c-42.79-52.89-85.78-3.14-85.78-3.14-113.54,142.34-243.61,196.97-267.72,214.61l12.7,25.64c119.56-20.1,265.61-101.21,330.87-193.82,0,0,23.35-26.14,9.93-43.29Z"/>
            <g>
              <path class="cls-2" d="m0,1014.61c4.32,17.13,44.57-13.09,53.86-14.89-9.67,6.27-48.14,27.25-44.83,38.48,2.59,6.44,34.18-16.96,40.95-20.11-4.98,4.82-27.71,20.58-23.6,27.73,4.06,4.32,25.21-12.39,32.48-16.37-1.06,1.86-20.76,17.33-16.1,19.89,4.32,2.83,19.59-5.79,26.86-10.66,32.76-21.91,69.64-45.19,49.17-62.9-15.27-13.24-24.07-20.11-82.09-15.08-10,.87,1.04,15.47,21.34,17.94-1.4,4.88-58.56,33.91-58.04,35.96Z"/>
              <path class="cls-12" d="m71.04,980.6c-.38-.22-.75-.43-1.13-.65-1.02-.59-4.46.29-2.64,1.3,1.12.62-.08.25.22,1.16.41,1.25,1.85,1.55,2.96,2.02,1.44.61,2.17,2.27,3.55,2.99,1.68.9,3.27,1.36,5.15,1.68,6.66,1.11,15.24-2.68,20.17-6.97,1.99-1.72-3.4-2.37-4.53-1.71-3.46,2.05-6.65,4.17-10.53,5.43-3.21,1.05-5.86-.53-8.31-2.45-1.12-.87-4.13-.57-3.84-2.28.08-.49-.73-.8-1.05-.9-.5-.16-1.01-.3-1.52-.41-1.3-.29-4.24,1.06-1.89,1.59.53.12,1.06.24,1.58.35.63.15,3.3-.28,1.81-1.15h0Z"/>
            </g>
          </g>
          <polygon class="cls-2" points="610.31 427.56 457.69 485.15 551.59 905.65 776.36 905.65 813.6 471.77 717.85 427.36 610.31 427.56"/>
          <path class="cls-11" d="m505.8,237.44c1.32,26.85-2.61,51.06-18.9,73.9-11.36,15.92-34.11,16.41-37.04,37.67-4.01,29.08,19.94,56.28,45.15,66.5,28.8,11.68,43.79,5.16,63.48-14.57,21.57-21.62,16.64-46.18,10-72.76-6.25-25.01-7.04-52-5.77-78.37,2.12-43.78,25.87-58.76,55.4-84.68,13.41-11.78,41.72-37.57,16.89-53.85-15.99-10.48-39.6,6.72-54.09,13.89-42.17,20.86-77.58,62.78-75.15,112.26Z"/>
          <path class="cls-11" d="m584.68,94.73c12.05-16.84,39.44-24.51,58.43-20.78,40.36,7.93,26.39,44.54,2.05,63.23-11.57,8.86-26.3,15.61-40.97,10.5-21.48-7.48-33.24-33.77-19.51-52.95Z"/>
          <path class="cls-11" d="m705.44,395.94c12.79,22.69,39.28,22.32,60.5,15.42,11.28-3.66,24.06-7.92,36.88-6.19,12.13,1.64,23.29,7.86,35.41,7.77,11.51-.07,22.66.93,31.12-7.7,9.31-9.48,10.11-21.65,6.15-32.73-6.29-17.59-17.13-11.47-27.73-23.12-16.76-18.46-12.96-53.6-14.59-76.64-2.95-41.64-20.03-161.87-85.75-149.24-38.07,7.31-44.68,62.53-50.44,93.92-5.77,31.41,2.47,63.93,3.88,95.43,1.19,26.35-9.11,58.8,4.58,83.09Z"/>
          <path class="cls-11" d="m754.67,350.32c-44.67,32.44-93.33,6.06-133.92-20.77-41.17-27.22-66.09-92.71-56.86-140.43,7.95-41.08,35.72-72.4,75.6-84.96,30.24-9.51,81.35-14.95,109.85,1.78,68.56,40.27,73.86,148.18,36.06,210.32-8,13.15-18.23,24.99-30.74,34.06Z"/>
          <path class="cls-2" d="m819.51,1419.13c-5.23-116.27-7.89-198.15-11.05-230.67h-225.8c12.75,62.3,36.52,146.26,61.24,230.67h175.6Z"/>
          <path class="cls-11" d="m853.66,1419.13l-37.01-447.66s-272.88-139.73-277.61,64.92l90.51,382.74h224.11Z"/>
          <path class="cls-7" d="m813.6,516.26c9.26,24.02,32.97,80.93,28.35,105.1-5.36,27.99-17.14,44.35-28.35,70.67l-27.2,192.48h-258.55l-35.2-150.25c-10.83-25.08-11.25-59.02-17.07-85.34-3.38-15.32-6.19-26.55-8.09-38.14-5.05-20.17-10.41-41.26-9.99-59.77-3.89-8.33-8.24-16.62-10.18-24.31-4.14-16.38-1.82-36.14,14.35-43.53,14.38-6.59,28.54-11.63,43.42-17.13,24.22-8.94,70.82-26.08,95.03-35,86.58,74.5,135.51,4.26,135.51,4.26l54.36,23.44,23.61,57.53Z"/>
          <path class="cls-12" d="m591.26,789.92c-1.22,0-2.38-.74-2.86-1.93-.63-1.58.14-3.36,1.72-4,12.63-5.06,33.61-33.47,43.81-51.06,6.62-11.43,28.37-51.28,30.03-84.33.09-1.7,1.56-3.13,3.23-2.92,1.7.09,3,1.52,2.92,3.23-1.68,33.49-22.14,72.07-30.86,87.1-8.6,14.83-31.37,47.49-46.85,53.68-.38.15-.76.22-1.14.22Z"/>
          <path class="cls-12" d="m582.09,824.73c-.34,0-.66-.01-1-.01-1.7-.03-3.05-1.45-3.02-3.14.04-1.71,1.48-3.2,3.14-3.01h.87c28.48,0,74.89-27.71,97.83-52.87,1.15-1.25,3.09-1.36,4.35-.21,1.26,1.15,1.35,3.1.2,4.35-23.86,26.19-71.47,54.89-102.38,54.89Z"/>
          <path class="cls-2" d="m406.78,807.55c-23.35-9.05-26.63-33.07-22.17-66.97,7.5-56.87,38.07-210.21,68.18-236.41,3.91-7.39,66.91-33.62,68.88,38.73-.5,36.46-41.33,170.89-46.07,197.47,0,0-7.53,80.84-68.82,67.18Z"/>
          <g>
            <path class="cls-2" d="m580.93,249.46c-1.29,17.86,7.48,38.68,23.14,47.02,21.23,11.32,30.78-8.21,31.91-27.76.91-15.79-4.46-43.38-22.01-50-16.57-6.27-31.98,16.09-33.04,30.74Z"/>
            <rect class="cls-2" x="609.86" y="296.18" width="107.2" height="133.31"/>
            <path class="cls-6" d="m642.59,369.99c-10.78-22.57-17.19-45.4-15.4-73.81h89.87v115.88c-28.22-4.33-63-18.03-74.47-42.07Z"/>
            <path class="cls-2" d="m622.9,300.6c8.75,26.35,21.52,48.29,44.91,64.6,22.89,15.94,46.97,24.82,70.98,7.22,19.09-13.99,32.17-35.25,40.08-56.99,18.19-50.03,10.63-121.16-19.37-164.05-32.93-47.09-102.18-41.05-131.61,7.68-23.98,39.68-19.13,99.01-4.98,141.53Z"/>
            <g>
              <path class="cls-6" d="m605.64,280.74c-.33,0-.67-.06-1-.18-1.61-.55-2.47-2.3-1.92-3.92,5.5-16.01,3.38-32.44-4.83-37.38-1.46-.89-1.93-2.79-1.05-4.25.88-1.46,2.78-1.93,4.24-1.05,10.95,6.61,14.1,25.4,7.48,44.68-.44,1.28-1.64,2.09-2.92,2.09Z"/>
              <path class="cls-6" d="m607.7,254.9c-.62,0-1.24-.18-1.78-.56-3.07-2.2-9.29-1.42-14.08.34-1.61.58-3.37-.25-3.95-1.86-.58-1.61.25-3.38,1.85-3.95,2.97-1.09,13.18-4.23,19.76.43,1.39.99,1.72,2.92.73,4.31-.6.84-1.55,1.3-2.52,1.3Z"/>
            </g>
            <g>
              <path class="cls-12" d="m748.92,247.66c0,5.68,2.75,10.29,6.17,10.29s6.17-4.61,6.17-10.29-2.76-10.28-6.17-10.28-6.18,4.6-6.17,10.28Z"/>
              <path class="cls-12" d="m675.05,247.66c0,5.68,2.75,10.29,6.17,10.29s6.17-4.61,6.17-10.29-2.75-10.28-6.17-10.28-6.17,4.6-6.17,10.28Z"/>
              <path class="cls-6" d="m724.15,295.11c-1.6,0-2.95-1.22-3.07-2.85-.13-1.7,1.14-3.18,2.84-3.32,10.03-.78,13.85-5.06,14.78-6.34.83-1.15,1.19-2.31.97-3.18-.55-.4-4.91-2.54-7.26-3.67-3.87-1.89-5.94-2.92-7-4.16-4.02-4.66-5.33-9.91-7.4-29.52-.18-1.7,1.05-3.23,2.74-3.41,1.7-.16,3.22,1.06,3.39,2.74,1.99,18.93,3.17,22.94,5.94,26.16.5.43,3.12,1.7,5.04,2.64,6.26,3.04,9.84,4.9,10.54,7.73.67,2.68-.03,5.62-1.95,8.29-3.59,4.97-10.63,8.21-19.31,8.88-.08.02-.16.02-.24.02Z"/>
              <path class="cls-6" d="m663.11,271.88c0,4.04,7.41,7.31,16.54,7.31s16.54-3.29,16.54-7.31-7.41-7.31-16.54-7.31-16.54,3.27-16.54,7.31Z"/>
              <path class="cls-6" d="m744.67,271.88c0,4.04,7.4,7.31,16.54,7.31s16.54-3.27,16.55-7.31c0-4.04-7.42-7.31-16.55-7.31s-16.54,3.27-16.54,7.31Z"/>
              <path class="cls-11" d="m666.37,233.58c-1.01,0-2.02-.34-2.88-1.02-1.99-1.58-2.32-4.48-.73-6.49,7.35-9.22,25.89-10.5,36.05-2.52,2.01,1.58,2.36,4.47.78,6.47-1.57,2-4.48,2.37-6.48.78-6.49-5.09-19.34-3.75-23.14,1.03-.91,1.14-2.26,1.74-3.61,1.74Z"/>
              <path class="cls-11" d="m741.01,233.58c-1.01,0-2.02-.34-2.88-1.02-1.99-1.58-2.32-4.48-.73-6.49,7.35-9.22,25.88-10.5,36.05-2.52,2.01,1.58,2.36,4.47.78,6.47-1.58,2-4.48,2.37-6.48.78-6.49-5.09-19.34-3.75-23.13,1.03-.91,1.14-2.26,1.74-3.62,1.74Z"/>
            </g>
            <path class="cls-11" d="m641.57,223.79c-14.67,6.46-21.28,16.13-23.72,17.4-.73.4,0,0,0,0-.39-9.19-6.03-17.4-16.85-18.45-7.75-.75-15.88,10.56-18.57,18.25-.02-8.26.86-20.1,1.28-28.9.4-8.33,1.41-17.25,2.96-25.74,3.58-19.79,5.82-30.61,16.43-48.73,11.42-19.52,28.32-34.15,51.29-38.48,27.73-5.23,72.7-8.15,94.9,10,11.39,9.32-28.21-5.59-32.22,31.79,0,0,0,54.95-75.5,82.86Z"/>
          </g>
          <path class="cls-12" d="m669.05,908.42c-3.42,0-6.78-.01-10.09-.03h-9.03c-46.18-.01-74.86-7.86-117.84-20.66-1.63-.49-2.56-2.2-2.07-3.83.48-1.62,2.2-2.54,3.83-2.06,42.45,12.64,70.76,20.38,116.08,20.38l9.05.03c41.23.15,92.51.31,124.62-22.04,1.39-.96,3.32-.62,4.29.77.97,1.4.62,3.32-.77,4.29-31.06,21.6-77.97,23.16-118.07,23.16Z"/>
          <path class="cls-12" d="m795.11,836.04c-.12,0-.25,0-.37-.02-1.69-.21-2.89-1.74-2.69-3.42,2.7-22.57,4.26-36.49,5.39-46.52,2.14-19.09,2.72-24.23,6.59-48.32,1.63-10.14,6.79-25.02,12.27-40.78,5.38-15.51,10.95-31.54,12.36-41.43,2.59-18.12-1.47-33.54-5.76-49.9-1.04-3.94-2.09-7.93-3.07-12.06-.4-1.65.62-3.3,2.28-3.7,1.65-.4,3.31.62,3.71,2.27.97,4.08,2.02,8.04,3.04,11.93,4.46,16.96,8.67,32.97,5.9,52.33-1.5,10.48-7.16,26.81-12.64,42.58-5.14,14.82-10.46,30.12-12.01,39.74-3.84,23.96-4.41,29.06-6.55,48.04-1.13,10.03-2.69,23.97-5.39,46.55-.19,1.56-1.52,2.71-3.05,2.71Z"/>
          <path class="cls-8" d="m741.27,308.48l-44.63-9.23s0,26.16,20,30.77c0,0,18.47,6.16,24.62-21.54Z"/>
          <path class="cls-11" d="m450.25,1419.13h206.4l43.7-227.11,116.31-220.55-21.55-138.51s-46.2,61.04-278.55,10.78l-47.44,112.93s-35.56,75.24-11.43,258.12l-7.44,204.35Z"/>
          <path class="cls-13" d="m660.2,1419.13c23.17-131.79,50.37-308.92,52.83-366.58.07-1.7-1.24-3.13-2.94-3.2-1.6.03-3.14,1.25-3.21,2.95-2.47,57.67-29.75,235.25-52.91,366.83h6.23Z"/>
          <path class="cls-7" d="m374.48,717.33c38.98,65.67,131.32,43.08,131.32,43.08,38.47-93.36,42.55-225.49,42.55-225.49-19.67-81.99-63.32-61.78-63.32-61.78-47.71,10.01-66.94,61.56-66.94,61.56,0,0-21.03,73.87-43.6,182.63Z"/>
          <path class="cls-12" d="m521.19,713.23c-.29,0-.59-.04-.88-.13-1.63-.49-2.55-2.21-2.06-3.83,9.03-30.09,38.14-130.58,33.76-160.26-4.07-27.59-15.63-41.3-38.42-59.92-1.32-1.08-1.51-3.02-.44-4.33,1.07-1.31,3.01-1.5,4.33-.44,24.05,19.65,36.26,34.21,40.62,63.8,4.44,30.09-22.27,123.96-33.95,162.93-.4,1.33-1.62,2.2-2.95,2.2Z"/>
          <path class="cls-11" d="m726.64,175.1c11.95,10.9,21.31,15.14,36.17,21.37,5.68,2.36,10.84,4.42,15.2,8.86,3.71,3.77,7.33,12.31,10.65,20.63,4.85,12.15,6.47-31.01,6.47-37.57.03-26.95-15.49-54.47-34.59-71.94-7.29-6.66-19.47-10.51-29.28-10.59-6.01-.07-17.66-.55-22.28,4.04-4.72,4.67-1.77,12.27-1.2,18.5,1.5,16.43,6.16,35.11,18.86,46.7Z"/>
          <path class="cls-11" d="m538.45,219.3c-4.18,26.13-.04,52.39,1.2,78.15,1.3,26.81-3.59,44.91-13.47,68.06-8.5,19.94-19.1,54.98,10.4,62.74,12.04,3.17,25.27-3.38,36.93-4.57,12.9-1.31,25.39,1.64,38.47,1.5,18.95-.19,52.63-5.18,55.4-27.69,2.99-24.27-23.04-48.41-27.7-70.8-3.92-18.83-4.19-38.32-.43-56.94,3.89-19.2-3.35-39.1,3.85-58.14,7.18-18.99,21.07-32.03,24.37-52.67,1.26-7.87,3.36-19.15,1.45-27.69-1.98-8.91-7.34-13.05-11.05-21.29-16.68-1.03-26.38-2.96-40.75,5.57-13,7.71-25.57,17.94-36.64,28.21-22.05,20.42-37.24,45.63-42.03,75.57Z"/>
          <path class="cls-13" d="m655.5,920.22h-4.44c-47.92-.1-86.43-8.2-132.95-27.93-1.57-.66-2.3-2.46-1.64-4.02.67-1.58,2.48-2.31,4.04-1.64,46.3,19.64,82.9,27.34,130.55,27.44,45.07.22,89.37-1.21,136.9-18.05,1.59-.58,3.36.26,3.93,1.87.57,1.61-.27,3.36-1.87,3.94-46.88,16.62-90.46,18.39-134.52,18.39Z"/>
          <path class="cls-13" d="m709.01,1051.58c-1.91,0-3.8-.01-5.68-.01l-29.28-.02c-1.7,0-3.08-1.37-3.08-3.08s1.38-3.08,3.08-3.08l29.3.02c6.52.03,13.24.06,19.79-.19,1.51-30.89,2.22-63.86,2.22-103.45,0-1.7,1.38-3.07,3.08-3.07s3.08,1.37,3.08,3.07c0,40.9-.75,74.75-2.36,106.56-.08,1.56-1.35,2.83-2.92,2.9-5.68.29-11.49.35-17.22.35Z"/>
          <path class="cls-13" d="m477.41,1055.79c-1.2,0-2.52.1-3.49-.65-.44-.34-1.78-1.37-1.98-3.1-.18-1.59.71-2.7,1.09-3.17-.38-1.65.66-3.17,2.31-3.55,1.68-.4,3.33.8,3.71,2.45.16.68.2,1.3.14,1.86,78.71-1.05,87.76-70.07,90.23-140.81.06-1.7,1.46-2.92,3.18-2.96,1.7.06,3.02,1.47,2.96,3.19-2.59,74.28-12.34,146.75-98.16,146.75Z"/>
          <path class="cls-13" d="m806.42,985.87c-.23,0-.45-.03-.67-.07-31.89-7.08-46.07-46.95-41.37-81.39.23-1.68,1.79-2.86,3.47-2.63,1.68.22,2.86,1.77,2.64,3.45-4.33,31.7,8.18,68.25,36.61,74.55,1.66.37,2.71,2.02,2.34,3.69-.32,1.43-1.59,2.4-3,2.4Z"/>
        </g>
      </g>
    </g>
  </g>
</svg>