<?xml version="1.0" encoding="utf-8"?>
<!-- Generator: Adobe Illustrator 27.8.0, SVG Export Plug-In . SVG Version: 6.00 Build 0)  -->
<svg version="1.1" xmlns="http://www.w3.org/2000/svg" xmlns:xlink="http://www.w3.org/1999/xlink" x="0px" y="0px"
	 viewBox="0 0 2000 2000" style="enable-background:new 0 0 2000 2000;" xml:space="preserve">
<style type="text/css">
	.st0{fill:#2A7DE1;}
	.st1{opacity:0.6;fill:#9DDCF9;}
	.st2{fill:#00ACD4;}
	.st3{fill:#9DDCF9;}
	.st4{fill:#6F60AA;}
	.st5{fill:#4C0055;}
	.st6{fill:#FFFCDF;}
	.st7{fill:#F173AC;}
	.st8{fill:#ED037C;}
	.st9{fill:#AB218E;}
</style>
<g id="Background">
</g>
<g id="Artwork">
	<g>
		<path class="st0" d="M816.6,1366.7c-76-23.8-155-42.3-222.9-83.9c-67.9-41.7-124.1-113.1-121.7-192.7
			c3.3-112.5,113.9-188.2,166.6-287.6c40.7-77,45.7-167.3,70.7-250.8c34.5-115,108.9-217.6,207.5-286
			c98.6-68.4,220.7-102.3,340.5-94.4c66.6,4.4,136.5,23.9,180.4,74.2c56,64.1,60.6,167,129.5,216.8c82.3,59.5,202.3,6.9,296.7,44.3
			c88.7,35.2,129.9,145,113.1,239c-16.7,94-78.2,173.7-144.9,242s-141.1,130.3-194.8,209.2c-49.3,72.4-79.8,157.4-136.9,223.9
			c-80.7,94-213.4,135.1-334.2,115.2C1033.8,1514.1,943.8,1406.6,816.6,1366.7z"/>
		<path class="st1" d="M104.3,971.6C73.6,898.1,36.8,825.7,25,747c-11.8-78.7,6.6-167.8,69.1-217.2c88.2-69.9,217.3-34,327.3-57.8
			c85.1-18.4,157.5-72.8,237.4-107.4c110.2-47.7,236.6-56.8,352.4-25.4c115.9,31.4,220.4,103,291.4,199.8
			c39.5,53.8,69.6,119.8,59.4,185.8c-13,84.1-88.7,153.8-82.5,238.7c7.5,101.2,125,159.2,157.1,255.5
			c30.2,90.5-27.3,192.7-110,240.4c-82.7,47.7-183.2,52-278.4,45c-95.2-7-190.6-24.1-285.5-14.3c-87.2,8.9-171.8,40.3-259.4,39.4
			c-123.8-1.3-240.7-76.3-303.3-181.5C131.5,1232.7,155.8,1094.6,104.3,971.6z"/>
		<g>
			<g>
				<path class="st2" d="M628.9,1132.5c0,9.4,7.7,17.1,17.1,17.1c9.4,0,17.1-7.7,17.1-17.1s-7.7-17.1-17.1-17.1
					C636.6,1115.5,628.9,1123.1,628.9,1132.5z M634.7,1132.5c0-6.2,5-11.3,11.3-11.3c6.2,0,11.3,5,11.3,11.3c0,6.2-5,11.3-11.3,11.3
					C639.8,1143.8,634.7,1138.7,634.7,1132.5z"/>
				<path class="st2" d="M924.1,964.5c0-18.6-15.1-33.7-33.7-33.7c-18.6,0-33.7,15.1-33.7,33.7c0,18.6,15.1,33.7,33.7,33.7
					C909,998.2,924.1,983.1,924.1,964.5z M912.6,964.5c0,12.2-10,22.2-22.2,22.2c-12.2,0-22.2-10-22.2-22.2
					c0-12.2,10-22.2,22.2-22.2C902.6,942.3,912.6,952.3,912.6,964.5z"/>
				<path class="st2" d="M924.1,1076c0-18.6-15.1-33.7-33.7-33.7c-18.6,0-33.7,15.1-33.7,33.7c0,18.6,15.1,33.7,33.7,33.7
					C909,1109.7,924.1,1094.6,924.1,1076z M912.6,1076c0,12.2-10,22.2-22.2,22.2c-12.2,0-22.2-10-22.2-22.2
					c0-12.2,10-22.2,22.2-22.2C902.6,1053.8,912.6,1063.8,912.6,1076z"/>
				<path class="st2" d="M1364.5,1281.1c0-22.8-18.5-41.3-41.3-41.3c-22.8,0-41.3,18.5-41.3,41.3s18.5,41.3,41.3,41.3
					C1346,1322.4,1364.5,1303.9,1364.5,1281.1z M1350.5,1281.1c0,15-12.2,27.2-27.2,27.2s-27.2-12.2-27.2-27.2
					c0-15,12.2-27.2,27.2-27.2S1350.5,1266.1,1350.5,1281.1z"/>
				<path class="st2" d="M1364.5,1417.8c0-22.8-18.5-41.3-41.3-41.3c-22.8,0-41.3,18.5-41.3,41.3c0,22.8,18.5,41.3,41.3,41.3
					C1346,1459.1,1364.5,1440.6,1364.5,1417.8z M1350.5,1417.8c0,15-12.2,27.2-27.2,27.2s-27.2-12.2-27.2-27.2
					c0-15,12.2-27.2,27.2-27.2S1350.5,1402.8,1350.5,1417.8z"/>
				<path class="st2" d="M1481.7,1417.8c0-22.8-18.5-41.3-41.3-41.3c-22.8,0-41.3,18.5-41.3,41.3c0,22.8,18.5,41.3,41.3,41.3
					C1463.2,1459.1,1481.7,1440.6,1481.7,1417.8z M1467.6,1417.8c0,15-12.2,27.2-27.2,27.2s-27.2-12.2-27.2-27.2
					c0-15,12.2-27.2,27.2-27.2S1467.6,1402.8,1467.6,1417.8z"/>
				<path class="st2" d="M1481.7,1281.1c0-22.8-18.5-41.3-41.3-41.3c-22.8,0-41.3,18.5-41.3,41.3s18.5,41.3,41.3,41.3
					C1463.2,1322.4,1481.7,1303.9,1481.7,1281.1z M1467.6,1281.1c0,15-12.2,27.2-27.2,27.2s-27.2-12.2-27.2-27.2
					c0-15,12.2-27.2,27.2-27.2S1467.6,1266.1,1467.6,1281.1z"/>
				<path class="st2" d="M501.7,1324c0-9.4-7.7-17.1-17.1-17.1c-9.4,0-17.1,7.7-17.1,17.1s7.7,17.1,17.1,17.1
					C494.1,1341,501.7,1333.4,501.7,1324z M495.9,1324c0,6.2-5,11.3-11.3,11.3c-6.2,0-11.3-5-11.3-11.3s5-11.3,11.3-11.3
					C490.9,1312.7,495.9,1317.8,495.9,1324z"/>
				<path class="st2" d="M550.1,1324c0-9.4-7.7-17.1-17.1-17.1c-9.4,0-17.1,7.7-17.1,17.1s7.7,17.1,17.1,17.1
					C542.5,1341,550.1,1333.4,550.1,1324z M544.3,1324c0,6.2-5,11.3-11.3,11.3c-6.2,0-11.3-5-11.3-11.3s5-11.3,11.3-11.3
					C539.3,1312.7,544.3,1317.8,544.3,1324z"/>
				<path class="st2" d="M550.1,1267.5c0-9.4-7.7-17.1-17.1-17.1c-9.4,0-17.1,7.7-17.1,17.1s7.7,17.1,17.1,17.1
					C542.5,1284.5,550.1,1276.9,550.1,1267.5z M544.3,1267.5c0,6.2-5,11.3-11.3,11.3c-6.2,0-11.3-5-11.3-11.3s5-11.3,11.3-11.3
					C539.3,1256.2,544.3,1261.3,544.3,1267.5z"/>
				<path class="st2" d="M1259.7,798.5c-14.8,0-26.8,12-26.8,26.8c0,14.8,12,26.8,26.8,26.8s26.8-12,26.8-26.8
					C1286.5,810.5,1274.5,798.5,1259.7,798.5z M1280.7,825.3c0,11.6-9.4,21-21,21c-11.6,0-21-9.4-21-21s9.4-21,21-21
					C1271.3,804.3,1280.7,813.7,1280.7,825.3z"/>
				<path class="st2" d="M1232.9,920.8c0,14.8,12,26.8,26.8,26.8s26.8-12,26.8-26.8c0-14.8-12-26.8-26.8-26.8
					S1232.9,906,1232.9,920.8z M1238.7,920.8c0-11.6,9.4-21,21-21c11.6,0,21,9.4,21,21c0,11.6-9.4,21-21,21
					C1248.1,941.9,1238.7,932.4,1238.7,920.8z"/>
				<path class="st2" d="M1368.4,920.8c0-14.8-12-26.8-26.8-26.8c-14.8,0-26.8,12-26.8,26.8c0,14.8,12,26.8,26.8,26.8
					C1356.3,947.7,1368.4,935.6,1368.4,920.8z M1362.6,920.8c0,11.6-9.4,21-21,21c-11.6,0-21-9.4-21-21c0-11.6,9.4-21,21-21
					C1353.1,899.8,1362.6,909.2,1362.6,920.8z"/>
				<path class="st2" d="M581.7,815.5c0-15.4-12.6-28-28-28c-15.4,0-28,12.6-28,28s12.6,28,28,28
					C569.2,843.5,581.7,830.9,581.7,815.5z M572.2,815.5c0,10.2-8.3,18.5-18.5,18.5c-10.2,0-18.5-8.3-18.5-18.5
					c0-10.2,8.3-18.5,18.5-18.5C563.9,797,572.2,805.3,572.2,815.5z"/>
				<path class="st2" d="M581.7,908.2c0-15.4-12.6-28-28-28c-15.4,0-28,12.6-28,28c0,15.4,12.6,28,28,28
					C569.2,936.2,581.7,923.6,581.7,908.2z M572.2,908.2c0,10.2-8.3,18.5-18.5,18.5c-10.2,0-18.5-8.3-18.5-18.5
					c0-10.2,8.3-18.5,18.5-18.5C563.9,889.7,572.2,898,572.2,908.2z"/>
				<path class="st2" d="M661.2,908.2c0-15.4-12.6-28-28-28s-28,12.6-28,28c0,15.4,12.6,28,28,28S661.2,923.6,661.2,908.2z
					 M651.6,908.2c0,10.2-8.3,18.5-18.5,18.5c-10.2,0-18.5-8.3-18.5-18.5c0-10.2,8.3-18.5,18.5-18.5
					C643.3,889.7,651.6,898,651.6,908.2z"/>
				<path class="st2" d="M1237.8,694.4c0-18.8-15.3-34.2-34.2-34.2c-18.8,0-34.2,15.3-34.2,34.2c0,18.8,15.3,34.2,34.2,34.2
					C1222.5,728.5,1237.8,713.2,1237.8,694.4z M1226.2,694.4c0,12.4-10.1,22.5-22.5,22.5s-22.5-10.1-22.5-22.5s10.1-22.5,22.5-22.5
					S1226.2,681.9,1226.2,694.4z"/>
				<path class="st2" d="M1334.8,694.4c0-18.8-15.3-34.2-34.2-34.2c-18.8,0-34.2,15.3-34.2,34.2c0,18.8,15.3,34.2,34.2,34.2
					C1319.5,728.5,1334.8,713.2,1334.8,694.4z M1323.1,694.4c0,12.4-10.1,22.5-22.5,22.5s-22.5-10.1-22.5-22.5s10.1-22.5,22.5-22.5
					S1323.1,681.9,1323.1,694.4z"/>
			</g>
			<g>
				<path class="st3" d="M1383.7,1049c-35.6,81.2-112.3,143-199.2,160.4l22.5,59.4c70.9,3,143.7-15.6,205.1-51.2
					C1412.6,1158.5,1406,1103.8,1383.7,1049z"/>
				<path class="st4" d="M1378.4,1355.9c-22.3-82.2-160.1-247.1-215.9-280c-55.8-33-243.9-24.5-243.9-24.5l-172.1,142.5
					c0,0-55.8-118.9-90.6-112.7c-34.8,6.2-68.3,57.1-57.1,103s48.4,160.1,109.2,175c60.8,14.9,155.1-83.2,155.1-83.2
					s9.9,17.4-2.5,48.4c-12.4,31,28,47.2,28,47.2v48.4c0,0-65,92-42.7,237.2c0,0,183.4,26.1,257.4-67s148.4-85.6,148.4-85.6
					s-0.4-0.8-1.3-2.2l57.1,13.3C1307.6,1515.6,1400.7,1438.1,1378.4,1355.9z M1143.8,1355.9c0,0,18.6-0.3,11.2-59.9l76.2,59.9
					c0,0-41.4,21.7-67.9,49.8c-7.6-4.4-15.4-7.6-23.2-9.1L1143.8,1355.9z"/>
				<g>
					<path class="st5" d="M861.1,1262.1c0.8,2.3,1.7,4.6,2.6,6.9C862.9,1266.7,862,1264.4,861.1,1262.1z"/>
					<path class="st5" d="M1162.5,1075.8c-55.8-33-243.9-24.5-243.9-24.5l-145.5,120.5c19.6,2.6,38.4,13.5,52.2,28.1
						c16.6,17.5,27.2,39.6,35.9,62.2c-11.8-34.3-7.1-74,12.6-104.4c17.6-27.2,32-55.6,48.5-83.5c-7.4,32.7-14.8,65.4-22.3,98.1
						c9.5,23.3,31.5,41,56.2,45.4c24.8,4.4,51.5-4.7,68.4-23.3c12.9-14.2,23-34.9,42.1-37c12.4,9.8,27.4,16.6,43.3,20.2
						c-0.8,20.4-3,40.6,1.5,61c5.4,24.4,20.4,48,43.7,57.1c-23.9-32.7-33.9-75.2-27.3-115.2c11.6,1,23.3,0.3,34.4-2.1
						c26.5-5.8,50.6-21.7,66.8-43.4C1203.1,1107.3,1179.1,1085.7,1162.5,1075.8z"/>
				</g>
				<path class="st6" d="M1006.8,957.8l-49.2,46.9L829,1110c0,0,10,25.6,31.1,25.6c21.1,0,63.7-73.3,63.7-73.3l-28.7,93.3
					c0,0,19.5,5.6,60.6,33.3c41.1,27.8,78.9-72.2,116.6-72.2s47.8,67.8,103.3,51.1c55.5-16.7,55.5-70,55.5-70
					s-145-124.3-184.7-132.1C1006.8,957.8,1006.8,957.8,1006.8,957.8z"/>
				<path class="st4" d="M976.5,1056.8c46-10.5,90.8-29.2,127-59.4c-23.9-16.7-45.1-29.4-57-31.7c-39.7-7.8-39.7-7.8-39.7-7.8
					l-49.2,46.9l-79.2,64.8c14.4-0.8,28.9-2,43.2-3.6c1.4-2.3,2.2-3.7,2.2-3.7l-1.1,3.6C940.8,1063.7,958.7,1060.8,976.5,1056.8z"/>
				<path class="st7" d="M1057.6,979c-8.8,14.8-22.4,26.8-38.1,33.7c-15.8,7-33.8,8.8-50.7,5.4c-0.2-5.9-0.8-12-0.5-17.9
					c0.7-14.1-4.4-28.4-13.8-39c-9.4-10.6-23-17.3-37.1-18.2c-4.4-0.3-8.9-0.1-13.2-1c-4.3-0.9-8.7-3.2-10.7-7.1
					c-3-5.8-0.1-12.6,1.8-18.9c1.9-6.2,2.3-17.3-3.6-20c1.3-1.7,2.6-4.6,3.9-6.2c-4.1-1.6-6.2-6.4-7-10.7c2.2-1.9,5-5.3,7.2-7.1
					c-4.8-1-9.7-2-13.7-4.9c-4-2.9-5.8-7.8-4.3-12.5c13.2-4.7,24-15.9,28.2-29.3c3.3-10.4,2.7-21.7,5.1-32.3
					c3.1-13.9,11.4-26.5,22.9-34.8c23-16.7,54.6-15.7,82.2-8.8c12,3,23.6,7.9,33.2,15.7c9.6,7.8,17,18.6,19.3,30.7
					c3,15.7-2.6,31.9-10.6,45.7c-8.1,13.8-18.6,26-26.9,39.7c-8.3,13.7-14.3,29.7-11.9,45.5C1022.5,948,1041.2,964.9,1057.6,979z"/>
				<g>
					<path class="st4" d="M1005,929.7c0.3-6.2,0-12.7-2.5-18.4c-2.4-5.8-7.2-10.8-13.3-12.3c-7-1.7-14.4,1.5-19.9,6.1
						c-5.5,4.6-9.8,10.5-14.8,15.7c-13,13.3-31.3,21.1-49.9,21.3c4.2,0.8,8.4,0.6,12.7,0.9c14.1,1,27.7,7.7,37.1,18.2
						c7.5,8.4,12.2,19.2,13.5,30.3c1.6-1.7,3.2-3.5,4.7-5.3C986.5,969.8,1003.9,951.2,1005,929.7z"/>
					<path class="st4" d="M878.6,862.9c-0.1-0.1-0.1-0.1-0.2-0.2c0.8,1.7,2.1,3.2,3.7,4.4c4,2.9,8.9,3.9,13.7,4.9
						c-1.7,1.4-3.6,3.6-5.5,5.5c5.3-1.3,10.5-2.7,15.8-4c0.1-4.7-2-9.4-5.6-12.5c0.3,2.5,0.4,5.6,0.7,8.1
						C893.4,871.2,884.4,868.8,878.6,862.9z"/>
				</g>
				<path class="st5" d="M1083.6,765.8c15.8,3,29,15.2,35.3,29.9c6.3,14.8,6.2,31.8,1.8,47.2c-4.4,15.5-12.8,29.5-22.5,42.2
					c4.3,4.9,11.6,6.9,17.8,4.8c-1.8,15.5-18,28.4-33.3,25.3c5.2,3.3,12,3.8,17.5,1.3c5.6-2.5,9.7-7.9,10.7-14
					c8.3,18.1,0.9,41.8-16.3,51.9c-17.1,10.1-41.5,5.1-53.3-10.8c-6,14.2-22.7,22.8-37.7,19.6c-15-3.3-26.6-18.1-26.2-33.4
					c-2.4,6.1-1.5,13.4,2.4,18.7c3.9,5.3,10.6,8.4,17.1,7.9c-8.6,8-23.4,6.5-32.1-1.5c-8.7-8-11.7-20.8-10.2-32.4
					c1.4-11.7,6.5-22.8,12.4-33c7.8,4,17.8,3.3,24.9-1.8c7.1-5.1,11.7-13.3,10.3-21.9c-4.7,3.7-9.7,7.2-15.4,9.2
					c-5.7,2-12.1,2.4-17.6,0.1c-5.5-2.3-10-7.7-10.1-13.7c2.9,4.3,7.2,7.4,12.4,7.4c-9.5-12-13.4-28.2-8.6-42.8
					c-8.9-1.2-17.9-2.5-26.2-5.8c-8.3-3.3-16-9-20-17.1c-3.9-8-3.4-18.6,2.9-25.1c-8.1,6.6-11.4,18.5-7.9,28.4
					c-8.2,1.9-17.3-0.4-23.6-6.1c-6.3-5.6-9.5-14.4-8.5-22.8c1,5.5,4.1,10.6,8.6,13.9c-2.7-19.7,4.3-40.6,18.3-54.7
					c14-14.1,34.8-21.2,54.6-18.7c14.7,1.9,28,8.2,42.5,11.4c14.1,3,28.2,6.1,41.6,11.4C1058.7,746.2,1074.3,754.9,1083.6,765.8z"/>
				<path class="st8" d="M911.1,891.3c-6,4.1-13.2,6.2-20.5,6.1c-0.5-2.9,0.9-5.6,3.3-7.4c-3.7-2-5.8-6.6-4.9-10.7
					c3.5,2,7.1,4.4,10.6,6.4C903,887.8,907.4,889.9,911.1,891.3z"/>
				<path class="st6" d="M893,886.3c0.3,2.1,0.5,4.3,0.8,6.4c3.9,0.2,6.3-0.2,9.8-1.9C899.7,890.9,895.7,889.1,893,886.3z"/>
				<path class="st4" d="M924.9,826.3L921,824l-2.5,16.8l16.4-8.4C934.9,832.4,933.4,824.1,924.9,826.3z"/>
				<path class="st5" d="M942.7,843.9c0.7-5.8-2.7-11.4-6.9-15.4c-4.2-4-9.2-7.2-13.5-11c-0.4,2.2-0.8,4.4-1.2,6.5
					c3.4,2.1,6.9,4.1,10.3,6.1c2.7,1.6,5.3,3.2,7.5,5.4C941,837.8,942.7,840.8,942.7,843.9z"/>
				<path class="st4" d="M1118.9,795.8c-6.3-14.8-19.5-26.9-35.3-29.9c-9.3-11-24.9-19.6-38.3-24.9c-13.4-5.3-27.5-8.4-41.6-11.4
					c-14.5-3.1-27.8-9.5-42.5-11.4c-19.8-2.6-40.5,4.5-54.6,18.7c-7.7,7.7-13.2,17.4-16.2,27.8c0.6,5.4,1.2,10.7,1.8,16.1
					c4.3-8.4,8.6-16.8,12.9-25.2c-1.7,8.8-3.3,17.7-5,26.5c4.7-6.1,9.4-12.2,14.1-18.3c9.1,10.6,22.1,17.8,35.9,19.8
					c0.7,7.6,1.4,15.3,2.1,22.9c2-7,4.1-14,6.1-21.1c2.7,6.3,5.4,12.7,8,19c8.7-12.2,17.4-24.5,26.2-36.7
					c0.6,10.6,1.2,21.3,1.8,31.9c23.1-16.8,54.8-21,81.5-10.9c-7-6-14.1-12-21.1-18c21.3,3.1,41.2,15,53.9,32.3
					c7,9.5,11.8,20.6,14.1,32.1C1124.9,821.9,1124.1,808.1,1118.9,795.8z"/>
				<path class="st6" d="M637.6,1051.8c11.1,23.1,36.9,39.3,62.4,36.5c0.8,11.6-3.7,23.5-12,31.6c-8.4,8.1-20.4,12.3-32,11.1
					c3.6,9.8,0.1,21.9-8.3,28.2c-8.4,6.3-20.9,6.4-29.4,0.2c-2.5,6.4-8.6,11.2-15.4,12.2c-6.8,1-13.5-0.6-17.7-6.1
					c13.7-26.3,14.7-58.9,2.6-86C599.8,1064.6,618.6,1053.6,637.6,1051.8z"/>
				<path class="st4" d="M586.4,1011.2c3.7,6.2,3.4,13.9,2.4,21c-1,7.1-2.8,14.4-1.6,21.5c1.2,7.1,6.3,14.2,13.5,14.9l1.6,13.7
					c9.2-2.4,17.9-6.6,25.7-12.1c-1.3-5.8-1.4-12.1,0.7-18.8c4.6-15,2.7-50,1.4-65.7c-12-12.4-26.9-23.1-43.3-28.4
					c0.2,4.5,2.9,8.1,6.7,10.6s8,4.1,11.6,6.9c3.6,2.8,6.4,7.1,5.6,11.5c-12.9-12.1-29.7-19.1-47.3-20.4c0.1,4.8,4.6,8.4,9.1,10
					c4.5,1.5,9.5,1.7,14,3.3c6.3,2.2,11.7,7.2,14.2,13.4c-12.9-8.5-24.7-6.4-33.9-0.4c-4.4-0.9-8.9-1.5-13.4-1.7
					c2.8,3.8,5.3,5.3,7.7,6.1c-1.7,1.6-3.3,3.2-4.7,5c3.4,3.3,10.1,1.5,15.7-1.7C577.6,1002.7,583.2,1005.9,586.4,1011.2z
					 M584.3,994.3c2.7,0.6,7.6,4.9,8.4,7.6c-4.6-2.6-9.4-4.7-14.3-6.5C580.2,994.3,582.2,993.8,584.3,994.3z"/>
				<g>
					<path class="st5" d="M1098.5,1349.7c6.2-8.1,12.5-16.2,18.7-24.2c-18.7,20.9-50.1,23.3-78.1,24.2c-25.5,0.8-51.1,1.7-76.6,2.5
						c-7.2,0.2-14.6,0.4-21.1-2.6c-19.1-8.8-21.5-40.5-42.2-44.8c11.1,17.2,22.1,34.5,33.2,51.7c-6.3,0.4-12.2-2.7-17.6-6
						c-6.3-3.9-25.7-15.3-31.2-3.5c-3.1,6.6,4.3,11,9.1,14.2c20.2,13.3,49.7,6.5,72.1,5.3c31-1.7,62-3.9,92.9-6.4
						c26.3-2.1,56.1-9.1,82.7-8.4C1126.5,1351,1112.5,1350.4,1098.5,1349.7z"/>
					<path class="st5" d="M1140.5,1351.7c1.8,0.1,3.7,0.2,5.5,0.3C1144.1,1351.8,1142.3,1351.7,1140.5,1351.7z"/>
				</g>
				<path class="st5" d="M1146.3,1319.4c-2.7-3.4-7.8-4.8-11.7-2.3c-4.5,2.8-8.3,7.4-11.3,11.7c-1.3,1.9-2.6,3.8-3.5,5.8
					c-1,2.1-1,4.6-2.1,6.7c-0.7,1.3,0.5,3.5,2.2,2.8c2.3-0.9,5-0.6,7.4-1.5c2.2-0.8,4.3-1.8,6.3-2.8c4.1-2,9-5.1,12-8.6
					C1148.5,1327.9,1149.3,1323.2,1146.3,1319.4z"/>
				<path class="st5" d="M1285.3,1351.3c-1.4-1.7-3.6-3-5.6-4c-2-1.1-3.9-2.4-5.9-3.3c-4.4-2.1-9.2-2.5-14.1-2.4
					c-4.8,0.1-9.5,0.6-13.6,3.3c-3.7,2.4-7.5,5-10.2,8.5c-0.6,0.7-0.3,2.2,0.9,2.1c3.7-0.4,7.3-1,11.1-0.7c4,0.3,7.8,0,11.9,0
					c4,0,7.9,0.8,11.9,0.7c1.8,0,3.2,0,5,0.4c2.1,0.5,4.1,1.2,6.2,1.4C1286.1,1357.6,1287,1353.4,1285.3,1351.3z"/>
				<path class="st5" d="M1288.7,1374.9c-2.9-4-8-6.8-11.9-9.7c-2.1-1.5-4.2-3.1-6.3-4.6c-0.9-0.7-1.9-1.6-2.9-2.1
					c-1.4-0.7-3.1-1-4.5-1.7c-1.6-0.8-3.1,1.1-1.9,2.4c1.1,1.2,1.8,2.7,2.8,3.9c0.8,0.9,1.9,1.5,2.8,2.3c2,1.6,4,3.3,6.1,4.9
					c3.8,3.1,7.8,7.3,12.4,9.1C1287.7,1380.2,1290.2,1377,1288.7,1374.9z"/>
				<path class="st5" d="M754.9,1214.4c-0.8-1.4-3-0.8-3,0.8c-0.2,13.8,1.6,27.5-0.6,41.2c-2.2,13.5-6.5,26.6-15.4,37.2
					c-2.6,3.2-2.8,7.6,0.7,10.3c3,2.3,8.4,1.9,10.1-1.9c6.3-13.8,11.8-28.5,13.8-43.6C762.5,1243.9,762.6,1227.4,754.9,1214.4z"/>
				<g>
					<path class="st6" d="M860.2,1482.4c-44-138.5-112.6-280-233.2-314c32.9,133.7,49.7,271.9,79.4,394.1l191.3,110.7
						C894.8,1598.5,881.6,1549.5,860.2,1482.4z"/>
					<path class="st3" d="M864.4,1487.2c-59.9-112.6-170.6-196.9-295.1-224.6c21.1,106.4,53.9,209.3,97.6,308.7l230.8,101.9
						C886.2,1612.4,893.5,1541.8,864.4,1487.2z"/>
					<path class="st6" d="M540.1,1379.4l8.7-49.5c0,0,232.2,13.7,311.4,152.4c0,0,271.4-187.2,483.2-152.4c0,0,1.1,24.2,16.3,55.7
						l-19.8,201.8L838.5,1661L540.1,1379.4z"/>
					<path class="st8" d="M882.1,1511.4c-16.8-1.6-28.3-4.1-45.2-5.6c-79.4-87.2-198.7-136.6-316.6-131
						c46.2,88.7,91.3,176.1,137.5,264.7c84.2,1.9,183.1,51.1,220.6,126.5c21,3.4,17.7,8.3,38.6,11.7
						c124.8-98.8,294.8-141.4,452.3-118.4l6.4-280.1C1204.6,1360.4,1023.4,1412.9,882.1,1511.4z"/>
					<path class="st9" d="M859.5,1508.6L859.5,1508.6c-7.1-1-14.2-2-22.6-2.8c-79.4-87.2-198.7-136.6-316.6-131
						c46.2,88.7,91.3,176.1,137.5,264.7c84.2,1.9,183.1,51.1,220.6,126.5c6.5,1,10.7,2.2,14,3.5L859.5,1508.6z"/>
					<polygon class="st5" points="836.9,1505.8 878.5,1766.1 917.1,1777.8 882.1,1511.4 					"/>
				</g>
				<g>
					<path class="st6" d="M597.8,657.2c8.6,34.1,38.5,58.7,69.9,74.5s65.8,25.2,96.3,42.7c30.5,17.5,57.8,46.1,60.6,81.1
						c32.8-49.9,48.3-110.3,36.4-168.9c-38.8-26.5-89.9-21.2-135.3-33.4c-51.7-13.9-94.5-56.9-108.1-108.6
						C610.4,580.7,588.8,621.4,597.8,657.2z"/>
					<path class="st3" d="M618.7,614.4c-9.8,8.4-17.1,20-22.5,33.3c0.4,3.2,0.9,6.3,1.7,9.5c7.8,30.8,33.1,54,61.1,69.8
						C625.3,677.1,618.7,614.4,618.7,614.4z"/>
				</g>
				<g>
					<path class="st6" d="M1313.8,816c-11.9,99.6-74.1,191.8-161.9,240.1L1275,1041c119-87.3,197.3-227.9,208.9-375.1
						C1470.2,747.1,1395.9,810.8,1313.8,816z"/>
					<path class="st3" d="M1371,911.8c-52.7,61.3-123.2,111.4-200.1,132.9c-6.2,4-12.5,7.8-19,11.4L1275,1041
						c91.3-67,158.7-165.4,190.3-274C1439,818.7,1408.8,867.9,1371,911.8z"/>
				</g>
				<path class="st7" d="M631.6,1024c-7.4-12.8-16.5-24.4-27.6-34.2c-1.9,4.3-0.8,9.4,1.2,13.7c2,4.3,4.8,8.2,6.5,12.6
					c3.2,8.4,2,17.7,0.8,26.5c-1.2,8.9-2.4,18.2,0.7,26.6c1,2.6,2.5,5.1,4.5,7.2c3.6-1.8,7-3.9,10.3-6.2c-1.3-5.8-1.4-12.1,0.7-18.8
					C630.7,1044.9,631.5,1034.7,631.6,1024z"/>
			</g>
			<g>
				<path class="st6" d="M525.9,758.2c9.4,0,17.1-7.7,17.1-17.1c0-9.4-7.7-17.1-17.1-17.1c-9.4,0-17.1,7.7-17.1,17.1
					C508.9,750.5,516.5,758.2,525.9,758.2z M525.9,729.9c6.2,0,11.3,5,11.3,11.3c0,6.2-5,11.3-11.3,11.3s-11.3-5-11.3-11.3
					C514.7,734.9,519.7,729.9,525.9,729.9z"/>
				<path class="st6" d="M511.8,957.7c-30.9,0-56,25.1-56,56c0,30.9,25.1,56,56,56s56-25.1,56-56
					C567.8,982.8,542.7,957.7,511.8,957.7z M511.8,1050.6c-20.4,0-36.9-16.6-36.9-36.9s16.6-36.9,36.9-36.9
					c20.4,0,36.9,16.6,36.9,36.9S532.1,1050.6,511.8,1050.6z"/>
				<path class="st6" d="M744.5,908.7c-9.4,0-17.1,7.7-17.1,17.1c0,9.4,7.7,17.1,17.1,17.1c9.4,0,17.1-7.7,17.1-17.1
					C761.6,916.3,753.9,908.7,744.5,908.7z M744.5,937c-6.2,0-11.3-5-11.3-11.3s5-11.3,11.3-11.3s11.3,5,11.3,11.3
					S750.7,937,744.5,937z"/>
				<path class="st6" d="M744.5,852.2c-9.4,0-17.1,7.7-17.1,17.1s7.7,17.1,17.1,17.1c9.4,0,17.1-7.7,17.1-17.1
					S753.9,852.2,744.5,852.2z M744.5,880.5c-6.2,0-11.3-5-11.3-11.3c0-6.2,5-11.3,11.3-11.3s11.3,5,11.3,11.3
					C755.8,875.4,750.7,880.5,744.5,880.5z"/>
				<path class="st6" d="M1117.6,565.4c-9.4,0-17.1,7.7-17.1,17.1s7.7,17.1,17.1,17.1c9.4,0,17.1-7.7,17.1-17.1
					S1127,565.4,1117.6,565.4z M1117.6,593.8c-6.2,0-11.3-5-11.3-11.3c0-6.2,5-11.3,11.3-11.3c6.2,0,11.3,5,11.3,11.3
					C1128.8,588.7,1123.8,593.8,1117.6,593.8z"/>
				<path class="st6" d="M1117.6,509c-9.4,0-17.1,7.7-17.1,17.1c0,9.4,7.7,17.1,17.1,17.1c9.4,0,17.1-7.7,17.1-17.1
					C1134.6,516.6,1127,509,1117.6,509z M1117.6,537.3c-6.2,0-11.3-5-11.3-11.3s5-11.3,11.3-11.3c6.2,0,11.3,5,11.3,11.3
					S1123.8,537.3,1117.6,537.3z"/>
				<path class="st6" d="M1166,509c-9.4,0-17.1,7.7-17.1,17.1c0,9.4,7.7,17.1,17.1,17.1c9.4,0,17.1-7.7,17.1-17.1
					C1183,516.6,1175.4,509,1166,509z M1166,537.3c-6.2,0-11.3-5-11.3-11.3s5-11.3,11.3-11.3c6.2,0,11.3,5,11.3,11.3
					S1172.2,537.3,1166,537.3z"/>
				<path class="st6" d="M1166,565.4c-9.4,0-17.1,7.7-17.1,17.1s7.7,17.1,17.1,17.1c9.4,0,17.1-7.7,17.1-17.1
					S1175.4,565.4,1166,565.4z M1166,593.8c-6.2,0-11.3-5-11.3-11.3c0-6.2,5-11.3,11.3-11.3c6.2,0,11.3,5,11.3,11.3
					C1177.2,588.7,1172.2,593.8,1166,593.8z"/>
				<path class="st6" d="M838.9,563.7c-9.4,0-17.1,7.7-17.1,17.1s7.7,17.1,17.1,17.1c9.4,0,17.1-7.7,17.1-17.1
					S848.3,563.7,838.9,563.7z M838.9,592c-6.2,0-11.3-5-11.3-11.3s5-11.3,11.3-11.3c6.2,0,11.3,5,11.3,11.3S845.1,592,838.9,592z"
					/>
				<path class="st6" d="M887.3,563.7c-9.4,0-17.1,7.7-17.1,17.1s7.7,17.1,17.1,17.1c9.4,0,17.1-7.7,17.1-17.1
					S896.7,563.7,887.3,563.7z M887.3,592c-6.2,0-11.3-5-11.3-11.3s5-11.3,11.3-11.3c6.2,0,11.3,5,11.3,11.3S893.5,592,887.3,592z"
					/>
				<path class="st6" d="M887.3,620.2c-9.4,0-17.1,7.7-17.1,17.1c0,9.4,7.7,17.1,17.1,17.1c9.4,0,17.1-7.7,17.1-17.1
					C904.4,627.8,896.7,620.2,887.3,620.2z M887.3,648.5c-6.2,0-11.3-5-11.3-11.3c0-6.2,5-11.3,11.3-11.3c6.2,0,11.3,5,11.3,11.3
					C898.6,643.4,893.5,648.5,887.3,648.5z"/>
				<path class="st6" d="M1538.1,925.2c0-14.8-12-26.8-26.8-26.8c-14.8,0-26.8,12-26.8,26.8c0,14.8,12,26.8,26.8,26.8
					C1526.1,952,1538.1,940,1538.1,925.2z M1511.3,946.2c-11.6,0-21-9.4-21-21c0-11.6,9.4-21,21-21c11.6,0,21,9.4,21,21
					C1532.3,936.8,1522.9,946.2,1511.3,946.2z"/>
				<path class="st6" d="M1511.3,856.5c14.8,0,26.8-12,26.8-26.8s-12-26.8-26.8-26.8c-14.8,0-26.8,12-26.8,26.8
					S1496.5,856.5,1511.3,856.5z M1511.3,808.7c11.6,0,21,9.4,21,21c0,11.6-9.4,21-21,21c-11.6,0-21-9.4-21-21
					C1490.2,818.1,1499.7,808.7,1511.3,808.7z"/>
				<path class="st6" d="M1593.1,802.9c-14.8,0-26.8,12-26.8,26.8s12,26.8,26.8,26.8c14.8,0,26.8-12,26.8-26.8
					S1607.9,802.9,1593.1,802.9z M1593.1,850.7c-11.6,0-21-9.4-21-21c0-11.6,9.4-21,21-21s21,9.4,21,21
					C1614.1,841.3,1604.7,850.7,1593.1,850.7z"/>
				<path class="st6" d="M433.7,1179.5c-15.4,0-28,12.6-28,28c0,15.4,12.6,28,28,28c15.4,0,28-12.6,28-28
					C461.7,1192.1,449.1,1179.5,433.7,1179.5z M433.7,1226c-10.2,0-18.5-8.3-18.5-18.5c0-10.2,8.3-18.5,18.5-18.5
					c10.2,0,18.5,8.3,18.5,18.5C452.1,1217.7,443.9,1226,433.7,1226z"/>
				<path class="st6" d="M433.7,1086.8c-15.4,0-28,12.6-28,28c0,15.4,12.6,28,28,28c15.4,0,28-12.6,28-28
					C461.7,1099.4,449.1,1086.8,433.7,1086.8z M433.7,1133.3c-10.2,0-18.5-8.3-18.5-18.5c0-10.2,8.3-18.5,18.5-18.5
					c10.2,0,18.5,8.3,18.5,18.5C452.1,1125,443.9,1133.3,433.7,1133.3z"/>
				<path class="st6" d="M513.1,1086.8c-15.4,0-28,12.6-28,28c0,15.4,12.6,28,28,28c15.4,0,28-12.6,28-28
					C541.1,1099.4,528.6,1086.8,513.1,1086.8z M513.1,1133.3c-10.2,0-18.5-8.3-18.5-18.5c0-10.2,8.3-18.5,18.5-18.5
					c10.2,0,18.5,8.3,18.5,18.5C531.6,1125,523.3,1133.3,513.1,1133.3z"/>
				<path class="st6" d="M1455.3,1022c-18.8,0-34.2,15.3-34.2,34.2s15.3,34.2,34.2,34.2c18.8,0,34.2-15.3,34.2-34.2
					S1474.1,1022,1455.3,1022z M1455.3,1078.7c-12.4,0-22.5-10.1-22.5-22.5s10.1-22.5,22.5-22.5s22.5,10.1,22.5,22.5
					S1467.7,1078.7,1455.3,1078.7z"/>
				<path class="st6" d="M1552.2,1022c-18.8,0-34.2,15.3-34.2,34.2s15.3,34.2,34.2,34.2c18.8,0,34.2-15.3,34.2-34.2
					S1571,1022,1552.2,1022z M1552.2,1078.7c-12.4,0-22.5-10.1-22.5-22.5s10.1-22.5,22.5-22.5s22.5,10.1,22.5,22.5
					S1564.6,1078.7,1552.2,1078.7z"/>
			</g>
		</g>
	</g>
</g>
</svg>
