<?xml version="1.0" encoding="UTF-8"?>
<svg id="Layer_2" data-name="Layer 2" xmlns="http://www.w3.org/2000/svg" viewBox="0 0 568.73 500">
  <defs>
    <style>
      .cls-1 {
        fill: #36c;
        stroke-width: 0px;
      }
    </style>
  </defs>
  <g id="Layer_1-2" data-name="Layer 1">
    <path class="cls-1" d="m522.79,46.42C493.01,16.64,453.58.36,411.5.36s-81.63,16.4-111.41,46.18l-15.55,15.55-15.79-15.79C238.97,16.52,199.3,0,157.22,0S75.72,16.4,46.06,46.06C16.28,75.84-.12,115.38,0,157.46,0,199.54,16.52,238.97,46.3,268.75l226.43,226.43c3.13,3.13,7.35,4.82,11.45,4.82s8.32-1.57,11.45-4.7l226.91-226.07c29.78-29.78,46.18-69.33,46.18-111.41.12-42.08-16.16-81.63-45.94-111.41Z"/>
  </g>
</svg>