<?xml version="1.0" encoding="UTF-8"?>
<svg id="Layer_2" data-name="Layer 2" xmlns="http://www.w3.org/2000/svg" viewBox="0 0 470.43 500">
  <defs>
    <style>
      .cls-1 {
        fill: #1b1b1b;
        stroke-width: 0px;
      }
    </style>
  </defs>
  <g id="Layer_1-2" data-name="Layer 1">
    <g>
      <path class="cls-1" d="m202.9,500c-15.37-5.45-21.78-16.43-20.4-32.48.44-5.13-.14-10.35.2-15.49.85-12.93,10.63-22.97,23.66-23.2,23.25-.41,46.58-1.11,69.72.48,7.1.49,16.12,6.54,20.1,12.72,12.06,18.71,3.62,47.18-15.5,57.97h-77.78Zm70.11-27.1v-16.99h-63.3v16.99h63.3Z"/>
      <path class="cls-1" d="m245.12,0c6.67,3.84,9.52,9.29,9.27,17.26-.5,16.24-.31,32.51-.09,48.77.13,9.33-3.87,15.47-13.25,15.44-8.75-.03-13.13-6.22-13.23-14.72-.21-17.36-.68-34.77.34-52.07C228.45,9.64,233.41,4.88,236.23,0c2.96,0,5.93,0,8.89,0Z"/>
      <path class="cls-1" d="m241.26,415.72c-12.96,0-25.93.26-38.88-.06-17.7-.45-29.28-11.01-28.06-28.67,1.53-22.05-8.02-38.49-21.77-53.69-19.85-21.94-35.82-45.65-41.97-75.52-16.21-78.7,45.55-156.69,125.85-158.02,80.3-1.33,141.21,60.78,137.46,140.88-1.3,27.68-11.32,52.56-28.7,74.29-8.55,10.69-17.41,21.14-25.87,31.9-8.52,10.84-12.41,22.97-11.8,37.12.99,22.9-7.98,31.65-30.71,31.81-11.85.08-23.7.01-35.55.01,0-.02,0-.04,0-.06Zm40.42-26.99c-2.59-22.34,3.73-41.56,16.94-58.52,7.5-9.62,15.37-18.95,23.14-28.36,22.64-27.42,30.6-58.55,23.15-93.33-11.66-54.46-67.16-91.18-122.33-81.22-55.61,10.04-94.25,63.01-87.02,118.25,3.32,25.37,15.26,45.97,31.99,64.38,19.87,21.87,35.95,45.32,33.47,76.9-.04.54.8,1.14,1.37,1.9h79.28Z"/>
      <path class="cls-1" d="m422.71,70.25c-2.86,4.81-4.27,8.76-6.95,11.41-12.61,12.45-25.51,24.63-38.45,36.74-6.27,5.87-13.33,6.81-19.55.35-6.39-6.63-4.56-13.49,1.6-19.44,12.74-12.33,25.23-24.96,38.61-36.56,3.45-2.99,10.3-4.41,14.72-3.25,3.85,1.02,6.48,6.69,10.03,10.74Z"/>
      <path class="cls-1" d="m122.35,107.69c-2.44,3.18-4.48,8.25-8.08,9.87-3.65,1.65-10.41,1.69-13.09-.66-15-13.13-29.43-26.96-43.5-41.09-5.02-5.04-5.13-12.74.68-16.64,4.25-2.85,13.45-4.55,16.43-2.03,15.47,13.1,29.73,27.65,44.18,41.92,1.63,1.61,1.87,4.62,3.38,8.63Z"/>
      <path class="cls-1" d="m39.01,222.39c-8.87.01-17.74.14-26.61-.02-8.07-.15-13.39-5.23-12.25-12.45.79-4.96,6.41-12.78,10.27-13.02,19.1-1.19,38.38-1.02,57.45.51,3.81.31,9.94,8.88,9.58,13.19-.35,4.23-7.1,10.21-11.95,11.27-8.47,1.85-17.63.52-26.5.53Z"/>
      <path class="cls-1" d="m431.25,222.44c-8.5,0-17,.06-25.5-.02-8.41-.08-13.4-4.68-13.74-12.79-.33-7.83,4.98-12.86,12.28-13.15,18.07-.72,36.2-.82,54.28-.22,7.41.25,12.21,5.46,11.83,13.41-.4,8.34-5.3,12.66-13.66,12.75-8.5.09-17,.02-25.5.02Z"/>
    </g>
  </g>
</svg>