<?xml version="1.0" encoding="UTF-8"?>
<svg id="Layer_2" data-name="Layer 2" xmlns="http://www.w3.org/2000/svg" viewBox="0 0 511.73 511.73">
  <defs>
    <style>
      .cls-1 {
        stroke-width: 0px;
      }
    </style>
  </defs>
  <g id="Layer_1-2" data-name="Layer 1">
    <g>
      <path class="cls-1" d="m0,440.77V35.98c.42-1.21.89-2.4,1.25-3.63C5.56,17.24,15.04,7.03,29.98,1.98c2-.67,4-1.32,6-1.98,100.61,0,201.23,0,301.84,0,15.54,5.25,20.91,16.36,20.51,32.3-.68,27.12-.19,54.27-.19,81.41v5.65c19.14,6.06,25.65,15.02,25.65,34.64,0,20.81,0,41.62,0,62.44v24.92c15.77-5.66,28.37-1.61,37.95,11.34,17.03-9.19,27.98-7.01,42.81,8.37.69-.34,1.43-.69,2.15-1.07,18.01-9.5,37.86-1.27,43.92,18.2.28.91.74,1.77,1.11,2.65v105.94c-2.18,8.83-3.67,17.91-6.68,26.45-7.04,20-11.02,40.39-10.38,61.63.06,1.83.03,3.66.03,5.49.02,18.18-4.26,24.58-20.95,31.36h-120.94c-.53-.33-1.03-.77-1.6-.98-12.42-4.47-18.41-12.85-18.51-25.99-.02-2.26,0-4.52,0-7.1h-7.17c-92.09,0-184.18-.39-276.26.24-26.48.18-44.74-14.22-48.95-36.22-.06-.32-.21-.62-.32-.93Zm324.01-168.05c0-2.53,0-4.51,0-6.5,0-37.98.01-75.95,0-113.93,0-11.4,4.01-20.91,13.52-27.46,2.92-2.01,3.61-4.13,3.6-7.36-.1-29.31-.05-58.63-.06-87.94,0-10.27-2.28-12.5-12.68-12.5-93.94,0-187.88,0-281.82,0-19.54,0-29.54,9.97-29.54,29.46,0,116.09,0,232.18,0,348.28v6.48c11.95-9.53,25.16-8.93,38.34-8.92,73.95.07,147.91.04,221.86.04h6.69c-.77-5.34-1.97-10.06-2.03-14.79-.25-21.48-.27-42.97-.18-64.45.04-8.6,3.2-16.27,8.34-23.09,8.35-11.08,19.78-16.37,33.97-17.31Zm0,17.46c-14.55.41-25.13,10.8-25.33,24.89-.26,18.31.02,36.63-.12,54.95-.13,16.87,5.85,31.16,17.52,43.2,6.26,6.46,12.51,12.92,18.74,19.4,10.06,10.47,14.96,22.99,14.91,37.49-.02,4.66-.03,9.33,0,13.99.06,7.59,3,10.58,10.59,10.6,16.15.04,32.31.01,48.46.01,19.48,0,38.97.03,58.45-.02,7.23-.02,10.29-3.15,10.42-10.37.02-1,.04-2,0-3-1.18-26.29,3.25-51.59,12.09-76.39,3.02-8.46,4.54-17.85,4.71-26.86.58-29.96.25-59.94.22-89.92,0-8.45-4.99-14.59-12.09-15.21-6.92-.6-12.24,4.47-13.61,12.97-.89,5.51-3.99,8.37-8.85,8.17-4.73-.19-7.86-3.56-8.15-8.98-.16-2.99.08-6.01-.2-8.98-.59-6.37-6.09-11.48-12.28-11.66-6.51-.19-11.77,4.29-12.81,10.89-.18,1.15-.25,2.32-.52,3.45-1.07,4.5-4.06,6.83-8.58,6.86-4.32.03-7.62-3.36-8.02-7.99-.2-2.32-.06-4.66-.13-6.99-.27-8.54-5.3-14.51-12.45-14.81-7.16-.3-11.9,4.45-13.22,13.27-.78,5.2-4.29,8.2-9.17,7.86-4.59-.32-7.54-3.6-7.8-8.72-.07-1.33-.02-2.66-.02-4,0-36.97,0-73.94,0-110.9,0-1.83.08-3.68-.14-5.49-.76-6.2-5.53-10.81-11.5-11.26-5.98-.45-11.64,3.3-13.22,9.21-.71,2.69-.81,5.59-.81,8.4-.04,66.44-.03,132.89-.04,199.33,0,2,.09,4.02-.19,5.98-.6,4.16-3.31,6.55-7.31,7.04-4.06.5-7.23-1.39-8.67-5.25-.73-1.96-.84-4.23-.84-6.36-.06-19.82-.04-39.63-.04-59.45,0-1.78,0-3.57,0-5.37Zm7.13,170.45c-1.37-8.25-6.16-13.49-11.02-18.76-8.57-9.29-17.3-18.45-25.36-28.17-2.54-3.06-4.66-4.33-8.52-4.33-80.09.1-160.18.07-240.27.08-2.16,0-4.34.02-6.48.23-14.24,1.38-24.79,15.62-22.04,29.67,2.62,13.39,12.89,21.26,27.88,21.26,93.41.01,186.82,0,280.23,0h5.58Z"/>
      <path class="cls-1" d="m179.07,247.3c-30.14,0-60.29-.43-90.42.16-17.89.35-29.34-12.31-29.07-29.16.64-40.46.61-80.94.02-121.39-.25-17.1,11.8-29.01,28.88-28.91,60.45.36,120.9.13,181.35.15,18.37,0,28.75,10.4,28.76,28.83.02,40.47.02,80.93,0,121.4,0,18.82-10.15,28.91-29.09,28.92-30.14.02-60.28,0-90.42,0Zm-.07-17.09c30.3,0,60.61.01,90.91,0,8.92,0,11.59-2.69,11.6-11.65.02-40.46.02-80.92,0-121.38,0-9.24-2.72-11.97-11.9-11.97-60.27-.01-120.55-.01-180.82,0-9.38,0-11.96,2.55-11.96,11.77,0,40.46,0,80.92,0,121.38,0,9.43,2.38,11.84,11.75,11.85,30.14.02,60.27,0,90.41,0Z"/>
      <path class="cls-1" d="m179.38,289.92c-25.15,0-50.3-.03-75.45.03-4.2.01-7.56-1.16-9.35-5.21-2.23-5.04.95-10.74,6.55-11.69,1.62-.28,3.32-.16,4.99-.16,48.63,0,97.27,0,145.9,0,1.17,0,2.34-.05,3.5.02,5.25.32,8.7,3.62,8.79,8.37.09,4.93-3.49,8.56-8.97,8.59-15.32.1-30.65.04-45.97.05-9.99,0-19.99,0-29.98,0Z"/>
      <path class="cls-1" d="m179.02,324.01c-19.13,0-38.27.02-57.4-.01-6.93-.01-10.64-2.98-10.68-8.38-.04-5.34,3.88-8.63,10.56-8.64,38.43-.03,76.87-.03,115.3,0,6.69,0,10.48,3.3,10.38,8.76-.1,5.24-3.74,8.25-10.25,8.26-19.3.04-38.6.01-57.9.01Z"/>
      <path class="cls-1" d="m170.46,196.1v-42.19c-2.4-.11-4.64-.24-6.88-.33-6.38-.25-9.99-3.43-9.91-8.75.08-5.15,3.53-8.17,9.73-8.31,4.65-.11,9.31-.1,13.97,0,7.28.14,10.29,3.11,10.32,10.41.07,14.8.02,29.6.02,44.4,0,1.32,0,2.63,0,4.76,2.68,0,5.09-.09,7.49.02,5.78.25,9.62,3.84,9.49,8.77-.13,4.81-3.78,8.16-9.39,8.22-10.81.1-21.62.11-32.43,0-5.73-.06-9.12-3.28-9.19-8.29-.07-4.99,3.33-8.36,8.92-8.69,2.46-.14,4.94-.02,7.87-.02Z"/>
      <path class="cls-1" d="m170.68,111.62c.05-5.4,3.49-9.19,8.36-9.23,5.03-.04,8.75,4.07,8.66,9.57-.08,5.31-3.61,9.1-8.51,9.15-5.22.05-8.57-3.69-8.52-9.48Z"/>
    </g>
  </g>
</svg>