<?xml version="1.0" encoding="UTF-8"?>
<svg id="Layer_2" data-name="Layer 2" xmlns="http://www.w3.org/2000/svg" viewBox="0 0 466 716.4">
  <defs>
    <style>
      .cls-1 {
        fill: none;
        stroke: #fff;
        stroke-linecap: round;
        stroke-linejoin: round;
        stroke-width: 45px;
      }

      .cls-2 {
        fill: #fff;
        stroke-width: 0px;
      }
    </style>
  </defs>
  <g id="Layer_1-2" data-name="Layer 1">
    <g>
      <path class="cls-2" d="m161.11,605.98c-27.08,0-49.03-21.95-49.03-49.05s21.95-49.03,49.03-49.03,49.03,21.95,49.03,49.03-21.93,49.05-49.03,49.05"/>
      <path class="cls-2" d="m304.88,605.98c-27.08,0-49.03-21.95-49.03-49.05s21.95-49.03,49.03-49.03,49.03,21.95,49.03,49.03-21.93,49.05-49.03,49.05"/>
      <path class="cls-2" d="m50.54,367.5c0-36.72,29.85-66.44,66.44-66.44h232.03c36.59,0,66.42,29.72,66.42,66.44v231.93c0,36.7-29.83,66.42-66.42,66.42H116.98c-36.59,0-66.44-29.72-66.44-66.42v-231.93Zm298.48-116.98H116.98C52.45,250.52,0,303,0,367.5v231.93c0,64.51,52.45,116.96,116.98,116.96h232.03c64.4,0,116.98-52.45,116.98-116.96v-231.93c0-64.51-52.58-116.98-116.98-116.98"/>
    </g>
    <path class="cls-1" d="m63.75,22.5l48,192h224l48-192-96,112L223.75,22.5l-64,112L63.75,22.5Z"/>
  </g>
</svg>