<?xml version="1.0" encoding="UTF-8"?>
<svg id="Layer_2" data-name="Layer 2" xmlns="http://www.w3.org/2000/svg" viewBox="0 0 511.73 379.69">
  <defs>
    <style>
      .cls-1 {
        stroke-width: 0px;
      }
    </style>
  </defs>
  <g id="Layer_1-2" data-name="Layer 1">
    <g>
      <path class="cls-1" d="m16.65,249.36c-22.01-17.98-22.26-52.39.13-70.6-6.25-5.33-11.03-11.71-13.92-19.44-8.38-22.41,2.26-47.54,24.42-57.09,23.02-9.93,46.12-19.66,69.19-29.47,43.14-18.36,86.27-36.72,129.41-55.08,12.83-5.46,25.72-10.78,38.45-16.48,5.08-2.28,9.78-.77,14.59.22,29.57,6.09,59.13,12.25,88.69,18.41,33.64,7.01,67.28,14.05,100.92,21.07,11.41,2.38,22.84,4.71,34.24,7.13,5.11,1.09,8.32,4.41,8.76,8.77.53,5.33-1.71,9.17-6.79,11.49-29.99,13.67-59.98,27.32-89.97,41-41.02,18.72-82.13,37.26-122.96,56.38-7.09,3.32-13.3,1.92-19.98.53-26.82-5.55-53.65-11.12-80.46-16.71-29.29-6.1-58.57-12.25-87.86-18.34-18.23-3.79-36.47-7.56-54.72-11.26-12.28-2.49-25.55,7.01-27.35,19.46-1.96,13.55,5.56,24.73,18.91,27.71,11.38,2.54,22.82,4.8,34.23,7.17.33.07.68.08,1.16.13.75-7.56,3.36-14.3,7.66-20.43,1.07-1.52,2.12-2.04,4-1.65,18.49,3.9,37,7.71,55.5,11.56.62.13,1.21.36,2.13.65-4.8,6.83-7.66,14.3-8.02,22.78,6.9,1.43,13.68,2.82,20.47,4.23,27.61,5.75,55.22,11.5,82.83,17.24,13.28,2.76,26.55,5.57,39.84,8.24,1.22.25,2.75-.02,3.91-.55,53.31-24.29,106.6-48.65,159.89-72.99,17.38-7.94,34.75-15.89,52.14-23.8,5.11-2.33,10.21-1.26,13.29,2.66,2.98,3.78,3.19,9.08.14,12.83-1.2,1.48-2.94,2.72-4.69,3.52-44.77,20.53-89.57,40.99-134.37,61.45-27.1,12.38-54.23,24.71-81.31,37.14-3.19,1.46-6.28,1.85-9.73,1.13-37.15-7.82-74.32-15.57-111.48-23.33-9.65-2.01-19.29-4.01-28.95-6-.53-.11-1.08-.08-1.79-.13v48.89c11.64,2.43,23.29,4.87,34.95,7.29,28.5,5.93,57,11.86,85.5,17.78,7.52,1.56,15.04,3.13,22.59,4.58,1.12.22,2.51.06,3.55-.41,28.53-12.95,57.03-25.95,85.53-38.96,42.09-19.22,84.2-38.4,126.24-57.72,7.49-3.44,13.35.33,15.33,5.02,2.22,5.26-.1,11.14-5.55,13.64-16.62,7.63-33.25,15.22-49.89,22.82-34.43,15.71-68.86,31.42-103.29,47.13-21.34,9.74-42.7,19.45-64.01,29.28-4.39,2.03-8.56.63-12.75-.23-34-7-67.98-14.08-101.96-21.16-40.61-8.47-81.23-16.93-121.83-25.46-13.97-2.93-26.29,4.16-29.79,17.34-3.45,13,4.93,26.67,18.13,29.42,37.79,7.86,75.59,15.65,113.38,23.51,38.05,7.92,76.08,15.89,114.13,23.83,3.89.81,7.78,1.72,11.71,2.26,1.75.24,3.83.16,5.4-.56,52.35-23.79,104.65-47.67,156.96-71.54,18.21-8.31,36.41-16.63,54.61-24.95,5.82-2.66,12.09-.59,14.6,4.8,2.55,5.48.22,11.49-5.72,14.21-31.79,14.55-63.6,29.05-95.4,43.57-40.2,18.35-80.42,36.65-120.56,55.14-5.28,2.43-10.1.8-15.08-.23-27.62-5.69-55.23-11.44-82.84-17.18-23.98-4.99-47.96-10-71.94-14.99-22.32-4.64-44.64-9.25-66.95-13.91-6.63-1.38-13.34-2.52-19.85-4.36C13.35,322.41.35,305.11.12,285.4c-.16-14.11,5.26-25.7,15.7-35.05.27-.24.53-.49.78-.75.05-.05.03-.16.05-.24ZM466.96,62.4c-.01-.17-.03-.35-.04-.52-.53-.07-1.06-.1-1.58-.21-29.37-6.14-58.73-12.3-88.1-18.42-34.77-7.25-69.55-14.47-104.34-21.63-1.15-.24-2.56-.02-3.66.43-6.45,2.64-12.84,5.41-19.25,8.14-49.87,21.24-99.74,42.47-149.61,63.71-7.73,3.29-15.45,6.59-23.96,10.22,6.32,1.29,11.84,2.4,17.36,3.55,33.71,7.03,67.41,14.08,101.11,21.1,27.78,5.79,55.56,11.58,83.36,17.3,1.68.35,3.74.64,5.2,0,12.02-5.29,23.94-10.8,35.88-16.25,39.52-18.04,79.04-36.08,118.56-54.13,9.69-4.43,19.37-8.87,29.06-13.31ZM75.36,195.85c-6.35-1.3-12.6-2.74-18.91-3.81-4.77-.81-9.69-1.89-14.44-1.53-11.56.89-20.35,10.72-21.07,22.6-.65,10.81,7.11,21.54,17.77,24.14,6.93,1.69,13.96,2.97,20.94,4.43,5.18,1.08,10.36,2.17,15.71,3.29v-49.12Zm52.22,59.98c-7.27-9.88-14.26-19.37-21.35-29-7.16,6.77-14.09,13.32-21.3,20.13,14.39,3,28.25,5.88,42.64,8.87Z"/>
      <path class="cls-1" d="m403.28,69.33c-9.36,4.28-18.27,8.03-26.84,12.44-3.92,2.02-7.46,1.41-11.24.62-34.87-7.24-69.74-14.5-104.61-21.75-6.37-1.32-12.75-2.62-19.11-3.95-.23-.05-.42-.3-.8-.59,10.61-4.52,21.06-9.01,31.57-13.37,1.04-.43,2.48-.18,3.66.06,33.2,6.87,66.39,13.77,99.58,20.68,9.02,1.88,18.03,3.8,27.79,5.86Z"/>
    </g>
  </g>
</svg>