<svg width="800" height="212" viewBox="0 0 802 212" fill="none" xmlns="http://www.w3.org/2000/svg">
<path d="M444.983 0.0515438H461.697L505.803 66.3531V0.0515438H521.95V92.6984H505.391L461.13 26.3969V92.6984H444.983V0.0515438Z" fill="black"/>
<path d="M552.747 64.3424C553.418 73.7257 560.279 81.4076 570.905 81.4076C580.294 81.4076 585.092 75.427 586.949 70.6839L600.052 75.8395C595.667 86.0477 587.207 94.5029 570.905 94.5029C551.56 94.5029 537.684 79.964 537.684 59.5477C537.684 39.5438 551.457 24.7471 570.802 24.7471C590.25 24.7471 601.805 38.358 601.805 58.2072V64.2909H552.747V64.3424ZM570.905 37.4815C560.072 37.4815 554.346 44.2354 552.902 52.4329H587.722C587.31 46.2461 582.564 37.4815 570.905 37.4815Z" fill="black"/>
<path d="M654.114 92.6984L638.638 70.8901L623.162 92.6984H605.623L629.611 59.3414L605.932 26.6546H623.678L638.638 47.6897L653.598 26.6546H671.086L647.666 59.1867L671.756 92.6469H654.114V92.6984Z" fill="black"/>
<path d="M690.534 74.2928V40.5233H678.772V26.6546H690.534V12.6313L706.422 8.14588V26.6546H727.728V40.5233H706.422V72.5398C706.422 76.355 708.434 79.964 714.625 79.964C719.938 79.964 724.013 78.1079 726.025 77.0768L729.224 90.069C726.335 91.7704 720.351 94.4513 711.736 94.4513C698.633 94.3998 690.534 87.3881 690.534 74.2928Z" fill="black"/>
<path d="M439.309 182.561L454.785 178.179C457.415 188.903 463.245 196.688 476.245 196.688C486.82 196.688 494.403 191.79 494.403 183.696C494.403 176.529 488.728 172.869 475.987 170.342C459.582 167.146 443.281 161.629 443.126 143.069C443.126 126.107 456.9 115.28 475.832 115.28C493.578 115.28 505.081 124.663 509.311 141.729L494.093 145.956C491.566 135.903 485.736 129.922 475.935 129.922C466.134 129.922 459.273 134.304 459.376 141.832C459.376 149.926 468.249 152.143 478.721 154.411C495.693 158.227 510.756 163.949 510.756 182.871C510.756 200.606 495.538 211.588 475.78 211.588C456.642 211.691 443.694 201.482 439.309 182.561Z" fill="black"/>
<path d="M536.652 181.633C537.323 191.017 544.184 198.698 554.81 198.698C564.199 198.698 568.997 192.718 570.854 187.975L583.957 193.13C579.572 203.339 571.112 211.794 554.81 211.794C535.466 211.794 521.589 197.255 521.589 176.839C521.589 156.835 535.362 142.038 554.707 142.038C574.155 142.038 585.711 155.649 585.711 175.498V181.582H536.652V181.633ZM554.759 154.772C543.926 154.772 538.2 161.526 536.755 169.724H571.576C571.163 163.537 566.417 154.772 554.759 154.772Z" fill="black"/>
<path d="M659.273 170.961V209.989H643.384V172.817C643.384 161.062 637.813 156.783 630.281 156.783C621.563 156.783 614.908 163.537 614.908 175.034V209.989H599.02V143.946H615.166V152.968C619.293 146.73 626.154 142.399 635.44 142.399C650.4 142.347 659.273 151.731 659.273 170.961Z" fill="black"/>
<path d="M671.653 190.14L686.459 186.944C688.058 194.368 692.701 198.338 699.561 198.338C706.165 198.338 710.034 195.45 710.034 191.171C710.034 186.789 706.99 185.191 699.046 183.644C683.931 180.602 674.284 175.55 674.284 162.454C674.284 152.246 682.744 142.089 699.974 142.089C712.664 142.089 722.208 149.101 724.839 161.784L710.807 165.238C709.621 159.825 706.319 155.443 699.665 155.443C693.99 155.443 690.121 157.814 690.121 161.939C690.121 166.063 693.835 167.507 702.192 169.363C718.339 172.662 726.283 178.488 726.283 190.81C726.283 202.05 716.482 211.845 699.561 211.845C683.982 211.845 673.768 203.338 671.653 190.14Z" fill="black"/>
<path d="M750.941 181.633C751.612 191.017 758.473 198.698 769.1 198.698C778.489 198.698 783.286 192.718 785.143 187.975L798.246 193.13C793.861 203.339 785.401 211.794 769.1 211.794C749.755 211.794 735.878 197.255 735.878 176.839C735.878 156.835 749.652 142.038 768.997 142.038C788.445 142.038 800 155.649 800 175.498V181.582H750.941V181.633ZM769.1 154.772C758.267 154.772 752.541 161.526 751.096 169.724H785.917C785.504 163.537 780.707 154.772 769.1 154.772Z" fill="black"/>
<path d="M373.536 212C386.699 212 397.369 201.336 397.369 188.181C397.369 175.026 386.699 164.362 373.536 164.362C360.374 164.362 349.703 175.026 349.703 188.181C349.703 201.336 360.374 212 373.536 212Z" fill="black"/>
<path d="M263.193 47.6381C276.356 47.6381 287.026 36.974 287.026 23.8191C287.026 10.6642 276.356 0 263.193 0C250.031 0 239.36 10.6642 239.36 23.8191C239.36 36.974 250.031 47.6381 263.193 47.6381Z" fill="black"/>
<path d="M392.107 0C390.663 0 389.27 0.0515564 387.929 0.103113C342.791 2.06226 321.64 35.4708 308.795 69.6527C295.022 106.309 290.482 143.791 263.193 143.791C235.749 143.791 231.261 105.948 217.385 69.1372C204.591 35.1099 183.389 2.0107 138.509 0.103113C137.116 0 135.723 0 134.331 0C132.938 0 131.493 0.0515564 130.152 0.103113C85.0142 2.06226 63.8638 32.6868 51.0188 66.8171C37.2453 103.474 32.7057 143.739 5.41656 143.739H0V211.742H5.41656C6.86097 211.742 8.2538 211.691 9.59505 211.639C54.4751 209.732 78.4627 173.848 91.3077 139.873C105.184 103.061 106.887 68.0029 134.279 68.0029C161.568 68.0029 163.322 102.649 177.096 139.305C189.941 173.436 213.877 209.68 258.963 211.639C260.356 211.742 261.749 211.742 263.142 211.742C264.586 211.742 265.979 211.691 267.32 211.639C312.2 209.732 336.188 179.416 349.033 145.492C362.909 108.681 364.612 68.0029 392.004 68.0029H397.266V0H392.107Z" fill="black"/>
</svg>
