<svg id="Capa_1" data-name="Capa 1" xmlns="http://www.w3.org/2000/svg" viewBox="0 0 315.76 155.82"><defs><style>.cls-1{fill:#454444;}.cls-2{fill:#2a7de1;}</style></defs><path class="cls-1" d="M163.42,47.07q4.92,4,4.92,12.79v6q0,8.84-4.92,12.79a18.18,18.18,0,0,1-11.73,4h-8.92V102h-9.25V43.12h18.17A18.18,18.18,0,0,1,163.42,47.07ZM159,61q0-4.45-2.07-6.68a6.81,6.81,0,0,0-5.25-2.23h-8.92V73.65h8.92a6.81,6.81,0,0,0,5.25-2.23Q159,69.2,159,64.73Z"/><path class="cls-1" d="M194,62.34a9.27,9.27,0,0,1,4.5,4.88c1.1,2.38,1.64,5.76,1.64,10.13V102h-6.47L192,96.61a10.42,10.42,0,0,1-3.82,4.16,10.57,10.57,0,0,1-5.85,1.64A11.66,11.66,0,0,1,174,99.13q-3.5-3.27-3.49-10.26T174,78.57a11.61,11.61,0,0,1,8.28-3.32,13.91,13.91,0,0,1,6,1.18A7.49,7.49,0,0,1,192,80V77.35a10.23,10.23,0,0,0-1.38-5.85q-1.4-2-5.51-2H174.31L176,61h10.77A17.44,17.44,0,0,1,194,62.34ZM190.12,93c1.24-.67,1.85-2,1.85-4.12s-.61-3.45-1.85-4.12a10,10,0,0,0-4.79-1,10.37,10.37,0,0,0-4.84,1c-1.2.64-1.8,2-1.8,4.16s.6,3.45,1.8,4.12a12,12,0,0,0,9.63,0Z"/><path class="cls-1" d="M208.84,54.39a5,5,0,0,1,0-7.06,5.62,5.62,0,0,1,3.83-1.27,5.37,5.37,0,0,1,3.7,1.27,5.07,5.07,0,0,1,0,7.06,5.41,5.41,0,0,1-3.7,1.26A5.67,5.67,0,0,1,208.84,54.39ZM216.7,61v41h-8.16V61Z"/><path class="cls-1" d="M253.62,61v41.55q0,9.35-3.66,12.79t-9.71,3.44H229l-1.68-8.41h11.27q4.11,0,5.51-2a10.23,10.23,0,0,0,1.39-5.85V95.77a15.54,15.54,0,0,1-4.34,5,9.89,9.89,0,0,1-5.84,1.68,9.54,9.54,0,0,1-7-2.94q-3-2.94-2.95-8.16V71.8q0-5.22,2.95-8.2a9.48,9.48,0,0,1,7-3,9.83,9.83,0,0,1,5.84,1.69,15.54,15.54,0,0,1,4.34,5L247.15,61Zm-8.15,13.88a5.39,5.39,0,0,0-1.69-4.41,7.32,7.32,0,0,0-8.58,0,5.38,5.38,0,0,0-1.68,4.41V88.12a5.53,5.53,0,0,0,1.68,4.45,7.15,7.15,0,0,0,8.58,0,5.53,5.53,0,0,0,1.69-4.45Z"/><path class="cls-1" d="M287.1,64.48q4.29,3.87,4.29,10.68v8.75H269.1v4.21a5.67,5.67,0,0,0,1.64,4.28q1.63,1.6,5.42,1.6,7.06,0,7.07-5.88v.08l8.16,1.68a11,11,0,0,1-2,6.52,13.65,13.65,0,0,1-5.51,4.42,18.35,18.35,0,0,1-7.7,1.59,15.69,15.69,0,0,1-10.93-3.87c-2.86-2.57-4.29-6.14-4.29-10.68V75.16q0-6.81,4.29-10.68a17.38,17.38,0,0,1,21.87,0Zm-3.87,12.79V74.91q0-5.8-7.07-5.8t-7.06,5.8v2.36Z"/><path class="cls-2" d="M51.11,85.35a7.42,7.42,0,1,1,7.42-7.41A7.41,7.41,0,0,1,51.11,85.35Z"/><path class="cls-2" d="M72.85,85.35a7.42,7.42,0,1,1,7.41-7.41A7.41,7.41,0,0,1,72.85,85.35Z"/><path class="cls-2" d="M79.52,31.61H44.44A17.7,17.7,0,0,0,26.76,49.3V84.36a17.71,17.71,0,0,0,17.68,17.69H79.52A17.72,17.72,0,0,0,97.21,84.36V49.3A17.72,17.72,0,0,0,79.52,31.61ZM34.4,49.3a10.05,10.05,0,0,1,10-10H79.52a10.05,10.05,0,0,1,10,10V84.36a10,10,0,0,1-10,10H44.44a10,10,0,0,1-10-10Z"/></svg>