<svg id="Capa_1" data-name="Capa 1" xmlns="http://www.w3.org/2000/svg" viewBox="0 0 189.97 169.69"><defs><style>.cls-1{fill:#2a7de1;}</style></defs><path class="cls-1" d="M145.85,131.76h-4a1.25,1.25,0,0,1,0-2.5h.58l-.44-.37A1.25,1.25,0,1,1,143.6,127l3.06,2.57a1.25,1.25,0,0,1-.81,2.21Z"/><path class="cls-1" d="M134.42,131.76H127a1.25,1.25,0,0,1,0-2.5h7.42a1.25,1.25,0,0,1,0,2.5Zm-14.85,0h-7.43a1.25,1.25,0,1,1,0-2.5h7.43a1.25,1.25,0,0,1,0,2.5Zm-14.86,0H97.29a1.25,1.25,0,0,1,0-2.5h7.42a1.25,1.25,0,0,1,0,2.5Zm-14.85,0H82.43a1.25,1.25,0,0,1,0-2.5h7.43a1.25,1.25,0,1,1,0,2.5Zm-14.85,0H67.58a1.25,1.25,0,1,1,0-2.5H75a1.25,1.25,0,0,1,0,2.5Zm-14.86,0H52.72a1.25,1.25,0,0,1,0-2.5h7.43a1.25,1.25,0,1,1,0,2.5Z"/><path class="cls-1" d="M45.3,131.76h-4a1.25,1.25,0,0,1-.81-2.21L43.55,127a1.25,1.25,0,0,1,1.61,1.91l-.44.37h.58a1.25,1.25,0,1,1,0,2.5Z"/><path class="cls-1" d="M136.5,125h-7.8a1.25,1.25,0,1,1,0-2.5h7.8a1.25,1.25,0,0,1,0,2.5Zm-15.61,0h-7.8a1.25,1.25,0,0,1,0-2.5h7.8a1.25,1.25,0,1,1,0,2.5Zm-15.61,0h-7.8a1.25,1.25,0,1,1,0-2.5h7.8a1.25,1.25,0,0,1,0,2.5Zm-15.61,0h-7.8a1.25,1.25,0,0,1,0-2.5h7.8a1.25,1.25,0,0,1,0,2.5Zm-15.61,0h-7.8a1.25,1.25,0,0,1,0-2.5h7.8a1.25,1.25,0,0,1,0,2.5Zm-15.61,0h-7.8a1.25,1.25,0,0,1,0-2.5h7.8a1.25,1.25,0,1,1,0,2.5Z"/><path class="cls-1" d="M145.85,152.69H41.3a1.25,1.25,0,0,1-.81-2.21l8-6.73a1.23,1.23,0,0,1,.8-.29h88.57a1.26,1.26,0,0,1,.81.29l8,6.73a1.25,1.25,0,0,1-.81,2.21Zm-101.13-2.5h97.71l-5-4.23H49.75Z"/><path class="cls-1" d="M24.8,131.61a1.28,1.28,0,0,1-.89-.36,1.27,1.27,0,0,1,0-1.77L27.43,126l-3.52-3.52a1.27,1.27,0,0,1,0-1.77,1.25,1.25,0,0,1,1.77,0l4.4,4.4a1.26,1.26,0,0,1,.37.89,1.22,1.22,0,0,1-.37.88l-4.4,4.4A1.24,1.24,0,0,1,24.8,131.61Z"/><path class="cls-1" d="M26.11,150.36a12.82,12.82,0,1,1,0-25.64,1.25,1.25,0,0,1,0,2.5,10.32,10.32,0,1,0,0,20.64,1.25,1.25,0,1,1,0,2.5Z"/><path class="cls-1" d="M162.36,154.76a1.25,1.25,0,0,1-.89-.37l-4.4-4.39a1.29,1.29,0,0,1-.36-.89,1.25,1.25,0,0,1,.36-.88l4.4-4.4a1.25,1.25,0,1,1,1.77,1.77l-3.52,3.51,3.52,3.52a1.24,1.24,0,0,1,0,1.76A1.21,1.21,0,0,1,162.36,154.76Z"/><path class="cls-1" d="M161.05,150.36a1.25,1.25,0,0,1,0-2.5,10.32,10.32,0,1,0,0-20.64,1.25,1.25,0,0,1,0-2.5,12.82,12.82,0,1,1,0,25.64Z"/><path class="cls-1" d="M128.23,107.24h0a1.22,1.22,0,0,1-.88-.37l-7.17-7.17a1.25,1.25,0,0,1,0-1.77,1.27,1.27,0,0,1,1.77,0l6.28,6.29,6.29-6.29a1.27,1.27,0,0,1,1.77,0,1.25,1.25,0,0,1,0,1.77l-7.17,7.17A1.26,1.26,0,0,1,128.23,107.24Z"/><path class="cls-1" d="M93.73,107.24a1.26,1.26,0,0,1-.89-.37L85.67,99.7a1.25,1.25,0,0,1,0-1.77,1.27,1.27,0,0,1,1.77,0l6.29,6.29L100,97.93a1.27,1.27,0,0,1,1.77,0,1.25,1.25,0,0,1,0,1.77l-7.17,7.17A1.22,1.22,0,0,1,93.73,107.24Z"/><path class="cls-1" d="M59.22,107.24a1.22,1.22,0,0,1-.88-.37L51.17,99.7a1.25,1.25,0,1,1,1.76-1.77l6.29,6.29,6.29-6.29a1.25,1.25,0,1,1,1.77,1.77l-7.18,7.17A1.22,1.22,0,0,1,59.22,107.24Z"/><path class="cls-1" d="M59.22,104.83A1.25,1.25,0,0,1,58,103.58V85.86a1.25,1.25,0,1,1,2.5,0v17.72A1.25,1.25,0,0,1,59.22,104.83Z"/><path class="cls-1" d="M93.73,104.83a1.25,1.25,0,0,1-1.25-1.25V85.86a1.25,1.25,0,0,1,2.5,0v17.72A1.25,1.25,0,0,1,93.73,104.83Z"/><path class="cls-1" d="M128.23,104.83a1.25,1.25,0,0,1-1.25-1.25V85.86a1.25,1.25,0,1,1,2.5,0v17.72A1.25,1.25,0,0,1,128.23,104.83Z"/><path class="cls-1" d="M100.89,70.92H86.56a3.84,3.84,0,0,1-3.83-3.83v-3.8a3.84,3.84,0,0,1,3.83-3.84h14.33a3.84,3.84,0,0,1,3.83,3.84v3.8A3.84,3.84,0,0,1,100.89,70.92ZM86.56,62a1.34,1.34,0,0,0-1.33,1.34v3.8a1.33,1.33,0,0,0,1.33,1.33h14.33a1.33,1.33,0,0,0,1.33-1.33v-3.8A1.34,1.34,0,0,0,100.89,62Z"/><path class="cls-1" d="M132.24,70.92h-1a3.83,3.83,0,0,1-3.83-3.83v-3.8a3.83,3.83,0,0,1,3.83-3.84h1a3.84,3.84,0,0,1,3.83,3.84v3.8A3.84,3.84,0,0,1,132.24,70.92Zm-1-9A1.33,1.33,0,0,0,130,63.29v3.8a1.32,1.32,0,0,0,1.33,1.33h1a1.33,1.33,0,0,0,1.33-1.33v-3.8A1.34,1.34,0,0,0,132.24,62Z"/><path class="cls-1" d="M142.69,63.45h-1a3.83,3.83,0,0,1-3.83-3.83V55.81A3.83,3.83,0,0,1,141.73,52h1a3.84,3.84,0,0,1,3.83,3.83v3.81A3.84,3.84,0,0,1,142.69,63.45Zm-1-9a1.33,1.33,0,0,0-1.33,1.33v3.81A1.33,1.33,0,0,0,141.73,61h1A1.34,1.34,0,0,0,144,59.62V55.81a1.34,1.34,0,0,0-1.33-1.33Z"/><path class="cls-1" d="M121.79,70.92h-1A3.83,3.83,0,0,1,117,67.09v-3.8a3.83,3.83,0,0,1,3.83-3.84h1a3.84,3.84,0,0,1,3.83,3.84v3.8A3.84,3.84,0,0,1,121.79,70.92Zm-1-9a1.33,1.33,0,0,0-1.33,1.34v3.8a1.32,1.32,0,0,0,1.33,1.33h1a1.33,1.33,0,0,0,1.33-1.33v-3.8A1.34,1.34,0,0,0,121.79,62Z"/><path class="cls-1" d="M111.34,70.92h-1a3.83,3.83,0,0,1-3.83-3.83v-3.8a3.83,3.83,0,0,1,3.83-3.84h1a3.84,3.84,0,0,1,3.83,3.84v3.8A3.84,3.84,0,0,1,111.34,70.92Zm-1-9a1.33,1.33,0,0,0-1.33,1.34v3.8a1.32,1.32,0,0,0,1.33,1.33h1a1.33,1.33,0,0,0,1.33-1.33v-3.8A1.34,1.34,0,0,0,111.34,62Z"/><path class="cls-1" d="M56.18,70.92h-1a3.84,3.84,0,0,1-3.83-3.83v-3.8a3.84,3.84,0,0,1,3.83-3.84h1A3.84,3.84,0,0,1,60,63.29v3.8A3.84,3.84,0,0,1,56.18,70.92Zm-1-9a1.34,1.34,0,0,0-1.33,1.34v3.8a1.33,1.33,0,0,0,1.33,1.33h1a1.33,1.33,0,0,0,1.33-1.33v-3.8A1.34,1.34,0,0,0,56.18,62Z"/><path class="cls-1" d="M45.73,63.45h-1a3.84,3.84,0,0,1-3.83-3.83V55.81A3.84,3.84,0,0,1,44.76,52h1a3.84,3.84,0,0,1,3.83,3.83v3.81A3.84,3.84,0,0,1,45.73,63.45Zm-1-9a1.34,1.34,0,0,0-1.33,1.33v3.81A1.34,1.34,0,0,0,44.76,61h1a1.34,1.34,0,0,0,1.33-1.33V55.81a1.34,1.34,0,0,0-1.33-1.33Z"/><path class="cls-1" d="M66.63,70.92h-1a3.84,3.84,0,0,1-3.83-3.83v-3.8a3.84,3.84,0,0,1,3.83-3.84h1a3.84,3.84,0,0,1,3.83,3.84v3.8A3.84,3.84,0,0,1,66.63,70.92Zm-1-9a1.34,1.34,0,0,0-1.33,1.34v3.8a1.33,1.33,0,0,0,1.33,1.33h1A1.33,1.33,0,0,0,68,67.09v-3.8A1.34,1.34,0,0,0,66.63,62Z"/><path class="cls-1" d="M77.08,70.92h-1a3.84,3.84,0,0,1-3.83-3.83v-3.8a3.84,3.84,0,0,1,3.83-3.84h1a3.84,3.84,0,0,1,3.83,3.84v3.8A3.84,3.84,0,0,1,77.08,70.92Zm-1-9a1.34,1.34,0,0,0-1.33,1.34v3.8a1.33,1.33,0,0,0,1.33,1.33h1a1.33,1.33,0,0,0,1.33-1.33v-3.8A1.34,1.34,0,0,0,77.08,62Z"/><path class="cls-1" d="M142.57,87H44.88A12.69,12.69,0,0,1,32.2,74.35V42.44a1.25,1.25,0,0,1,2.5,0V74.35A10.19,10.19,0,0,0,44.88,84.53h97.69a10.19,10.19,0,0,0,10.18-10.18V42.44a1.25,1.25,0,0,1,2.5,0V74.35A12.69,12.69,0,0,1,142.57,87Z"/><path class="cls-1" d="M154,45.33H33.45a1.25,1.25,0,0,1-1.25-1.25V35.81A18.21,18.21,0,0,1,50.39,17.62h86.68a18.21,18.21,0,0,1,18.18,18.19v8.27A1.25,1.25,0,0,1,154,45.33ZM34.7,42.83H152.75v-7a15.7,15.7,0,0,0-15.68-15.69H50.39A15.71,15.71,0,0,0,34.7,35.81Z"/><path class="cls-1" d="M26.76,39.45a1.25,1.25,0,0,1-1.25-1.25V26.27a1.25,1.25,0,0,1,2.5,0V38.2A1.25,1.25,0,0,1,26.76,39.45Z"/><path class="cls-1" d="M33.45,37.67H26.76a1.25,1.25,0,0,1,0-2.5h6.69a1.25,1.25,0,0,1,0,2.5Z"/><path class="cls-1" d="M35.33,29.31H26.76a1.25,1.25,0,0,1,0-2.5h8.57a1.25,1.25,0,0,1,0,2.5Z"/><path class="cls-1" d="M160.69,39.45a1.25,1.25,0,0,1-1.25-1.25V26.27a1.25,1.25,0,0,1,2.5,0V38.2A1.25,1.25,0,0,1,160.69,39.45Z"/><path class="cls-1" d="M160.69,29.3h-8.57a1.25,1.25,0,0,1,0-2.5h8.57a1.25,1.25,0,0,1,0,2.5Z"/><path class="cls-1" d="M160.69,37.66H154a1.25,1.25,0,0,1,0-2.5h6.69a1.25,1.25,0,0,1,0,2.5Z"/><path class="cls-1" d="M139.86,37.66H48.46a1.25,1.25,0,0,1,0-2.5h91.4a1.25,1.25,0,0,1,0,2.5Z"/><path class="cls-1" d="M94.59,78.85H48.47c-13.45,0-16.27-7.07-16.27-13a1.25,1.25,0,0,1,2.5,0c0,7.06,4.51,10.5,13.77,10.5H94.59a1.25,1.25,0,0,1,0,2.5Z"/><path class="cls-1" d="M139,78.85H92.86a1.25,1.25,0,1,1,0-2.5H139c9.27,0,13.77-3.44,13.77-10.5a1.25,1.25,0,0,1,2.5,0C155.25,71.78,152.43,78.85,139,78.85Z"/></svg>