<svg id="Capa_1" data-name="Capa 1" xmlns="http://www.w3.org/2000/svg" viewBox="0 0 206.69 191.49"><defs><style>.cls-1{fill:#FFFFFF;}</style></defs><path class="cls-1" d="M137.62,96.83H117.28A11.84,11.84,0,0,1,105.46,85V43.24a11.83,11.83,0,0,1,11.82-11.82h20.34a11.83,11.83,0,0,1,11.82,11.82V85A11.84,11.84,0,0,1,137.62,96.83ZM117.28,33.92A9.33,9.33,0,0,0,108,43.24V85a9.33,9.33,0,0,0,9.32,9.32h20.34A9.33,9.33,0,0,0,146.94,85V43.24a9.33,9.33,0,0,0-9.32-9.32Z"/><path class="cls-1" d="M156.53,40.79a1.25,1.25,0,0,1-1.25-1.25A13.52,13.52,0,0,0,141.78,26a1.25,1.25,0,0,1,0-2.5,16,16,0,0,1,16,16A1.25,1.25,0,0,1,156.53,40.79Z"/><path class="cls-1" d="M164.65,40.79a1.25,1.25,0,0,1-1.25-1.25,21.65,21.65,0,0,0-21.62-21.62,1.25,1.25,0,1,1,0-2.5A24.15,24.15,0,0,1,165.9,39.54,1.25,1.25,0,0,1,164.65,40.79Z"/><path class="cls-1" d="M172.69,40.79a1.25,1.25,0,0,1-1.25-1.25A29.7,29.7,0,0,0,141.78,9.88a1.25,1.25,0,1,1,0-2.5,32.2,32.2,0,0,1,32.16,32.16A1.25,1.25,0,0,1,172.69,40.79Z"/><path class="cls-1" d="M136.31,40.25H118.6A1.24,1.24,0,0,1,117.35,39V32.67a1.24,1.24,0,0,1,1.25-1.25h17.71a1.25,1.25,0,0,1,1.25,1.25V39A1.25,1.25,0,0,1,136.31,40.25Zm-16.46-2.5h15.21V33.92H119.85Z"/><path class="cls-1" d="M49.2,176.15H30.33a1.25,1.25,0,0,1,0-2.5H49.2a1.25,1.25,0,1,1,0,2.5Z"/><path class="cls-1" d="M24,181.42H18.77a1.25,1.25,0,0,1-1.25-1.25V169.63a1.25,1.25,0,0,1,1.25-1.25H24a6.52,6.52,0,1,1,0,13Zm-4-2.5h4a4,4,0,1,0,0-8H20Z"/><path class="cls-1" d="M18.77,180.05H12.66a1.25,1.25,0,0,1-1.25-1.25V171a1.25,1.25,0,0,1,1.25-1.25h6.11A1.25,1.25,0,0,1,20,171v7.81A1.25,1.25,0,0,1,18.77,180.05Zm-4.86-2.5h3.61v-5.31H13.91Z"/><path class="cls-1" d="M53.78,176.15H32.49a1.25,1.25,0,0,1,0-2.5H53.78a3.51,3.51,0,0,0,0-7H39.07a6,6,0,0,1,0-12H64.89a1.25,1.25,0,0,1,0,2.5H39.07a3.51,3.51,0,0,0,0,7H53.78a6,6,0,0,1,0,12Z"/><path class="cls-1" d="M133.88,160H119.56a3.84,3.84,0,0,1-3.84-3.84v-3.8a3.84,3.84,0,0,1,3.84-3.83h14.32a3.84,3.84,0,0,1,3.83,3.83v3.8A3.84,3.84,0,0,1,133.88,160Zm-14.32-9a1.34,1.34,0,0,0-1.34,1.33v3.8a1.34,1.34,0,0,0,1.34,1.34h14.32a1.33,1.33,0,0,0,1.33-1.34v-3.8a1.33,1.33,0,0,0-1.33-1.33Z"/><path class="cls-1" d="M165.23,160h-1a3.84,3.84,0,0,1-3.83-3.84v-3.8a3.84,3.84,0,0,1,3.83-3.83h1a3.83,3.83,0,0,1,3.83,3.83v3.8A3.83,3.83,0,0,1,165.23,160Zm-1-9a1.33,1.33,0,0,0-1.33,1.33v3.8a1.33,1.33,0,0,0,1.33,1.34h1a1.33,1.33,0,0,0,1.33-1.34v-3.8a1.33,1.33,0,0,0-1.33-1.33Z"/><path class="cls-1" d="M175.68,152.56h-1a3.84,3.84,0,0,1-3.83-3.83v-3.81a3.84,3.84,0,0,1,3.83-3.83h1a3.83,3.83,0,0,1,3.83,3.83v3.81A3.83,3.83,0,0,1,175.68,152.56Zm-1-9a1.33,1.33,0,0,0-1.33,1.33v3.81a1.33,1.33,0,0,0,1.33,1.33h1a1.33,1.33,0,0,0,1.33-1.33v-3.81a1.33,1.33,0,0,0-1.33-1.33Z"/><path class="cls-1" d="M154.78,160h-1A3.84,3.84,0,0,1,150,156.2v-3.8a3.84,3.84,0,0,1,3.83-3.83h1a3.84,3.84,0,0,1,3.83,3.83v3.8A3.84,3.84,0,0,1,154.78,160Zm-1-9a1.33,1.33,0,0,0-1.33,1.33v3.8a1.33,1.33,0,0,0,1.33,1.34h1a1.33,1.33,0,0,0,1.33-1.34v-3.8a1.33,1.33,0,0,0-1.33-1.33Z"/><path class="cls-1" d="M144.33,160h-1a3.84,3.84,0,0,1-3.83-3.84v-3.8a3.84,3.84,0,0,1,3.83-3.83h1a3.84,3.84,0,0,1,3.83,3.83v3.8A3.84,3.84,0,0,1,144.33,160Zm-1-9A1.33,1.33,0,0,0,142,152.4v3.8a1.33,1.33,0,0,0,1.33,1.34h1a1.33,1.33,0,0,0,1.33-1.34v-3.8a1.33,1.33,0,0,0-1.33-1.33Z"/><path class="cls-1" d="M89.17,160h-1a3.84,3.84,0,0,1-3.84-3.84v-3.8a3.84,3.84,0,0,1,3.84-3.83h1A3.84,3.84,0,0,1,93,152.4v3.8A3.84,3.84,0,0,1,89.17,160Zm-1-9a1.34,1.34,0,0,0-1.34,1.33v3.8a1.34,1.34,0,0,0,1.34,1.34h1a1.34,1.34,0,0,0,1.33-1.34v-3.8a1.34,1.34,0,0,0-1.33-1.33Z"/><path class="cls-1" d="M78.72,152.56h-1a3.84,3.84,0,0,1-3.84-3.83v-3.81a3.84,3.84,0,0,1,3.84-3.83h1a3.84,3.84,0,0,1,3.83,3.83v3.81A3.84,3.84,0,0,1,78.72,152.56Zm-1-9a1.34,1.34,0,0,0-1.34,1.33v3.81a1.34,1.34,0,0,0,1.34,1.33h1a1.34,1.34,0,0,0,1.33-1.33v-3.81a1.34,1.34,0,0,0-1.33-1.33Z"/><path class="cls-1" d="M99.62,160h-1a3.84,3.84,0,0,1-3.84-3.84v-3.8a3.84,3.84,0,0,1,3.84-3.83h1a3.84,3.84,0,0,1,3.83,3.83v3.8A3.84,3.84,0,0,1,99.62,160Zm-1-9a1.34,1.34,0,0,0-1.34,1.33v3.8a1.34,1.34,0,0,0,1.34,1.34h1A1.34,1.34,0,0,0,101,156.2v-3.8a1.34,1.34,0,0,0-1.33-1.33Z"/><path class="cls-1" d="M110.07,160h-1a3.84,3.84,0,0,1-3.84-3.84v-3.8a3.84,3.84,0,0,1,3.84-3.83h1a3.84,3.84,0,0,1,3.83,3.83v3.8A3.84,3.84,0,0,1,110.07,160Zm-1-9a1.34,1.34,0,0,0-1.34,1.33v3.8a1.34,1.34,0,0,0,1.34,1.34h1a1.34,1.34,0,0,0,1.33-1.34v-3.8a1.34,1.34,0,0,0-1.33-1.33Z"/><path class="cls-1" d="M175.56,176.15H77.88a12.7,12.7,0,0,1-12.69-12.68V131.55a1.25,1.25,0,0,1,2.5,0v31.92a10.2,10.2,0,0,0,10.19,10.18h97.68a10.19,10.19,0,0,0,10.18-10.18V131.55a1.25,1.25,0,0,1,2.5,0v31.92A12.69,12.69,0,0,1,175.56,176.15Z"/><path class="cls-1" d="M187,134.44H66.44a1.25,1.25,0,0,1-1.25-1.25v-8.27a18.21,18.21,0,0,1,18.19-18.18h86.68a18.2,18.2,0,0,1,18.18,18.18v8.27A1.25,1.25,0,0,1,187,134.44Zm-119.3-2.5H185.74v-7a15.69,15.69,0,0,0-15.68-15.68H83.38a15.7,15.7,0,0,0-15.69,15.68Z"/><path class="cls-1" d="M59.76,128.56a1.25,1.25,0,0,1-1.25-1.25V115.38a1.25,1.25,0,0,1,2.5,0v11.93A1.25,1.25,0,0,1,59.76,128.56Z"/><path class="cls-1" d="M66.44,126.78H59.76a1.25,1.25,0,1,1,0-2.5h6.68a1.25,1.25,0,0,1,0,2.5Z"/><path class="cls-1" d="M68.32,118.42H59.76a1.25,1.25,0,0,1,0-2.5h8.56a1.25,1.25,0,0,1,0,2.5Z"/><path class="cls-1" d="M193.68,128.56a1.25,1.25,0,0,1-1.25-1.25V115.38a1.25,1.25,0,0,1,2.5,0v11.93A1.25,1.25,0,0,1,193.68,128.56Z"/><path class="cls-1" d="M193.68,118.41h-8.57a1.25,1.25,0,0,1,0-2.5h8.57a1.25,1.25,0,0,1,0,2.5Z"/><path class="cls-1" d="M193.68,126.77H187a1.25,1.25,0,0,1,0-2.5h6.69a1.25,1.25,0,0,1,0,2.5Z"/><path class="cls-1" d="M172.85,126.77H81.46a1.25,1.25,0,0,1,0-2.5h91.39a1.25,1.25,0,0,1,0,2.5Z"/><path class="cls-1" d="M127.58,168H81.46c-13.44,0-16.27-7.07-16.27-13a1.25,1.25,0,0,1,2.5,0c0,7.06,4.51,10.5,13.77,10.5h46.12a1.25,1.25,0,1,1,0,2.5Z"/><path class="cls-1" d="M172,168H125.85a1.25,1.25,0,0,1,0-2.5H172c9.27,0,13.77-3.44,13.77-10.5a1.25,1.25,0,0,1,2.5,0C188.24,160.89,185.42,168,172,168Z"/></svg>