<svg xmlns="http://www.w3.org/2000/svg" width="247.06" height="195.14" viewBox="0 0 167.15 144.24">
  <g id="Paige_Icon03" transform="translate(-24.03 -11.91)">
    <path id="Path_1" data-name="Path 1" d="M178.76,118.61H31.25a6.79,6.79,0,0,1-6.78-6.78V18.69a6.79,6.79,0,0,1,6.78-6.78H178.76a6.79,6.79,0,0,1,6.78,6.78v93.14a6.79,6.79,0,0,1-6.78,6.78ZM31.25,14.41A4.28,4.28,0,0,0,27,18.69v93.14a4.28,4.28,0,0,0,4.28,4.28H178.76a4.28,4.28,0,0,0,4.28-4.28V18.69a4.28,4.28,0,0,0-4.28-4.28Z" fill="#2a7de1"/>
    <path id="Path_2" data-name="Path 2" d="M98.91,106.42h-61a1.25,1.25,0,0,1-1.25-1.25V56.38a1.24,1.24,0,0,1,1.25-1.25h61a1.24,1.24,0,0,1,1.25,1.25v48.79A1.25,1.25,0,0,1,98.91,106.42Zm-59.74-2.5H97.66V57.63H39.17Z" fill="#2a7de1"/>
    <path id="Path_3" data-name="Path 3" d="M172.1,106.42h-61a1.25,1.25,0,0,1-1.25-1.25V56.38a1.24,1.24,0,0,1,1.25-1.25h61a1.24,1.24,0,0,1,1.25,1.25v48.79A1.25,1.25,0,0,1,172.1,106.42Zm-59.74-2.5h58.49V57.63H112.36Z" fill="#2a7de1"/>
    <path id="Path_4" data-name="Path 4" d="M184.29,26.61H25.72a1.25,1.25,0,0,1,0-2.5H184.29a1.25,1.25,0,0,1,0,2.5Z" fill="#2a7de1"/>
    <path id="Path_5" data-name="Path 5" d="M23.15,156.23H20.27V136.49h2.84v7.34h.18a4.34,4.34,0,0,1,4.39-2.6c3,0,5.07,1.89,5.07,5.58v9.42H29.87v-9.07c0-2.17-1.19-3.44-3.18-3.44a3.4,3.4,0,0,0-3.54,3.72Z" transform="translate(112 -2)" fill="#2a7de1"/>
    <path id="Path_6" data-name="Path 6" d="M35.93,148.92c0-4.55,2.72-7.69,6.85-7.69,3.35,0,6.55,2.09,6.55,7.44v1H38.81c.07,2.85,1.73,4.45,4.2,4.45A3.34,3.34,0,0,0,46.42,152l2.73.49c-.66,2.41-2.94,4-6.17,4C38.61,156.53,35.93,153.52,35.93,148.92Zm10.58-1.39a3.66,3.66,0,0,0-3.71-3.92,4,4,0,0,0-4,3.921Z" transform="translate(112 -2)" fill="#2a7de1"/>
    <path id="Path_7" data-name="Path 7" d="M55.42,156.23H52.54V136.49h2.88Z" transform="translate(112 -2)" fill="#2a7de1"/>
    <path id="Path_8" data-name="Path 8" d="M62.17,156.23H59.29V136.49h2.88Z" transform="translate(112 -2)" fill="#2a7de1"/>
    <path id="Path_9" data-name="Path 9" d="M65.38,148.89c0-4.61,2.73-7.66,6.9-7.66s6.9,3.05,6.9,7.66-2.73,7.64-6.9,7.64S65.38,153.47,65.38,148.89Zm10.89,0c0-2.83-1.27-5.24-4-5.24s-4,2.41-4,5.24,1.27,5.23,4,5.23,4-2.4,4-5.24Z" transform="translate(112 -2)" fill="#2a7de1"/>
    <path id="Path_10" data-name="Path 10" d="M103.58,156a1.25,1.25,0,0,1-.88-2.13l6.28-6.29-6.28-6.29a1.245,1.245,0,0,1,1.76-1.76l7.18,7.17a1.25,1.25,0,0,1,.36.88,1.29,1.29,0,0,1-.36.89l-7.18,7.17a1.24,1.24,0,0,1-.88.36Z" transform="translate(15)" fill="#2a7de1"/>
    <path id="Path_11" data-name="Path 11" d="M108.34,148.78H90.62a1.25,1.25,0,0,1,0-2.5h17.72a1.25,1.25,0,0,1,0,2.5Z" transform="translate(15)" fill="#2a7de1"/>
    <circle id="Ellipse_1" data-name="Ellipse 1" cx="1.9" cy="1.9" r="1.9" transform="translate(24.03 145.63)" fill="#2a7de1"/>
    <circle id="Ellipse_2" data-name="Ellipse 2" cx="1.9" cy="1.9" r="1.9" transform="translate(46.1 145.63)" fill="#2a7de1"/>
    <circle id="Ellipse_3" data-name="Ellipse 3" cx="1.9" cy="1.9" r="1.9" transform="translate(24.03 138.91)" fill="#2a7de1"/>
    <circle id="Ellipse_4" data-name="Ellipse 4" cx="1.9" cy="1.9" r="1.9" transform="translate(39.59 138.91)" fill="#2a7de1"/>
    <circle id="Ellipse_5" data-name="Ellipse 5" cx="1.9" cy="1.9" r="1.9" transform="translate(56.09 138.91)" fill="#2a7de1"/>
    <circle id="Ellipse_6" data-name="Ellipse 6" cx="1.9" cy="1.9" r="1.9" transform="translate(56.09 145.63)" fill="#2a7de1"/>
    <circle id="Ellipse_7" data-name="Ellipse 7" cx="1.9" cy="1.9" r="1.9" transform="translate(56.09 152.35)" fill="#2a7de1"/>
    <circle id="Ellipse_8" data-name="Ellipse 8" cx="1.9" cy="1.9" r="1.9" transform="translate(72.23 138.91)" fill="#2a7de1"/>
    <circle id="Ellipse_9" data-name="Ellipse 9" cx="1.9" cy="1.9" r="1.9" transform="translate(72.23 145.63)" fill="#2a7de1"/>
    <circle id="Ellipse_10" data-name="Ellipse 10" cx="1.9" cy="1.9" r="1.9" transform="translate(72.23 152.35)" fill="#2a7de1"/>
    <circle id="Ellipse_11" data-name="Ellipse 11" cx="1.9" cy="1.9" r="1.9" transform="translate(88.72 138.91)" fill="#2a7de1"/>
    <circle id="Ellipse_12" data-name="Ellipse 12" cx="1.9" cy="1.9" r="1.9" transform="translate(95.11 145.63)" fill="#2a7de1"/>
    <circle id="Ellipse_13" data-name="Ellipse 13" cx="1.9" cy="1.9" r="1.9" transform="translate(88.72 152.35)" fill="#2a7de1"/>
    <circle id="Ellipse_14" data-name="Ellipse 14" cx="1.9" cy="1.9" r="1.9" transform="translate(30.37 145.63)" fill="#2a7de1"/>
  </g>
</svg>
