<svg id="Capa_1" data-name="Capa 1" xmlns="http://www.w3.org/2000/svg" viewBox="0 0 214.84 169.69"><defs><style>.cls-1{fill:#FFFFFF;}</style></defs><path class="cls-1" d="M178.76,118.61H31.25a6.79,6.79,0,0,1-6.78-6.78V18.69a6.79,6.79,0,0,1,6.78-6.78H178.76a6.79,6.79,0,0,1,6.78,6.78v93.14A6.79,6.79,0,0,1,178.76,118.61ZM31.25,14.41A4.28,4.28,0,0,0,27,18.69v93.14a4.28,4.28,0,0,0,4.28,4.28H178.76a4.28,4.28,0,0,0,4.28-4.28V18.69a4.28,4.28,0,0,0-4.28-4.28Z"/><path class="cls-1" d="M98.91,106.42h-61a1.25,1.25,0,0,1-1.25-1.25V56.38a1.24,1.24,0,0,1,1.25-1.25h61a1.24,1.24,0,0,1,1.25,1.25v48.79A1.25,1.25,0,0,1,98.91,106.42Zm-59.74-2.5H97.66V57.63H39.17Z"/><path class="cls-1" d="M172.1,106.42h-61a1.25,1.25,0,0,1-1.25-1.25V56.38a1.24,1.24,0,0,1,1.25-1.25h61a1.24,1.24,0,0,1,1.25,1.25v48.79A1.25,1.25,0,0,1,172.1,106.42Zm-59.74-2.5h58.49V57.63H112.36Z"/><path class="cls-1" d="M184.29,26.61H25.72a1.25,1.25,0,0,1,0-2.5H184.29a1.25,1.25,0,0,1,0,2.5Z"/><path class="cls-1" d="M23.15,156.23H20.27V136.49h2.84v7.34h.18a4.34,4.34,0,0,1,4.39-2.6c3,0,5.07,1.89,5.07,5.58v9.42H29.87v-9.07c0-2.17-1.19-3.44-3.18-3.44a3.4,3.4,0,0,0-3.54,3.72Z"/><path class="cls-1" d="M35.93,148.92c0-4.55,2.72-7.69,6.85-7.69,3.35,0,6.55,2.09,6.55,7.44v1H38.81c.07,2.85,1.73,4.45,4.2,4.45A3.34,3.34,0,0,0,46.42,152l2.73.49c-.66,2.41-2.94,4-6.17,4C38.61,156.53,35.93,153.52,35.93,148.92Zm10.58-1.39a3.66,3.66,0,0,0-3.71-3.92,4,4,0,0,0-4,3.92Z"/><path class="cls-1" d="M55.42,156.23H52.54V136.49h2.88Z"/><path class="cls-1" d="M62.17,156.23H59.29V136.49h2.88Z"/><path class="cls-1" d="M65.38,148.89c0-4.61,2.73-7.66,6.9-7.66s6.9,3.05,6.9,7.66-2.73,7.64-6.9,7.64S65.38,153.47,65.38,148.89Zm10.89,0c0-2.83-1.27-5.24-4-5.24s-4,2.41-4,5.24,1.27,5.23,4,5.23S76.27,151.72,76.27,148.88Z"/><path class="cls-1" d="M103.58,156a1.25,1.25,0,0,1-.88-2.13l6.28-6.29-6.28-6.29a1.24,1.24,0,0,1,1.76-1.76l7.18,7.17a1.25,1.25,0,0,1,.36.88,1.29,1.29,0,0,1-.36.89l-7.18,7.17A1.24,1.24,0,0,1,103.58,156Z"/><path class="cls-1" d="M108.34,148.78H90.62a1.25,1.25,0,0,1,0-2.5h17.72a1.25,1.25,0,0,1,0,2.5Z"/><circle class="cls-1" cx="129.93" cy="147.53" r="1.9"/><circle class="cls-1" cx="152" cy="147.53" r="1.9"/><circle class="cls-1" cx="129.93" cy="140.81" r="1.9"/><circle class="cls-1" cx="145.49" cy="140.81" r="1.9"/><circle class="cls-1" cx="161.99" cy="140.81" r="1.9"/><circle class="cls-1" cx="161.99" cy="147.53" r="1.9"/><circle class="cls-1" cx="161.99" cy="154.25" r="1.9"/><circle class="cls-1" cx="178.13" cy="140.81" r="1.9"/><circle class="cls-1" cx="178.13" cy="147.53" r="1.9"/><circle class="cls-1" cx="178.13" cy="154.25" r="1.9"/><circle class="cls-1" cx="194.62" cy="140.81" r="1.9"/><circle class="cls-1" cx="201.01" cy="147.53" r="1.9"/><circle class="cls-1" cx="194.62" cy="154.25" r="1.9"/><circle class="cls-1" cx="136.27" cy="147.53" r="1.9"/></svg>