<?xml version="1.0" encoding="UTF-8"?>
<svg id="Layer_2" data-name="Layer 2" xmlns="http://www.w3.org/2000/svg" viewBox="0 0 466.84 466.84">
  <defs>
    <style>
      .cls-1 {
        fill: #1b1b1b;
        stroke-width: 0px;
      }
    </style>
  </defs>
  <g id="Layer_1-2" data-name="Layer 1">
    <g>
      <path class="cls-1" d="m231.96,466.84C104.35,466.87.41,361.54,0,231.76-.4,105.12,105.66.1,234.04,0c127.46-.1,232.98,106.2,232.79,234.51-.19,127.73-105.89,232.29-234.87,232.33Zm1.21-28.53c114.65-.84,206.53-92.62,205.66-205.43-.88-113.82-93.6-205.79-206.44-204.77C118.59,29.13,27.22,121.11,28.31,233.56c1.11,114.13,92.6,205.57,204.86,204.75Z"/>
      <path class="cls-1" d="m232.23,349.99c-33.27,0-66.54.05-99.81-.02-17.63-.04-22.9-6.48-17.34-23.68,13.97-43.21,45.22-68.05,88.19-78.59,54.99-13.49,111.99,10.14,139.67,57.4,4.42,7.55,7.46,16.16,9.74,24.65,3.62,13.5-1.75,20.11-15.77,20.18-34.89.17-69.79.06-104.68.06Z"/>
      <path class="cls-1" d="m293.45,155.28c.05,33.43-26,60.12-58.86,60.3-34.75.19-61.23-25.98-61.14-60.44.09-32.64,27.23-59.57,60.02-59.56,32.64.01,59.94,27.17,59.98,59.7Z"/>
    </g>
  </g>
</svg>