<svg xmlns="http://www.w3.org/2000/svg" width="146.64mm" height="108.67mm" viewBox="0 0 415.66 308.05">
    <rect x="1.12" y="166.7" width="413.58" height="18.35" fill="#e50072"></rect>
    <path d="M257.42,192.18H234v-23.8H257.7a11.81,11.81,0,0,1,11.83,11.85,12,12,0,0,1-12.11,12m32.78-12.54c0-16.82-14.3-29.65-29.5-29.65H214.08V250.34h20V211.28h15.11L271,250.34h24L270.1,208.72c20.88-8.08,20.1-29.08,20.1-29.08" transform="translate(-212.96 -149.99)"></path>
    <polygon points="125.03 100.35 145.13 100.35 145.13 33.07 188.78 100.35 210.87 100.35 210.87 0 190.63 0 190.63 67.28 147.12 0 125.03 0 125.03 100.35"></polygon>
    <path d="M498.63,150h-21.1V250.34h21.1Z" transform="translate(-212.96 -149.99)"></path>
    <path d="M572.21,231.63v-25h19.67q8.85,0,12.37,3.09t3.51,9a15.49,15.49,0,0,1-.84,5.29,9.46,9.46,0,0,1-2.95,4.06,14.35,14.35,0,0,1-5.55,2.64,34.94,34.94,0,0,1-8.65.9Zm0-41.87V168.38h13.93q9.55,0,13.56,2.38t4,8.05q0,5.28-3.09,8.12t-11.38,2.83ZM552,250.33h38.51a64,64,0,0,0,17.7-2.38c20.09-5.74,20.44-23.63,20.44-27.85,0-7.95-4.75-18.95-14.22-23.38a24.47,24.47,0,0,0,9.41-19.61c0-3.2-.43-19.33-19.92-25a59.41,59.41,0,0,0-15.8-2.11H552Z" transform="translate(-212.96 -149.99)"></path>
    <path class="tl" d="M239.06,407a31.41,31.41,0,0,0-10.37-2.18c-4.58,0-7.64,1.85-7.64,5.85a6.32,6.32,0,0,0,3.81,5.75,47.42,47.42,0,0,0,4.48,1.95,46.7,46.7,0,0,1,6,2.73,11.7,11.7,0,0,1,4,3.9,12.6,12.6,0,0,1,1.62,6.73c.07,9.29-7.18,13.48-15.72,13.45A30.46,30.46,0,0,1,213,442.48v-7.12a28.13,28.13,0,0,0,6.15,2.37,22.34,22.34,0,0,0,6.14.91c4.84,0,8-2,8-6.4a6.66,6.66,0,0,0-3.87-6,43.67,43.67,0,0,0-4.55-2,46.61,46.61,0,0,1-5.94-2.79,11.35,11.35,0,0,1-3.9-3.87,12,12,0,0,1-1.63-6.56c-.06-9,7-12.77,15.24-12.74A31.46,31.46,0,0,1,239.06,400Z" transform="translate(-212.96 -149.99)"></path>
    <path class="tl" d="M275,426.2v3.28H253.51c0,6.59,3.8,9.88,10.46,9.88a25.23,25.23,0,0,0,9.94-2.34v5.72a27.49,27.49,0,0,1-11.17,2.4c-9.66.06-16.8-6-16.71-17.71-.09-10.17,5.75-17.64,15.24-17.55C270.24,409.88,275,416.22,275,426.2ZM255.75,418a9.66,9.66,0,0,0-2.24,6.27h14.78c0-5.43-2.44-8.64-6.82-8.64A7.18,7.18,0,0,0,255.75,418Z" transform="translate(-212.96 -149.99)"></path>
    <path class="tl" d="M309,426.2v3.28H287.55c0,6.59,3.8,9.88,10.47,9.88A25.27,25.27,0,0,0,308,437v5.72a27.5,27.5,0,0,1-11.18,2.4c-9.65.06-16.8-6-16.7-17.71-.1-10.17,5.75-17.64,15.24-17.55C304.29,409.88,309,416.22,309,426.2ZM289.8,418a9.72,9.72,0,0,0-2.25,6.27h14.79c0-5.43-2.44-8.64-6.83-8.64A7.16,7.16,0,0,0,289.8,418Z" transform="translate(-212.96 -149.99)"></path>
    <path class="tl" d="M344,409.88a12.72,12.72,0,0,1,9.2,3.64h.1V395.81h7.34V444.2H353.8v-4h-.07A15.06,15.06,0,0,1,343,445c-8.58,0-13.81-6.56-13.81-17.32C329.2,416.74,334.79,409.88,344,409.88Zm1.56,29.25a11.78,11.78,0,0,0,7.74-3.12V418.79a11.72,11.72,0,0,0-7.67-3.09c-5.3,0-8.74,4.74-8.74,12S340,439.13,345.51,439.13Z" transform="translate(-212.96 -149.99)"></path>
    <path class="tl" d="M368.44,404.75v-7.67h7.31v7.67Zm0,5.78h7.31V444.2h-7.31Z" transform="translate(-212.96 -149.99)"></path>
    <path class="tl" d="M386.84,406.24c0-7.4,4.06-11.34,11.73-11.34a20.9,20.9,0,0,1,5.72.75v5.85a18.56,18.56,0,0,0-4.39-.62c-3.93,0-5.75,2.21-5.75,6.4v3.25h5.57V416h-5.57V444.2h-7.31V416h-5.62v-5.5h5.62Z" transform="translate(-212.96 -149.99)"></path>
    <path class="tl" d="M453.65,426.2v3.28H432.2c0,6.59,3.81,9.88,10.47,9.88a25.27,25.27,0,0,0,9.94-2.34v5.72a27.5,27.5,0,0,1-11.18,2.4c-9.65.06-16.8-6-16.7-17.71-.1-10.17,5.75-17.64,15.24-17.55C448.94,409.88,453.65,416.22,453.65,426.2ZM434.45,418a9.72,9.72,0,0,0-2.25,6.27H447c0-5.43-2.44-8.64-6.83-8.64A7.16,7.16,0,0,0,434.45,418Z" transform="translate(-212.96 -149.99)"></path>
    <path class="tl" d="M479.48,417a18.27,18.27,0,0,0-11.7,4.32V444.2h-7.31V410.53h6.7v6.08h.19a23.78,23.78,0,0,1,6-5.23,12.42,12.42,0,0,1,6.11-1.53Z" transform="translate(-212.96 -149.99)"></path>
    <path class="tl" d="M510.55,426.2v3.28H489.1c0,6.59,3.8,9.88,10.47,9.88a25.27,25.27,0,0,0,9.94-2.34v5.72a27.5,27.5,0,0,1-11.18,2.4c-9.65.06-16.8-6-16.7-17.71-.1-10.17,5.75-17.64,15.24-17.55C505.84,409.88,510.55,416.22,510.55,426.2ZM491.34,418a9.77,9.77,0,0,0-2.24,6.27h14.79c0-5.43-2.44-8.64-6.83-8.64A7.2,7.2,0,0,0,491.34,418Z" transform="translate(-212.96 -149.99)"></path>
    <path class="tl" d="M538.88,422.59c0-4.32-2.34-6.73-6.88-6.73a11.83,11.83,0,0,0-7.9,3V444.2h-7.31V410.53h6.69v4.16h.13a16.69,16.69,0,0,1,11.76-4.81c7.06,0,10.86,4.29,10.86,12.51V444.2h-7.35Z" transform="translate(-212.96 -149.99)"></path>
    <path class="tl" d="M563.85,434.87c0,3.12,1.72,4.36,4.74,4.36a20.3,20.3,0,0,0,5.2-.85v5.79a29.49,29.49,0,0,1-7.24,1c-6.37,0-10-3.18-10-10.11V416h-5.71v-5.5h5.71v-9.29h7.35v9.29h9.75V416h-9.75Z" transform="translate(-212.96 -149.99)"></path>
    <path class="tl" d="M588,395.81v40.46c0,2.24,1.14,2.86,3.19,2.86a9.89,9.89,0,0,0,2.46-.36v5.3a18.5,18.5,0,0,1-5.52.84c-5.07,0-7.44-2.56-7.44-6.56V395.81Z" transform="translate(-212.96 -149.99)"></path>
    <path class="tl" d="M615,445.43c-3.32,9.26-7.25,12.61-14.63,12.61a23.5,23.5,0,0,1-5.62-.62v-6.37a13.15,13.15,0,0,0,5.43,1.08c4.35-.1,5.88-1.89,7.47-6.86l-12.51-34.74h7.21l9.17,25.9h.19l9.1-25.9h6.83Z" transform="translate(-212.96 -149.99)"></path>
    <path class="tl" d="M409.1,406.24c0-7.4,4.06-11.34,11.73-11.34a20.9,20.9,0,0,1,5.72.75v5.85a18.5,18.5,0,0,0-4.39-.62c-3.93,0-5.75,2.21-5.75,6.4v3.25H422V416h-5.58V444.2H409.1V416h-5.62v-5.5h5.62Z" transform="translate(-212.96 -149.99)"></path>
</svg>
