<?xml version="1.0" encoding="UTF-8"?>
<svg id="Layer_2" data-name="Layer 2" xmlns="http://www.w3.org/2000/svg" viewBox="0 0 466 465.87">
  <defs>
    <style>
      .cls-1 {
        fill: #fff;
        stroke-width: 0px;
      }
    </style>
  </defs>
  <g id="Layer_1-2" data-name="Layer 1">
    <g>
      <path class="cls-1" d="m161.11,355.46c-27.08,0-49.03-21.95-49.03-49.05s21.95-49.03,49.03-49.03,49.03,21.95,49.03,49.03-21.93,49.05-49.03,49.05"/>
      <path class="cls-1" d="m304.88,355.46c-27.08,0-49.03-21.95-49.03-49.05s21.95-49.03,49.03-49.03,49.03,21.95,49.03,49.03-21.93,49.05-49.03,49.05"/>
      <path class="cls-1" d="m50.54,116.98c0-36.72,29.85-66.44,66.44-66.44h232.03c36.59,0,66.42,29.72,66.42,66.44v231.93c0,36.7-29.83,66.42-66.42,66.42H116.98c-36.59,0-66.44-29.72-66.44-66.42V116.98ZM349.02,0H116.98C52.45,0,0,52.47,0,116.98v231.93c0,64.51,52.45,116.96,116.98,116.96h232.03c64.4,0,116.98-52.45,116.98-116.96V116.98C466,52.47,413.42,0,349.02,0"/>
    </g>
  </g>
</svg>