<?xml version="1.0" encoding="UTF-8"?>
<svg id="Layer_2" data-name="Layer 2" xmlns="http://www.w3.org/2000/svg" viewBox="0 0 511.73 383.44">
  <defs>
    <style>
      .cls-1 {
        stroke-width: 0px;
      }
    </style>
  </defs>
  <g id="Layer_1-2" data-name="Layer 1">
    <g>
      <path class="cls-1" d="m511.73,352.77c-8.07,22.79-24.34,31.51-48.18,30.61-28.75-1.09-57.57-.19-86.35-.28-30.15-.1-44.39-14.35-44.43-44.76-.1-64.01-.13-128.03.01-192.04.06-29.39,14.79-43.93,44.01-43.98,28.41-.05,56.86.97,85.21-.31,24.14-1.09,40.92,7.28,49.73,30.15v220.61Zm-25.3-109.39c0-32.56.05-65.12-.02-97.69-.03-14-4.21-18.04-18.37-18.06-30.67-.04-61.34-.05-92.01,0-13.56.02-18.04,4.1-18.06,17.31-.11,65.12-.11,130.25,0,195.37.02,13.51,4.19,17.42,17.85,17.46,30.67.08,61.34.07,92.01,0,14.76-.03,18.56-3.93,18.59-18.99.05-31.8.02-63.61.02-95.41Z"/>
      <path class="cls-1" d="m0,314.1c6.39-2.33,12.77-6.67,19.18-6.7,89.45-.44,178.91-.3,268.36-.3,2.65,0,6.17-1.02,7.79.28,4.3,3.45,10.22,7.6,10.81,12.08.47,3.63-5.2,9.17-9.41,11.94-2.99,1.96-8.08.88-12.24.89-81.87.03-163.75.02-245.62.02-4.1,0-8.19,0-12.06,0-3.65,20.21.51,25.47,19.26,25.48,79.6.02,159.2,0,238.8.01,14.76,0,21.62,3.86,22.04,12.32.44,8.88-6.55,12.99-22.17,12.99-78.84,0-157.69-.49-236.52.3C24.4,383.65,8.08,375.59,0,352.77,0,339.88,0,326.99,0,314.1Z"/>
      <path class="cls-1" d="m256.05.01c53.41,0,106.83-.04,160.24.02,29.56.03,43.68,14.21,43.9,43.87.05,6.06.04,12.12-.04,18.18-.1,7.88-3.46,13.44-11.88,13.67-8.96.25-12.85-5.5-13.26-13.72-.36-7.18-.15-14.39-.12-21.59.04-10.34-5.13-15.23-15.39-15.22-109.1.03-218.2-.02-327.31.08-11.08.01-15.28,4.63-15.29,16.34-.08,65.54-.08,131.07,0,196.61.02,13.78,3.97,17.36,18.99,17.37,62.89.06,125.77.02,188.66.03,15.55,0,22.61,4.12,22.36,12.99-.24,8.56-6.65,12.17-21.83,12.17-62.51.01-125.01.05-187.52-.02-32.62-.03-45.99-13.54-46.01-46.34-.03-62.89-.04-125.77,0-188.66C51.57,13.78,65.23.04,96.94.02c53.04-.03,106.07,0,159.11,0Z"/>
    </g>
  </g>
</svg>