<?xml version="1.0" encoding="UTF-8"?>
<svg id="Layer_2" data-name="Layer 2" xmlns="http://www.w3.org/2000/svg" viewBox="0 0 466.72 511.72">
  <defs>
    <style>
      .cls-1 {
        fill: #1b1b1b;
      }

      .cls-1, .cls-2 {
        stroke-width: 0px;
      }

      .cls-2 {
        fill: #fff;
      }
    </style>
  </defs>
  <g id="Layer_1-2" data-name="Layer 1">
    <g>
      <path class="cls-2" d="m36.83,119.08c21.35-22.84,44.78-41.22,71.25-55.7,26.36-14.41,54.41-24.16,84.85-29.8-7.54-8.59-14.51-16.16-21.03-24.09-4.55-5.53-10.3-8.44-17.15-8.99-5.1-.41-10.37-.46-15.42.32-28.6,4.42-53.64,17-76.58,34.14-13.01,9.72-24.86,20.62-32.66,35.16-2.85,5.31-5.31,11.03-3.51,17.16,3.03,10.31,6.57,20.48,10.25,31.8Zm393.7-.08c3.03-9.08,5.35-17.39,8.57-25.33,3.28-8.1,2.54-15.65-1.5-22.97-2.47-4.48-5.06-9.16-8.61-12.75-8.27-8.37-16.54-16.92-25.89-23.99-22.41-16.93-47.23-29.02-75.36-33.23-14.32-2.15-27.07-.07-36.1,13.12-3.73,5.44-8.72,10.02-13.11,15.01-1.15,1.31-2.18,2.72-3.89,4.89,30.46,5.31,58.25,15.3,84.53,29.57,26.53,14.4,49.9,32.84,71.36,55.69Z"/>
      <path class="cls-1" d="m466.65,278.89c3.1,120.1-99.52,235.48-237.83,232.78C104.13,509.24-.94,407.14,0,275.67.93,147.35,107.34,43.64,236.06,44.89c132.79,1.29,233.63,112.58,230.59,234Zm-28.57-.57c-.59-117.44-97.56-206.57-208.85-204.15-107.02,2.33-201.08,89.85-199.77,206.61,1.27,113.05,93.7,203.38,207.73,201.57,111.31-1.77,200.35-92.14,200.89-204.03Z"/>
      <path class="cls-1" d="m36.83,119.08c-3.68-11.32-7.22-21.48-10.25-31.8-1.8-6.13.66-11.85,3.51-17.16,7.8-14.54,19.65-25.44,32.66-35.16C85.69,17.82,110.74,5.24,139.34.82c5.04-.78,10.31-.73,15.42-.32,6.84.55,12.6,3.46,17.15,8.99,6.52,7.93,13.49,15.5,21.03,24.09-30.44,5.65-58.48,15.39-84.85,29.8-26.47,14.47-49.9,32.85-71.25,55.7Z"/>
      <path class="cls-1" d="m430.53,119c-21.46-22.84-44.83-41.28-71.36-55.69-26.28-14.27-54.07-24.26-84.53-29.57,1.72-2.16,2.74-3.58,3.89-4.89,4.39-5,9.38-9.57,13.11-15.01,9.03-13.19,21.79-15.27,36.1-13.12,28.12,4.22,52.94,16.3,75.36,33.23,9.35,7.06,17.63,15.62,25.89,23.99,3.55,3.59,6.14,8.26,8.61,12.75,4.04,7.32,4.78,14.87,1.5,22.97-3.22,7.94-5.54,16.25-8.57,25.33Z"/>
      <path class="cls-2" d="m218.9,263.76c-2.6,0-4.55,0-6.5,0-49.43,0-98.86-.05-148.29,0-9.91.01-15.45,5.58-15.37,14.98.08,8.84,6.03,14.23,15.63,14.23,55.26-.01,110.51-.02,165.77,0,13.44,0,18.33-4.82,18.34-18.28.03-49.56.07-99.13.09-148.69,0-5.99.08-11.98-.12-17.96-.36-10.6-8.46-16.62-18.75-14.09-7.45,1.83-10.77,6.73-10.78,16.26-.02,41.75,0,83.49,0,125.24,0,9.26,0,18.52,0,28.32Z"/>
      <path class="cls-1" d="m218.9,263.76c0-9.79,0-19.06,0-28.32,0-41.75-.02-83.49,0-125.24,0-9.53,3.33-14.43,10.78-16.26,10.29-2.53,18.39,3.48,18.75,14.09.2,5.98.13,11.97.12,17.96-.02,49.56-.06,99.13-.09,148.69,0,13.46-4.9,18.28-18.34,18.28-55.26-.01-110.51,0-165.77,0-9.6,0-15.55-5.39-15.63-14.23-.08-9.4,5.46-14.97,15.37-14.98,49.43-.05,98.86-.01,148.29,0,1.95,0,3.9,0,6.5,0Z"/>
    </g>
  </g>
</svg>