<svg width="375" height="312" viewBox="0 0 375 312" fill="none" xmlns="http://www.w3.org/2000/svg">
<g clip-path="url(#clip0_32_7)">
<path d="M243.124 47.7931C243.124 47.7931 252.55 43.3499 258.75 51.8005C264.95 60.251 257.962 68.1756 257.962 68.1756C256.061 75.5242 261.238 80.6086 261.238 80.6086L260.937 80.7939C258.353 84.8764 256.623 89.1793 244.062 80.9442C245.254 80.1843 246.195 79.0919 246.77 77.8025C247.345 76.5131 247.529 75.0834 247.298 73.6908C238.871 74.1316 239.773 67.84 239.121 60.3312C238.763 55.7899 240.2 51.2891 243.124 47.7931V47.7931Z" fill="#F2B59E"/>
<path d="M248.176 61.6987C248.81 61.6987 249.324 61.1851 249.324 60.5516C249.324 59.9181 248.81 59.4045 248.176 59.4045C247.541 59.4045 247.027 59.9181 247.027 60.5516C247.027 61.1851 247.541 61.6987 248.176 61.6987Z" fill="#1E1E1E"/>
<path d="M240.431 60.5065C240.439 60.7344 240.515 60.9547 240.648 61.1397C240.782 61.3246 240.967 61.4658 241.181 61.5453C241.395 61.6249 241.628 61.6392 241.85 61.5866C242.072 61.5339 242.274 61.4166 242.429 61.2496C242.585 61.0825 242.687 60.8731 242.723 60.648C242.759 60.4228 242.728 60.192 242.632 59.9848C242.537 59.7776 242.382 59.6033 242.188 59.4839C241.993 59.3646 241.768 59.3056 241.539 59.3143C241.234 59.3261 240.946 59.4582 240.738 59.6816C240.531 59.9051 240.42 60.2018 240.431 60.5065Z" fill="#1E1E1E"/>
<path d="M244.895 59.1089C244.895 59.1089 242.031 62.921 242.573 63.6673C243.114 64.4137 244.403 64.7443 245.858 64.2434L245.106 59.5448C245.106 59.5448 245.091 59.1891 244.895 59.1089Z" fill="#D6998A"/>
<path d="M249.896 57.2305C249.937 57.1129 249.947 56.987 249.926 56.8645C249.905 56.7419 249.853 56.6266 249.776 56.5292C249.46 56.0834 248.808 56.0834 248.126 56.0834C247.444 56.0834 246.621 56.0834 246.385 56.5843C246.33 56.6942 246.304 56.8162 246.31 56.9388C246.315 57.0615 246.351 57.1808 246.415 57.2856C246.586 57.5411 246.917 57.531 248.276 57.506C249.465 57.4609 249.771 57.4559 249.896 57.2305Z" fill="#1E1E1E"/>
<path d="M242.523 57.1554C242.563 57.0385 242.573 56.9135 242.552 56.7919C242.531 56.6702 242.479 56.5557 242.402 56.4591C242.086 56.0082 241.439 56.0082 240.752 56.0082C240.065 56.0082 239.247 56.0082 239.011 56.5092C238.957 56.6192 238.931 56.7411 238.937 56.8637C238.942 56.9862 238.978 57.1055 239.042 57.2105C239.212 57.4659 239.543 57.4559 240.903 57.4309C242.091 57.3858 242.402 57.3858 242.523 57.1554Z" fill="#1E1E1E"/>
<path d="M247.298 73.6908C247.298 73.6908 250.975 72.8693 253.614 70.4698C253.221 72.5419 252.224 74.4522 250.749 75.9616C249.274 77.471 247.386 78.5124 245.322 78.9555L247.298 73.6908Z" fill="#D6998A"/>
<path d="M251.516 65.661C253.673 64.6191 255.665 61.0375 255.886 57.5611C255.349 54.6207 253.483 49.5463 246.992 48.5445C246.992 48.5445 239.362 49.7768 239.106 57.4509C239.106 57.4509 234.913 53.8493 234.893 49.892C234.866 48.5471 235.298 47.233 236.117 46.1651V46.1651C236.544 45.6139 237.051 45.1293 237.622 44.7274C243.541 39.8284 251.055 41.5917 251.055 41.5917L250.965 41.7019C253.327 42.2679 255.901 43.7056 258.293 46.8564C258.293 46.8564 264.659 46.105 265.707 53.4736C265.707 53.4736 263.42 64.1583 257.681 68.7167L257.566 65.5258C257.566 65.5258 260.641 62.3449 259.286 60.3562C259.054 59.9208 258.674 59.5816 258.216 59.3983C257.757 59.2149 257.248 59.1994 256.778 59.3544C256.778 60.6518 257.15 62.7056 256.929 64.9046C256.472 69.4129 255.113 75.3038 248.462 75.3038C241.81 75.3038 238.454 75.2537 239.503 66.3172C239.558 66.3122 248.436 67.1538 251.516 65.661Z" fill="#43200C"/>
<path d="M248.607 68.2358L242.282 68.4762C242.282 68.4762 243.069 71.2914 245.537 70.8907C246.246 70.777 246.908 70.4683 247.45 69.9993C247.993 69.5303 248.393 68.9196 248.607 68.2358V68.2358Z" fill="white"/>
<path d="M285.331 263.36L287.432 282.977L294.821 282.431L296.241 263.205L285.331 263.36Z" fill="#F2B59E"/>
<path d="M308.33 288.912C308.006 288.863 307.688 288.779 307.382 288.662C301.192 286.909 296.171 282.11 295.047 281.479C293.693 282.245 288.561 282.856 287.523 282.27C287.417 282.213 287.306 282.166 287.192 282.13C286.79 282.631 284.037 285.997 284.252 288.467C284.252 288.762 284.297 289.108 284.312 289.468L284.548 293.281L311.595 293.371C311.685 292.863 311.671 292.342 311.554 291.839C311.437 291.336 311.22 290.863 310.915 290.446C310.61 290.03 310.223 289.679 309.779 289.416C309.335 289.152 308.842 288.981 308.33 288.912Z" fill="#1E1E1E"/>
<path d="M244.669 263.35L242.568 282.967L235.179 282.421L233.759 263.195L244.669 263.35Z" fill="#F2B59E"/>
<path d="M221.67 288.907C221.994 288.853 222.312 288.768 222.618 288.652C228.808 286.899 233.825 282.1 234.948 281.469C236.308 282.235 241.439 282.851 242.472 282.26C242.579 282.202 242.692 282.155 242.809 282.12C243.21 282.621 245.964 285.992 245.748 288.457C245.723 288.752 245.703 289.098 245.688 289.458L245.452 293.27L218.405 293.361C218.314 292.853 218.328 292.332 218.445 291.829C218.561 291.327 218.779 290.853 219.084 290.437C219.389 290.021 219.776 289.67 220.22 289.408C220.665 289.145 221.158 288.975 221.67 288.907V288.907Z" fill="#1E1E1E"/>
<path d="M314.114 39.7382C314.114 39.7382 320.635 33.111 322.832 26.1832C324.206 21.8102 327.256 25.7975 323.991 29.314C320.725 32.8305 333.551 25.0111 334.414 26.6892C335.277 28.3673 326.86 31.1424 327.803 31.6984C328.746 32.2544 336.712 27.691 336.461 29.88C336.21 32.0691 328.37 33.086 329.799 33.8223C331.229 34.5587 336.416 31.7134 335.593 33.667C334.77 35.6206 328.601 36.0214 329.152 37.0683C329.704 38.1152 335.498 35.6156 334.695 37.3438C333.893 39.072 326.057 38.4458 324.161 39.9236C322.688 41.2086 321.31 42.5981 320.038 44.0812V44.0812C318.262 46.0849 284.122 85.2571 284.122 85.2571L273.362 75.7396L314.114 39.7382Z" fill="#F2B59E"/>
<path d="M193.344 44.2215C193.344 44.2215 186.823 37.5893 184.631 30.6665C183.256 26.2884 180.207 30.2758 183.472 33.7973C186.738 37.3188 173.911 29.4893 173.058 31.1674C172.206 32.8455 180.613 35.6206 179.67 36.1767C178.727 36.7327 170.756 32.1693 171.012 34.3583C171.268 36.5473 179.078 37.5692 177.663 38.3056C176.249 39.0419 171.047 36.2017 171.865 38.1553C172.682 40.1089 178.862 40.4996 178.31 41.5265C177.759 42.5534 171.965 40.0738 172.768 41.807C173.57 43.5402 181.405 42.9041 183.276 44.3818C184.748 45.6682 186.126 47.0576 187.4 48.5395V48.5395C189.175 50.5431 223.311 89.7103 223.311 89.7103L234.075 80.1928L193.344 44.2215Z" fill="#F2B59E"/>
<path d="M226.812 68.927L214.477 82.8226L226.812 98.4514L225.307 150.733L276.758 145.548L275.253 97.2492L289.996 81.6504L277.36 68.927C277.36 68.927 269.008 76.4759 267.207 76.5911C265.406 76.7063 258.775 76.9117 258.775 76.9117C258.775 76.9117 261.113 83.3486 256.036 84.4757C250.96 85.6027 246.445 81.8057 246.897 77.5228L235.5 77.2674C234.722 76.9351 234.028 76.4337 233.468 75.7997C232.791 74.898 226.812 68.927 226.812 68.927Z" fill="#FCF8EC"/>
<path d="M225.307 150.733C225.307 150.733 222.298 237.267 231.327 276.925H247.123L253.318 183.633L285.466 278.729H303.525C303.525 278.729 289.685 171.461 276.748 145.548C276.758 145.548 239.147 148.028 225.307 150.733Z" fill="#AE1438"/>
<path d="M276.648 164.378C274.113 164.418 271.632 163.65 269.565 162.184C266.43 159.96 264.644 156.423 263.696 153.849C263.079 152.208 262.637 150.507 262.377 148.774C262.364 148.647 262.4 148.519 262.478 148.417C262.557 148.316 262.671 148.248 262.798 148.228C262.927 148.214 263.057 148.25 263.16 148.33C263.263 148.409 263.331 148.525 263.35 148.654C263.35 148.739 264.514 157.41 270.137 161.402C272.81 163.301 276.101 163.857 279.908 163.05C280.023 163.051 280.133 163.091 280.222 163.163C280.311 163.234 280.372 163.335 280.396 163.446C280.42 163.558 280.405 163.674 280.354 163.776C280.303 163.878 280.218 163.96 280.114 164.007C278.975 164.252 277.813 164.376 276.648 164.378V164.378Z" fill="#DB4219"/>
<path d="M227.96 172.267C227.853 172.256 227.753 172.211 227.673 172.138C227.594 172.065 227.54 171.969 227.52 171.864C227.5 171.758 227.514 171.649 227.561 171.552C227.608 171.455 227.684 171.376 227.78 171.326C231.717 169.778 234.08 165.876 234.802 159.734C235.124 156.765 235.086 153.768 234.692 150.808C234.665 150.738 234.654 150.663 234.659 150.588C234.665 150.514 234.687 150.441 234.725 150.376C234.762 150.311 234.814 150.256 234.876 150.213C234.938 150.171 235.008 150.143 235.083 150.131C235.157 150.12 235.232 150.125 235.304 150.147C235.376 150.168 235.442 150.206 235.498 150.256C235.553 150.307 235.596 150.369 235.625 150.439C235.653 150.508 235.665 150.583 235.66 150.658C236.074 153.705 236.112 156.792 235.776 159.85C235.532 162.363 234.83 164.811 233.704 167.073C232.542 169.418 230.559 171.255 228.131 172.237C228.076 172.257 228.019 172.267 227.96 172.267Z" fill="#DB4219"/>
<path d="M58.6695 263.791L56.021 283.407L63.4098 282.861L69.5797 263.636L58.6695 263.791Z" fill="#F2B59E"/>
<path d="M76.9133 289.343C76.5905 289.288 76.2732 289.204 75.9653 289.093C69.7753 287.335 64.7591 282.536 63.6355 281.91C62.2761 282.676 57.1496 283.287 56.1112 282.696C56.0044 282.638 55.8918 282.591 55.7751 282.556C55.3738 283.057 52.625 286.428 52.8407 288.897C52.8407 289.188 52.8858 289.539 52.9008 289.899L53.1316 293.706L80.1839 293.801C80.2736 293.293 80.2594 292.772 80.1421 292.269C80.0248 291.766 79.8068 291.292 79.5012 290.875C79.1957 290.459 78.8089 290.108 78.3641 289.845C77.9194 289.582 77.4259 289.411 76.9133 289.343Z" fill="#1E1E1E"/>
<path d="M100.098 263.35L102.2 282.967L109.589 282.421L111.003 263.195L100.098 263.35Z" fill="#F2B59E"/>
<path d="M123.097 288.907C122.773 288.854 122.456 288.768 122.149 288.652C115.959 286.899 110.938 282.1 109.814 281.469C108.46 282.235 103.328 282.851 102.29 282.26C102.184 282.203 102.074 282.156 101.959 282.12C101.558 282.621 98.8036 285.992 99.0193 288.457C99.0193 288.752 99.0645 289.098 99.0795 289.458L99.3153 293.27L126.363 293.361C126.453 292.853 126.44 292.332 126.323 291.829C126.206 291.327 125.988 290.853 125.683 290.437C125.378 290.021 124.991 289.67 124.547 289.408C124.102 289.145 123.609 288.975 123.097 288.907V288.907Z" fill="#1E1E1E"/>
<path d="M106.845 57.6061C106.663 53.1399 104.738 48.9219 101.482 45.8545C101.482 45.8545 91.7961 42.6335 86.7398 51.5951C81.6835 60.5566 89.4184 67.4643 89.4184 67.4643C92.1272 74.4071 87.6728 79.9874 87.6728 79.9874C87.2604 81.2024 87.2604 82.5193 87.6728 83.7343C88.345 85.8782 99.0646 96.583 101.999 94.8898C104.934 93.1967 106.012 79.8622 105.184 78.6499C103.749 78.1394 102.515 77.183 101.663 75.9208C100.812 74.6587 100.388 73.1573 100.454 71.637C108.721 71.0409 107.095 65.0148 106.845 57.6061Z" fill="#F2B59E"/>
<path d="M96.5515 60.3012C97.1748 60.3012 97.6801 59.7965 97.6801 59.1741C97.6801 58.5516 97.1748 58.047 96.5515 58.047C95.9282 58.047 95.4229 58.5516 95.4229 59.1741C95.4229 59.7965 95.9282 60.3012 96.5515 60.3012Z" fill="black"/>
<path d="M105.263 58.9608C105.665 58.4854 105.606 57.7742 105.13 57.3725C104.653 56.9707 103.941 57.0304 103.539 57.5058C103.137 57.9813 103.197 58.6924 103.673 59.0942C104.149 59.496 104.861 59.4362 105.263 58.9608Z" fill="black"/>
<path d="M100.75 58.2223C100.75 58.2223 103.981 61.6035 103.544 62.395C103.108 63.1864 101.884 63.6573 100.414 63.3367L100.595 58.6731C100.595 58.6731 100.57 58.3325 100.75 58.2223Z" fill="#D6998A"/>
<path d="M98.6182 66.6228L105.485 65.7512C105.485 65.7512 105.139 68.937 102.405 68.942C101.621 68.9449 100.851 68.7295 100.182 68.3198C99.5128 67.9102 98.9714 67.3225 98.6182 66.6228V66.6228Z" fill="white"/>
<path d="M93.933 55.4372C93.8798 55.3273 93.8555 55.2057 93.8625 55.0838C93.8695 54.962 93.9076 54.8439 93.9732 54.7409C94.224 54.24 94.861 54.1899 95.5232 54.1097C96.1853 54.0296 96.9829 53.9344 97.2788 54.3752C97.3441 54.4761 97.3834 54.5917 97.393 54.7114C97.4026 54.8312 97.3824 54.9515 97.334 55.0615C97.1936 55.332 96.8826 55.357 95.5432 55.4923C94.3845 55.6025 94.0835 55.6426 93.933 55.4372Z" fill="black"/>
<path d="M103.183 55.1416C103.13 55.0327 103.106 54.9123 103.112 54.7915C103.118 54.6707 103.155 54.5534 103.218 54.4503C103.474 53.9494 104.106 53.8993 104.773 53.8192C105.44 53.739 106.233 53.6438 106.524 54.0846C106.591 54.1846 106.632 54.3 106.643 54.42C106.653 54.5401 106.633 54.6608 106.584 54.7709C106.444 55.0364 106.133 55.0665 104.793 55.2017C103.63 55.3169 103.334 55.352 103.183 55.1416Z" fill="black"/>
<path d="M100.454 71.5869C98.126 71.2929 95.8957 70.4723 93.9331 69.1875C94.5573 71.1624 95.7513 72.9094 97.3656 74.2095C98.9798 75.5096 100.942 76.305 103.007 76.496L100.454 71.5869Z" fill="#D6998A"/>
<path d="M105.505 51.4498C105.505 51.4498 109.308 44.2716 102.119 41.8772C102.119 41.8772 101.116 36.5273 94.7908 39.4878C88.4654 42.4482 90.4217 42.864 86.3335 42.4432C82.2453 42.0225 76.888 49.7617 80.4094 53.8442C83.9307 57.9268 80.9762 62.1495 82.6667 64.4037C84.3571 66.6579 88.2848 71.0309 90.2461 70.7504C90.2461 70.7504 90.3866 67.5144 89.8248 66.6679C89.263 65.8213 85.6262 62.1596 86.7549 60.7419C87.8835 59.3243 89.4335 60.4614 89.4335 60.4614C89.4335 60.4614 88.0239 50.3278 91.2644 50.0422C94.5049 49.7567 97.4694 44.4119 100.008 46.2452C102.546 48.0786 103.835 51.029 105.505 51.4498Z" fill="#43200C"/>
<path d="M66.9512 86.7449L69.3589 103.275L78.99 100.12C78.99 100.12 83.4243 131.217 82.07 147.206H124.708C124.708 147.206 122.225 98.9825 121.096 93.3471L132.608 77.3476C132.608 77.3476 125.159 68.1106 121.572 64.5039C121.572 64.5039 115.257 73.9663 112.774 75.0934C110.291 76.2205 103.93 77.9938 103.93 77.9938C103.93 77.9938 103.77 92.4604 101.287 93.1367C98.8039 93.8129 87.6028 80.0476 87.6028 80.0476L66.9512 86.7449Z" fill="#AE1438"/>
<path d="M81.7838 147.427L54.1045 273.624H70.9539L97.7303 205.118V274.821H117.288L124.808 147.427H81.7838Z" fill="#FDBA45"/>
<path d="M67.588 89.6652L63.3744 91.0127C63.3744 91.0127 68.7919 71.637 69.2433 68.4712C69.2433 68.4712 72.855 65.0148 73.7579 60.8071C73.7579 60.8071 76.1607 60.5065 76.9131 57.6512C77.6655 54.796 77.214 50.443 74.0589 50.443C70.9037 50.443 67.287 49.5413 66.8356 51.9457C66.3841 54.3502 65.0297 61.1076 65.0297 61.1076C65.0297 61.1076 49.2338 93.1066 48.9328 95.8116C48.6318 98.5166 46.826 105.429 55.2532 107.533L69.9958 103.325L67.588 89.6652Z" fill="#F2B59E"/>
<path d="M122.199 67.8952C122.199 67.8952 138.447 42.5034 141.155 35.1448C141.155 35.1448 135.552 31.5381 139.726 27.5959C139.726 27.5959 140.102 21.6199 143.488 22.8221C143.488 22.8221 144.918 22.3713 145.595 23.2729C145.595 23.2729 147.546 23.0475 148.223 24.4C148.223 24.4 151.007 25.2265 151.007 27.105C151.007 28.9834 149.728 34.2431 147.847 37.1234C147.847 37.1234 138.597 67.0786 130.019 78.9555L122.199 67.8952Z" fill="#F2B59E"/>
<path d="M80.9012 164.378C80.7911 164.367 80.6879 164.319 80.6076 164.243C80.5273 164.167 80.4744 164.067 80.4572 163.957C80.4401 163.848 80.4595 163.736 80.5126 163.639C80.5657 163.542 80.6494 163.466 80.7507 163.421C85.1901 162.004 88.1496 159.444 89.5542 155.807C90.1816 154.215 90.4504 152.505 90.3417 150.798C90.3529 150.684 90.4026 150.578 90.4827 150.496C90.5627 150.415 90.6683 150.363 90.7819 150.349C90.8954 150.336 91.0102 150.362 91.1071 150.422C91.2041 150.483 91.2774 150.575 91.3148 150.683C91.4525 152.56 91.1627 154.444 90.4671 156.193C89.4288 158.888 86.9558 162.499 81.0517 164.383C81.0017 164.391 80.9506 164.389 80.9012 164.378V164.378Z" fill="#DB4219"/>
<path d="M120.188 165.26H120.112C119.124 165.14 118.172 164.815 117.318 164.305C116.463 163.795 115.725 163.112 115.151 162.299C112.297 158.292 113.486 151.78 113.536 151.529C113.534 151.454 113.548 151.38 113.579 151.311C113.609 151.243 113.654 151.182 113.711 151.133C113.768 151.085 113.836 151.049 113.908 151.03C113.98 151.011 114.056 151.008 114.13 151.022C114.204 151.035 114.273 151.065 114.334 151.11C114.394 151.154 114.444 151.211 114.48 151.277C114.515 151.343 114.535 151.416 114.539 151.491C114.542 151.566 114.529 151.641 114.499 151.71C114.499 151.775 113.336 158.056 115.949 161.728C116.449 162.43 117.091 163.02 117.833 163.46C118.575 163.9 119.401 164.18 120.258 164.283C120.365 164.317 120.458 164.386 120.521 164.479C120.585 164.572 120.615 164.684 120.607 164.796C120.599 164.909 120.553 165.015 120.477 165.098C120.401 165.181 120.299 165.236 120.188 165.255V165.26Z" fill="#DB4219"/>
<path d="M178.942 56.7646C178.942 56.7646 184.51 61.5985 184.139 69.1374C183.768 76.6763 184.024 82.9629 175.842 82.8326C175.647 84.3598 175.938 85.9095 176.672 87.2631C177.406 88.6167 178.548 89.7057 179.936 90.3765C179.936 90.3765 180.497 97.8603 162.58 90.2864C162.58 90.2864 167.415 85.0066 165.308 77.7232C165.308 77.7232 158.241 70.0541 163.944 61.3631C169.647 52.672 178.942 56.7646 178.942 56.7646Z" fill="#F2B59E"/>
<path d="M173.55 71.3064C174.165 71.3064 174.664 70.7906 174.664 70.1543C174.664 69.518 174.165 69.0022 173.55 69.0022C172.935 69.0022 172.437 69.518 172.437 70.1543C172.437 70.7906 172.935 71.3064 173.55 71.3064Z" fill="black"/>
<path d="M181.095 71.1812C181.71 71.1812 182.208 70.6654 182.208 70.0291C182.208 69.3928 181.71 68.877 181.095 68.877C180.48 68.877 179.981 69.3928 179.981 70.0291C179.981 70.6654 180.48 71.1812 181.095 71.1812Z" fill="black"/>
<path d="M177.789 69.5833C177.789 69.5833 175.251 73.5906 175.817 74.2819C176.384 74.9732 177.658 75.2487 179.033 74.6576L178.03 70.009C178.03 70.009 177.984 69.6584 177.789 69.5833Z" fill="#D6998A"/>
<path d="M171.117 66.8632C171.073 66.7477 171.059 66.623 171.076 66.5005C171.092 66.378 171.139 66.2616 171.212 66.1619C171.498 65.7011 172.13 65.661 172.793 65.661C173.455 65.661 174.242 65.6009 174.493 66.0768C174.552 66.1842 174.583 66.3048 174.583 66.4274C174.583 66.5501 174.552 66.6707 174.493 66.7781C174.338 67.0386 174.032 67.0386 172.697 67.0636C171.554 67.0786 171.248 67.0886 171.117 66.8632Z" fill="black"/>
<path d="M179.113 66.723C179.068 66.6078 179.053 66.4834 179.069 66.3609C179.085 66.2384 179.131 66.1218 179.203 66.0217C179.494 65.5608 180.121 65.5208 180.783 65.5208C181.446 65.5208 182.233 65.4606 182.489 65.9365C182.547 66.0443 182.577 66.1648 182.577 66.2872C182.577 66.4095 182.547 66.53 182.489 66.6378C182.328 66.8983 182.022 66.8983 180.693 66.9283C179.539 66.9384 179.238 66.9484 179.113 66.723Z" fill="black"/>
<path d="M175.842 82.8327C173.556 82.3316 171.418 81.3022 169.602 79.8271C169.602 79.8271 170.761 86.5596 177.949 88.0072L175.842 82.8327Z" fill="#D6998A"/>
<path d="M176.871 80.2479C176.085 80.1427 175.342 79.8301 174.717 79.3423C174.093 78.8545 173.61 78.2091 173.319 77.4728H180.447C180.202 78.2342 179.264 80.5535 176.871 80.2479Z" fill="white"/>
<path d="M166.898 54.6407C166.898 54.6407 161.852 52.9977 163.728 47.0267C163.874 46.5437 164.083 46.0822 164.35 45.6541C166.698 42.9993 171.017 44.1514 171.905 46.656C172.284 47.6608 172.441 48.7356 172.366 49.8069C172.291 50.8781 171.984 51.9204 171.468 52.8624C171.468 52.8624 183.668 52.627 187.655 67.0335C191.598 81.2648 183.612 86.3692 175.953 85.3623C175.747 84.5264 175.71 83.6581 175.842 82.8076C176.67 82.8727 181.516 82.9228 183.081 77.7984C185.087 71.2864 183.964 60.6317 179.409 57.8967C172.687 53.8593 167.751 63.1764 167.751 68.5664C167.751 68.5664 165.273 67.0987 164.506 68.8619C163.738 70.6252 165.083 72.8342 167.601 73.9313C167.601 73.9313 166.728 81.4451 165.554 84.0048C165.554 84.0048 153.515 82.9479 151.509 77.0921C149.502 71.2363 157.042 58.1522 166.898 54.6407Z" fill="#43200C"/>
<path d="M156.364 275.508L146.758 276.279L143.367 284.244C143.367 284.244 134.338 290.581 133.21 290.756C132.081 290.931 128.319 290.325 129.006 293.15H155.361C155.361 293.15 154.388 286.728 151.99 284.329L156.364 275.508Z" fill="#F29262"/>
<path d="M129.217 291.607H133.23V290.741C133.591 290.614 133.936 290.446 134.258 290.24V291.592H149.191C149.191 290.591 149.382 287.64 150.997 285.251H141.888C141.993 283.497 143.132 283.367 143.132 283.367H152.723L152.251 284.309C154.654 286.708 155.361 293.13 155.361 293.13H129.006C128.919 292.878 128.892 292.608 128.929 292.344C128.966 292.079 129.064 291.827 129.217 291.607V291.607Z" fill="#1E1E1E"/>
<path d="M185.839 275.533L195.445 275.007L196.815 284.284C196.815 284.284 205.844 290.621 206.978 290.796C208.111 290.971 211.868 290.365 211.181 293.19H184.826C184.826 293.19 185.794 286.769 188.197 284.369L185.839 275.533Z" fill="#F29262"/>
<path d="M210.971 291.632H206.958V290.766C206.597 290.639 206.252 290.471 205.929 290.265V291.617H190.986C190.986 290.616 190.8 287.665 189.185 285.281H198.3C198.194 283.523 197.056 283.392 197.056 283.392H187.46L187.931 284.334C185.533 286.733 184.826 293.155 184.826 293.155H211.181C211.269 292.903 211.295 292.633 211.258 292.369C211.222 292.104 211.123 291.852 210.971 291.632V291.632Z" fill="#1E1E1E"/>
<path d="M209.983 34.6238C209.983 34.6238 212.992 27.4706 212.531 21.4395C212.24 17.6275 215.836 19.7714 214.397 23.5033C212.957 27.2352 220.466 17.2167 221.65 18.2486C222.834 19.2805 217.201 24.0443 218.089 24.1745C218.977 24.3048 223.747 18.3287 224.223 20.092C224.7 21.8552 218.951 25.0712 220.286 25.2014C221.62 25.3317 224.76 21.5397 224.725 23.2929C224.69 25.0461 220.04 27.2702 220.782 27.8914C221.525 28.5125 225.242 24.8057 225.162 26.3886C225.081 27.9715 218.816 29.8951 217.823 31.6283C217.081 33.0839 216.444 34.5905 215.917 36.1366C215.164 38.2404 200.868 79.1008 200.868 79.1008L189.612 75.0433L209.983 34.6238Z" fill="#F2B59E"/>
<path d="M116.24 53.1379C116.24 53.1379 110.677 47.728 108.716 41.9924C107.492 38.3707 105.024 41.7469 107.808 44.6222C110.592 47.4975 99.7818 41.2059 99.0746 42.6186C98.3673 44.0312 105.45 46.1951 104.673 46.681C103.895 47.1669 97.1484 43.5102 97.4242 45.3185C97.7001 47.1269 104.221 47.8231 103.047 48.4844C101.874 49.1456 97.4945 46.8463 98.2118 48.4593C98.9291 50.0723 104.081 50.2927 103.639 51.1593C103.198 52.0259 98.3272 50.0573 99.0294 51.4899C99.7317 52.9225 106.248 52.2513 107.833 53.4485C109.081 54.496 110.254 55.6292 111.344 56.8398C112.849 58.4828 142.003 90.5168 142.003 90.5168L150.801 82.3818L116.24 53.1379Z" fill="#F2B59E"/>
<path d="M139.395 89.2094C139.395 89.2094 161.06 113.755 161.737 117.381C162.414 121.008 161.963 143.069 161.737 148.704L203.035 142.843L196.038 102.94L204.159 74.5624L190.615 68.927C190.615 68.927 185.97 80.6636 185.429 82.0011C184.149 85.1269 176.876 87.6465 176.876 87.6465C176.876 87.6465 180.688 91.4635 173.916 92.3652C172.033 92.6667 170.103 92.4258 168.352 91.6708C166.601 90.9158 165.101 89.6779 164.029 88.1023C164.029 88.1023 159.515 89.7854 158.833 89.7854C158.151 89.7854 148.635 78.3944 148.635 78.3944L139.395 89.2094Z" fill="#80BBBF"/>
<path d="M161.737 148.704C161.737 148.704 145.931 235.689 144.577 277.902L157.212 275.949L182.048 179.576L184.756 276.925L198.746 274.826C198.746 274.826 208.222 183.183 207.319 167.409C206.416 151.634 203.035 142.863 203.035 142.863L161.737 148.704Z" fill="#FCF8EC"/>
<path d="M161.426 163.516C161.322 163.509 161.223 163.47 161.143 163.404C161.062 163.339 161.004 163.249 160.977 163.149C160.949 163.049 160.954 162.943 160.989 162.845C161.025 162.748 161.09 162.664 161.175 162.605C164.063 160.838 166.339 158.23 167.696 155.131C168.355 153.711 168.82 152.21 169.081 150.668C169.12 150.563 169.193 150.473 169.288 150.415C169.384 150.356 169.497 150.331 169.608 150.344C169.72 150.356 169.824 150.406 169.904 150.485C169.983 150.563 170.035 150.667 170.049 150.778C169.78 152.405 169.292 153.989 168.599 155.487C167.165 158.778 164.754 161.552 161.692 163.431C161.613 163.484 161.521 163.514 161.426 163.516Z" fill="#F3E7D1"/>
<path d="M203.547 159.795C203.483 159.795 203.42 159.783 203.361 159.759C199.664 158.257 197.126 155.016 195.646 152.561C194.685 150.982 193.899 149.302 193.304 147.552C193.294 147.439 193.323 147.325 193.386 147.231C193.449 147.136 193.543 147.066 193.652 147.031C193.76 146.997 193.877 147.001 193.984 147.041C194.09 147.082 194.179 147.158 194.237 147.256C194.267 147.347 197.111 156.148 203.732 158.838C203.828 158.888 203.904 158.968 203.951 159.065C203.998 159.162 204.011 159.272 203.991 159.378C203.97 159.483 203.915 159.58 203.835 159.652C203.755 159.724 203.654 159.769 203.547 159.779V159.795Z" fill="#F3E7D1"/>
</g>
<defs>
<clipPath id="clip0_32_7">
<rect width="375" height="312" fill="white"/>
</clipPath>
</defs>
</svg>
