<svg width="275" height="235" viewBox="0 0 275 235" fill="none" xmlns="http://www.w3.org/2000/svg">
<path d="M180.278 68.6719C190.316 70.2453 201.484 69.2962 209.184 62.6603C216.883 56.0243 218.847 42.4526 211.08 35.9022C202.703 28.8274 189.746 33.4404 179.248 30.2866C171.1 27.8284 165.225 20.9712 158.884 15.2985C150.835 8.09521 137.364 1.74106 128.988 12.0875C123.748 18.5523 122.978 29.2555 127.255 36.2768C137.115 52.3744 162.356 65.8676 180.278 68.6719Z" fill="#99D4C0"/>
<path d="M222.725 200.693H23.6473C6.3734 190.039 2.23136 165.483 17.1099 152.549C21.3018 148.9 26.4919 146.128 30.6553 142.463C40.793 133.566 43.7337 120.511 43.7123 108.242C43.691 95.9722 41.1744 83.7063 42.3935 71.494C43.6125 59.2816 49.4264 46.4591 61.9166 39.9623C74.5994 33.3691 91.3565 34.8176 104.945 40.0086C118.533 45.1997 129.868 53.6374 141.788 61.1547C153.708 68.6719 167.015 75.5327 181.897 76.7064C190.302 77.3772 198.768 76.1855 207.205 76.3782C215.643 76.5709 224.672 78.4689 230.043 83.899C236.606 90.535 235.715 100.503 231.437 108.327C227.16 116.151 220.084 122.641 214.58 129.912C209.077 137.183 205.07 146.053 207.954 154.308C210 160.167 215.201 164.837 220.287 169.225C225.374 173.613 230.682 178.144 233.031 183.942C235.38 189.74 229.049 197.617 222.725 200.693Z" fill="#99D4C0"/>
<path d="M47.7261 143.53C49.7686 150.748 58.8262 154.708 60.8295 161.936C62.904 169.428 56.7587 177.456 56.6981 185.312C56.6447 191.541 60.5265 196.968 65.9446 200.693H108.313C111.942 196.682 115.275 192.423 117.581 188.562C121.905 181.327 123.284 172.368 118.75 165.925C114.216 159.482 104.61 156.381 102.068 149.05C99.6085 141.964 104.813 133.551 102.389 126.448C99.1451 116.933 84.6408 115.031 78.1497 107.114C74.3677 102.498 73.7261 96.3469 71.6872 90.8525C69.6482 85.3582 64.5865 79.5642 57.8352 79.6962C52.1889 83.4423 51.3299 91.0916 52.7557 96.7714C54.1815 102.451 57.1651 107.874 56.6767 113.825C55.8462 124.043 44.9885 133.855 47.7261 143.53Z" fill="#F173AC"/>
<path d="M66.0945 141.607C67.879 144.213 70.0114 146.562 72.4323 148.589C73.6768 149.637 74.9864 150.605 76.3533 151.486C77.0092 151.911 77.6829 152.314 78.3673 152.703C78.9315 153.077 79.528 153.399 80.1496 153.666C81.9889 159.693 83.833 165.718 85.6818 171.74C82.6828 171.055 79.7183 170.28 76.7882 169.414C76.7595 169.39 76.7259 169.371 76.6896 169.361C76.6534 169.351 76.6153 169.348 76.5779 169.354C72.2719 168.073 68.0514 166.603 63.9486 164.947C63.0183 164.573 62.095 164.184 61.1754 163.788C61.2039 164.066 61.2253 164.341 61.236 164.619C65.1332 166.284 69.1315 167.774 73.2308 169.09C73.7334 169.25 74.2395 169.411 74.7493 169.564C70.5004 170.029 66.2255 170.213 61.9525 170.113L60.5694 170.064C60.5159 170.274 60.4589 170.485 60.4019 170.695L61.7101 170.745C66.5064 170.899 71.3071 170.634 76.0575 169.953C79.2834 170.891 82.57 171.705 85.8886 172.411L90.1197 186.193C90.1187 186.247 90.135 186.299 90.1661 186.343L92.0803 192.59C86.0121 189.722 80.1728 186.392 74.6138 182.629C69.5348 179.133 64.7645 175.207 60.3555 170.895C60.2676 171.216 60.1749 171.537 60.0775 171.858C66.5252 178.157 73.7524 183.602 81.5826 188.063C84.9713 190.03 88.4784 191.785 92.0838 193.318C92.1591 193.342 92.2402 193.342 92.3155 193.318C93.0641 195.768 93.8138 198.22 94.5648 200.675H96.511L93.0676 189.822C92.5971 188.33 92.1195 186.843 91.6418 185.355C93.6617 183.131 95.5902 180.85 97.4271 178.512C105.367 175.969 112.834 172.134 119.528 167.159C119.417 166.967 119.303 166.771 119.171 166.581C114.529 170.016 109.524 172.929 104.246 175.269C102.207 176.175 100.118 177.003 98.0153 177.766C100.453 174.623 102.735 171.391 104.866 168.098C106.901 164.953 108.792 161.751 110.541 158.49L109.86 157.976C106.529 164.214 102.721 170.185 98.4715 175.836C96.2366 178.815 93.8661 181.73 91.403 184.581C89.5565 178.772 87.7077 172.963 85.8565 167.152C91.2034 160.395 96.3185 153.513 101.501 146.67C101.459 146.335 101.427 145.996 101.405 145.657C97.5198 150.778 93.6261 155.891 89.7241 160.998C88.3481 162.806 86.9841 164.622 85.6319 166.446L82.9692 158.079C86.9793 151.658 90.3087 144.879 93.3528 138.129C96.9305 134.854 100.02 131.083 102.528 126.93C102.482 126.765 102.432 126.605 102.375 126.441C102.343 126.348 102.311 126.255 102.275 126.162C100.673 128.872 98.8195 131.425 96.7392 133.787C95.8373 134.811 94.9141 135.817 93.9481 136.794C96.0868 131.959 98.0379 127.075 99.8011 122.142C99.6158 121.931 99.4233 121.731 99.2237 121.532C98.885 122.491 98.5357 123.451 98.1828 124.407C95.3964 131.925 92.1769 139.275 88.5406 146.42C86.6835 150.063 84.6802 153.656 82.709 157.259C80.3682 149.914 78.0311 142.568 75.6975 135.221C79.9145 128.251 83.2538 120.785 85.6391 112.994L85.0901 112.673C83.6612 117.286 81.9163 121.796 79.868 126.17C79.127 120.631 79.3683 115.005 80.5809 109.551C80.3956 109.398 80.2245 109.241 80.0391 109.08C79.0905 113.081 78.7007 117.195 78.8806 121.303C78.9757 123.158 79.184 125.004 79.5044 126.833C79.5074 126.862 79.52 126.888 79.5401 126.908C79.3024 127.408 79.0648 127.906 78.8272 128.403C77.7815 130.515 76.6825 132.611 75.5299 134.689C73.7049 128.938 71.8857 123.187 70.0726 117.436L68.9283 113.804C68.9571 113.786 68.9814 113.762 68.9993 113.734C69.0172 113.705 69.0283 113.673 69.0317 113.64C70.1581 106.783 71.2869 99.9253 72.418 93.0681C72.2636 92.5758 72.1032 92.087 71.9368 91.6018C71.1906 96.2827 70.448 100.964 69.709 105.644L68.5861 112.719C65.1261 101.716 61.6471 90.7194 58.149 79.7283H57.8282L57.568 79.9103C58.3095 82.3649 59.0533 84.8207 59.7994 87.2777C58.1027 85.7435 56.4784 84.1488 54.9267 82.4933C54.7841 82.686 54.6486 82.8858 54.5167 83.0856C56.2895 84.9051 58.1562 86.6462 60.1167 88.3088C63.2844 98.7123 66.4723 109.109 69.6805 119.498C68.6111 118.574 67.3849 117.764 66.262 116.886C65.0382 115.935 63.8334 114.961 62.6475 113.964C60.4518 112.128 58.3249 110.233 56.267 108.277C56.3561 108.698 56.4381 109.123 56.5058 109.551C58.0457 110.992 59.6272 112.412 61.2502 113.811C62.562 114.926 63.8963 116.023 65.2532 117.1C66.622 118.171 67.973 119.362 69.5058 120.269C69.5668 120.304 69.6377 120.319 69.7078 120.311C69.778 120.302 69.8434 120.271 69.8943 120.222C72.5844 128.966 75.2685 137.709 77.9467 146.452C69.1682 143.127 61.0591 138.249 54.007 132.049C52.9056 131.075 51.8362 130.069 50.7989 129.042L50.4888 129.67C55.0962 134.372 60.3512 138.392 66.0945 141.607V141.607ZM70.4397 143.905C72.9524 145.136 75.5271 146.237 78.1535 147.201C78.1641 147.203 78.1749 147.203 78.1855 147.201C78.4422 148.047 78.7024 148.893 78.959 149.735C79.2585 150.723 79.5615 151.708 79.8645 152.696C79.508 152.525 79.123 152.368 78.7951 152.2C78.0822 151.811 77.4013 151.401 76.7276 150.976C75.3776 150.118 74.0824 149.177 72.8494 148.158C70.6908 146.377 68.7415 144.357 67.0391 142.135C68.1631 142.756 69.2967 143.346 70.4397 143.905V143.905Z" fill="#60489D"/>
<path d="M61.3499 200.689C60.1129 199.168 58.9656 197.577 57.9137 195.923L67.8054 195.755L55.7749 192.226C52.2254 185.331 50.1128 177.786 49.5655 170.049L51.8931 170.299L49.4692 168.644C48.7206 155.489 51.8896 141.172 59.1292 127.293C61.782 129.16 64.2719 131.249 66.572 133.537L63.5101 138.785L67.6771 134.689C75.6154 143.059 80.645 153.552 82.7624 165.211L71.6658 174.923L83.2828 168.501C84.6266 178.648 83.8496 189.576 80.9516 200.7L61.3499 200.689Z" fill="#EE4D9B"/>
<path d="M70.7854 185.501L73.0454 197.032C73.283 198.252 73.5207 199.472 73.7583 200.693H73.0739C72.1043 195.776 71.1383 190.859 70.1759 185.94C70.1361 185.925 70.1007 185.899 70.0731 185.867C70.0454 185.834 70.0263 185.795 70.0174 185.754C70.0086 185.712 70.0103 185.669 70.0224 185.628C70.0345 185.587 70.0566 185.549 70.0868 185.519C63.4184 183.091 56.891 180.292 50.5351 177.135C50.4816 176.86 50.4281 176.589 50.3782 176.314C54.2874 178.269 58.2548 180.108 62.2804 181.83C64.8255 182.919 67.3908 183.954 69.9763 184.934L68.9604 179.754C68.2094 175.907 67.4561 172.064 66.7004 168.223C60.9306 164.21 55.3686 159.922 50.0146 155.357C50.0479 155.1 50.0836 154.844 50.1216 154.587C53.3535 157.348 56.6578 160.023 60.0347 162.611C62.1877 164.275 64.3609 165.9 66.5543 167.484C65.3661 161.369 64.1672 155.256 62.9576 149.146C59.8945 145.961 56.8503 142.767 53.8252 139.563C53.9 139.345 53.9749 139.128 54.0533 138.91C55.6621 140.606 57.265 142.304 58.8619 144.005C60.1666 145.406 61.4736 146.805 62.783 148.204C62.272 145.588 61.7611 142.98 61.2502 140.38C60.4351 136.234 59.6224 132.087 58.812 127.939C58.9225 127.725 59.033 127.508 59.1471 127.293L59.4287 127.497C60.8022 134.54 62.1841 141.581 63.5743 148.621C66.0707 145.151 68.3699 141.543 70.4611 137.815C70.593 137.979 70.7284 138.143 70.8603 138.311C69.7648 140.244 68.6063 142.147 67.3848 144.019C66.2263 145.781 64.9681 147.483 63.6741 149.153C64.2326 151.993 64.791 154.834 65.3495 157.676L67.3171 167.727C71.3946 162.454 75.1559 156.944 78.5812 151.226C78.6952 151.486 78.8057 151.747 78.9127 152.011C76.8452 155.491 74.6352 158.881 72.2826 162.182C70.7997 164.261 69.255 166.283 67.6486 168.248L67.7484 168.319C67.9766 168.483 67.7698 168.793 67.5381 168.758L70.7142 184.962C75.314 180.695 79.6293 176.131 83.6322 171.298C83.6607 171.598 83.6892 171.901 83.7106 172.204C81.2154 175.175 78.5895 178.029 75.8329 180.767C74.1813 182.387 72.4988 183.965 70.7854 185.501Z" fill="#60489D"/>
<path d="M24.0965 153.591C26.9566 154.139 29.765 154.929 32.4911 155.953L31.9136 161.362L33.8135 156.47C43.3987 160.395 51.3833 167.117 57.4146 175.875L53.5292 185.441L59.0579 178.387C63.1108 184.916 66.1478 192.451 68.0442 200.693H37.8486C35.6437 198.03 33.6981 195.163 32.0384 192.13L34.0381 191.474L31.4431 191.013C25.9786 180.528 23.2873 167.613 24.0965 153.591Z" fill="#F173AC"/>
<path d="M55.1047 196.918C55.9959 198.174 56.8882 199.431 57.7817 200.689H57.0332C56.2775 199.626 55.523 198.564 54.7697 197.503C54.7312 197.505 54.6929 197.497 54.6582 197.481C54.6234 197.464 54.5934 197.439 54.5708 197.408C54.5481 197.377 54.5336 197.34 54.5285 197.302C54.5234 197.264 54.5279 197.225 54.5415 197.189C48.1892 197.665 41.8153 197.784 35.4497 197.546C35.3071 197.342 35.1609 197.139 35.0219 196.932C38.9382 197.089 42.8592 197.127 46.785 197.046C49.2683 196.999 51.7493 196.898 54.2279 196.743L51.4867 192.879L45.3841 184.281C39.1818 183.125 33.0483 181.671 26.9838 179.918C26.9196 179.693 26.8519 179.472 26.7877 179.247C30.4521 180.317 34.145 181.273 37.8629 182.151C40.2333 182.708 42.6073 183.239 44.992 183.728C41.753 179.173 38.5188 174.617 35.2893 170.06C31.6106 168.585 27.9403 167.098 24.2783 165.597C24.2569 165.393 24.2391 165.186 24.2248 164.98C26.1639 165.768 28.1066 166.564 30.0386 167.37L34.7938 169.361C33.406 167.417 32.0265 165.472 30.6553 163.524L24.0715 154.248C24.0715 154.03 24.0929 153.812 24.1072 153.595L24.4137 153.655C28.1352 158.91 31.8625 164.161 35.5958 169.411C36.3593 165.65 36.9103 161.849 37.2462 158.026L37.7559 158.283C37.573 160.271 37.3258 162.253 37.0145 164.227C36.7151 166.1 36.3016 167.955 35.8703 169.8L40.383 176.154C42.1534 178.653 43.9262 181.151 45.7014 183.646C47.0934 177.826 48.1396 171.929 48.8347 165.986L49.3943 166.503C48.9856 170.113 48.4271 173.705 47.7189 177.278C47.2746 179.525 46.7529 181.755 46.1541 183.967L46.261 183.988C46.5105 184.038 46.4535 184.37 46.261 184.424L54.8374 196.511C57.0283 191.32 58.8764 185.99 60.3696 180.556L60.7689 181.27C59.8183 184.623 58.7216 187.931 57.4788 191.192C56.7302 193.121 55.9389 195.029 55.1047 196.918Z" fill="#60489D"/>
<path d="M106.107 52.824C106.107 52.824 104.104 61.2688 105.394 64.99C106.684 68.7111 110.256 69.8564 111.4 72.2896C112.544 74.7228 111.4 84.3093 111.4 84.3093L116.476 82.1687L117.275 86.5998H119.413L120.411 90.4637H123.691C123.691 90.4637 124.839 94.9019 125.983 95.6155C127.127 96.329 133.561 91.7516 135.276 91.8943C136.99 92.037 145.713 107.207 145.713 107.207L168.605 91.6339C168.605 91.6339 145.435 73.6061 144.159 71.0302C142.883 68.4543 151.88 57.7225 146.297 49.1385C140.715 40.5545 122.949 32.4665 106.107 52.824Z" fill="#EC008C"/>
<path d="M122.379 81.4694L120.404 90.4637L119.406 86.5998L122.379 81.4694Z" fill="#9D0170"/>
<path d="M147.092 47.451C144.551 42.5489 139.339 39.3379 133.903 38.5316C128.467 37.7253 122.821 39.1096 117.945 41.6891C113.068 44.2685 108.278 47.8862 106.125 52.8311L118.044 48.1217C119.731 47.4581 121.709 48.0896 122.34 49.7878C122.971 51.4861 122.468 53.3734 121.983 55.1181C121.499 56.8627 121.035 58.775 121.748 60.4411C122.358 61.8682 123.716 62.8315 124.839 63.9161C126.547 65.6013 127.792 67.6986 128.456 70.0057C129.119 72.3129 129.177 74.7521 128.624 77.0882C130.05 79.1361 131.351 81.0127 131.914 83.4638C132.317 85.1476 132.129 86.9192 131.38 88.48C129.155 85.9612 122.931 78.9648 122.379 78.8471C121.702 78.7115 117.078 82.1223 117.078 82.1223L117.756 85.7792C117.756 85.7792 121.837 79.6605 122.39 80.2028C122.942 80.7451 128.806 90.8561 128.806 90.8561L129.362 90.6099C127.619 91.6053 125.195 91.7374 123.698 90.4601C123.698 90.4601 124.571 96.3576 126.396 96.0044C128.221 95.6512 136.783 90.6206 136.783 90.6206C136.783 90.6206 125.309 58.6894 126.528 55.8423C127.747 52.9952 130.745 51.982 132.167 54.219C133.59 56.456 132.167 60.4483 132.167 60.4483C132.167 60.4483 135.14 63.3488 132.167 65.4146L133.679 68.7468L144.162 71.048C145.752 67.0414 147.923 64.3371 148.629 60.0843C149.334 55.8316 149.074 51.2792 147.092 47.451Z" fill="#741472"/>
<path d="M117.26 86.5998L122.379 81.4694L119.406 86.5998H117.26Z" fill="#BA006F"/>
<path d="M113.988 69.6423L115.342 65.3967L112.53 67.5195L113.988 69.6423Z" fill="#F391BC"/>
<path d="M113.521 68.9609C113.676 68.8334 113.794 68.6668 113.863 68.4783C113.931 68.2898 113.948 68.0862 113.912 67.8889C113.876 67.6915 113.787 67.5075 113.656 67.356C113.524 67.2044 113.355 67.0909 113.165 67.0272L112.512 67.5195L113.521 68.9609Z" fill="#FCDFEB"/>
<path d="M108.987 67.02C107.309 64.8769 106.219 62.3325 105.825 59.6384C105.717 58.7355 105.556 57.8396 105.344 56.9554C104.959 59.6348 104.702 62.992 105.39 64.99C106.677 68.7111 110.252 69.8564 111.397 72.2896C112.541 74.7228 111.397 84.3093 111.397 84.3093L111.71 84.1773C111.824 83.6814 111.949 83.1926 112.067 82.7145C113.065 79.0683 114.241 75.0439 112.58 71.6545C111.732 69.8849 110.206 68.5577 108.987 67.02Z" fill="#F067A6"/>
<path d="M140.088 83.9668L139.457 96.9784C142.401 101.434 145.72 107.207 145.72 107.207L145.791 107.161C144.793 99.2346 142.879 91.4512 140.088 83.9668V83.9668Z" fill="#F067A6"/>
<path d="M119.413 76.7742L116.07 66.6526C116.07 66.6526 113.546 73.6596 119.413 76.7742Z" fill="#F067A6"/>
<path d="M114.498 60.9049C112.778 60.6762 111.031 61.0116 109.518 61.8606C108.006 62.7097 106.808 64.0268 106.107 65.6143C106.574 65.9997 106.948 66.2672 107.415 66.6525C108.076 65.3682 108.737 64.0838 109.4 62.7994C111.208 62.0585 113.2 61.8953 115.104 62.332C114.84 61.8539 114.779 61.383 114.498 60.9049Z" fill="#741472"/>
<path d="M131.611 57.5405C131.458 56.7164 131.216 55.7567 130.51 55.2108C130.238 55.0051 129.902 54.9035 129.562 54.9244C129.222 54.9454 128.901 55.0875 128.656 55.325C128.036 55.9101 127.833 56.8056 127.751 57.619C127.706 58.0564 127.696 58.4966 127.722 58.9355C127.551 58.9712 127.459 59.2638 127.655 59.3494C127.694 59.3494 127.726 59.3851 127.762 59.3993C127.968 61.251 128.724 63.0313 129.579 64.676C129.847 65.2772 130.164 65.8548 130.528 66.4028C130.597 66.5256 130.703 66.6234 130.831 66.6823C130.959 66.7412 131.102 66.7583 131.241 66.731C131.953 66.4991 131.515 65.1256 131.437 64.651C131.08 62.4462 130.264 60.0522 128.118 59.0675C128.091 58.7853 128.078 58.5019 128.079 58.2184C128.079 57.273 128.239 55.5961 129.369 55.2715C130.556 54.9325 131.077 56.5095 131.258 57.3657C131.475 58.6345 131.569 59.9213 131.54 61.2082C131.54 61.3081 131.697 61.3366 131.715 61.2332C131.908 60.0065 131.873 58.7544 131.611 57.5405V57.5405ZM130.873 64.3192C130.909 64.5119 131.255 65.9247 131.134 66.0353C130.841 66.3029 130.25 64.9365 130.164 64.7795C129.567 63.7312 129.065 62.6315 128.663 61.4936C128.458 60.8886 128.302 60.2683 128.196 59.6384C129.818 60.6195 130.535 62.4854 130.873 64.3157V64.3192Z" fill="#A4006F"/>
<path d="M111.71 84.1773L116.604 77.2701L116.472 82.1615L111.71 84.1773Z" fill="#A4006F"/>
<path d="M114.159 82.3256L117.26 79.8889C116.697 76.9562 114.159 82.3256 114.159 82.3256Z" fill="#2E0557"/>
<path d="M162.459 79.0112L136.794 102.351L142.626 111.289L136.783 200.693H206.988C206.988 200.693 227.306 113.058 173.42 95.5869L162.459 79.0112Z" fill="#741472"/>
<path d="M187.8 160.848C184.428 160.809 181.105 162.161 178.35 164.059C176.953 165.017 175.678 166.142 174.554 167.409C174.026 165.65 173.185 163.952 172.543 162.232C171.902 160.513 171.292 158.725 170.74 156.945C167.377 146.109 165.851 134.785 166.227 123.444C166.397 119.176 166.788 114.92 167.4 110.693C167.439 110.425 167.043 110.3 166.986 110.579C165.56 118.071 165.3 125.806 165.796 133.412C166.29 141.045 167.646 148.597 169.838 155.925C170.441 157.939 171.109 159.936 171.841 161.915C172.554 163.834 173.228 165.939 174.304 167.691C173.283 168.888 172.408 170.203 171.698 171.608C170.843 173.285 170.279 175.094 170.03 176.96C170.009 177.128 170.294 177.167 170.33 176.999C170.996 173.75 172.458 170.717 174.583 168.172C176.708 165.627 179.43 163.648 182.506 162.414C184.234 161.772 186.027 161.324 187.853 161.076C187.96 161.055 187.924 160.848 187.8 160.848Z" fill="#6F60AA"/>
<path d="M157.586 103.568L148.999 107.207L144.294 95.5227L136.783 102.351L142.615 111.289L136.783 200.693H156.841C154.685 179.975 148.732 122.124 148.999 117.793C149.313 112.509 157.586 103.568 157.586 103.568Z" fill="#6F60AA"/>
<path d="M52.7735 200.907H35.2678C35.2678 200.907 40.882 180.856 52.7735 200.907Z" fill="#741472"/>
<path d="M54.6736 202.377L44.126 190.517L103.697 189.09C103.697 189.09 119.702 190.992 120.408 202.391L54.6736 202.377Z" fill="#FFF579"/>
<path d="M96.5039 203.961C96.4362 203.961 61.9026 195.398 61.9026 195.398C61.9026 195.398 56.5343 197.731 52.7737 203.961H96.5039Z" fill="#741472"/>
<path d="M153.705 218.845L90.1089 211.71V216.491C88.2232 204.799 70.6214 192.587 61.3178 195.412C58.377 196.301 56.1741 198.602 54.7412 200.593C52.663 194.909 48.4497 190.892 44.1259 190.503C39.1355 190.061 34.1272 194.171 31.9778 200.907H35.2679C37.2534 196.361 41.0069 193.322 44.6178 193.885C48.2287 194.449 51.5331 198.22 52.8484 203.283L52.7735 203.961H55.9389C67.3277 183.692 82.1991 228.335 82.1991 228.335L155.601 226.12L153.705 218.845Z" fill="#CF128C"/>
<path d="M63.6597 195.016L127.419 197.296C127.419 197.296 147.381 199.829 153.704 218.831L87.578 223.911C87.578 223.911 82.9619 197.549 63.6597 195.016Z" fill="#FFF579"/>
<path d="M138.876 168.615C124.122 170.688 90.7043 175.483 88.8079 176.589C86.3733 178.016 84.1205 185.191 83.4183 186.275C82.7161 187.36 83.4183 192.437 83.4183 192.437L100.785 183.293L138.035 181.537L138.876 168.615Z" fill="#BA006F"/>
<path d="M182.375 174.281C182.375 174.281 104.417 177.923 100.357 179.654C97.9582 180.678 81.9604 191.12 81.1512 193.129C80.3421 195.138 83.044 194.042 83.044 194.042C83.044 194.042 84.1526 194.849 86.2913 194.428C88.4301 194.007 92.5151 191.887 92.5151 191.887C92.5151 191.887 91.6738 194.817 93.8696 194.549C96.0654 194.281 97.9297 194.042 97.9297 194.042C97.9297 194.042 96.814 196.832 99.8225 195.68C102.831 194.528 102.628 193.129 102.628 193.129C102.628 193.129 118.968 191.684 121.941 185.787L181.947 199.105C181.947 199.105 196.583 186.325 182.375 174.281Z" fill="#EC008C"/>
<path d="M101.398 181.281C100.578 181.477 99.7762 182.076 99.0454 182.49C98.2185 182.954 97.4022 183.428 96.5859 183.917C94.9961 184.868 93.4301 185.858 91.8878 186.885C90.3455 187.913 88.8306 188.983 87.3429 190.096C85.8488 191.154 84.4203 192.301 83.0655 193.532C82.9478 193.646 83.1047 193.864 83.2472 193.768C84.0136 193.24 84.7551 192.672 85.4929 192.101C85.5314 192.386 85.502 192.676 85.4072 192.947C85.3124 193.218 85.1549 193.462 84.9475 193.661C84.7622 193.835 85.0438 194.117 85.2292 193.939C85.5023 193.689 85.6955 193.363 85.7843 193.003C85.873 192.643 85.8535 192.265 85.7282 191.916C86.3769 191.416 87.0221 190.91 87.6816 190.432C89.1787 189.335 90.6996 188.275 92.2442 187.249C93.7532 186.246 95.286 185.28 96.8425 184.352C97.6196 183.885 98.4038 183.432 99.1952 182.986C99.9865 182.54 100.931 182.19 101.58 181.591C101.609 181.562 101.628 181.524 101.634 181.483C101.639 181.442 101.631 181.4 101.61 181.365C101.589 181.329 101.557 181.302 101.518 181.286C101.48 181.271 101.438 181.269 101.398 181.281V181.281Z" fill="#A4006F"/>
<path d="M103.768 178.387C99.444 179.999 95.2968 182.052 91.3922 184.513C88.4958 186.322 85.7536 188.367 83.1937 190.628C83.1831 190.598 83.1635 190.572 83.1376 190.554C83.1118 190.536 83.0809 190.526 83.0493 190.526C83.0177 190.526 82.9869 190.536 82.961 190.554C82.9352 190.572 82.9156 190.598 82.905 190.628C82.86 190.744 82.8243 190.863 82.798 190.985C82.0495 191.673 81.3258 192.38 80.6343 193.125C80.6245 193.135 80.6166 193.146 80.6112 193.159C80.6058 193.172 80.603 193.185 80.6028 193.199C80.6026 193.213 80.6052 193.226 80.6103 193.239C80.6154 193.252 80.6229 193.264 80.6325 193.273C80.6421 193.283 80.6536 193.291 80.6662 193.297C80.6788 193.302 80.6924 193.305 80.7061 193.305C80.7199 193.305 80.7335 193.303 80.7463 193.298C80.759 193.292 80.7706 193.285 80.7805 193.275C81.4114 192.719 82.0423 192.166 82.6768 191.623C82.6476 191.797 82.6023 191.968 82.5414 192.134C82.3132 192.701 82.0008 193.23 81.6146 193.703C81.5876 193.73 81.5725 193.767 81.5725 193.805C81.5725 193.843 81.5876 193.88 81.6146 193.907C81.6415 193.934 81.6781 193.949 81.7162 193.949C81.7543 193.949 81.7908 193.934 81.8178 193.907C82.5307 193.329 83.2864 192.123 83.2685 191.117C85.8968 188.838 88.6843 186.751 91.6097 184.87C95.4869 182.441 99.606 180.423 103.9 178.847C104.193 178.744 104.064 178.266 103.768 178.387Z" fill="#A4006F"/>
<path d="M101.184 183.214C99.9079 184.224 98.6888 185.291 97.4305 186.332C96.3006 187.271 95.1385 188.184 94.1012 189.226C93.2529 190.075 92.3189 191.11 91.9625 192.28C91.6773 193.211 91.8948 194.281 92.8715 194.645C93.0426 194.709 93.1138 194.463 92.9891 194.371C90.7541 192.74 94.529 189.476 95.7302 188.441C97.648 186.793 99.6513 185.248 101.555 183.585C101.811 183.357 101.441 183.025 101.184 183.214Z" fill="#A4006F"/>
<path d="M103.979 184.952C101.392 186.528 99.4261 188.946 98.4109 191.802C98.0758 192.729 97.7158 193.857 97.837 194.852C97.8393 194.874 97.8487 194.894 97.8637 194.909C97.8787 194.925 97.8985 194.935 97.9199 194.938C97.9413 194.94 97.963 194.936 97.9816 194.925C98.0001 194.914 98.0145 194.897 98.0224 194.877C98.3396 193.982 98.443 193.015 98.7602 192.112C99.0814 191.192 99.5072 190.312 100.029 189.49C101.086 187.806 102.518 186.39 104.214 185.355C104.471 185.198 104.235 184.809 103.979 184.952Z" fill="#A4006F"/>
<path d="M122.087 185.423C118.976 187.797 115.494 189.639 111.782 190.874C109.952 191.474 108.078 191.93 106.178 192.241C105.216 192.398 104.243 192.515 103.269 192.597C102.331 192.61 101.395 192.688 100.468 192.829C100.443 192.837 100.421 192.852 100.406 192.873C100.39 192.894 100.382 192.919 100.382 192.945C100.382 192.971 100.39 192.996 100.406 193.017C100.421 193.038 100.443 193.054 100.468 193.061C101.394 193.214 102.338 193.233 103.269 193.118C104.218 193.058 105.159 192.954 106.096 192.815C108.078 192.52 110.03 192.054 111.931 191.424C115.691 190.179 119.22 188.323 122.376 185.929C122.661 185.694 122.379 185.198 122.087 185.423Z" fill="#A4006F"/>
<path d="M89.92 216.369C89.7465 216.382 89.5843 216.46 89.4658 216.587C89.3473 216.714 89.2815 216.882 89.2815 217.056C89.2815 217.23 89.3473 217.398 89.4658 217.525C89.5843 217.653 89.7465 217.73 89.92 217.743C90.8004 217.743 90.804 216.369 89.92 216.369Z" fill="#A4006F"/>
<path d="M92.8714 216.326C92.7413 216.337 92.62 216.397 92.5316 216.493C92.4431 216.589 92.394 216.715 92.394 216.846C92.394 216.976 92.4431 217.102 92.5316 217.198C92.62 217.294 92.7413 217.354 92.8714 217.365C93.0016 217.354 93.1229 217.294 93.2113 217.198C93.2998 217.102 93.3488 216.976 93.3488 216.846C93.3488 216.715 93.2998 216.589 93.2113 216.493C93.1229 216.397 93.0016 216.337 92.8714 216.326Z" fill="#A4006F"/>
<path d="M88.0201 211.66C87.8933 211.681 87.778 211.746 87.6948 211.844C87.6116 211.942 87.5659 212.066 87.5659 212.195C87.5659 212.324 87.6116 212.448 87.6948 212.546C87.778 212.644 87.8933 212.709 88.0201 212.73C88.1469 212.709 88.2623 212.644 88.3455 212.546C88.4287 212.448 88.4743 212.324 88.4743 212.195C88.4743 212.066 88.4287 211.942 88.3455 211.844C88.2623 211.746 88.1469 211.681 88.0201 211.66V211.66Z" fill="#A4006F"/>
<path d="M86.1238 208.392C86.0157 208.402 85.9152 208.452 85.842 208.532C85.7689 208.612 85.7283 208.717 85.7283 208.825C85.7283 208.934 85.7689 209.039 85.842 209.119C85.9152 209.199 86.0157 209.249 86.1238 209.259C86.2319 209.249 86.3324 209.199 86.4056 209.119C86.4788 209.039 86.5194 208.934 86.5194 208.825C86.5194 208.717 86.4788 208.612 86.4056 208.532C86.3324 208.452 86.2319 208.402 86.1238 208.392Z" fill="#A4006F"/>
<path d="M88.2303 207.564C88.1268 207.574 88.0307 207.622 87.9606 207.699C87.8906 207.775 87.8518 207.876 87.8518 207.98C87.8518 208.084 87.8906 208.184 87.9606 208.261C88.0307 208.338 88.1268 208.386 88.2303 208.395C88.3338 208.386 88.43 208.338 88.5001 208.261C88.5701 208.184 88.6089 208.084 88.6089 207.98C88.6089 207.876 88.5701 207.775 88.5001 207.699C88.43 207.622 88.3338 207.574 88.2303 207.564V207.564Z" fill="#A4006F"/>
<path d="M89.2854 209.241C89.172 209.241 89.0632 209.286 88.983 209.366C88.9027 209.447 88.8577 209.555 88.8577 209.669C88.8577 209.783 88.9027 209.891 88.983 209.972C89.0632 210.052 89.172 210.097 89.2854 210.097C89.3989 210.097 89.5077 210.052 89.5879 209.972C89.6681 209.891 89.7132 209.783 89.7132 209.669C89.7132 209.555 89.6681 209.447 89.5879 209.366C89.5077 209.286 89.3989 209.241 89.2854 209.241V209.241Z" fill="#A4006F"/>
<path d="M81.4826 201.438C81.3711 201.438 81.2641 201.483 81.1852 201.562C81.1063 201.641 81.062 201.748 81.062 201.859C81.062 201.971 81.1063 202.078 81.1852 202.157C81.2641 202.236 81.3711 202.28 81.4826 202.28C81.5942 202.28 81.7012 202.236 81.7801 202.157C81.8589 202.078 81.9033 201.971 81.9033 201.859C81.9033 201.748 81.8589 201.641 81.7801 201.562C81.7012 201.483 81.5942 201.438 81.4826 201.438V201.438Z" fill="#A4006F"/>
<path d="M83.5929 203.5C83.4691 203.5 83.3503 203.55 83.2627 203.637C83.1752 203.725 83.126 203.844 83.126 203.968C83.126 204.092 83.1752 204.211 83.2627 204.298C83.3503 204.386 83.4691 204.435 83.5929 204.435C83.7168 204.435 83.8356 204.386 83.9231 204.298C84.0107 204.211 84.0599 204.092 84.0599 203.968C84.0599 203.844 84.0107 203.725 83.9231 203.637C83.8356 203.55 83.7168 203.5 83.5929 203.5V203.5Z" fill="#A4006F"/>
<path d="M85.4892 202.53C85.3397 202.542 85.2001 202.609 85.0983 202.719C84.9965 202.829 84.9399 202.974 84.9399 203.124C84.9399 203.274 84.9965 203.419 85.0983 203.529C85.2001 203.639 85.3397 203.706 85.4892 203.718C85.6387 203.706 85.7782 203.639 85.8801 203.529C85.9819 203.419 86.0384 203.274 86.0384 203.124C86.0384 202.974 85.9819 202.829 85.8801 202.719C85.7782 202.609 85.6387 202.542 85.4892 202.53V202.53Z" fill="#A4006F"/>
<path d="M84.434 199.747C84.3225 199.747 84.2155 199.791 84.1366 199.87C84.0577 199.949 84.0134 200.056 84.0134 200.168C84.0134 200.28 84.0577 200.387 84.1366 200.466C84.2155 200.545 84.3225 200.589 84.434 200.589C84.5456 200.589 84.6526 200.545 84.7315 200.466C84.8104 200.387 84.8547 200.28 84.8547 200.168C84.8547 200.056 84.8104 199.949 84.7315 199.87C84.6526 199.791 84.5456 199.747 84.434 199.747V199.747Z" fill="#A4006F"/>
<path d="M75.79 196.757C75.669 196.757 75.5529 196.806 75.4674 196.891C75.3818 196.977 75.3337 197.093 75.3337 197.214C75.3337 197.335 75.3818 197.451 75.4674 197.537C75.5529 197.623 75.669 197.671 75.79 197.671C75.911 197.671 76.0271 197.623 76.1126 197.537C76.1982 197.451 76.2463 197.335 76.2463 197.214C76.2463 197.093 76.1982 196.977 76.1126 196.891C76.0271 196.806 75.911 196.757 75.79 196.757Z" fill="#A4006F"/>
<path d="M77.476 198.224C77.3522 198.224 77.2334 198.273 77.1458 198.361C77.0582 198.448 77.009 198.567 77.009 198.691C77.009 198.815 77.0582 198.934 77.1458 199.022C77.2334 199.109 77.3522 199.158 77.476 199.158C77.5998 199.158 77.7186 199.109 77.8062 199.022C77.8938 198.934 77.943 198.815 77.943 198.691C77.943 198.567 77.8938 198.448 77.8062 198.361C77.7186 198.273 77.5998 198.224 77.476 198.224V198.224Z" fill="#A4006F"/>
<path d="M77.6865 195.93C77.5702 195.93 77.4587 195.976 77.3765 196.058C77.2942 196.14 77.248 196.252 77.248 196.369C77.248 196.485 77.2942 196.596 77.3765 196.679C77.4587 196.761 77.5702 196.807 77.6865 196.807C77.8028 196.807 77.9143 196.761 77.9965 196.679C78.0787 196.596 78.1249 196.485 78.1249 196.369C78.1249 196.252 78.0787 196.14 77.9965 196.058C77.9143 195.976 77.8028 195.93 77.6865 195.93V195.93Z" fill="#A4006F"/>
<path d="M97.9331 201.724C97.8561 201.743 97.7877 201.788 97.7388 201.85C97.6899 201.913 97.6633 201.99 97.6633 202.07C97.6633 202.149 97.6899 202.227 97.7388 202.289C97.7877 202.352 97.8561 202.396 97.9331 202.416C98.0102 202.396 98.0786 202.352 98.1275 202.289C98.1764 202.227 98.2029 202.149 98.2029 202.07C98.2029 201.99 98.1764 201.913 98.1275 201.85C98.0786 201.788 98.0102 201.743 97.9331 201.724Z" fill="#A4006F"/>
<path d="M97.5127 199.133C97.4058 199.133 97.3034 199.176 97.2278 199.252C97.1523 199.327 97.1099 199.43 97.1099 199.537C97.1099 199.644 97.1523 199.746 97.2278 199.822C97.3034 199.897 97.4058 199.94 97.5127 199.94C97.6195 199.94 97.7219 199.897 97.7975 199.822C97.873 199.746 97.9155 199.644 97.9155 199.537C97.9155 199.43 97.873 199.327 97.7975 199.252C97.7219 199.176 97.6195 199.133 97.5127 199.133Z" fill="#A4006F"/>
<path d="M101.519 199.758C101.362 199.77 101.216 199.841 101.109 199.956C101.002 200.071 100.942 200.223 100.942 200.38C100.942 200.538 101.002 200.689 101.109 200.805C101.216 200.92 101.362 200.991 101.519 201.003C101.676 200.991 101.822 200.92 101.929 200.805C102.036 200.689 102.096 200.538 102.096 200.38C102.096 200.223 102.036 200.071 101.929 199.956C101.822 199.841 101.676 199.77 101.519 199.758Z" fill="#A4006F"/>
<path d="M105.512 208.938C105.381 208.948 105.26 209.008 105.172 209.104C105.083 209.2 105.034 209.326 105.034 209.457C105.034 209.587 105.083 209.713 105.172 209.81C105.26 209.906 105.381 209.965 105.512 209.976C105.642 209.965 105.763 209.906 105.851 209.81C105.94 209.713 105.989 209.587 105.989 209.457C105.989 209.326 105.94 209.2 105.851 209.104C105.763 209.008 105.642 208.948 105.512 208.938V208.938Z" fill="#A4006F"/>
<path d="M106.791 206.754C106.69 206.754 106.593 206.794 106.521 206.866C106.45 206.938 106.41 207.035 106.41 207.136C106.41 207.237 106.45 207.334 106.521 207.406C106.593 207.477 106.69 207.518 106.791 207.518C106.892 207.518 106.989 207.477 107.061 207.406C107.132 207.334 107.172 207.237 107.172 207.136C107.172 207.035 107.132 206.938 107.061 206.866C106.989 206.794 106.892 206.754 106.791 206.754Z" fill="#A4006F"/>
<path d="M102.535 208.809C102.499 208.728 102.448 208.654 102.385 208.592C102.321 208.535 102.238 208.504 102.152 208.504C102.066 208.504 101.983 208.535 101.918 208.592C101.855 208.654 101.805 208.728 101.769 208.809C101.73 208.878 101.71 208.955 101.71 209.034C101.71 209.113 101.73 209.19 101.769 209.259C101.807 209.326 101.863 209.382 101.93 209.42C101.997 209.459 102.073 209.48 102.15 209.48C102.228 209.48 102.304 209.459 102.372 209.42C102.439 209.381 102.496 209.326 102.535 209.259C102.574 209.19 102.594 209.113 102.594 209.034C102.594 208.955 102.574 208.878 102.535 208.809V208.809Z" fill="#A4006F"/>
<path d="M100.878 203.85C100.751 203.871 100.635 203.936 100.552 204.034C100.469 204.132 100.423 204.257 100.423 204.385C100.423 204.514 100.469 204.638 100.552 204.736C100.635 204.834 100.751 204.9 100.878 204.92C101.004 204.9 101.12 204.834 101.203 204.736C101.286 204.638 101.332 204.514 101.332 204.385C101.332 204.257 101.286 204.132 101.203 204.034C101.12 203.936 101.004 203.871 100.878 203.85Z" fill="#A4006F"/>
<path d="M103.629 203.497C103.511 203.507 103.401 203.561 103.321 203.649C103.241 203.736 103.196 203.851 103.196 203.97C103.196 204.088 103.241 204.203 103.321 204.29C103.401 204.378 103.511 204.432 103.629 204.442C103.747 204.432 103.858 204.378 103.938 204.29C104.018 204.203 104.062 204.088 104.062 203.97C104.062 203.851 104.018 203.736 103.938 203.649C103.858 203.561 103.747 203.507 103.629 203.497Z" fill="#A4006F"/>
<path d="M105.511 216.53C105.37 216.53 105.234 216.586 105.133 216.687C105.033 216.787 104.977 216.923 104.977 217.065C104.977 217.207 105.033 217.343 105.133 217.443C105.234 217.544 105.37 217.6 105.511 217.6C105.653 217.6 105.789 217.544 105.89 217.443C105.99 217.343 106.046 217.207 106.046 217.065C106.046 216.923 105.99 216.787 105.89 216.687C105.789 216.586 105.653 216.53 105.511 216.53Z" fill="#A4006F"/>
<path d="M108.477 217.218C108.359 217.229 108.249 217.283 108.169 217.37C108.089 217.458 108.044 217.572 108.044 217.691C108.044 217.81 108.089 217.924 108.169 218.012C108.249 218.099 108.359 218.154 108.477 218.164C108.595 218.154 108.705 218.099 108.786 218.012C108.866 217.924 108.91 217.81 108.91 217.691C108.91 217.572 108.866 217.458 108.786 217.37C108.705 217.283 108.595 217.229 108.477 217.218V217.218Z" fill="#A4006F"/>
<path d="M109.532 213.233C109.414 213.233 109.301 213.28 109.217 213.364C109.134 213.447 109.087 213.561 109.087 213.679C109.087 213.797 109.134 213.911 109.217 213.995C109.301 214.078 109.414 214.125 109.532 214.125C109.65 214.125 109.764 214.078 109.847 213.995C109.931 213.911 109.978 213.797 109.978 213.679C109.978 213.561 109.931 213.447 109.847 213.364C109.764 213.28 109.65 213.233 109.532 213.233Z" fill="#A4006F"/>
<path d="M115.018 200.985C114.906 200.995 114.801 201.047 114.724 201.131C114.648 201.214 114.606 201.323 114.606 201.436C114.606 201.55 114.648 201.659 114.724 201.742C114.801 201.826 114.906 201.878 115.018 201.888C115.131 201.878 115.236 201.826 115.312 201.742C115.389 201.659 115.431 201.55 115.431 201.436C115.431 201.323 115.389 201.214 115.312 201.131C115.236 201.047 115.131 200.995 115.018 200.985V200.985Z" fill="#A4006F"/>
<path d="M116.284 203.829C116.189 203.829 116.098 203.866 116.032 203.933C115.965 204 115.927 204.091 115.927 204.185C115.927 204.28 115.965 204.371 116.032 204.438C116.098 204.505 116.189 204.542 116.284 204.542C116.378 204.542 116.469 204.505 116.536 204.438C116.603 204.371 116.64 204.28 116.64 204.185C116.64 204.091 116.603 204 116.536 203.933C116.469 203.866 116.378 203.829 116.284 203.829Z" fill="#A4006F"/>
<path d="M119.314 209.38C119.236 209.304 119.133 209.261 119.025 209.259C118.971 209.258 118.918 209.269 118.868 209.29C118.818 209.31 118.774 209.341 118.736 209.38C118.698 209.418 118.667 209.463 118.646 209.512C118.626 209.562 118.615 209.615 118.615 209.669V209.815C118.617 209.921 118.659 210.022 118.733 210.097C118.769 210.134 118.813 210.164 118.862 210.184C118.91 210.205 118.962 210.215 119.014 210.215C119.067 210.215 119.118 210.205 119.167 210.184C119.215 210.164 119.259 210.134 119.296 210.097C119.367 210.02 119.409 209.92 119.413 209.815V209.669C119.418 209.564 119.382 209.46 119.314 209.38V209.38Z" fill="#A4006F"/>
<path d="M119.656 211.446C119.573 211.454 119.497 211.493 119.441 211.555C119.386 211.616 119.355 211.696 119.355 211.779C119.355 211.862 119.386 211.942 119.441 212.004C119.497 212.066 119.573 212.104 119.656 212.113C119.738 212.104 119.815 212.066 119.87 212.004C119.926 211.942 119.956 211.862 119.956 211.779C119.956 211.696 119.926 211.616 119.87 211.555C119.815 211.493 119.738 211.454 119.656 211.446V211.446Z" fill="#A4006F"/>
<path d="M121.345 210.9C121.224 210.9 121.108 210.948 121.023 211.034C120.937 211.119 120.889 211.235 120.889 211.357C120.889 211.478 120.937 211.594 121.023 211.679C121.108 211.765 121.224 211.813 121.345 211.813C121.466 211.813 121.582 211.765 121.668 211.679C121.754 211.594 121.802 211.478 121.802 211.357C121.802 211.235 121.754 211.119 121.668 211.034C121.582 210.948 121.466 210.9 121.345 210.9Z" fill="#A4006F"/>
<path d="M120.29 208.534C120.165 208.545 120.048 208.603 119.962 208.695C119.877 208.788 119.83 208.91 119.83 209.036C119.83 209.162 119.877 209.283 119.962 209.376C120.048 209.469 120.165 209.526 120.29 209.537C120.416 209.526 120.533 209.469 120.618 209.376C120.703 209.283 120.75 209.162 120.75 209.036C120.75 208.91 120.703 208.788 120.618 208.695C120.533 208.603 120.416 208.545 120.29 208.534V208.534Z" fill="#A4006F"/>
<path d="M123.242 210.358C123.089 210.358 122.942 210.418 122.833 210.527C122.725 210.635 122.664 210.782 122.664 210.936C122.664 211.089 122.725 211.236 122.833 211.344C122.942 211.453 123.089 211.514 123.242 211.514C123.395 211.514 123.542 211.453 123.65 211.344C123.758 211.236 123.819 211.089 123.819 210.936C123.819 210.782 123.758 210.635 123.65 210.527C123.542 210.418 123.395 210.358 123.242 210.358V210.358Z" fill="#A4006F"/>
<path d="M245.425 148.775C243.571 155.332 235.34 158.929 233.523 165.493C231.64 172.272 237.219 179.586 237.276 186.725C237.322 192.38 233.797 197.31 228.874 200.693H190.377C187.083 197.046 184.057 193.179 181.975 189.69C178.054 183.118 176.803 174.98 180.906 169.129C185.009 163.278 193.738 160.459 196.055 153.787C198.29 147.366 193.56 139.709 195.763 133.262C198.711 124.618 211.886 122.916 217.781 115.702C221.218 111.506 221.802 105.923 223.652 100.931C225.502 95.9401 230.101 90.6777 236.232 90.799C241.343 94.1884 242.138 101.145 240.823 106.294C239.507 111.442 236.82 116.376 237.258 121.785C238.05 131.075 247.909 139.987 245.425 148.775Z" fill="#00A99D"/>
<path d="M242.919 136.17C242.826 135.981 242.733 135.792 242.637 135.603C241.693 136.534 240.719 137.447 239.718 138.332C233.312 143.962 225.947 148.394 217.974 151.415C220.405 143.471 222.841 135.53 225.281 127.593C225.328 127.638 225.388 127.667 225.453 127.674C225.517 127.681 225.582 127.666 225.638 127.632C227.031 126.812 228.261 125.738 229.502 124.757C230.742 123.776 231.947 122.784 233.138 121.767C234.609 120.506 236.049 119.217 237.458 117.9C237.518 117.511 237.59 117.125 237.672 116.74C235.804 118.517 233.873 120.239 231.879 121.906C230.803 122.81 229.708 123.695 228.596 124.561C227.577 125.356 226.458 126.095 225.492 126.933C228.398 117.493 231.294 108.05 234.178 98.6052C235.954 97.0949 237.648 95.5132 239.262 93.8601C239.143 93.6794 239.018 93.501 238.887 93.325C237.488 94.8282 236.013 96.2755 234.464 97.6669C235.141 95.4383 235.817 93.2084 236.492 90.9774L236.253 90.8133H235.975C232.767 100.803 229.641 110.793 226.493 120.782L225.477 114.36C224.802 110.108 224.128 105.856 223.453 101.606C223.299 102.048 223.153 102.491 223.014 102.936C224.029 109.166 225.054 115.395 226.09 121.624C226.095 121.654 226.105 121.683 226.121 121.709C226.137 121.735 226.158 121.757 226.183 121.774L225.146 125.071C223.499 130.303 221.847 135.527 220.191 140.74C219.138 138.857 218.139 136.954 217.193 135.032C216.972 134.579 216.755 134.129 216.537 133.676C216.554 133.656 216.565 133.631 216.569 133.605C216.861 131.944 217.049 130.266 217.133 128.581C217.297 124.864 216.946 121.142 216.088 117.521L215.596 117.95C216.697 122.903 216.914 128.012 216.238 133.041C214.375 129.064 212.788 124.963 211.486 120.768L210.991 121.061C213.157 128.137 216.189 134.917 220.02 141.247C217.903 147.93 215.78 154.602 213.654 161.262C211.871 157.99 210.043 154.729 208.357 151.419C205.051 144.935 202.127 138.264 199.598 131.439C199.273 130.569 198.958 129.697 198.654 128.824C198.472 129.006 198.297 129.181 198.126 129.377C199.718 133.853 201.49 138.29 203.441 142.688C202.568 141.8 201.727 140.887 200.907 139.955C199.017 137.811 197.334 135.492 195.881 133.03C195.849 133.116 195.816 133.202 195.788 133.287C195.738 133.435 195.692 133.581 195.649 133.726C197.928 137.5 200.735 140.926 203.986 143.901C206.749 150.041 209.775 156.181 213.415 162.022C212.609 164.55 211.802 167.082 210.994 169.618C209.773 167.953 208.535 166.304 207.28 164.673C203.742 160.02 200.204 155.372 196.668 150.726C196.649 151.036 196.621 151.342 196.583 151.647C201.292 157.862 205.943 164.113 210.791 170.249C209.111 175.527 207.432 180.804 205.754 186.079C203.519 183.489 201.366 180.842 199.338 178.134C195.482 173.001 192.026 167.579 189.001 161.915L188.384 162.382C189.969 165.341 191.686 168.25 193.535 171.109C195.474 174.099 197.545 177.035 199.759 179.889C197.848 179.193 195.952 178.441 194.098 177.616C189.308 175.491 184.766 172.846 180.553 169.728C180.446 169.899 180.339 170.085 180.239 170.253C186.313 174.769 193.088 178.253 200.294 180.563C201.957 182.685 203.71 184.757 205.551 186.778C205.119 188.129 204.689 189.482 204.261 190.835C203.215 194.122 202.172 197.408 201.131 200.693H202.914C203.596 198.464 204.278 196.236 204.96 194.01C205.028 194.034 205.102 194.034 205.17 194.01C208.444 192.618 211.63 191.025 214.709 189.24C221.803 185.178 228.351 180.226 234.193 174.505C234.104 174.213 234.018 173.92 233.94 173.628C229.93 177.547 225.59 181.112 220.968 184.285C215.924 187.701 210.626 190.726 205.12 193.332C205.7 191.441 206.28 189.551 206.86 187.66C206.885 187.619 206.9 187.572 206.902 187.524L210.741 175.005C213.757 174.363 216.744 173.628 219.653 172.771C223.968 173.389 228.328 173.628 232.685 173.485L233.872 173.439C233.818 173.25 233.769 173.057 233.722 172.868C233.302 172.886 232.885 172.9 232.464 172.911C228.584 173.003 224.702 172.837 220.843 172.415L222.223 171.983C225.942 170.794 229.572 169.439 233.113 167.919C233.113 167.67 233.145 167.42 233.17 167.167C232.336 167.523 231.498 167.88 230.65 168.219C226.926 169.725 223.102 171.059 219.179 172.222C219.145 172.216 219.11 172.218 219.078 172.228C219.045 172.238 219.015 172.256 218.99 172.279C216.331 173.064 213.638 173.767 210.912 174.388C212.588 168.917 214.263 163.447 215.938 157.976C216.501 157.733 217.04 157.439 217.55 157.098C218.175 156.744 218.784 156.376 219.378 155.996C220.621 155.195 221.812 154.316 222.943 153.363C225.14 151.522 227.076 149.389 228.696 147.023C233.931 144.104 238.72 140.449 242.919 136.17V136.17ZM227.866 147.519C226.32 149.536 224.55 151.371 222.59 152.988C221.471 153.914 220.294 154.768 219.068 155.546C218.455 155.935 217.831 156.306 217.19 156.66C216.908 156.813 216.566 156.952 216.234 157.109L217.058 154.423C217.295 153.657 217.533 152.888 217.771 152.118H217.799C220.18 151.243 222.515 150.247 224.793 149.132C225.831 148.611 226.856 148.073 227.866 147.519Z" fill="#007B8D"/>
<path d="M233.052 200.689C234.174 199.308 235.216 197.863 236.171 196.361L227.188 196.208L238.114 193.015C241.34 186.754 243.26 179.902 243.757 172.875L241.643 173.103L243.846 171.598C244.523 159.649 241.646 146.623 235.073 134.044C232.658 135.737 230.392 137.635 228.301 139.716L231.081 144.465L227.295 140.744C220.084 148.347 215.532 157.869 213.593 168.465L223.674 177.285L213.123 171.462C211.9 180.678 212.609 190.603 215.24 200.718L233.052 200.689Z" fill="#99D4C0"/>
<path d="M224.479 186.896L222.43 197.367C222.216 198.477 221.998 199.583 221.784 200.693H222.412C223.291 196.226 224.169 191.758 225.046 187.289C225.082 187.275 225.114 187.252 225.139 187.222C225.164 187.192 225.181 187.157 225.189 187.119C225.197 187.081 225.195 187.042 225.184 187.005C225.173 186.968 225.152 186.934 225.124 186.907C231.182 184.704 237.111 182.162 242.883 179.293C242.933 179.044 242.979 178.797 243.022 178.548C239.474 180.324 235.872 181.989 232.214 183.542C229.905 184.53 227.575 185.469 225.224 186.361C225.531 184.796 225.839 183.227 226.148 181.655L228.201 171.184C233.441 167.538 238.493 163.643 243.357 159.499C243.325 159.268 243.293 159.032 243.258 158.786C240.32 161.295 237.319 163.725 234.253 166.075C232.3 167.577 230.332 169.054 228.333 170.499C229.423 164.947 230.513 159.396 231.601 153.845C234.377 150.955 237.144 148.055 239.903 145.146L239.693 144.551C238.231 146.09 236.776 147.636 235.326 149.189C234.138 150.461 232.95 151.734 231.762 153.006C232.225 150.628 232.69 148.257 233.156 145.896C233.892 142.13 234.63 138.364 235.369 134.597L235.066 134.012L234.809 134.193C233.562 140.592 232.307 146.987 231.045 153.381C228.776 150.23 226.687 146.954 224.789 143.566L224.433 144.015C225.426 145.776 226.478 147.5 227.588 149.189C228.639 150.791 229.783 152.335 230.96 153.852C230.451 156.432 229.944 159.013 229.438 161.594C228.844 164.636 228.249 167.678 227.655 170.72C223.952 165.933 220.537 160.929 217.429 155.735C217.325 155.971 217.222 156.21 217.126 156.449C219.003 159.61 221.011 162.69 223.15 165.689C224.492 167.578 225.899 169.418 227.37 171.209L227.281 171.273C227.074 171.419 227.26 171.701 227.47 171.669C226.519 176.576 225.558 181.481 224.586 186.386C220.409 182.511 216.49 178.366 212.855 173.977C212.83 174.252 212.805 174.527 212.784 174.801C215.051 177.499 217.436 180.091 219.938 182.579C221.414 184.066 222.928 185.505 224.479 186.896Z" fill="#007B8D"/>
<path d="M266.884 157.915C264.286 158.412 261.735 159.128 259.259 160.056L259.786 164.972L258.075 160.527C249.371 164.095 242.117 170.196 236.638 178.152L240.167 186.843L235.148 180.421C231.332 186.678 228.573 193.523 226.982 200.678H254.408C256.411 198.256 258.179 195.648 259.687 192.89L257.858 192.301L260.214 191.884C265.176 182.362 267.618 170.649 266.884 157.915Z" fill="#00A99D"/>
<path d="M238.723 197.264L236.292 200.689H236.98C237.667 199.726 238.353 198.761 239.037 197.796C239.072 197.796 239.106 197.789 239.137 197.773C239.168 197.758 239.195 197.735 239.215 197.707C239.236 197.679 239.249 197.647 239.254 197.612C239.259 197.578 239.255 197.543 239.244 197.51C245.012 197.946 250.801 198.055 256.582 197.838C256.714 197.656 256.846 197.482 256.974 197.282C253.409 197.425 249.845 197.46 246.28 197.389C244.027 197.344 241.77 197.251 239.507 197.111C240.337 195.945 241.169 194.776 242.003 193.604L247.546 185.794C253.18 184.745 258.75 183.424 264.256 181.83C264.317 181.627 264.378 181.423 264.435 181.223C261.109 182.19 257.755 183.061 254.379 183.856C252.226 184.365 250.067 184.841 247.902 185.284C250.844 181.145 253.784 177.004 256.721 172.861C260.048 171.524 263.375 170.174 266.702 168.811C266.719 168.626 266.734 168.437 266.752 168.248C264.987 168.961 263.226 169.675 261.469 170.42L257.152 172.229L260.927 166.935C262.923 164.126 264.916 161.317 266.905 158.508C266.905 158.308 266.905 158.112 266.873 157.915L266.595 157.969C263.215 162.743 259.83 167.513 256.439 172.279C255.746 168.861 255.246 165.407 254.942 161.933L254.479 162.168C254.643 163.973 254.867 165.773 255.152 167.566C255.423 169.264 255.79 170.952 256.19 172.629C254.833 174.565 253.47 176.49 252.101 178.405L247.275 185.212C246.008 179.922 245.056 174.561 244.423 169.157L243.913 169.625C244.289 172.907 244.796 176.169 245.435 179.411C245.842 181.454 246.317 183.476 246.861 185.476L246.765 185.498C246.537 185.54 246.587 185.854 246.765 185.894L238.976 196.872C236.988 192.156 235.31 187.315 233.954 182.379L233.597 183.029C234.46 186.076 235.456 189.078 236.585 192.037C237.255 193.804 237.968 195.547 238.723 197.264Z" fill="#007B8D"/>
</svg>
