<svg id="Capa_1" data-name="Capa 1" xmlns="http://www.w3.org/2000/svg" viewBox="0 0 146.65 75.1">
<defs><style>.cls-1{font-size:33.31px;fill:#454444;font-family:Fuji-Light, Fuji;font-weight:300;}.cls-2{letter-spacing:-0.1em;}.cls-3{letter-spacing:-0.02em;}.cls-4{letter-spacing:-0.01em;}.cls-5{letter-spacing:-0.03em;}.cls-6{fill:#2a7de1;}</style></defs>
<text class="cls-1" transform="translate(60.02 46.91)"><tspan class="cls-2">P</tspan><tspan class="cls-3" x="14.66" y="0">a</tspan><tspan class="cls-4" x="29.85" y="0">i</tspan><tspan class="cls-5" x="36.51" y="0">g</tspan><tspan x="50.37" y="0">e</tspan></text>
<path class="cls-6" d="M29.61,40.32a2.94,2.94,0,1,1,2.94-2.94A2.93,2.93,0,0,1,29.61,40.32Z"/>
<path class="cls-6" d="M38.22,40.32a2.94,2.94,0,1,1,2.94-2.94A2.93,2.93,0,0,1,38.22,40.32Z"/>
<path class="cls-6" d="M40.87,19H27a7,7,0,0,0-7,7V39.93a7,7,0,0,0,7,7h13.9a7,7,0,0,0,7-7V26A7,7,0,0,0,40.87,19ZM23,26a4,4,0,0,1,4-4h13.9a4,4,0,0,1,4,4V39.93a4,4,0,0,1-4,4H27a4,4,0,0,1-4-4Z"/>
</svg>