<svg width="100" height="100" viewBox="0 0 1223 389" fill="none" xmlns="http://www.w3.org/2000/svg">
<g clip-path="url(#clip0_28_2)">
<path d="M590.747 32.5105C606.868 45.4772 614.929 66.4708 614.929 95.4911V125.222C614.929 154.181 606.868 175.175 590.747 188.203C574.341 201.24 553.886 208.121 532.933 207.653H489.016V302.865H443.431V13.0605H532.933C553.886 12.592 574.341 19.4736 590.747 32.5105ZM568.974 101.233C569.862 89.3795 566.22 77.6293 558.782 68.3541C555.52 64.767 551.521 61.9255 547.061 60.0235C542.6 58.1214 537.781 57.2035 532.933 57.3324H489.016V163.381H532.933C537.781 163.511 542.6 162.593 547.061 160.69C551.521 158.788 555.52 155.946 558.782 152.359C566.22 143.084 569.862 131.334 568.974 119.479V101.233Z" fill="currentColor"/>
<path d="M741.212 107.622C751.278 112.689 759.15 121.25 763.356 131.703C769.465 147.575 772.211 164.542 771.417 181.532V302.863H739.637L731.391 276.373C726.891 285.11 720.04 292.419 711.61 297.475C703.181 302.531 693.506 305.134 683.676 304.993C668.477 305.195 653.818 299.366 642.909 288.784C631.42 278.041 625.676 261.215 625.676 238.307C625.676 215.399 631.42 198.481 642.909 187.552C653.808 176.945 668.466 171.084 683.676 171.251C693.796 171.019 703.847 172.978 713.139 176.993C721.134 180.496 727.678 186.645 731.669 194.406V181.532C732.332 171.489 729.942 161.48 724.813 152.82C720.273 146.336 711.193 143.095 697.666 143.095H644.391L652.637 101.231H705.634C717.811 100.834 729.936 103.011 741.212 107.622ZM722.682 258.591C725.974 256.418 728.588 253.364 730.227 249.778C731.865 246.191 732.461 242.217 731.947 238.307C732.461 234.398 731.865 230.422 730.227 226.836C728.588 223.249 725.974 220.195 722.682 218.023C715.214 214.32 706.919 212.598 698.593 213.022C690.38 212.64 682.2 214.294 674.781 217.838C671.467 220.032 668.838 223.118 667.199 226.738C665.56 230.359 664.978 234.369 665.516 238.307C665.025 242.215 665.631 246.182 667.267 249.764C668.903 253.347 671.506 256.403 674.781 258.591C682.254 261.887 690.332 263.59 698.5 263.59C706.668 263.59 714.746 261.887 722.219 258.591H722.682Z" fill="currentColor"/>
<path d="M814.407 68.536C811.968 66.3651 810.051 63.6716 808.8 60.6565C807.549 57.6415 806.995 54.3827 807.18 51.1237C807.009 47.8663 807.568 44.6116 808.819 41.5986C810.069 38.5857 811.979 35.8907 814.407 33.7113C819.629 29.4689 826.213 27.264 832.937 27.5058C839.674 27.176 846.288 29.3911 851.468 33.7113C853.852 35.9162 855.718 38.6203 856.936 41.6303C858.153 44.6404 858.691 47.8821 858.509 51.1237C858.704 54.3667 858.172 57.6124 856.954 60.6244C855.736 63.6365 853.862 66.3393 851.468 68.536C846.312 72.8974 839.68 75.1181 832.937 74.7415C826.213 74.9834 819.629 72.7786 814.407 68.536ZM853.135 101.231V302.862H812.925V101.231H853.135Z" fill="currentColor"/>
<path d="M1035.01 101.232V305.642C1035.01 336.515 1028.99 357.477 1016.94 368.53C1003.89 380.303 986.702 386.431 969.135 385.572H913.544L905.205 344.171H960.796C974.323 344.171 983.403 340.837 987.943 334.354C993.076 325.692 995.467 315.685 994.799 305.642V272.299C989.518 281.844 982.245 290.149 973.49 296.658C965.003 302.396 954.922 305.312 944.675 304.994C938.254 305.085 931.88 303.84 925.959 301.336C920.041 298.833 914.709 295.126 910.301 290.452C905.263 285.06 901.374 278.699 898.874 271.756C896.373 264.814 895.312 257.436 895.755 250.07V154.21C895.381 146.85 896.474 139.491 898.971 132.558C901.469 125.626 905.32 119.258 910.301 113.828C914.761 109.113 920.153 105.376 926.135 102.857C932.111 100.338 938.56 99.0903 945.046 99.194C955.274 98.8912 965.346 101.772 973.86 107.437C982.597 114.005 989.861 122.335 995.17 131.889L1003.51 101.232H1035.01ZM994.799 169.584C995.142 165.57 994.586 161.529 993.16 157.762C991.733 153.995 989.472 150.596 986.554 147.819C980.54 143.112 973.063 140.685 965.429 140.965C957.794 140.652 950.299 143.083 944.304 147.819C941.349 150.575 939.07 153.968 937.624 157.739C936.179 161.51 935.614 165.561 935.966 169.584V234.418C935.632 238.466 936.207 242.54 937.643 246.337C939.088 250.135 941.367 253.563 944.304 256.369C950.262 261.2 957.767 263.701 965.429 263.408C973.091 263.668 980.587 261.17 986.554 256.369C989.444 253.532 991.686 250.096 993.104 246.305C994.531 242.513 995.105 238.456 994.799 234.418V169.584Z" fill="currentColor"/>
<path d="M1199.84 118.181C1206.97 124.891 1212.55 133.073 1216.2 142.158C1219.85 151.243 1221.47 161.013 1220.96 170.789V213.856H1111.17V234.603C1111 238.494 1111.64 242.378 1113.04 246.011C1114.45 249.644 1116.58 252.95 1119.32 255.72C1126.88 261.657 1136.44 264.475 1146.01 263.593C1169.17 263.593 1180.84 253.868 1180.84 234.603L1220.96 242.939C1221.19 254.41 1217.72 265.65 1211.05 274.985C1204.07 284.502 1194.7 292.009 1183.9 296.751C1171.98 302.061 1159.05 304.746 1146.01 304.623C1126.29 305.35 1107.03 298.526 1092.18 285.544C1085.03 278.845 1079.44 270.665 1075.79 261.578C1072.14 252.49 1070.52 242.715 1071.05 232.936V170.789C1070.54 161.013 1072.16 151.243 1075.81 142.158C1079.46 133.073 1085.04 124.891 1092.18 118.181C1107.43 105.898 1126.42 99.1987 1146.01 99.1987C1165.59 99.1987 1184.59 105.898 1199.84 118.181ZM1181.31 181.162V169.585C1181.31 150.505 1169.63 140.965 1146.47 140.965C1123.31 140.965 1111.63 150.227 1111.63 169.585V181.162H1181.31Z" fill="currentColor"/>
<path d="M0.000564261 152.914V80.2081C-0.096082 73.488 0.556503 66.7781 1.94625 60.2024C5.09906 46.2467 12.0716 33.4423 22.085 23.2199C32.0983 12.9975 44.7578 5.75978 58.6489 2.31548C64.7311 0.916741 70.9399 0.140912 77.1793 0H226.348C230.332 0 234.316 0 238.3 0.648333C251.348 2.04953 263.82 6.76927 274.524 14.3573C285.229 21.9454 293.811 32.1487 299.45 43.994C304.34 54.0716 306.905 65.1178 306.955 76.3181C306.955 83.635 306.955 91.0445 306.955 98.454V226.639C306.861 231.384 306.459 236.117 305.75 240.81C303.55 254.928 297.475 268.161 288.2 279.034C278.926 289.908 266.815 297.997 253.217 302.401C245.781 304.765 238.041 306.044 230.239 306.199H79.7735C75.3495 306.336 70.9213 306.15 66.5243 305.643C48.2212 303.055 31.45 294.001 19.2472 280.121C7.04448 266.24 0.216864 248.451 0.000564261 229.973V152.914ZM97.9329 247.2C103.02 247.487 108.113 246.739 112.902 245C117.691 243.26 122.076 240.567 125.792 237.082C129.509 233.597 132.478 229.394 134.52 224.727C136.562 220.061 137.634 215.028 137.672 209.935C137.71 204.842 136.712 199.794 134.74 195.097C132.766 190.402 129.86 186.155 126.195 182.615C122.532 179.076 118.187 176.318 113.423 174.508C108.661 172.697 103.58 171.874 98.4888 172.086C88.8405 172.488 79.7161 176.585 73.0057 183.527C66.2952 190.469 62.5126 199.726 62.4411 209.378C62.3696 219.032 66.0149 228.343 72.6219 235.384C79.2289 242.425 88.2916 246.656 97.9329 247.2ZM171.035 209.597C171.036 217.035 173.248 224.306 177.393 230.484C181.537 236.662 187.425 241.469 194.308 244.295C201.192 247.12 208.761 247.835 216.052 246.349C223.343 244.864 230.028 241.245 235.256 235.953C240.486 230.66 244.022 223.933 245.417 216.627C246.813 209.32 246.003 201.764 243.092 194.919C240.181 188.073 235.299 182.247 229.068 178.181C222.836 174.116 215.536 171.994 208.096 172.086C203.19 172.086 198.333 173.06 193.806 174.95C189.279 176.84 185.173 179.611 181.725 183.1C178.278 186.589 175.557 190.729 173.722 195.277C171.887 199.826 170.974 204.693 171.035 209.597Z" fill="currentColor"/>
</g>
<defs>
<clipPath id="clip0_28_2">
<rect width="1223" height="389" fill="currentColor"/>
</clipPath>
</defs>
</svg>
