<?xml version="1.0" encoding="utf-8"?>
<!-- Generator: Adobe Illustrator 25.4.1, SVG Export Plug-In . SVG Version: 6.00 Build 0)  -->
<svg version="1.1" id="Layer_1" xmlns="http://www.w3.org/2000/svg" xmlns:xlink="http://www.w3.org/1999/xlink" x="0px" y="0px"
	 viewBox="0 0 325 146.1" style="enable-background:new 0 0 325 146.1;" xml:space="preserve">
<style type="text/css">
	.st0{fill:#294253;}
	.st1{fill:#31A0C8;}
	.st2{fill:#FF4D01;}
	.st3{fill:#942C67;}
	.st4{fill:#4DB47B;}
	.st5{fill:#B72E02;}
</style>
<path class="st0" d="M158.5,51.8h6.4v29h18v5.4h-24.4V51.8z"/>
<path class="st0" d="M193.9,84.4c-2.8-1.5-5.1-3.7-6.6-6.3c-3.2-5.6-3.2-12.5,0-18.1c1.6-2.7,3.9-4.9,6.6-6.3c6-3,13-3,19,0
	c2.7,1.5,5,3.6,6.6,6.3c3.2,5.6,3.2,12.6,0,18.2c-1.6,2.7-3.9,4.9-6.6,6.3C207,87.5,199.9,87.5,193.9,84.4L193.9,84.4z M209.6,79.6
	c1.8-1,3.3-2.5,4.3-4.3c2.1-3.9,2.1-8.6,0-12.4c-1-1.8-2.5-3.3-4.3-4.3c-3.9-2.1-8.5-2.1-12.4,0c-1.8,1-3.3,2.5-4.3,4.3
	c-2.1,3.9-2.1,8.6,0,12.4c1,1.8,2.5,3.3,4.3,4.3C201.1,81.6,205.8,81.6,209.6,79.6z"/>
<path class="st0" d="M235.3,84.4c-2.7-1.5-5-3.6-6.6-6.3c-3.2-5.6-3.2-12.6,0-18.2c1.6-2.7,3.9-4.8,6.6-6.3c2.9-1.5,6.1-2.3,9.4-2.3
	c2.6,0,5.3,0.5,7.7,1.5c2.3,0.9,4.3,2.4,5.9,4.3l-4.1,3.9c-2.3-2.6-5.7-4.1-9.2-4c-2.2,0-4.4,0.5-6.3,1.5c-1.8,1-3.3,2.5-4.4,4.3
	c-2.1,3.9-2.1,8.6,0,12.5c1,1.8,2.5,3.3,4.4,4.3c1.9,1.1,4.1,1.6,6.3,1.5c3.5,0.1,6.9-1.4,9.2-4.1l4.1,3.9c-1.6,1.9-3.6,3.3-5.9,4.3
	c-2.5,1-5.1,1.5-7.7,1.5C241.4,86.8,238.2,86,235.3,84.4z"/>
<path class="st0" d="M286.1,78.3h-17.2l-3.4,8h-6.6l15.5-34.4h6.3l15.5,34.4h-6.7L286.1,78.3z M284,73.3l-6.5-15l-6.4,15H284z"/>
<path class="st0" d="M300.6,51.8h6.4v29h18v5.4h-24.4V51.8z"/>
<path class="st0" d="M165.1,131.1c-2.8-1.5-5-3.7-6.6-6.3c-3.2-5.6-3.2-12.5,0-18.1c1.6-2.7,3.9-4.9,6.6-6.3c6-3.1,13-3.1,19,0
	c2.8,1.5,5.1,3.6,6.6,6.3c3.2,5.6,3.2,12.5,0,18.2c-1.6,2.7-3.9,4.9-6.6,6.3C178.2,134.2,171.1,134.2,165.1,131.1L165.1,131.1z
	 M180.8,126.3c1.8-1,3.3-2.5,4.3-4.3c2.1-3.9,2.1-8.6,0-12.4c-1-1.8-2.5-3.3-4.3-4.3c-3.9-2.1-8.5-2.1-12.4,0
	c-1.8,1-3.3,2.5-4.3,4.3c-2.1,3.9-2.1,8.6,0,12.4c1,1.8,2.5,3.3,4.3,4.3C172.3,128.3,176.9,128.3,180.8,126.3z"/>
<path class="st0" d="M206.3,103.9v10.5h16.6v5.4h-16.6v13.2h-6.4V98.5h25.1v5.4H206.3z"/>
<path class="st0" d="M237.6,103.9v10.5h16.6v5.4h-16.6v13.2h-6.4V98.5h25.1v5.4H237.6z"/>
<path class="st0" d="M288.4,127.6v5.4h-25.8V98.5h25.1v5.4H269v8.9h16.6v5.3H269v9.5L288.4,127.6z"/>
<path class="st0" d="M318,132.9l-7-10.1c-0.4,0-0.9,0-1.3,0h-7.8v10h-6.4V98.5h14.2c2.7-0.1,5.3,0.4,7.8,1.5
	c2.1,0.9,3.8,2.3,5.1,4.2c2.4,4.1,2.4,9.2-0.1,13.2c-1.3,1.9-3.2,3.4-5.4,4.2l7.9,11.3H318z M315.7,105.7c-1.4-1.2-3.6-1.8-6.3-1.8
	h-7.5v13.7h7.5c2.8,0,4.9-0.6,6.3-1.8c1.5-1.3,2.3-3.1,2.2-5.1C318,108.8,317.2,107,315.7,105.7z"/>
<path class="st1" d="M170.8,29.3v1.2h-12.2V12.8h11.8V14h-10.6v7h9.4v1.1h-9.4v7.3L170.8,29.3z"/>
<path class="st1" d="M186.4,25.5h-10.3l-2.3,5h-1.4l8.1-17.7h1.3l8.2,17.7h-1.4L186.4,25.5z M186,24.4l-4.6-10.2l-4.7,10.2H186z"/>
<path class="st1" d="M194.3,30c-1-0.4-2-1-2.7-1.7l0.6-1c0.7,0.7,1.6,1.3,2.5,1.6c1.1,0.4,2.2,0.6,3.3,0.6c1.3,0.1,2.7-0.3,3.8-1
	c0.8-0.6,1.3-1.5,1.3-2.5c0-0.7-0.2-1.4-0.7-1.9c-0.5-0.5-1.1-0.9-1.7-1.1c-0.9-0.3-1.8-0.6-2.7-0.8c-1.1-0.2-2.1-0.6-3.1-0.9
	c-0.8-0.3-1.5-0.8-2-1.4c-0.6-0.7-0.9-1.6-0.8-2.5c0-0.8,0.2-1.7,0.7-2.4c0.5-0.8,1.2-1.4,2.1-1.7c1.1-0.5,2.3-0.7,3.5-0.6
	c1,0,2,0.1,2.9,0.4c0.9,0.3,1.7,0.6,2.5,1.2l-0.5,1c-0.7-0.5-1.5-0.9-2.3-1.1c-0.8-0.3-1.7-0.4-2.5-0.4c-1.3-0.1-2.6,0.3-3.7,1
	c-0.8,0.6-1.3,1.5-1.3,2.5c0,0.7,0.2,1.4,0.7,1.9c0.5,0.5,1.1,0.9,1.7,1.1c0.9,0.3,1.8,0.6,2.8,0.8c1.1,0.2,2.1,0.6,3.1,0.9
	c0.8,0.3,1.5,0.8,2,1.4c0.6,0.7,0.9,1.6,0.8,2.5c0,0.8-0.2,1.7-0.7,2.4c-0.5,0.8-1.3,1.4-2.1,1.8c-1.1,0.5-2.3,0.7-3.5,0.6
	C196.7,30.6,195.5,30.4,194.3,30z"/>
<path class="st1" d="M211.9,14h-6.4v-1.2h14V14h-6.4v16.6h-1.3L211.9,14z"/>
<path class="st1" d="M230.2,30c-1-0.4-2-1-2.7-1.7l0.6-1c0.7,0.7,1.6,1.3,2.5,1.6c1.1,0.4,2.2,0.6,3.3,0.6c1.4,0.1,2.7-0.3,3.8-1
	c0.8-0.6,1.3-1.5,1.3-2.5c0-0.7-0.2-1.4-0.7-1.9c-0.5-0.5-1.1-0.9-1.7-1.1c-0.9-0.3-1.8-0.6-2.7-0.8c-1.1-0.2-2.1-0.6-3.1-0.9
	c-0.8-0.3-1.5-0.8-2-1.4c-0.6-0.7-0.9-1.6-0.8-2.5c0-0.8,0.2-1.6,0.7-2.3c0.5-0.8,1.2-1.4,2.1-1.7c1.1-0.5,2.3-0.7,3.5-0.6
	c1,0,2,0.1,2.9,0.4c0.9,0.3,1.7,0.6,2.5,1.2l-0.5,1c-0.7-0.5-1.5-0.9-2.3-1.1c-0.8-0.3-1.7-0.4-2.5-0.4c-1.3-0.1-2.6,0.3-3.7,1
	c-0.8,0.6-1.3,1.5-1.3,2.5c0,0.7,0.2,1.4,0.7,1.9c0.5,0.5,1.1,0.9,1.7,1.1c0.9,0.3,1.8,0.6,2.8,0.8c1.1,0.2,2.1,0.6,3.1,0.9
	c0.8,0.3,1.5,0.8,2,1.4c0.6,0.7,0.9,1.6,0.8,2.5c0,0.8-0.2,1.7-0.7,2.4c-0.5,0.8-1.3,1.4-2.1,1.7c-1.1,0.5-2.3,0.7-3.5,0.6
	C232.7,30.6,231.4,30.4,230.2,30z"/>
<path class="st1" d="M246.4,28.7c-1.3-1.6-2-3.6-1.9-5.7V12.8h1.3V23c-0.1,1.8,0.4,3.5,1.5,4.9c2.5,2.2,6.2,2.2,8.6,0
	c1.1-1.4,1.6-3.1,1.5-4.9V12.8h1.3V23c0.1,2.1-0.5,4.1-1.9,5.7C253.8,31.3,249.4,31.3,246.4,28.7z"/>
<path class="st1" d="M265.7,30c-1-0.4-2-1-2.7-1.7l0.6-1c0.7,0.7,1.6,1.3,2.5,1.6c1.1,0.4,2.2,0.6,3.3,0.6c1.4,0.1,2.7-0.3,3.8-1
	c0.8-0.6,1.3-1.5,1.3-2.5c0-0.7-0.2-1.4-0.7-1.9c-0.5-0.5-1.1-0.9-1.7-1.1c-0.9-0.3-1.8-0.6-2.7-0.8c-1.1-0.2-2.1-0.6-3.1-0.9
	c-0.8-0.3-1.5-0.8-2-1.4c-0.6-0.7-0.9-1.6-0.8-2.5c0-0.8,0.2-1.7,0.7-2.4c0.5-0.8,1.2-1.4,2.1-1.7c1.1-0.5,2.3-0.7,3.5-0.6
	c1,0,2,0.1,2.9,0.4c0.9,0.3,1.7,0.6,2.5,1.2l-0.5,1c-0.7-0.5-1.5-0.9-2.3-1.1c-0.8-0.3-1.7-0.4-2.5-0.4c-1.3-0.1-2.6,0.3-3.7,1
	c-0.8,0.6-1.3,1.5-1.3,2.5c0,0.7,0.2,1.4,0.7,1.9c0.5,0.5,1.1,0.9,1.7,1.1c0.9,0.3,1.8,0.6,2.8,0.8c1.1,0.2,2.1,0.6,3.1,0.9
	c0.8,0.3,1.5,0.8,2,1.4c0.6,0.7,0.9,1.6,0.8,2.5c0,0.8-0.2,1.7-0.7,2.4c-0.5,0.8-1.3,1.4-2.1,1.7c-1.1,0.5-2.3,0.7-3.5,0.6
	C268.1,30.6,266.9,30.4,265.7,30z"/>
<path class="st1" d="M281.1,30c-1-0.4-2-1-2.7-1.7l0.6-1c0.7,0.7,1.6,1.3,2.5,1.6c1.1,0.4,2.2,0.6,3.3,0.6c1.4,0.1,2.7-0.3,3.8-1
	c0.8-0.6,1.3-1.5,1.3-2.5c0-0.7-0.2-1.4-0.7-1.9c-0.5-0.5-1.1-0.9-1.7-1.1c-0.9-0.3-1.8-0.6-2.7-0.8c-1.1-0.2-2.1-0.6-3.1-0.9
	c-0.8-0.3-1.5-0.8-2-1.4c-0.6-0.7-0.9-1.6-0.8-2.5c0-0.8,0.2-1.7,0.7-2.4c0.5-0.7,1.2-1.3,2.1-1.7c1.1-0.5,2.3-0.7,3.5-0.6
	c1,0,2,0.1,2.9,0.4c0.9,0.3,1.7,0.6,2.4,1.2l-0.5,1c-0.7-0.5-1.5-0.9-2.3-1.1c-0.8-0.3-1.7-0.4-2.5-0.4c-1.3-0.1-2.6,0.3-3.7,1
	c-0.8,0.6-1.3,1.5-1.3,2.5c0,0.7,0.2,1.4,0.7,1.9c0.5,0.5,1.1,0.9,1.7,1.1c0.9,0.3,1.8,0.6,2.8,0.8c1.1,0.2,2.1,0.6,3.1,0.9
	c0.8,0.3,1.5,0.8,2,1.4c0.6,0.7,0.9,1.6,0.8,2.5c0,0.8-0.2,1.7-0.7,2.4c-0.5,0.8-1.3,1.4-2.1,1.7c-1.1,0.5-2.3,0.7-3.5,0.6
	C283.6,30.6,282.3,30.4,281.1,30z"/>
<path class="st1" d="M307.8,29.3v1.2h-12.2V12.8h11.8V14h-10.6v7h9.4v1.1h-9.4v7.3L307.8,29.3z"/>
<path class="st1" d="M323.4,30.5l-6.1-8.2l-6.1,8.2h-1.5l6.8-9.1l-6.3-8.6h1.5l5.6,7.6l5.6-7.6h1.4l-6.3,8.5l6.8,9.2H323.4z"/>
<rect x="158.6" y="40.5" class="st2" width="166.4" height="0.9"/>
<path class="st3" d="M92,101l-13.7-7.2L78,93.6l-0.2-0.1c-0.1-0.1-0.3-0.1-0.4-0.1h-0.1h-0.1l-0.3-0.1c-0.1,0-0.2,0-0.3,0
	c-0.1,0-0.2,0-0.3,0l-0.3,0.1H76h-0.1c-0.2,0-0.3,0.1-0.5,0.1l-0.2,0.1L75,93.7L61.3,101c-1.7,0.9-2.4,3-1.5,4.7
	c0.9,1.7,3,2.4,4.7,1.5l8-4.2c-2.5,11-11.1,19.5-22.1,21.8L55,116c0.9-1.7,0.2-3.8-1.5-4.7c-0.5-0.3-1.1-0.4-1.6-0.4
	c-1.3,0-2.5,0.7-3.1,1.9l-7.2,13.7c-0.3,0.6-0.4,1.3-0.3,1.9c0,0.1-0.1,0.3-0.1,0.4c0,0.1,0,0.2,0,0.2c0,0.2,0,0.3,0.1,0.5v0.1v0.1
	c0,0.2,0.1,0.3,0.1,0.5c0,0.1,0,0.2,0.1,0.2l7.2,13.8c0.6,1.1,1.8,1.9,3.1,1.9c0.6,0,1.1-0.1,1.6-0.4c1.7-0.9,2.3-3,1.5-4.7
	l-4.8-9.1c15.2-2.4,27.1-14.3,29.5-29.5l9.1,4.8c0.5,0.3,1.1,0.4,1.6,0.4c1.9,0,3.5-1.6,3.5-3.5C93.9,102.7,93.1,101.6,92,101
	L92,101z"/>
<path class="st4" d="M58.1,80.5v-0.2c0-0.1,0-0.2,0-0.3c0-0.1,0-0.1,0-0.2c0-0.1-0.1-0.2-0.1-0.2l-0.1-0.3v-0.1v-0.1
	c-0.1-0.1-0.2-0.3-0.3-0.4l-0.1-0.2c-0.1-0.1-0.1-0.1-0.2-0.2L46.1,67.6c-0.6-0.6-1.5-1-2.4-1c-1.9,0-3.5,1.5-3.5,3.4
	c0,1,0.4,1.9,1.1,2.5l6.4,6.3c-1,0.1-1.9,0.1-2.9,0.1c-10.2,0-19.7-5.5-24.7-14.5l9.8,1.7c0.2,0,0.4,0.1,0.6,0
	c1.9,0,3.5-1.6,3.5-3.5c0-1.7-1.2-3.1-2.9-3.4l-15.3-2.6c-0.2,0-0.4,0-0.5,0c-0.5,0-1,0.1-1.5,0.3c-0.1,0-0.3,0-0.4,0.1
	c-0.1,0-0.2,0.1-0.2,0.1c-0.1,0.1-0.3,0.1-0.4,0.2l-0.1,0l-0.1,0c-0.1,0.1-0.3,0.2-0.4,0.3c-0.1,0-0.1,0.1-0.2,0.2L1,69
	c-0.7,0.7-1,1.6-1,2.5C0,73.4,1.6,75,3.5,75c0.9,0,1.8-0.4,2.5-1.1l7.2-7.4c6,11.9,18.2,19.4,31.6,19.4c1.9,0,3.8-0.2,5.6-0.5
	l-1.7,10.1c-0.2,0.9,0.1,1.8,0.6,2.6c0.5,0.8,1.3,1.3,2.2,1.4c0.2,0,0.4,0,0.6,0c1.7,0,3.1-1.2,3.4-2.9l2.6-15.3c0-0.1,0-0.2,0-0.2
	c0-0.1,0-0.1,0-0.2C58.1,80.8,58.1,80.7,58.1,80.5z"/>
<path class="st1" d="M67.9,17l1.4,9.8c0.2,1.7,1.7,3,3.4,3c0.2,0,0.3,0,0.5,0c1.9-0.2,3.3-2,3-3.9c0,0,0,0,0,0l-2.2-15.4
	c-0.1-0.7-0.4-1.3-0.8-1.8c0-0.1-0.1-0.3-0.2-0.4c0-0.1-0.1-0.1-0.2-0.2c-0.1-0.1-0.2-0.2-0.4-0.3l-0.1-0.1l-0.1-0.1
	c-0.1-0.1-0.3-0.2-0.4-0.3l-0.2-0.1L57.8,0.4C56.1-0.4,54,0.3,53.2,2c-0.8,1.7-0.1,3.8,1.6,4.7l9.2,4.5C53,22.1,50.4,38.7,57.4,52.4
	l-10.2,1.5c-0.9,0.1-1.7,0.6-2.3,1.4c-0.6,0.7-0.8,1.7-0.7,2.6c0.2,1.7,1.7,3,3.4,3c0.2,0,0.3,0,0.5,0l15.4-2.2c0.1,0,0.1,0,0.2-0.1
	c0.1,0,0.2,0,0.3-0.1c0.1,0,0.2-0.1,0.3-0.1h0.1c0.1,0,0.2-0.1,0.3-0.1l0,0h0.1l0.1-0.1l0.1-0.1c0.1-0.1,0.2-0.1,0.2-0.2
	c0.2-0.1,0.3-0.3,0.4-0.4c0.1-0.1,0.1-0.2,0.2-0.2c0.1-0.1,0.1-0.1,0.1-0.2c0-0.1,0.1-0.1,0.1-0.2l6.9-13.9c0.8-1.7,0.1-3.8-1.6-4.7
	c-0.5-0.2-1-0.4-1.5-0.4c-1.3,0-2.6,0.8-3.1,2l-4,8.1c-4.5-10.3-2.5-22.4,5.1-30.7L67.9,17z"/>
<path class="st5" d="M139.9,30.6c-0.6-0.7-1.4-1.2-2.3-1.4c-0.2,0-0.3,0-0.5,0c-1.7,0-3.2,1.3-3.4,3l-1.5,10.2
	c-13.7-7-30.4-4.3-41.2,6.5l-4.5-9.2c-0.6-1.2-1.8-2-3.1-2c-0.5,0-1.1,0.1-1.5,0.4c-1.7,0.9-2.4,2.9-1.6,4.7l6.9,13.9
	c0,0.1,0.1,0.1,0.1,0.2c0,0,0.1,0.1,0.1,0.2l0.2,0.3c0.1,0.2,0.3,0.3,0.4,0.4c0.1,0.1,0.1,0.1,0.2,0.2l0.1,0.1l0,0
	c0,0,0.1,0.1,0.1,0.1h0.1l0,0c0.1,0.1,0.2,0.1,0.3,0.2h0.1c0.1,0.1,0.2,0.1,0.3,0.1c0.1,0,0.2,0,0.3,0.1c0.1,0,0.2,0.1,0.2,0.1
	l15.4,2.2c0.2,0,0.3,0,0.5,0c1.9,0,3.5-1.5,3.5-3.4c0-1.8-1.3-3.3-3-3.5l-8.9-1.3c8.5-7.4,20.5-9.2,30.8-4.5l-8.9,4.4
	c-1.7,0.9-2.4,2.9-1.6,4.7c0.6,1.2,1.8,1.9,3.1,1.9c0.5,0,1.1-0.1,1.5-0.4l13.9-6.9c0.6-0.3,1.1-0.7,1.4-1.3l0.1-0.1
	c0.1-0.1,0.2-0.2,0.2-0.3c0.1-0.1,0.1-0.2,0.1-0.2c0.1-0.2,0.2-0.4,0.3-0.6v-0.1c0-0.1,0.1-0.2,0.1-0.3c0-0.1,0-0.2,0.1-0.2
	l2.2-15.4C140.7,32.2,140.5,31.3,139.9,30.6z"/>
<path class="st2" d="M137.9,118c-0.3-1.7-1.7-2.9-3.4-2.9c-0.2,0-0.4,0-0.6,0l-10.1,1.8c2.4-15.2-5.3-30.2-19-37.2l7.4-7.2
	c1.4-1.3,1.4-3.5,0.1-4.9c-1.3-1.4-3.5-1.4-4.9-0.1L96.1,78.4c-0.1,0.1-0.1,0.1-0.2,0.2l-0.1,0.1l0,0l0,0c-0.1,0.1-0.2,0.3-0.3,0.4
	v0.1v0.1c0,0.1-0.1,0.2-0.1,0.3c0,0.1-0.1,0.2-0.1,0.2c0,0.1,0,0.2,0,0.2c0,0.1,0,0.2,0,0.3v0.2c0,0.2,0,0.3,0,0.5
	c0,0.1,0,0.1,0,0.2c0,0.1,0,0.2,0,0.2l2.6,15.3c0.3,1.7,1.7,2.9,3.4,2.9c0.2,0,0.4,0,0.6,0c1.9-0.3,3.2-2.1,2.8-4c0,0,0,0,0,0
	l-1.5-8.8c9.7,5.7,15.1,16.6,13.9,27.8l-6.9-7.1c-0.7-0.7-1.6-1.1-2.5-1c-1.9,0-3.5,1.6-3.5,3.5c0,0.9,0.4,1.8,1,2.4l10.8,11.1
	c0.5,0.5,1,0.8,1.7,0.9l0.2,0.1l0,0l0.2,0h0.1v0.1h1.2h0.4l15.3-2.6C137,121.7,138.2,119.9,137.9,118z"/>
</svg>
